<svg width="438" height="359" viewBox="0 0 438 359" fill="none" xmlns="http://www.w3.org/2000/svg">
<path d="M12.2664 122.001L24.5914 117.631L19.2908 110.555C19.028 108.992 18.9011 107.409 18.9115 105.824C18.9144 105.007 19.0542 104.197 19.3252 103.428C19.6244 102.459 20.0566 101.536 20.6095 100.687C20.7466 100.542 20.8342 100.358 20.8597 100.16C20.8852 99.9628 20.8473 99.7622 20.7513 99.5876C20.6554 99.4131 20.5065 99.2735 20.3261 99.1891C20.1456 99.1047 19.9431 99.0798 19.7476 99.1181C18.8857 99.3335 17.2653 101.299 16.5327 104.212C15.8001 107.125 13.8005 102.833 13.0852 101.29C12.3698 99.7472 9.7669 95.0586 9.10325 94.9121C8.13793 94.6966 7.73284 95.6964 8.52578 97.2219C9.31872 98.7475 11.3614 103.505 10.5167 103.867C9.67209 104.229 5.95735 96.2824 5.95735 96.2824C5.95735 96.2824 5.44022 94.4552 4.45767 94.8431C2.68218 95.5326 7.27605 103.677 7.73285 104.436C8.05174 104.97 7.15538 105.393 6.87096 104.807C6.58653 104.22 3.3286 96.7996 1.51863 97.4891C0.130991 98.0149 5.23337 104.22 5.05237 106.108C4.87138 107.996 1.66515 101.014 0.355076 101.566C-0.127581 101.773 -0.506812 101.997 1.95819 105.755C3.16544 107.513 4.46288 109.207 5.84531 110.831L12.2836 121.984" fill="#FFBE9D"/>
<path d="M123.2 137.067C123.2 137.067 117.116 122.863 112.918 115.96C108.962 109.461 103.722 108.41 100.929 108.203C99.7715 107.847 98.5825 107.601 97.3783 107.47L74.5813 107.289C69.5987 107.334 64.7848 109.1 60.9549 112.288C59.8948 113.15 52.0085 122.303 41.5365 135.335L23.2214 115.511L12.3013 121.976C12.3013 121.976 24.1609 162.924 39.0198 160.114C47.8628 158.468 54.7579 152.331 54.7579 152.331L66.3503 142.988L66.6175 144.54C66.8502 146.427 67.4363 149.478 67.8845 151.323C69.2807 157.175 70.065 164.88 67.0226 169.983C67.0226 169.983 62.8941 173.146 66.1607 176.619H109.126C109.126 176.619 115.211 172.491 109.652 167.906L106.204 159.192L108.454 148.556L109.315 144.299L113.099 150.78C113.099 150.78 120.58 160.192 128.363 159.037C137.715 157.641 143.136 140.601 134.698 118.071L124.528 121.165L123.2 137.067Z" fill="#ECE2B2"/>
<g opacity="0.4">
<path d="M12.2666 122.003L13.344 125.416L25.4794 118.013L23.1867 115.539L12.2666 122.003Z" fill="black"/>
</g>
<g opacity="0.2">
<path d="M67.0137 169.986C68.8195 169.716 70.552 169.083 72.1072 168.126C73.6623 167.169 75.0081 165.908 76.0635 164.418C77.1693 162.917 77.967 161.212 78.4108 159.402C78.8546 157.591 78.9356 155.711 78.6492 153.869C78.6022 153.214 78.4184 152.577 78.1096 151.998C77.8008 151.419 77.3739 150.911 76.8565 150.507C75.5033 149.645 73.6502 150.094 72.2453 149.344C71.0904 148.732 70.4785 147.473 69.6597 146.439C68.8409 145.405 67.7463 143.802 66.5569 144.319C66.5569 144.319 67.9962 151.904 68.6254 155.282C69.2546 158.661 69.4873 163.513 68.272 167.056C67.9605 168.075 67.5385 169.058 67.0137 169.986Z" fill="black"/>
</g>
<path d="M39.7778 142.288C39.7902 141.075 40.0057 139.871 40.4156 138.729C40.6792 137.551 41.0425 136.398 41.5016 135.281C41.4997 136.496 41.2838 137.701 40.8638 138.841C40.6003 140.019 40.237 141.172 39.7778 142.288Z" fill="#263238"/>
<path d="M42.5011 140.443C41.8487 138.816 41.4983 137.084 41.4668 135.332C41.8609 136.117 42.1119 136.967 42.208 137.84C42.4525 138.685 42.5516 139.565 42.5011 140.443Z" fill="#263238"/>
<path d="M124.432 90.2656L108.832 115.536L121.106 118.958L134.723 97.9537L124.432 90.2656Z" fill="#455A64"/>
<path d="M123.458 111.8L123.984 115.497L126.165 118.299L126.38 120.591L134.206 118.212L131.043 107.008C131.296 105.499 131.4 103.969 131.353 102.44L129.199 105.293L128.604 100.638L124.2 97.0961C124.085 97.0121 123.956 96.9515 123.818 96.9177C123.68 96.884 123.537 96.8777 123.397 96.8993C123.257 96.9209 123.123 96.97 123.001 97.0437C122.88 97.1174 122.775 97.2143 122.691 97.3288C122.543 97.536 122.473 97.7891 122.493 98.0431C122.514 98.2972 122.624 98.5358 122.803 98.7164L126.346 101.836L126.578 105.689L123.993 103.31C123.74 103.074 123.427 102.913 123.088 102.845L119.528 102.129C119.401 102.105 119.271 102.107 119.145 102.136C119.019 102.164 118.9 102.219 118.796 102.296C118.692 102.373 118.606 102.471 118.542 102.583C118.478 102.695 118.438 102.82 118.425 102.948C118.403 103.161 118.456 103.376 118.573 103.555C118.691 103.734 118.867 103.866 119.071 103.931L122.312 104.922L125.587 108.232L122.381 107.008L118.028 107.62C117.825 107.653 117.639 107.758 117.506 107.916C117.373 108.074 117.302 108.275 117.305 108.482C117.305 108.71 117.395 108.929 117.557 109.091C117.719 109.253 117.938 109.344 118.166 109.344L120.933 109.188L122.562 109.697L118.821 110.688C118.653 110.73 118.505 110.83 118.402 110.97C118.3 111.11 118.25 111.282 118.261 111.455C118.266 111.556 118.29 111.655 118.334 111.746C118.377 111.837 118.438 111.918 118.514 111.985C118.59 112.052 118.678 112.103 118.774 112.135C118.87 112.167 118.971 112.179 119.071 112.171L123.458 111.8Z" fill="#FFBE9D"/>
<g opacity="0.4">
<path d="M124.484 121.161L124.148 125.298L136.016 122.031L134.655 118.066L124.484 121.161Z" fill="black"/>
</g>
<path d="M108.832 115.576C108.832 115.576 107.781 114.154 107.867 113.913C107.953 113.672 122.709 89.375 122.709 89.375L124.432 90.3058L108.832 115.576Z" fill="#263238"/>
<path d="M128.337 96.6088C128.403 96.542 128.486 96.4937 128.577 96.4687C128.668 96.4436 128.764 96.4428 128.855 96.4661C128.947 96.4894 129.03 96.5361 129.098 96.6016C129.166 96.6672 129.216 96.7493 129.242 96.8398C129.269 96.9303 129.271 97.0262 129.249 97.118C129.227 97.2097 129.182 97.2942 129.118 97.3631C129.053 97.432 128.972 97.4829 128.882 97.5109C128.792 97.5388 128.696 97.5427 128.604 97.5224C128.519 97.4959 128.442 97.4501 128.378 97.3884C128.314 97.3268 128.266 97.251 128.236 97.1673C128.207 97.0835 128.198 96.9941 128.209 96.9061C128.221 96.8181 128.252 96.734 128.302 96.6605" fill="#263238"/>
<path d="M118.538 127.807C118.427 128.037 118.275 128.245 118.089 128.419C117.552 128.922 116.887 129.267 116.167 129.419C115.03 129.651 113.857 129.651 112.72 129.419C111.272 129.076 109.771 129.008 108.298 129.221C106.571 129.724 104.978 130.608 103.635 131.807C102.093 132.987 100.464 134.453 98.2746 135.142C97.1547 135.46 95.9825 135.551 94.827 135.409C93.644 135.228 92.4867 134.907 91.3794 134.453C89.1213 133.591 86.958 132.315 84.5791 131.453C82.2867 130.559 79.7764 130.385 77.3824 130.953C75.0467 131.436 72.8575 132.246 70.6769 132.677C66.7799 133.517 62.7116 132.955 59.1879 131.091C56.8015 129.861 54.7356 128.09 53.1547 125.92C52.579 125.136 52.096 124.289 51.7153 123.395C51.7757 123.395 52.1894 124.325 53.3012 125.816C54.9164 127.901 56.9779 129.597 59.3344 130.781C62.8087 132.572 66.8001 133.09 70.6165 132.246C72.7626 131.781 74.926 130.962 77.322 130.462C79.7981 129.868 82.3964 130.046 84.7688 130.971C87.1993 131.832 89.3712 133.108 91.5863 133.987C92.6607 134.429 93.783 134.745 94.9304 134.927C96.0274 135.06 97.14 134.978 98.2056 134.685C100.274 134.047 101.894 132.634 103.446 131.453C104.843 130.238 106.495 129.355 108.281 128.868C109.795 128.661 111.334 128.749 112.815 129.126C113.913 129.375 115.049 129.404 116.159 129.212C116.855 129.094 117.508 128.797 118.055 128.35C118.226 128.179 118.387 127.997 118.538 127.807Z" fill="#FAFAFA"/>
<path d="M123.45 144.22C123.18 142.966 123.061 141.684 123.097 140.402C122.978 139.124 123.015 137.836 123.209 136.566C123.479 137.82 123.598 139.102 123.562 140.385C123.681 141.663 123.644 142.951 123.45 144.22Z" fill="#263238"/>
<path d="M96.5676 302.696C96.9382 304.196 105.73 353.487 105.73 353.487L119.201 352.479L116.736 302.145L96.5676 302.696Z" fill="#FFBE9D"/>
<path d="M119.606 353.262L119.563 351.84L105.212 352.142L105.299 356.813H106.16C110.108 356.942 126.242 357.209 128.854 356.425C131.802 355.572 119.606 353.262 119.606 353.262Z" fill="#ECE2B2"/>
<g opacity="0.3">
<path d="M110.478 356.607C110.223 355.471 109.549 354.474 108.591 353.814C107.611 353.128 106.421 352.807 105.229 352.909L105.307 356.624L110.478 356.607Z" fill="black"/>
</g>
<g opacity="0.3">
<path d="M125.57 354.59C125.57 354.59 129.879 355.65 129.336 356.314C128.793 356.977 112.504 357.279 105.298 356.822V356.52L124.329 356.331C124.329 356.331 124.743 354.633 125.57 354.59Z" fill="black"/>
</g>
<path d="M105.092 356.516H105.333H106.04L108.625 356.576C110.823 356.576 113.848 356.619 117.201 356.576C120.554 356.533 123.579 356.404 125.777 356.292L128.363 356.145L129.061 356.094H128.354L125.768 356.189C123.579 356.266 120.545 356.37 117.201 356.421C113.857 356.473 110.823 356.49 108.625 356.49H105.092V356.516Z" fill="#263238"/>
<path d="M124.346 356.533C124.448 356.127 124.601 355.736 124.803 355.369C125.051 355.022 125.34 354.706 125.665 354.43C125.23 354.579 124.867 354.886 124.648 355.292C124.392 355.651 124.284 356.096 124.346 356.533Z" fill="#263238"/>
<path d="M120.088 354.615C120.088 354.615 120.321 354.408 120.528 354.097C120.735 353.787 120.855 353.52 120.812 353.494C120.769 353.468 120.58 353.701 120.381 354.011C120.183 354.322 120.045 354.589 120.088 354.615Z" fill="#263238"/>
<path d="M118.917 354.064C118.917 354.064 119.176 353.952 119.417 353.745C119.658 353.539 119.822 353.34 119.796 353.306C119.77 353.271 119.538 353.418 119.296 353.625C119.055 353.832 118.883 354.038 118.917 354.064Z" fill="#263238"/>
<path d="M118.158 352.826C118.399 352.907 118.655 352.933 118.908 352.903C119.158 352.929 119.411 352.9 119.649 352.817C119.407 352.741 119.152 352.715 118.899 352.74C118.649 352.72 118.397 352.75 118.158 352.826Z" fill="#263238"/>
<path d="M117.891 351.945C118.149 352.105 118.45 352.18 118.753 352.161C119.047 352.204 119.347 352.159 119.615 352.032C119.328 352.01 119.04 352.01 118.753 352.032C118.469 351.977 118.18 351.948 117.891 351.945Z" fill="#263238"/>
<path d="M120.545 353.452C120.851 353.5 121.162 353.5 121.468 353.452C121.796 353.41 122.12 353.335 122.433 353.227C122.629 353.178 122.817 353.102 122.993 353.003C123.045 352.976 123.092 352.938 123.129 352.892C123.166 352.846 123.193 352.793 123.209 352.736C123.225 352.672 123.219 352.604 123.192 352.543C123.166 352.483 123.12 352.432 123.062 352.4C122.712 352.239 122.318 352.2 121.943 352.289C121.568 352.378 121.234 352.59 120.994 352.891C120.859 353.061 120.762 353.258 120.709 353.469C120.709 353.615 120.709 353.702 120.709 353.702C120.791 353.433 120.926 353.184 121.106 352.969C121.313 352.735 121.582 352.565 121.881 352.478C122.24 352.356 122.631 352.375 122.976 352.529C123.122 352.624 123.071 352.788 122.916 352.874C122.751 352.964 122.578 353.036 122.398 353.09C122.092 353.197 121.778 353.28 121.459 353.34C120.899 353.452 120.545 353.452 120.545 353.452Z" fill="#263238"/>
<path d="M120.787 353.454C120.886 353.273 120.917 353.061 120.873 352.859C120.841 352.634 120.752 352.421 120.615 352.239C120.53 352.11 120.415 352.003 120.28 351.93C120.145 351.856 119.993 351.817 119.839 351.816C119.795 351.824 119.752 351.84 119.714 351.864C119.676 351.888 119.643 351.919 119.617 351.956C119.591 351.993 119.573 352.035 119.564 352.079C119.555 352.123 119.554 352.169 119.563 352.213C119.586 352.351 119.642 352.481 119.727 352.592C119.854 352.78 120.005 352.951 120.175 353.101C120.323 353.255 120.506 353.37 120.709 353.437C120.709 353.437 120.52 353.29 120.261 353.023C120.111 352.869 119.978 352.698 119.865 352.515C119.736 352.342 119.641 352.015 119.865 351.972C119.986 351.984 120.103 352.022 120.209 352.083C120.314 352.144 120.406 352.226 120.477 352.325C120.608 352.485 120.7 352.674 120.744 352.877C120.778 353.067 120.792 353.261 120.787 353.454Z" fill="#263238"/>
<path d="M105.298 352.871C105.298 352.871 105.712 352.828 106.358 352.871C107.192 352.954 107.991 353.251 108.677 353.733C109.336 354.202 109.85 354.847 110.159 355.595C110.392 356.163 110.418 356.543 110.452 356.543C110.471 356.455 110.471 356.364 110.452 356.275C110.422 356.032 110.367 355.792 110.289 355.56C109.998 354.771 109.475 354.089 108.789 353.604C108.081 353.097 107.245 352.798 106.376 352.742C106.115 352.716 105.852 352.716 105.591 352.742C105.393 352.828 105.298 352.854 105.298 352.871Z" fill="#263238"/>
<path d="M112.245 355.276C112.934 355.416 113.638 355.468 114.34 355.431C115.04 355.451 115.74 355.388 116.425 355.242C116.425 355.19 115.486 355.242 114.331 355.242C113.176 355.242 112.254 355.233 112.245 355.276Z" fill="#263238"/>
<path d="M109.444 355.33C109.444 355.33 109.522 355.511 109.625 355.709C109.729 355.908 109.78 356.08 109.832 356.08C109.884 356.08 109.901 355.864 109.78 355.64C109.66 355.416 109.479 355.296 109.444 355.33Z" fill="#263238"/>
<path d="M108.367 354.13C108.367 354.13 108.428 354.302 108.574 354.44C108.721 354.578 108.876 354.664 108.91 354.63C108.945 354.595 108.85 354.457 108.695 354.32C108.54 354.182 108.393 354.104 108.367 354.13Z" fill="#263238"/>
<path d="M106.841 353.599C106.841 353.642 107.039 353.642 107.255 353.702C107.47 353.762 107.617 353.866 107.651 353.84C107.686 353.814 107.565 353.624 107.306 353.547C107.048 353.469 106.824 353.555 106.841 353.599Z" fill="#263238"/>
<path d="M105.756 353.361C105.756 353.361 105.825 353.465 105.945 353.508C106.066 353.551 106.178 353.551 106.195 353.508C106.212 353.465 106.126 353.396 106.006 353.353C105.885 353.309 105.773 353.318 105.756 353.361Z" fill="#263238"/>
<path d="M62.2988 298.586C62.2299 300.129 56.6362 348.127 56.6362 348.127L69.8145 351.049L81.9758 302.146L62.2988 298.586Z" fill="#FFBE9D"/>
<path d="M70.4092 352.324L70.7108 350.945L56.6965 347.816L55.6709 352.376L56.5328 352.617C60.3337 353.686 75.9425 357.788 78.6747 357.642C81.7086 357.478 70.4092 352.324 70.4092 352.324Z" fill="#ECE2B2"/>
<g opacity="0.3">
<path d="M60.7907 353.449C60.8176 352.286 60.4017 351.155 59.6271 350.286C58.8392 349.385 57.759 348.79 56.576 348.605L55.7659 352.234L60.7907 353.449Z" fill="black"/>
</g>
<g opacity="0.3">
<path d="M75.8906 355.04C75.8906 355.04 79.7949 357.091 79.1399 357.625C78.4848 358.16 62.5658 354.549 55.6707 352.394L55.7568 352.109L74.2875 356.419C74.2875 356.419 75.0718 354.885 75.8906 355.04Z" fill="black"/>
</g>
<path d="M55.542 352.031L55.7747 352.109L56.4556 352.307L58.9637 352.979C61.0926 353.531 64.0316 354.264 67.2981 355.005C70.5647 355.746 73.5382 356.358 75.6929 356.772L78.2786 357.246L78.9767 357.358H79.2267L78.9854 357.297L78.2958 357.151L75.7102 356.625C73.5555 356.177 70.5906 355.556 67.324 354.815C64.0574 354.074 61.1184 353.359 58.9809 352.833L56.4814 352.247L55.7919 352.083C55.7116 352.053 55.6274 352.036 55.542 352.031Z" fill="#263238"/>
<path d="M74.2361 356.635C74.4349 356.265 74.678 355.92 74.9601 355.609C75.2886 355.334 75.6471 355.097 76.0288 354.902C75.5742 354.953 75.1525 355.164 74.8394 355.497C74.4989 355.784 74.2827 356.192 74.2361 356.635Z" fill="#263238"/>
<path d="M70.5557 353.76C70.5557 353.76 70.8401 353.613 71.1073 353.355C71.3745 353.096 71.5641 352.872 71.5296 352.846C71.4951 352.82 71.2538 352.993 70.9866 353.243C70.7194 353.493 70.5212 353.725 70.5557 353.76Z" fill="#263238"/>
<path d="M69.5479 352.953C69.7482 352.934 69.9408 352.866 70.1081 352.754C70.3925 352.608 70.608 352.453 70.5821 352.418C70.5563 352.384 70.3063 352.461 70.0219 352.608C69.7375 352.754 69.5306 352.91 69.5479 352.953Z" fill="#263238"/>
<path d="M69.1082 351.565C68.2061 351.548 67.3321 351.878 66.666 352.486C65.9999 353.095 65.5924 353.935 65.5275 354.835C65.4625 355.735 65.745 356.626 66.3168 357.323C66.8886 358.021 67.7062 358.473 68.6013 358.586C69.4963 358.7 70.4007 358.465 71.1281 357.932C71.8556 357.398 72.3509 356.606 72.5119 355.718C72.673 354.831 72.4876 353.915 71.9939 353.16C71.5002 352.405 70.7358 351.868 69.858 351.659C69.6173 351.576 69.362 351.544 69.1082 351.565Z" fill="#263238"/>
<path d="M69.0562 350.645C69.2634 350.852 69.5273 350.992 69.8146 351.05C70.0882 351.158 70.3868 351.188 70.6765 351.136C70.4148 351.03 70.1435 350.949 69.8663 350.894C69.6026 350.792 69.3319 350.708 69.0562 350.645Z" fill="#263238"/>
<path d="M71.2803 352.74C71.556 352.848 71.8468 352.912 72.1422 352.93C72.4747 352.962 72.8094 352.962 73.142 352.93C73.3397 352.921 73.5361 352.892 73.728 352.844C73.8455 352.813 73.947 352.739 74.0125 352.637C74.0393 352.576 74.0479 352.508 74.0372 352.443C74.0265 352.377 73.9969 352.316 73.9521 352.266C73.6485 352.028 73.2737 351.898 72.8877 351.898C72.5017 351.898 72.1269 352.028 71.8233 352.266C71.6474 352.396 71.503 352.564 71.4009 352.758C71.332 352.887 71.3234 352.973 71.332 352.973C71.478 352.735 71.6682 352.528 71.8922 352.361C72.146 352.184 72.4449 352.082 72.7541 352.068C73.1313 352.034 73.5072 352.145 73.8056 352.378C73.9263 352.508 73.8056 352.646 73.6591 352.697C73.4816 352.746 73.2997 352.778 73.1161 352.792C72.7918 352.813 72.4665 352.813 72.1422 352.792C71.625 352.783 71.2889 352.715 71.2803 352.74Z" fill="#263238"/>
<path d="M71.5035 352.826C71.5035 352.826 71.6931 352.662 71.7362 352.274C71.7543 352.047 71.7158 351.819 71.6242 351.611C71.5722 351.465 71.4853 351.335 71.371 351.231C71.2568 351.128 71.1188 351.054 70.9691 351.016C70.9243 351.014 70.8794 351.02 70.8372 351.036C70.795 351.051 70.7563 351.075 70.7233 351.105C70.6904 351.136 70.6639 351.173 70.6454 351.214C70.6269 351.254 70.6169 351.299 70.6158 351.344C70.6058 351.482 70.6294 351.621 70.6847 351.749C70.7619 351.96 70.8662 352.159 70.995 352.343C71.1046 352.527 71.255 352.684 71.4346 352.8C71.4346 352.8 71.288 352.611 71.0984 352.292C70.991 352.105 70.9015 351.909 70.8312 351.706C70.745 351.499 70.7364 351.163 70.9691 351.18C71.2019 351.197 71.3828 351.464 71.4777 351.662C71.5679 351.851 71.615 352.057 71.6156 352.266C71.599 352.456 71.5614 352.644 71.5035 352.826Z" fill="#263238"/>
<path d="M56.6104 348.547C56.6104 348.547 57.0154 348.599 57.636 348.814C58.4263 349.082 59.1333 349.552 59.6873 350.176C60.216 350.793 60.5622 351.545 60.6871 352.348C60.7224 352.674 60.7397 353.002 60.7388 353.33C60.7388 353.33 60.7819 353.236 60.7991 353.072C60.8263 352.826 60.8263 352.577 60.7991 352.331C60.7046 351.499 60.3623 350.715 59.8166 350.081C59.2395 349.431 58.4937 348.954 57.6619 348.702C57.409 348.625 57.1492 348.573 56.8862 348.547C56.7949 348.531 56.7016 348.531 56.6104 348.547Z" fill="#263238"/>
<path d="M62.7817 352.54C63.4149 352.84 64.084 353.057 64.7727 353.186C65.45 353.373 66.1475 353.478 66.8499 353.496C66.8499 353.453 65.9276 353.298 64.8158 353.031C63.704 352.764 62.799 352.497 62.7817 352.54Z" fill="#263238"/>
<path d="M60.0491 351.917C60.0491 351.917 60.0491 352.115 60.1353 352.33C60.2215 352.546 60.1956 352.727 60.2473 352.735C60.299 352.744 60.368 352.546 60.3076 352.304C60.2473 352.063 60.0835 351.891 60.0491 351.917Z" fill="#263238"/>
<path d="M59.2827 350.499C59.2827 350.499 59.2827 350.68 59.4206 350.844C59.5585 351.008 59.6619 351.129 59.6964 351.111C59.7309 351.094 59.6964 350.93 59.5671 350.767C59.4379 350.603 59.3258 350.474 59.2827 350.499Z" fill="#263238"/>
<path d="M57.929 349.616C57.929 349.668 58.1186 349.702 58.3082 349.814C58.4978 349.926 58.6271 350.064 58.6702 350.047C58.7133 350.03 58.6702 349.814 58.3944 349.677C58.1186 349.539 57.929 349.573 57.929 349.616Z" fill="#263238"/>
<path d="M56.9382 349.146C56.9382 349.146 56.9813 349.267 57.0848 349.336C57.1882 349.405 57.3002 349.43 57.3261 349.387C57.3519 349.344 57.3261 349.267 57.1796 349.198C57.033 349.129 56.9641 349.094 56.9382 349.146Z" fill="#263238"/>
<path d="M111.771 84.8174C111.418 83.7917 110.547 83.0246 110.125 82.0248C109.496 80.5252 109.961 78.8272 110.125 77.2155C110.289 75.6038 109.953 73.6387 108.479 72.975C107.834 72.8069 107.2 72.5967 106.583 72.3458C105.428 71.6218 105.488 69.9843 105.385 68.6311C105.315 67.7363 105.087 66.8609 104.712 66.0454L104.954 65.9678C105.827 65.7564 106.747 65.859 107.552 66.2577C108.357 66.6564 108.997 67.3257 109.358 68.1484C109.517 68.4927 109.587 68.8717 109.56 69.2501C109.532 69.6285 109.41 69.9938 109.203 70.3118C109.025 70.5766 108.764 70.7741 108.461 70.8726C108.158 70.9711 107.83 70.9648 107.531 70.8548C107.299 70.734 107.114 70.5402 107.003 70.3034C106.892 70.0666 106.863 69.8 106.919 69.5447C106.991 69.3602 107.125 69.2063 107.298 69.1089C107.471 69.0116 107.672 68.9768 107.867 69.0103C107.998 69.0214 108.124 69.0602 108.239 69.1241C108.353 69.188 108.453 69.2755 108.531 69.3809C108.634 69.5361 108.643 69.6481 108.66 69.6395C108.677 69.6309 108.66 69.5275 108.66 69.3378C108.587 69.1994 108.483 69.0798 108.356 68.9885C108.228 68.8973 108.082 68.8369 107.927 68.8121C107.705 68.7707 107.476 68.7885 107.264 68.8638C107.13 68.9134 107.01 68.9916 106.91 69.0929C106.81 69.1941 106.734 69.316 106.686 69.4499C106.586 69.7756 106.603 70.1258 106.734 70.4404C106.864 70.755 107.101 71.0143 107.402 71.1737C107.778 71.3384 108.199 71.3684 108.595 71.2585C108.991 71.1486 109.336 70.9055 109.573 70.5703C109.835 70.198 109.997 69.7644 110.042 69.3114C110.087 68.8585 110.015 68.4015 109.832 67.9847C109.47 67.1117 108.829 66.3839 108.008 65.9158C107.187 65.4477 106.234 65.2659 105.299 65.399C105.501 65.057 105.63 64.6761 105.676 64.2811C105.722 63.8861 105.684 63.4859 105.566 63.1064C105.407 62.6439 105.146 62.2236 104.801 61.8772C104.456 61.5307 104.037 61.2673 103.575 61.1068C102.766 60.8093 101.886 60.7613 101.049 60.9689C100.342 61.1409 99.6683 61.4323 99.0584 61.8308C98.4982 62.1928 98.0673 62.5892 97.6536 62.8564C97.3109 63.1038 96.9101 63.2582 96.49 63.3046C96.1287 63.3379 95.7657 63.2629 95.4471 63.0891C95.4471 63.0891 95.7143 63.5028 96.4986 63.5028C96.9615 63.4901 97.4118 63.3499 97.8001 63.0978C98.2569 62.8392 98.7137 62.4513 99.2481 62.1324C99.8467 61.7176 100.533 61.4465 101.254 61.3404C101.974 61.2343 102.71 61.2959 103.402 61.5205C103.802 61.6577 104.165 61.8843 104.464 62.183C104.762 62.4817 104.989 62.8447 105.126 63.2443C105.254 63.6449 105.266 64.0735 105.161 64.4806C105.055 64.8878 104.837 65.2569 104.531 65.5455C104.095 64.7515 103.451 64.0904 102.67 63.6321C100.946 62.6582 98.3603 63.1322 97.4984 64.9077L83.3548 60.0467C82.4681 59.3013 81.4079 58.7914 80.2721 58.5639C79.1363 58.3365 77.9615 58.3988 76.8562 58.7452L76.5632 58.6935C75.7465 58.6169 74.9238 58.7535 74.1757 59.09C73.2369 59.6166 72.418 60.3327 71.7711 61.193C71.3833 61.6393 70.9265 62.0205 70.4179 62.3221C70.328 62.3618 70.2359 62.3963 70.1421 62.4255C69.5156 62.4962 68.8846 62.5193 68.2546 62.4944C67.0652 62.2186 65.8326 61.5377 64.3674 61.3912C63.5483 61.2804 62.7152 61.3391 61.9197 61.5636C61.0746 61.8125 60.3162 62.2932 59.7305 62.9512C59.1147 63.641 58.7768 64.5347 58.7824 65.4593C58.7937 66.1228 58.8981 66.7814 59.0927 67.4158C58.7748 68.2691 58.634 69.1782 58.679 70.0877C58.7393 71.2857 59.0841 72.5441 59.1013 73.7162C58.7549 73.9868 58.36 74.1887 57.9378 74.3109C57.1965 74.5436 56.395 74.6557 55.6365 74.9487C54.9264 75.2379 54.2866 75.6761 53.7602 76.2337C53.2339 76.7912 52.8333 77.4552 52.5854 78.1808C52.3484 78.7605 52.259 79.39 52.3251 80.0127C52.3913 80.6355 52.6111 81.2321 52.9647 81.749C52.7837 82.5356 52.7794 83.3526 52.9523 84.1411C53.1252 84.9295 53.4709 85.6697 53.9645 86.3084C54.7491 87.0539 55.4887 87.8454 56.1795 88.6786C57.1103 90.118 56.9724 91.971 57.2138 93.6689C57.4551 95.3669 58.429 97.2975 60.1442 97.4095C61.5232 97.4957 62.7299 96.3408 64.1434 96.4529C66.074 96.608 66.8669 98.9265 67.9874 100.512C68.7108 101.509 69.6879 102.293 70.8171 102.784C71.9462 103.275 73.1863 103.455 74.4084 103.305C76.1322 103.072 77.9077 102.141 79.6229 102.572C81.7862 103.124 83.0704 105.658 85.3027 105.977C86.9403 106.209 88.4658 105.115 89.6897 103.994C90.9136 102.874 92.1461 101.581 93.7837 101.288C95.7488 100.935 97.645 102.15 99.6273 102.391C100.914 102.545 102.218 102.318 103.376 101.737C104.535 101.156 105.497 100.248 106.143 99.1247C107.229 97.151 107.221 94.7291 108.246 92.7209C109.031 91.4416 109.894 90.2125 110.832 89.0406C111.642 87.8253 112.271 86.2653 111.771 84.8174ZM55.0591 78.4566C54.9 78.4226 54.7355 78.4226 54.5764 78.4566C54.5764 78.4566 54.7229 78.4566 54.9642 78.5514L54.697 78.7497C53.8901 79.4218 53.3069 80.3236 53.025 81.3353C52.8114 80.8771 52.6936 80.3801 52.6787 79.8747C52.6639 79.3693 52.7524 78.8662 52.9388 78.3963C53.1756 77.7355 53.5501 77.1325 54.0374 76.6273C54.5248 76.1221 55.1139 75.7262 55.7658 75.4659C56.4553 75.2073 57.2396 75.0952 58.0412 74.8539C58.3884 74.7561 58.7194 74.608 59.0237 74.4144C58.9871 74.8838 58.8489 75.3396 58.6186 75.7503C57.8774 77.0345 56.3088 77.5775 55.0591 78.4566ZM64.7122 62.5979C63.5665 62.8143 62.4877 63.2967 61.5625 64.0063C60.6374 64.7159 59.8918 65.6328 59.3857 66.6832C59.2979 66.2956 59.2517 65.8998 59.2478 65.5024C59.2438 64.6971 59.5351 63.9183 60.0666 63.3132C60.5992 62.7521 61.2606 62.3293 61.9936 62.0815C62.7265 61.8336 63.5088 61.7683 64.2726 61.8911C65.0666 61.9954 65.845 62.1951 66.5911 62.4858C65.9629 62.4756 65.3348 62.5131 64.7122 62.5979ZM71.8055 62.0032C71.6332 62.0807 71.4522 62.1324 71.2798 62.1928C71.5311 61.9645 71.7699 61.7228 71.9952 61.4688C72.6054 60.6336 73.3724 59.9252 74.2533 59.383C74.9039 59.0636 75.6233 58.9096 76.3477 58.9348C75.9738 59.0716 75.6155 59.2478 75.2789 59.4606C74.0723 60.2363 73.1156 61.3998 71.8055 62.0032Z" fill="#263238"/>
<path d="M102.463 91.609C103.136 87.3685 102.929 80.4044 102.567 74.7073C102.491 73.4931 102.17 72.3069 101.624 71.2199C101.077 70.133 100.316 69.1679 99.3872 68.3828C98.4579 67.5976 97.3793 67.0087 96.2164 66.6514C95.0535 66.2942 93.8303 66.176 92.6205 66.3039L77.8046 67.8726C77.0574 67.9503 76.3667 68.3065 75.8701 68.8702C75.3734 69.4339 75.1071 70.1639 75.1242 70.915L76.6497 107.313H73.2021V113.906C73.2021 117.527 74.6405 120.999 77.2008 123.56C79.7611 126.12 83.2337 127.558 86.8545 127.558C90.4753 127.558 93.9478 126.12 96.5081 123.56C99.0684 120.999 100.507 117.527 100.507 113.906V108.2C100.507 108.2 96.9558 107.037 94.8011 107.157H94.2753C94.2753 103.822 94.5511 101.21 94.5511 101.21C94.5511 101.21 101.11 100.15 102.463 91.609Z" fill="#FFBE9D"/>
<path d="M100.351 80.2324C100.352 80.5177 100.241 80.792 100.044 80.9977C99.8459 81.2034 99.5762 81.3245 99.2912 81.3356C99.1514 81.3474 99.0107 81.3308 98.8775 81.2869C98.7443 81.243 98.6213 81.1727 98.5159 81.0802C98.4105 80.9876 98.3248 80.8748 98.264 80.7484C98.2032 80.622 98.1686 80.4846 98.1621 80.3445C98.1619 80.0592 98.2722 79.7849 98.4699 79.5792C98.6675 79.3735 98.9372 79.2524 99.2222 79.2413C99.3618 79.2307 99.502 79.2481 99.6347 79.2925C99.7674 79.3369 99.8899 79.4073 99.9951 79.4996C100.1 79.5919 100.186 79.7042 100.247 79.8301C100.308 79.9559 100.344 80.0927 100.351 80.2324Z" fill="#263238"/>
<path d="M101.058 78.3386C100.92 78.4765 100.093 77.8646 98.9119 77.8646C97.7311 77.8646 96.8692 78.4593 96.74 78.3127C96.6107 78.1662 96.8175 77.9938 97.1968 77.718C97.7046 77.3707 98.3053 77.1844 98.9205 77.1837C99.5392 77.1793 100.143 77.3725 100.644 77.7353C100.998 78.0111 101.127 78.2696 101.058 78.3386Z" fill="#263238"/>
<path d="M88.8277 80.2324C88.8302 80.5169 88.7218 80.7912 88.5255 80.9971C88.3292 81.203 88.0605 81.3245 87.7762 81.3356C87.6364 81.3474 87.4957 81.3308 87.3625 81.2869C87.2293 81.243 87.1063 81.1727 87.0009 81.0802C86.8955 80.9876 86.8098 80.8748 86.749 80.7484C86.6882 80.622 86.6536 80.4846 86.6471 80.3445C86.6424 80.0594 86.7501 79.7839 86.9469 79.5774C87.1436 79.371 87.4136 79.2503 87.6986 79.2413C87.8381 79.2307 87.9784 79.2481 88.1111 79.2925C88.2438 79.3369 88.3663 79.4073 88.4715 79.4996C88.5766 79.5919 88.6623 79.7042 88.7235 79.8301C88.7846 79.9559 88.8201 80.0927 88.8277 80.2324Z" fill="#263238"/>
<path d="M89.4743 78.5568C89.3364 78.7033 88.509 78.0913 87.3282 78.0913C86.1474 78.0913 85.2855 78.686 85.1562 78.5395C85.0269 78.393 85.2338 78.2206 85.613 77.9448C86.1171 77.5898 86.7203 77.4028 87.3368 77.4104C87.9561 77.4017 88.5614 77.5954 89.0606 77.962C89.414 78.2379 89.5432 78.5137 89.4743 78.5568Z" fill="#263238"/>
<path d="M93.7495 87.2942C94.3705 87.1001 95.0132 86.9842 95.6629 86.9494C95.9646 86.9494 96.249 86.8632 96.3007 86.6564C96.3191 86.356 96.2503 86.0566 96.1024 85.7945C95.818 85.0705 95.525 84.3034 95.2406 83.5018C94.0081 80.2439 93.1117 77.5634 93.2496 77.5117C94.2236 79.3839 95.0507 81.3291 95.7232 83.3295C96.0163 84.1396 96.3007 84.8981 96.5851 85.6393C96.7755 86.002 96.8305 86.4206 96.7403 86.8201C96.6953 86.9262 96.627 87.0209 96.5405 87.097C96.4539 87.1731 96.3513 87.2287 96.2404 87.2597C96.0747 87.3052 95.9036 87.3284 95.7318 87.3286C95.0723 87.402 94.4061 87.3904 93.7495 87.2942Z" fill="#263238"/>
<path d="M94.5684 101.242C90.547 101.304 86.5875 100.248 83.1311 98.1914C83.1311 98.1914 85.9064 104.061 94.4477 103.259L94.5684 101.242Z" fill="#EB996E"/>
<path d="M93.2492 90.1382C93.025 89.8554 92.7325 89.6342 92.3993 89.4955C92.0661 89.3568 91.7031 89.3051 91.3445 89.3452C91.0845 89.3698 90.8322 89.4465 90.6026 89.5709C90.3731 89.6953 90.171 89.8648 90.0085 90.0692C89.85 90.2651 89.7558 90.5052 89.7389 90.7567C89.7219 91.0081 89.783 91.2586 89.9137 91.4741C90.1049 91.6823 90.3529 91.8299 90.6271 91.8989C90.9012 91.9678 91.1896 91.9549 91.4565 91.8619C92.01 91.6742 92.5221 91.3815 92.9648 91.0001C93.098 90.9043 93.212 90.7845 93.301 90.6467C93.3454 90.582 93.3692 90.5054 93.3692 90.4269C93.3692 90.3484 93.3454 90.2718 93.301 90.2071" fill="#EB996E"/>
<path d="M90.284 88.1095C90.4736 88.1095 90.4736 89.3765 91.5682 90.2815C92.6628 91.1865 94.0246 91.0486 94.0332 91.2296C94.0418 91.4106 93.7316 91.4795 93.1713 91.4968C92.4234 91.5063 91.6963 91.2497 91.12 90.7728C90.5606 90.3217 90.2014 89.6683 90.1202 88.9542C90.0944 88.4198 90.1978 88.1009 90.284 88.1095Z" fill="#263238"/>
<path d="M90 76.4911C89.8879 76.81 88.7071 76.6549 87.3281 76.8273C85.9491 76.9996 84.8286 77.3703 84.6476 77.0772C84.5615 76.9479 84.7597 76.6463 85.2079 76.336C85.8049 75.9448 86.4883 75.7051 87.1988 75.6379C87.9062 75.5529 88.6237 75.6356 89.2932 75.8792C89.8017 76.086 90.0948 76.336 90 76.4911Z" fill="#263238"/>
<path d="M100.627 75.9228C100.42 76.1899 99.6017 75.9228 98.6277 75.9228C97.6538 75.9228 96.8264 76.1038 96.6368 75.8193C96.5506 75.6814 96.6368 75.4142 97.0419 75.1643C97.5246 74.8561 98.0899 74.7027 98.6622 74.7247C99.2362 74.7337 99.7933 74.9204 100.257 75.2591C100.601 75.5177 100.714 75.7935 100.627 75.9228Z" fill="#263238"/>
<path d="M105.747 67.0903C105.16 64.8149 103.437 62.7119 101.127 62.2809C99.6185 62.0051 98.0757 62.4447 96.5502 62.3499C95.2832 62.2723 94.8264 61.2639 93.6284 60.8674C91.6288 60.2124 90.0947 57.9887 85.7766 58.4541C84.6217 58.5834 83.1392 59.9193 82.0791 61.4363C80.4243 60.7209 78.2437 61.488 77.0543 62.0137C74.5807 63.0911 73.0379 65.875 72.5466 68.702C72.0553 71.529 72.4604 74.4335 72.8569 77.2778C73.0379 78.5706 73.2189 79.8634 73.4085 81.1735C73.4788 82.0361 73.7098 82.878 74.0894 83.6557L72.1243 101.928C73.1079 102.242 74.1454 102.353 75.1733 102.254C76.2012 102.154 77.1981 101.846 78.103 101.348C79.0079 100.851 79.802 100.174 80.4367 99.3592C81.0714 98.5446 81.5335 97.6091 81.7947 96.6099C82.5531 93.0159 80.5535 89.3614 80.8724 85.6984C81.0621 83.5178 82.2946 81.4924 82.2859 79.3032C82.2718 78.5834 82.1676 77.8682 81.9757 77.1743C85.4232 74.356 86.3368 72.0892 86.1903 69.4173C87.2542 70.1613 88.5125 70.5777 89.8102 70.6154C91.6374 70.6154 93.5422 69.9259 95.2487 70.6154C96.4234 71.2164 97.4596 72.0559 98.2912 73.0804C99.2307 74.0112 100.446 74.8645 101.739 74.6835C102.357 74.5373 102.958 74.3264 103.531 74.0543C103.82 73.9178 104.135 73.847 104.454 73.847C104.773 73.847 105.088 73.9178 105.376 74.0543C106.074 71.7994 106.201 69.4065 105.747 67.0903Z" fill="#263238"/>
<path d="M54.6885 85.8026C55.5724 86.4436 56.5231 86.9869 57.5241 87.423C58.6984 87.9176 59.9562 88.1838 61.2302 88.2073C62.9191 88.2523 64.5778 87.7538 65.962 86.7852C66.7922 86.212 67.4927 85.4708 68.0183 84.6097C68.5439 83.7485 68.8828 82.7866 69.0131 81.7862C69.147 80.6758 68.9204 79.5518 68.3666 78.58C68.0803 78.0821 67.6741 77.6636 67.1849 77.3625C66.6957 77.0615 66.139 76.8875 65.5655 76.8562C64.9797 76.841 64.4069 77.0299 63.9452 77.3906C63.4767 77.7823 63.1298 78.2996 62.9454 78.8816C62.742 79.4816 62.6954 80.1236 62.81 80.7466C62.9247 81.3697 63.1968 81.953 63.6004 82.4413C64.4784 83.4617 65.6641 84.1695 66.979 84.4581C68.337 84.7784 69.7481 84.802 71.1161 84.527C72.4887 84.2538 73.7785 83.6635 74.8825 82.8032C75.9511 81.9757 76.7614 80.8604 77.2182 79.5884C77.6667 78.3645 77.774 77.0417 77.5285 75.7616C77.4114 75.1561 77.1959 74.5738 76.8907 74.0378C76.6118 73.5011 76.2138 73.0353 75.7272 72.6761C75.2761 72.3186 74.7247 72.1107 74.1499 72.0814C73.8833 72.0723 73.6194 72.1366 73.3868 72.2674C73.1543 72.3981 72.9621 72.5901 72.8312 72.8226C72.5803 73.2967 72.5217 73.8492 72.6675 74.3654C72.8335 74.8781 73.1306 75.3386 73.5294 75.7013C74.9479 76.9014 76.7642 77.5271 78.6209 77.4553C80.4775 77.3835 82.2401 76.6195 83.5617 75.3134C84.4489 74.3989 85.0972 73.28 85.4493 72.0555C85.7397 71.0073 85.8304 69.9138 85.7165 68.832C85.7961 69.1129 85.8424 69.4022 85.8544 69.6939C85.9156 70.5138 85.8399 71.3381 85.6303 72.1331C85.2887 73.3981 84.6437 74.5608 83.7514 75.5203C82.5368 76.7884 80.9123 77.5854 79.1661 77.7698C78.1131 77.906 77.0433 77.819 76.0261 77.5146C75.009 77.2102 74.0672 76.6951 73.2622 76.0029C72.8156 75.5952 72.4879 75.0739 72.3141 74.4946C72.1388 73.8745 72.2098 73.2106 72.5123 72.6416C72.6787 72.3461 72.922 72.1011 73.2164 71.9326C73.5108 71.7642 73.8453 71.6786 74.1844 71.6849C74.8514 71.7124 75.4932 71.9474 76.0202 72.3572C76.5561 72.7501 76.9953 73.26 77.3044 73.8482C77.6369 74.4359 77.8726 75.0732 78.0026 75.7358C78.2708 77.0954 78.1605 78.5026 77.6837 79.8039C77.2009 81.1634 76.3434 82.3587 75.21 83.2514C74.0453 84.1483 72.688 84.762 71.2454 85.0442C69.82 85.3284 68.3501 85.3019 66.9359 84.9666C65.524 84.6524 64.2513 83.8906 63.3074 82.7946C62.862 82.2372 62.5655 81.5759 62.4455 80.8726C62.3391 80.1797 62.3952 79.4716 62.6092 78.8041C62.8176 78.1312 63.2157 77.5327 63.7555 77.0803C64.3029 76.6594 64.9787 76.4402 65.6689 76.4597C66.3156 76.4944 66.9428 76.6929 67.4917 77.0367C68.0405 77.3804 68.4928 77.8581 68.8062 78.4248C69.3925 79.473 69.6309 80.6801 69.4871 81.8724C69.3435 82.9226 68.9798 83.9307 68.4199 84.8307C67.8599 85.7307 67.1164 86.5025 66.2378 87.0955C64.7981 88.0896 63.0729 88.586 61.325 88.509C60.0223 88.472 58.7396 88.1791 57.55 87.6471C56.7959 87.3236 56.0839 86.9098 55.4297 86.4146C55.2056 86.2508 55.0505 86.1043 54.9384 86.0181L54.6885 85.8026Z" fill="#455A64"/>
<path d="M106.247 70.949C106.125 71.0647 105.985 71.1606 105.833 71.2334C105.411 71.4691 104.954 71.6377 104.48 71.7333C103.724 71.887 102.944 71.887 102.188 71.7333C101.187 71.4968 100.261 71.0172 99.4898 70.337C98.5612 69.5107 97.8357 68.4814 97.3696 67.329C97.2147 66.9973 97.1287 66.6376 97.1169 66.2717C97.105 65.9057 97.1675 65.5412 97.3006 65.2002C97.4654 64.8323 97.7473 64.5293 98.1022 64.3383C98.2938 64.2386 98.5067 64.1865 98.7228 64.1865C98.9388 64.1865 99.1517 64.2386 99.3433 64.3383C99.7125 64.5528 99.9984 64.8857 100.155 65.283C100.311 65.6803 100.329 66.1188 100.205 66.5275C100.055 66.928 99.825 67.2937 99.5285 67.6019C99.2321 67.9102 98.8758 68.1547 98.4814 68.3202C96.8938 69.0055 95.0993 69.0334 93.4911 68.3978C92.6876 68.1078 91.9164 67.7352 91.1899 67.2859C90.4641 66.8656 89.8047 66.3399 89.2334 65.7259C88.9272 65.4011 88.7408 64.9817 88.7048 64.5368C88.6688 64.0919 88.7853 63.648 89.0351 63.2782C89.1825 63.0989 89.3759 62.9633 89.5946 62.8859C89.8133 62.8084 90.049 62.7921 90.2763 62.8386C90.6933 62.9308 91.0651 63.1654 91.3277 63.5022C91.5898 63.8334 91.7106 64.2547 91.6639 64.6744C91.6098 65.0673 91.442 65.4358 91.1812 65.7345C90.7022 66.2878 90.0235 66.6287 89.2937 66.6826C88.6371 66.7296 87.9777 66.6446 87.3545 66.4327C86.793 66.2544 86.2432 66.0414 85.7082 65.7949C84.7603 65.3991 83.9316 64.7634 83.3036 63.9504C82.8453 63.31 82.6257 62.5294 82.683 61.744C82.713 61.2536 82.8869 60.783 83.1829 60.3908C83.2861 60.255 83.4149 60.1408 83.5621 60.0547C83.1278 60.5254 82.8797 61.1382 82.864 61.7785C82.8416 62.5103 83.0696 63.2279 83.5104 63.8125C84.1257 64.5806 84.9308 65.1748 85.8461 65.5363C86.9147 66.0762 88.0965 66.3539 89.2937 66.3465C89.6073 66.3168 89.9119 66.2254 90.19 66.0775C90.4681 65.9295 90.7142 65.728 90.914 65.4846C91.1366 65.259 91.2712 64.9612 91.2933 64.645C91.3154 64.3289 91.2237 64.0152 91.0347 63.7608C90.6469 63.2523 89.8194 63.0282 89.4316 63.554C89.3325 63.6857 89.2609 63.8359 89.221 63.9958C89.181 64.1557 89.1735 64.322 89.1989 64.4848C89.2494 64.8354 89.3989 65.1643 89.6298 65.4329C90.1722 66.0013 90.7934 66.4889 91.4743 66.8808C92.1722 67.3131 92.9149 67.6685 93.6893 67.941C94.424 68.2468 95.212 68.4042 96.0078 68.4042C96.8036 68.4042 97.5916 68.2468 98.3263 67.941C98.6588 67.8016 98.9594 67.596 99.2098 67.3367C99.4602 67.0774 99.6552 66.7698 99.7829 66.4327C99.8886 66.1129 99.8802 65.7664 99.7592 65.4521C99.6382 65.1378 99.4121 64.8752 99.1192 64.7089C98.982 64.6468 98.8334 64.6142 98.6828 64.6131C98.5322 64.612 98.3831 64.6425 98.2451 64.7026C98.107 64.7627 97.9831 64.8511 97.8813 64.962C97.7795 65.0729 97.7021 65.204 97.654 65.3467C97.5445 65.6375 97.4934 65.9471 97.5038 66.2577C97.5141 66.5683 97.5857 66.8738 97.7143 67.1567C98.1474 68.2596 98.8252 69.2498 99.6967 70.0526C100.416 70.7167 101.285 71.1958 102.231 71.4489C102.949 71.6314 103.696 71.6695 104.428 71.5609C105.059 71.4387 105.671 71.2329 106.247 70.949Z" fill="#455A64"/>
<path d="M81.3554 90.9994C81.2529 91.1175 81.1303 91.2167 80.9934 91.2924C80.6112 91.5406 80.1834 91.7105 79.7351 91.7923C79.026 91.9386 78.2905 91.891 77.6062 91.6544C77.1344 91.5175 76.6973 91.2813 76.3242 90.9617C75.9511 90.6421 75.6506 90.2465 75.4429 89.8013C75.3027 89.5175 75.2589 89.1956 75.318 88.8846C75.3771 88.5736 75.5359 88.2903 75.7704 88.0776C76.0358 87.8728 76.3617 87.7617 76.6969 87.7617C77.0322 87.7617 77.358 87.8728 77.6234 88.0776C78.1575 88.5131 78.5632 89.0856 78.797 89.7338C79.0308 90.3821 79.0839 91.0817 78.9508 91.7578C78.8628 92.5066 78.5888 93.2215 78.1537 93.8372C77.7186 94.453 77.1363 94.95 76.4599 95.283C75.7151 95.5976 74.9061 95.7305 74.0998 95.6705C73.2935 95.6106 72.513 95.3595 71.8229 94.9382C71.1092 94.5377 70.5007 93.9735 70.0475 93.292C69.8171 92.9508 69.6606 92.5653 69.5878 92.1601C69.5151 91.7549 69.5278 91.339 69.6251 90.939C69.7287 90.539 69.9404 90.1752 70.2371 89.8875C70.3882 89.7401 70.5678 89.6251 70.7649 89.5495C70.962 89.4739 71.1724 89.4394 71.3834 89.448C71.7709 89.4773 72.1443 89.6062 72.4674 89.8221C72.7905 90.038 73.0524 90.3337 73.2278 90.6805C73.5473 91.3058 73.7211 91.9953 73.7363 92.6973C73.7617 93.3436 73.6979 93.9904 73.5467 94.6193C73.2757 95.7628 72.6766 96.8023 71.8229 97.61C71.2122 98.2008 70.4404 98.5978 69.6046 98.7512C68.7688 98.9045 67.9064 98.8074 67.1257 98.4719C66.7087 98.2902 66.3289 98.0331 66.0052 97.7135C65.8883 97.6097 65.7893 97.4874 65.7122 97.3515C66.1541 97.7425 66.6543 98.0623 67.1946 98.2996C67.8361 98.5475 68.5288 98.6334 69.2114 98.5495C70.1092 98.4406 70.9457 98.0375 71.5902 97.4032C72.3691 96.6267 72.9077 95.6422 73.1416 94.5676C73.2809 93.9721 73.3331 93.3595 73.2968 92.749C73.2782 92.1148 73.1162 91.493 72.8227 90.9304C72.6838 90.6486 72.4742 90.4076 72.2144 90.2308C71.9546 90.0541 71.6535 89.9477 71.3403 89.922C71.0237 89.9415 70.7232 90.0682 70.4882 90.2812C70.2532 90.4943 70.0978 90.781 70.0475 91.0942C69.966 91.432 69.9569 91.7833 70.0208 92.125C70.0846 92.4666 70.22 92.7909 70.4181 93.0765C70.8321 93.6943 71.3838 94.2076 72.0298 94.5762C72.6666 94.9634 73.3865 95.1934 74.1298 95.2474C74.8732 95.3013 75.6187 95.1776 76.3048 94.8865C76.9146 94.5842 77.44 94.1355 77.8341 93.5805C78.2281 93.0255 78.4785 92.3815 78.5629 91.7061C78.6847 91.1073 78.6451 90.4868 78.4483 89.9083C78.2514 89.3297 77.9043 88.8139 77.4425 88.4137C77.2421 88.2564 76.9947 88.171 76.74 88.171C76.4853 88.171 76.2379 88.2564 76.0376 88.4137C75.8636 88.5745 75.7456 88.7866 75.7006 89.0191C75.6557 89.2517 75.6861 89.4925 75.7876 89.7065C75.9687 90.1114 76.2325 90.4739 76.562 90.7708C76.8916 91.0676 77.2795 91.2923 77.701 91.4303C78.345 91.6687 79.0389 91.7399 79.7178 91.6372C80.2961 91.5195 80.85 91.3038 81.3554 90.9994Z" fill="#455A64"/>
<path d="M45.7507 300.516C45.7507 300.516 51.5168 311.721 66.5481 306.274C66.5481 306.274 81.2692 314.272 95.3524 305.317C95.3524 305.317 113.581 307.756 123.502 302.955L110.78 192.944L109.16 176.051H68.9011C68.9011 176.051 56.9553 181.489 55.0333 208.044C53.1113 234.599 49.0001 271.074 49.0001 271.074L45.7507 300.516Z" fill="#263238"/>
<path d="M94.4909 305.653C94.4909 305.653 94.4909 305.541 94.4909 305.317C94.4909 305.093 94.4391 304.757 94.4047 304.343C94.3357 303.481 94.2409 302.197 94.1116 300.585C93.8703 297.327 93.5514 292.604 93.2066 286.795C92.5085 275.125 91.7673 258.973 91.3794 241.115C90.9916 223.257 91.0347 207.096 91.2243 195.435C91.3191 189.583 91.4225 184.851 91.5346 181.584C91.5863 179.964 91.6294 178.706 91.6639 177.818C91.6639 177.404 91.6639 177.077 91.6639 176.835C91.6528 176.726 91.6528 176.617 91.6639 176.508C91.677 176.617 91.677 176.727 91.6639 176.835V177.818C91.6639 178.68 91.6639 179.973 91.6208 181.584C91.6208 184.877 91.526 189.609 91.457 195.435C91.3536 207.131 91.3536 223.291 91.7414 241.115C92.1293 258.939 92.8274 275.099 93.4652 286.795C93.7841 292.621 94.0427 297.336 94.2323 300.585C94.3185 302.197 94.3874 303.464 94.4391 304.343C94.4391 304.757 94.4391 305.084 94.4822 305.326C94.4942 305.434 94.4971 305.544 94.4909 305.653Z" fill="#455A64"/>
<path d="M98.0241 274.161C98.0241 274.161 98.1103 274.04 98.3344 273.98C98.6662 273.907 99.0126 273.95 99.317 274.1C99.5477 274.213 99.7502 274.376 99.9098 274.578C100.069 274.779 100.182 275.013 100.239 275.264C100.272 275.586 100.211 275.911 100.063 276.199C99.9149 276.486 99.6865 276.725 99.4054 276.886C99.1243 277.047 98.8026 277.122 98.4794 277.103C98.1562 277.085 97.8453 276.973 97.5846 276.781C97.398 276.602 97.2538 276.384 97.1628 276.142C97.0718 275.901 97.0363 275.642 97.0588 275.384C97.0836 275.046 97.2235 274.727 97.4553 274.479C97.6191 274.316 97.757 274.281 97.7656 274.298C97.5354 274.623 97.401 275.005 97.3777 275.402C97.3782 275.602 97.4207 275.799 97.5023 275.982C97.584 276.165 97.703 276.328 97.8518 276.462C98.0499 276.587 98.2783 276.656 98.5125 276.661C98.7468 276.666 98.978 276.608 99.1816 276.492C99.3852 276.376 99.5535 276.207 99.6684 276.003C99.7833 275.799 99.8406 275.567 99.8341 275.333C99.7978 275.135 99.7188 274.948 99.6027 274.784C99.4866 274.621 99.3361 274.484 99.1618 274.385C98.8143 274.196 98.4174 274.117 98.0241 274.161Z" fill="#455A64"/>
<path d="M97.1279 241.495C97.1279 241.495 97.2141 241.383 97.4382 241.323C97.7697 241.245 98.1178 241.288 98.4208 241.443C98.6553 241.551 98.8611 241.712 99.0213 241.915C99.1816 242.117 99.2918 242.354 99.343 242.607C99.3726 242.927 99.3095 243.249 99.1611 243.534C99.0126 243.819 98.7853 244.055 98.5061 244.214C98.227 244.373 97.9079 244.448 97.587 244.431C97.2662 244.413 96.9572 244.304 96.697 244.115C96.5069 243.941 96.3602 243.725 96.2689 243.484C96.1776 243.243 96.1441 242.984 96.1712 242.728C96.1992 242.405 96.3359 242.101 96.5591 241.866C96.7315 241.693 96.8608 241.667 96.8694 241.685C96.6403 242.006 96.506 242.385 96.4815 242.779C96.4815 242.979 96.5237 243.177 96.6054 243.36C96.6871 243.543 96.8064 243.706 96.9556 243.839C97.1525 243.967 97.3806 244.038 97.6153 244.046C97.8499 244.053 98.082 243.995 98.2863 243.88C98.4907 243.764 98.6594 243.595 98.7743 243.39C98.8892 243.186 98.9458 242.954 98.9379 242.719C98.9005 242.522 98.8221 242.335 98.7078 242.17C98.5935 242.005 98.4458 241.866 98.2743 241.762C97.9245 241.568 97.5275 241.476 97.1279 241.495Z" fill="#455A64"/>
<path d="M96.6023 212.608C96.6023 212.608 96.6885 212.496 96.9212 212.436C97.2499 212.359 97.5951 212.402 97.8952 212.556C98.1301 212.664 98.3366 212.826 98.4982 213.028C98.6598 213.23 98.772 213.467 98.826 213.72C98.8571 214.041 98.7945 214.365 98.6458 214.651C98.497 214.938 98.2685 215.175 97.9877 215.335C97.707 215.494 97.3861 215.569 97.0638 215.55C96.7415 215.531 96.4316 215.419 96.1714 215.228C95.9829 215.053 95.8373 214.836 95.7462 214.596C95.655 214.355 95.6206 214.097 95.6457 213.84C95.6694 213.504 95.8061 213.185 96.0335 212.935C96.2059 212.772 96.3352 212.737 96.3524 212.754C96.1182 213.074 95.9806 213.454 95.9559 213.849C95.9547 214.05 95.9973 214.249 96.0806 214.432C96.164 214.615 96.2861 214.778 96.4386 214.909C96.6354 215.035 96.8627 215.104 97.0959 215.11C97.3292 215.116 97.5597 215.058 97.7626 214.943C97.9656 214.828 98.1333 214.659 98.2477 214.456C98.3622 214.253 98.4191 214.022 98.4123 213.789C98.3749 213.592 98.2965 213.405 98.1822 213.24C98.0679 213.075 97.9202 212.936 97.7487 212.832C97.3948 212.652 96.9978 212.575 96.6023 212.608Z" fill="#455A64"/>
<path d="M95.5766 181.695C95.5766 181.695 95.6628 181.575 95.8869 181.514C96.2194 181.441 96.5671 181.487 96.8694 181.644C97.1028 181.753 97.3075 181.915 97.4676 182.117C97.6276 182.319 97.7385 182.555 97.7917 182.807C97.8358 183.132 97.7762 183.463 97.6215 183.753C97.4667 184.042 97.2247 184.275 96.9298 184.419C96.6527 184.591 96.3295 184.673 96.0041 184.654C95.6787 184.636 95.367 184.518 95.1112 184.316C94.9246 184.137 94.7804 183.919 94.6894 183.677C94.5984 183.436 94.5629 183.177 94.5854 182.919C94.6196 182.596 94.7589 182.294 94.9819 182.057C95.1543 181.894 95.2836 181.859 95.2922 181.876C95.062 182.201 94.9276 182.583 94.9043 182.98C94.9049 183.18 94.9473 183.377 95.029 183.56C95.1106 183.743 95.2296 183.906 95.3784 184.04C95.5765 184.165 95.8049 184.234 96.0391 184.239C96.2734 184.244 96.5046 184.186 96.7082 184.07C96.9118 183.954 97.0801 183.785 97.195 183.581C97.3099 183.376 97.3672 183.145 97.3607 182.911C97.3244 182.713 97.2455 182.526 97.1293 182.362C97.0132 182.199 96.8627 182.062 96.6884 181.963C96.3531 181.764 95.9657 181.671 95.5766 181.695Z" fill="#455A64"/>
<path d="M148.047 148.239L351.341 146.766L357.003 284.978L146.496 283.03L148.047 148.239Z" fill="#ECE2B2"/>
<path d="M148.038 148.236L244.26 70.3814C246.237 68.7837 248.704 67.9164 251.246 67.9259C253.788 67.9353 256.248 68.8208 258.214 70.4331L351.341 146.762" fill="#ECE2B2"/>
<g opacity="0.3">
<path d="M148.039 148.236L244.26 70.3814C246.237 68.7837 248.704 67.9164 251.246 67.9259C253.788 67.9353 256.249 68.8208 258.214 70.4331L351.341 146.762" fill="black"/>
</g>
<path d="M146.496 283.028C146.246 282.787 162.519 265.015 182.85 243.338C203.182 221.662 219.86 204.277 220.118 204.51C220.377 204.743 204.096 222.515 183.764 244.2C163.432 265.885 146.755 283.261 146.496 283.028Z" fill="#263238"/>
<path d="M357.003 284.974C356.744 285.206 340.894 267.796 321.605 246.094C302.316 224.392 286.888 206.602 287.13 206.369C287.371 206.137 303.238 223.547 322.528 245.258C341.817 266.969 357.279 284.741 357.003 284.974Z" fill="#263238"/>
<g opacity="0.5">
<path d="M351.341 146.77L249.25 228.321L148.047 148.243" fill="black"/>
</g>
<path d="M158.278 155.79L157.968 92.303L335.974 90.1914L337.982 156.996L249.242 227.249L158.278 155.79Z" fill="#FAFAFA"/>
<path d="M158.278 155.79C158.278 155.79 158.855 156.221 159.95 157.075L164.777 160.832L183.178 175.2L249.38 227.103H249.155L337.87 156.825L337.783 157.006C337.404 144.267 336.999 130.89 336.585 117.29C336.318 108.128 336.042 99.0781 335.775 90.2006L335.999 90.4161L157.994 92.4416L158.131 92.3037C158.2 112.274 158.261 128.141 158.295 139.018C158.295 144.457 158.295 148.645 158.295 151.481V154.696C158.295 155.42 158.295 155.79 158.295 155.79C158.295 155.79 158.295 155.428 158.295 154.713C158.295 153.998 158.295 152.92 158.295 151.515C158.295 148.68 158.235 144.5 158.192 139.07C158.123 128.175 158.019 112.299 157.89 92.3037V92.1571H158.028L336.042 89.9766H336.258V90.2006C336.525 99.0695 336.792 108.119 337.068 117.281C337.482 130.89 337.878 144.258 338.266 157.006V157.118L338.18 157.187L249.405 227.405L249.293 227.491L249.181 227.405L183.023 175.329L164.734 160.893L159.907 157.1C158.821 156.239 158.278 155.79 158.278 155.79Z" fill="#263238"/>
<path d="M307.842 122.166C307.842 122.286 280.615 122.553 247.044 122.752C213.473 122.95 186.238 123.027 186.238 122.898C186.238 122.769 213.456 122.51 247.044 122.303C280.632 122.097 307.842 122.036 307.842 122.166Z" fill="#263238"/>
<path d="M307.842 140.093C307.842 140.222 280.615 140.489 247.044 140.688C213.473 140.886 186.238 140.955 186.238 140.834C186.238 140.713 213.456 140.446 247.044 140.239C280.632 140.033 307.842 139.972 307.842 140.093Z" fill="#263238"/>
<path d="M307.842 160.771C307.842 160.891 280.615 161.158 247.044 161.365C213.473 161.572 186.238 161.632 186.238 161.503C186.238 161.374 213.456 161.115 247.044 160.917C280.632 160.719 307.842 160.641 307.842 160.771Z" fill="#263238"/>
<path d="M307.842 181.436C307.842 181.565 281.873 181.815 249.836 182.013C217.8 182.211 191.831 182.263 191.823 182.142C191.814 182.022 217.791 181.763 249.836 181.565C281.881 181.367 307.842 181.315 307.842 181.436Z" fill="#263238"/>
<path d="M285.07 199.578C284.837 199.618 284.6 199.635 284.364 199.63L282.312 199.69L274.797 199.811L249.983 200.164C240.295 200.328 231.513 200.38 225.16 200.388H217.645H215.593C215.357 200.393 215.121 200.378 214.887 200.345C215.12 200.306 215.357 200.289 215.593 200.294L217.645 200.242L225.16 200.113L249.974 199.759C259.662 199.595 268.444 199.544 274.788 199.535H282.312H284.364C284.6 199.535 284.836 199.549 285.07 199.578Z" fill="#263238"/>
<path d="M262.153 217.025C262.153 217.146 256.352 217.249 249.224 217.249C242.097 217.249 236.296 217.146 236.296 217.025C236.296 216.904 242.105 216.801 249.224 216.801C256.344 216.801 262.153 216.896 262.153 217.025Z" fill="#263238"/>
<path d="M322.071 202.938C333.948 202.938 343.576 193.31 343.576 181.434C343.576 169.557 333.948 159.93 322.071 159.93C310.195 159.93 300.567 169.557 300.567 181.434C300.567 193.31 310.195 202.938 322.071 202.938Z" fill="#263238"/>
<path d="M316.478 202.938C328.354 202.938 337.982 193.31 337.982 181.434C337.982 169.557 328.354 159.93 316.478 159.93C304.601 159.93 294.973 169.557 294.973 181.434C294.973 193.31 304.601 202.938 316.478 202.938Z" fill="#455A64"/>
<path d="M319.21 171.429V189.305H315.909V174.178H312.125V171.395L319.21 171.429Z" fill="#EBEBEB"/>
<path d="M159.674 63.2933H179.342L176.679 60.2422V52.9248C176.679 51.023 175.923 49.199 174.579 47.8542C173.234 46.5094 171.41 45.7539 169.508 45.7539C168.567 45.7539 167.635 45.9394 166.765 46.2999C165.896 46.6604 165.106 47.1887 164.44 47.8547C163.775 48.5207 163.248 49.3113 162.888 50.1813C162.529 51.0512 162.345 51.9835 162.346 52.9248V59.8803L159.674 63.2933Z" fill="#ECE2B2"/>
<path d="M166.802 62.3295C166.824 62.7578 166.936 63.1765 167.132 63.5582C167.327 63.9398 167.601 64.2758 167.936 64.5438C168.271 64.8118 168.658 65.0058 169.073 65.1131C169.489 65.2203 169.922 65.2383 170.344 65.166C170.767 65.0936 171.169 64.9324 171.525 64.6932C171.881 64.4539 172.182 64.1419 172.409 63.7778C172.635 63.4137 172.782 63.0057 172.839 62.5807C172.896 62.1558 172.863 61.7236 172.741 61.3125" fill="#ECE2B2"/>
<path d="M170.603 42.7734H168.673V46.876H170.603V42.7734Z" fill="#ECE2B2"/>
<path d="M198.184 49.8422C198.125 49.6734 198.079 49.5005 198.046 49.325C197.96 48.9544 197.847 48.4631 197.701 47.8081C197.521 46.9837 197.288 46.1718 197.003 45.3776C196.83 44.9122 196.71 44.3864 196.477 43.8607L195.744 42.1886C194.419 39.364 192.659 36.7642 190.53 34.4833C187.734 31.5354 184.348 29.2095 180.592 27.6572C178.454 26.757 176.214 26.1203 173.921 25.761C171.449 25.4007 168.94 25.3601 166.457 25.6403C165.151 25.7778 163.855 26.0024 162.579 26.3126C161.933 26.4505 161.303 26.7005 160.648 26.8987C159.991 27.0812 159.348 27.3146 158.726 27.5968C156.086 28.6647 153.628 30.1392 151.443 31.9666C146.594 35.9649 143.176 41.4309 141.704 47.5409C140.929 50.8144 140.739 54.1992 141.144 57.5388C141.499 60.9935 142.502 64.3502 144.1 67.4333L144.6 68.3728L144.66 68.4934V68.6227C143.066 73.7941 141.514 78.9654 139.998 83.904L139.592 83.5334L151.909 77.1123L152.055 77.0347L152.193 77.1382C157.342 81.109 163.689 83.2106 170.19 83.0978C176.692 82.9851 182.962 80.6646 187.97 76.5176C190.538 74.3706 192.726 71.8066 194.443 68.933C195.815 66.5333 196.873 63.9667 197.589 61.2967C198.072 59.2689 198.361 57.1996 198.451 55.1169C198.451 54.255 198.451 53.5138 198.451 52.8502C198.451 52.1865 198.347 51.6608 198.313 51.204C198.278 50.7472 198.244 50.4455 198.227 50.1955C198.213 50.081 198.213 49.9653 198.227 49.8508C198.257 49.9607 198.277 50.0732 198.287 50.1869C198.287 50.4397 198.33 50.7759 198.416 51.1953C198.468 51.6521 198.528 52.1951 198.606 52.8502C198.683 53.5052 198.606 54.2723 198.606 55.1255C198.558 57.2264 198.298 59.317 197.83 61.3656C197.142 64.0767 196.099 66.6849 194.727 69.1226C193.011 72.0587 190.807 74.6817 188.212 76.8796C185.033 79.5326 181.327 81.4782 177.338 82.5869C173.349 83.6955 169.17 83.9418 165.078 83.3093C160.263 82.5445 155.712 80.599 151.831 77.6467H152.124L139.825 84.085L139.205 84.4125L139.411 83.7144L144.066 68.4331V68.6831L143.557 67.7264C141.927 64.5753 140.903 61.1457 140.541 57.6164C140.119 54.1987 140.317 50.7329 141.127 47.3858C142.634 41.1562 146.129 35.5866 151.081 31.5184C153.317 29.6687 155.826 28.1771 158.52 27.0969C159.152 26.8105 159.806 26.5742 160.476 26.3902C161.14 26.2006 161.777 25.9506 162.441 25.8127C163.736 25.494 165.053 25.2694 166.38 25.1404C168.904 24.8625 171.454 24.9147 173.965 25.2956C176.287 25.6806 178.555 26.3403 180.722 27.2607C184.518 28.8589 187.931 31.2443 190.737 34.2592C192.867 36.5822 194.612 39.2298 195.908 42.1024C196.158 42.7057 196.399 43.266 196.615 43.8262C196.83 44.3864 196.96 44.8949 197.123 45.369C197.403 46.1696 197.619 46.9909 197.77 47.8254C197.891 48.4718 197.994 48.9803 198.063 49.3595C198.114 49.5176 198.154 49.6788 198.184 49.8422Z" fill="#263238"/>
</svg>
