<svg

      width="439.932429pt"
      height="485.749645pt"
      viewBox="0 0 439.932429 485.749645"
      preserveAspectRatio="xMidYMid meet"
      fill="white"
      {...props}
    >
    <style>
    svg {
      fill: var(--default-fill-color);
    }

    @media (prefers-color-scheme: dark) {
      svg {
        fill: white;
      }
    }

    @media (prefers-color-scheme: light) {
      svg {
        fill: blue;
      }
    }
  </style>
      <g transform="translate(-32.025688,530.798478) scale(0.100000,-0.100000)" stroke="none">
        <path
          d="M3323 5290 c-42 -25 -49 -58 -57 -236 -6 -147 4 -282 25 -327 27 -58
143 -77 197 -32 17 14 33 38 37 53 8 39 -13 453 -25 488 -23 65 -114 93 -177
54z"
        />
        <path
          d="M2943 4984 l-23 -5 0 -915 0 -914 894 0 894 0 7 235 c11 358 1 747
-23 870 -11 55 -28 123 -37 150 -122 356 -470 575 -910 575 -157 0 -159 -1
-166 -125 -7 -116 -23 -163 -70 -196 -68 -48 -221 -21 -266 47 -10 16 -19 58
-23 109 -7 93 -23 126 -73 151 -32 17 -158 28 -204 18z m1018 -398 c184 -58
330 -193 401 -371 30 -75 32 -88 32 -210 1 -111 -2 -140 -22 -197 -51 -148
-168 -283 -303 -351 -97 -48 -174 -67 -279 -67 -104 0 -190 20 -273 61 -130
65 -221 159 -281 290 -42 92 -56 157 -56 262 0 101 19 178 67 277 68 141 229
271 383 308 25 6 54 14 65 16 37 9 220 -3 266 -18z"
        />
        <path
          d="M3685 4456 c-72 -17 -171 -73 -227 -128 -96 -94 -153 -266 -129 -394
26 -145 80 -234 188 -314 91 -66 153 -85 278 -85 80 1 112 5 157 24 122 48
234 163 277 285 25 72 31 203 11 277 -20 74 -69 155 -129 213 -120 114 -276
159 -426 122z m123 -316 c1 -85 6 -158 11 -163 5 -5 77 -10 159 -10 160 -2
176 -7 170 -48 -3 -24 -4 -24 -173 -31 -194 -8 -221 -5 -237 25 -11 22 -13
343 -1 373 4 10 16 14 37 12 l31 -3 3 -155z"
        />
        <path
          d="M1139 4691 c-24 -19 -24 -20 -22 -227 3 -233 7 -248 69 -260 21 -4
49 -3 63 2 45 16 51 43 51 252 l0 194 -29 29 c-36 35 -95 40 -132 10z"
        />
        <path
          d="M860 4395 c-166 -33 -315 -122 -390 -230 -49 -71 -100 -180 -122
-263 -19 -70 -21 -102 -20 -374 0 -163 3 -315 7 -336 l6 -39 172 -6 c95 -4
362 -7 593 -7 l422 0 7 523 c3 287 5 567 3 622 l-3 100 -77 3 c-94 3 -118 -7
-118 -51 0 -123 -96 -199 -190 -150 -45 24 -70 69 -77 140 -3 32 -10 64 -16
71 -12 16 -111 14 -197 -3z"
        />
        <path d="M1580 3775 l0 -625 650 0 650 0 0 625 0 625 -650 0 -650 0 0 -625z" />
        <path
          d="M330 2435 l0 -645 600 0 600 0 0 645 0 645 -600 0 -600 0 0 -645z
m732 339 c49 -25 56 -40 38 -75 -14 -25 -23 -24 -86 7 -44 22 -62 25 -98 20
-57 -9 -94 -38 -102 -81 -12 -64 23 -94 156 -139 121 -41 160 -84 160 -175 0
-64 -11 -91 -56 -141 -66 -73 -180 -88 -293 -40 -69 30 -88 53 -71 85 19 36
31 36 90 -1 60 -38 116 -44 174 -20 45 19 66 52 66 103 0 59 -30 85 -135 119
-142 45 -202 118 -177 216 36 140 189 196 334 122z"
        />
        <path
          d="M1587 3073 c-4 -3 -7 -294 -7 -645 l0 -638 650 0 650 0 -2 643 -3
642 -641 3 c-352 1 -644 -1 -647 -5z m777 -284 c148 -37 184 -210 59 -289
l-43 -28 28 -5 c117 -24 151 -190 56 -279 -50 -47 -101 -58 -265 -58 l-149 0
0 335 0 335 136 0 c74 0 155 -5 178 -11z"
        />
        <path
          d="M2140 2615 l0 -115 73 0 c136 0 187 32 187 117 0 88 -39 113 -175
113 l-85 0 0 -115z"
        />
        <path
          d="M2142 2323 l3 -118 101 1 c114 0 142 11 170 66 32 63 -3 138 -75 158
-20 5 -73 10 -119 10 l-83 0 3 -117z"
        />
        <path
          d="M2920 2430 l0 -650 615 0 615 0 0 650 0 650 -615 0 -615 0 0 -650z
m910 365 l0 -34 -102 -3 -103 -3 -3 -297 -2 -298 -50 0 -50 0 -2 298 -3 297
-107 3 -108 3 0 34 0 35 265 0 265 0 0 -35z"
        />
        <path
          d="M327 1653 c-10 -105 -8 -446 3 -565 13 -136 39 -219 103 -336 73
-133 168 -212 325 -269 86 -32 197 -38 525 -28 l247 7 0 629 0 629 -599 0
-598 0 -6 -67z"
        />
        <path d="M1580 1085 l0 -625 650 0 650 0 0 625 0 625 -650 0 -650 0 0 -625z" />
        <path
          d="M2922 1088 l3 -623 190 -3 c216 -4 470 11 562 33 130 31 285 120 342
197 18 24 47 75 66 113 62 130 67 165 75 545 4 190 5 348 3 353 -2 4 -283 7
-624 7 l-619 0 2 -622z"
        />
      </g>
      
    </svg>