<svg width="437" height="460" viewBox="0 0 437 460" fill="none" xmlns="http://www.w3.org/2000/svg">
<path d="M400.042 446.853C400.042 447.001 313.725 447.128 207.265 447.128C100.805 447.128 14.4575 447.001 14.4575 446.853C14.4575 446.705 100.765 446.578 207.265 446.578C313.765 446.578 400.042 446.705 400.042 446.853Z" fill="#263238"/>
<path d="M319.423 408.552L344.299 446.63L353.195 446.852L336.892 407.695L319.423 408.552Z" fill="#263238"/>
<path d="M56.9224 410.492L43.8159 446.464H50.3691L73.2552 410.651L56.9224 410.492Z" fill="#263238"/>
<path d="M51.2738 279.797L52.2789 326.348C52.3429 329.516 53.5661 332.535 55.6934 334.776C57.8207 337.017 60.6878 338.308 63.6968 338.378L311.141 344.176C312.698 344.212 314.246 343.921 315.695 343.319C317.143 342.717 318.463 341.817 319.576 340.67C320.69 339.524 321.574 338.155 322.178 336.644C322.782 335.133 323.092 333.51 323.092 331.871V275.797C323.089 267.804 320.34 260.081 315.353 254.054C310.366 248.026 303.476 244.1 295.954 243C250.655 236.44 157.251 226.357 81.7182 240.683C73.0484 242.314 65.2172 247.152 59.6354 254.323C54.0537 261.494 51.0884 270.528 51.2738 279.797Z" fill="#ECE2B2"/>
<path d="M50.1882 296.058C50.1882 296.058 29.8048 286.124 25.6337 296.058C21.4625 305.993 26.1463 318.181 30.7295 324.973C35.3128 331.765 35.2926 415.686 35.2926 415.686L344.44 412.205L348.099 331.512C348.099 331.512 362.924 312.288 361.999 304.004C361.074 295.72 348.561 283.658 334.198 296.026C319.835 308.394 316.106 334.241 316.106 334.241L69.6267 336.198C69.6267 336.198 70.471 299.899 50.1882 296.058Z" fill="#ECE2B2"/>
<path d="M312.981 350.365C312.981 350.513 258.213 350.64 190.67 350.64C123.128 350.64 68.3604 350.545 68.3604 350.365C68.3604 350.185 123.108 350.09 190.67 350.09C258.233 350.09 312.981 350.238 312.981 350.365Z" fill="#263238"/>
<path d="M68.3604 385.911C68.3475 385.827 68.3475 385.741 68.3604 385.657C68.3604 385.456 68.3604 385.202 68.3604 384.906C68.3604 384.243 68.3403 383.28 68.3001 382.017C68.3001 379.467 68.3001 375.86 68.3001 371.437C68.3001 362.487 68.3604 350.119 67.9684 336.523C67.8919 330.122 67.4218 323.732 66.5613 317.395C66.3804 316.697 66.1995 315.998 66.0286 315.279C65.8577 314.559 65.5261 313.956 65.2647 313.311C64.732 312.031 64.1893 310.803 63.5963 309.65C62.5256 307.504 61.2672 305.467 59.8372 303.567C58.6432 302.01 57.2955 300.592 55.8168 299.335C54.6936 298.394 53.485 297.572 52.2085 296.88C51.0964 296.341 49.9592 295.861 48.8013 295.441H49.0324L49.726 295.642C50.613 295.91 51.4744 296.264 52.299 296.7C53.6118 297.356 54.8522 298.161 55.9978 299.102C57.5077 300.351 58.8829 301.77 60.0985 303.334C61.5679 305.238 62.8604 307.286 63.9581 309.449C64.5712 310.613 65.124 311.84 65.6668 313.131C65.9382 313.776 66.1894 314.443 66.4407 315.11L67.0136 317.226C67.9103 323.592 68.3972 330.014 68.471 336.449C68.863 350.097 68.7323 362.465 68.6519 371.416C68.5916 375.849 68.5414 379.457 68.5112 381.996C68.5112 383.213 68.5112 384.176 68.5112 384.884V385.625C68.3604 385.815 68.3604 385.911 68.3604 385.911Z" fill="#263238"/>
<path d="M345.626 385.916C345.626 386.064 275.903 386.191 189.897 386.191C103.891 386.191 34.1875 386.064 34.1875 385.916C34.1875 385.768 103.901 385.641 189.977 385.641C276.054 385.641 345.626 385.757 345.626 385.916Z" fill="#263238"/>
<path d="M311.905 334.547C312.056 334.547 312.167 346.037 312.167 360.203C312.167 374.37 312.056 385.881 311.905 385.881C311.755 385.881 311.644 374.391 311.644 360.203C311.644 346.016 311.765 334.547 311.905 334.547Z" fill="#263238"/>
<path d="M208.672 245.773H208.189L206.782 245.826L201.385 245.984L181.504 246.471L115.932 247.857C109.529 248.016 103.267 247.994 97.2568 248.418C91.469 248.68 85.7431 249.78 80.2406 251.687C75.2768 253.44 70.8348 256.53 67.3552 260.648C65.7768 262.509 64.4262 264.57 63.3348 266.784C62.3395 268.821 61.5155 270.945 60.8724 273.132C59.8393 276.932 59.166 280.831 58.8622 284.77C58.5506 288.262 58.5204 291.277 58.5003 293.753C58.4802 296.228 58.5003 298.133 58.5707 299.434C58.5707 300.069 58.5707 300.556 58.5707 300.915C58.5707 301.275 58.5707 301.423 58.5707 301.423C58.5707 301.423 58.5707 301.254 58.5707 300.915C58.5707 300.577 58.5707 300.069 58.4903 299.434C58.43 298.143 58.3496 296.26 58.3295 293.753C58.3094 291.245 58.3295 288.251 58.6008 284.739C58.8967 280.76 59.5701 276.822 60.611 272.984C61.2474 270.758 62.068 268.595 63.0635 266.52C64.1453 264.261 65.4964 262.156 67.0839 260.257C70.6107 256.076 75.1152 252.939 80.1501 251.158C85.6711 249.218 91.4219 248.096 97.2367 247.825C103.267 247.402 109.539 247.413 115.942 247.254L181.524 246.027L201.395 245.72L206.802 245.656H208.209L208.672 245.773Z" fill="#263238"/>
<path d="M129.531 282.015C129.531 282.015 129.199 282.184 128.686 282.597C127.962 283.182 127.419 283.981 127.129 284.893C126.894 285.542 126.822 286.244 126.919 286.931C127.015 287.618 127.278 288.268 127.681 288.818C128.136 289.542 128.791 290.101 129.557 290.42C130.323 290.739 131.165 290.802 131.966 290.602C132.768 290.401 133.492 289.945 134.04 289.297C134.588 288.648 134.933 287.839 135.029 286.977C135.151 286.293 135.107 285.588 134.899 284.927C134.692 284.266 134.328 283.672 133.843 283.2C133.191 282.529 132.366 282.077 131.471 281.898C130.837 281.782 130.465 281.824 130.465 281.782C130.787 281.658 131.133 281.625 131.471 281.687C132.29 281.786 133.07 282.111 133.732 282.629C134.394 283.148 134.914 283.841 135.24 284.639C135.536 285.41 135.616 286.254 135.471 287.072C135.341 288.019 134.944 288.903 134.331 289.609C133.718 290.315 132.917 290.811 132.033 291.033C131.149 291.254 130.222 291.19 129.372 290.85C128.523 290.51 127.79 289.909 127.269 289.125C126.792 288.465 126.503 287.676 126.435 286.85C126.39 286.129 126.496 285.407 126.747 284.734C127.09 283.773 127.717 282.953 128.536 282.396C128.829 282.177 129.173 282.046 129.531 282.015Z" fill="#263238"/>
<path d="M125.299 309.431C124.916 308.412 124.66 307.345 124.535 306.257C124.045 303.674 124.1 301.008 124.696 298.449C125.34 295.857 126.886 293.614 129.028 292.165C129.675 291.743 130.385 291.439 131.129 291.265C131.395 291.177 131.675 291.148 131.953 291.181C130.996 291.504 130.078 291.944 129.219 292.493C127.238 293.967 125.815 296.128 125.199 298.597C124.632 301.085 124.529 303.665 124.897 306.194C125.138 308.204 125.379 309.41 125.299 309.431Z" fill="#263238"/>
<path d="M128.957 265.726C128.423 266.471 127.93 267.249 127.48 268.053C126.459 270.033 126.158 272.337 126.633 274.533C127.109 276.729 128.328 278.668 130.063 279.987C130.802 280.512 131.57 280.989 132.364 281.416C132.116 281.415 131.869 281.361 131.641 281.257C131.008 281.022 130.407 280.702 129.852 280.305C127.955 279.001 126.613 276.973 126.109 274.648C125.605 272.323 125.977 269.883 127.148 267.842C127.485 267.23 127.898 266.668 128.374 266.17C128.716 265.8 128.937 265.651 128.957 265.726Z" fill="#263238"/>
<path d="M128.033 286.887C126.196 287.211 124.377 287.642 122.585 288.178C120.85 288.893 119.152 289.705 117.5 290.611C120.404 287.951 124.192 286.612 128.033 286.887Z" fill="#263238"/>
<g opacity="0.3">
<path d="M95.5591 351.359C105.317 359.231 117.467 363.086 129.732 362.203C127.186 374.638 124.647 387.077 122.114 399.519C121.44 402.83 120.807 406.523 122.455 409.443C124.767 413.537 130.144 413.939 134.667 413.876C139.693 413.802 144.939 413.675 149.402 411.22C155.724 407.75 159.121 400.387 161.574 393.34C164.026 386.294 166.147 378.74 171.193 373.439C176.985 380.386 184.824 385.084 193.455 386.781C195.968 387.267 198.823 387.416 200.833 385.723C202.843 384.03 203.416 381.046 202.903 378.423C202.235 375.836 201.121 373.401 199.617 371.239L184.902 347.222C182.892 343.974 180.741 340.546 177.374 339.002C174.73 337.785 171.735 337.944 168.861 338.081C144.837 339.554 120.994 343.347 97.6296 349.412" fill="black"/>
</g>
<g opacity="0.3">
<path d="M174.177 232.296C168.227 248.843 146.034 252.641 138.204 268.268C130.495 283.757 140.054 304.239 132.113 319.644C129.169 325.336 124.073 329.578 121.238 335.313C119.309 339.164 118.313 343.777 115.208 346.623C111.569 349.955 105.931 349.892 101.559 347.734C97.1864 345.575 93.8293 341.703 90.7135 337.82C84.884 330.541 79.4062 322.67 76.6422 313.582C71.9584 297.955 76.2603 280.276 85.6881 267.22C95.1159 254.165 109.077 245.351 123.821 240.072C138.566 234.793 154.165 232.804 169.674 231.27" fill="black"/>
</g>
<path d="M102.714 188.778C104.967 185.082 108.081 182.055 111.76 179.986C115.466 177.91 119.797 177.451 123.821 178.705C125.799 179.366 127.579 180.556 128.989 182.158C130.398 183.76 131.388 185.72 131.862 187.847C132.495 191.243 131.631 195.03 133.299 198.014C135.209 201.442 139.823 202.521 141.451 206.118C141.879 207.232 142.057 208.435 141.971 209.633C141.886 210.831 141.539 211.993 140.958 213.027C139.786 215.086 138.295 216.924 136.546 218.465C137.599 219.159 138.531 220.04 139.3 221.068C139.681 221.585 139.935 222.195 140.036 222.841C140.138 223.488 140.085 224.151 139.883 224.771C139.227 225.995 138.147 226.905 136.868 227.31C131.252 229.801 125.045 230.414 119.087 229.066C117.499 228.706 115.68 228.251 114.373 229.267" fill="#263238"/>
<path d="M142.949 201.336L139.723 211.694L161.694 224.823L139.582 225.575L141.23 244.439L183.796 233.436C183.796 233.436 186.349 215.164 142.949 201.336L139.934 200.574C139.39 200.44 138.885 200.168 138.463 199.783C138.041 199.398 137.715 198.911 137.511 198.363C137.166 197.472 136.523 196.745 135.702 196.321L132.074 194.332V197.358L134.084 199.823L133.762 205.674C133.678 206.927 134.02 208.17 134.727 209.182C135.434 210.194 136.46 210.908 137.622 211.196L139.632 211.694" fill="#B78876"/>
<path d="M94.8143 238.787C93.9399 238.787 85.8288 240.903 81.1852 247.081C76.5417 253.26 69.8276 276.642 69.8276 276.642L86.9143 279.752L94.2917 299.251C94.2917 299.251 137.963 293.231 135.641 290.787C133.397 288.613 131.049 286.562 128.606 284.64L138.657 249.398L150.718 242.543L146.647 224.938L122.354 228.397L94.8143 238.787Z" fill="#FAFAFA"/>
<path d="M136.566 257.548C136.566 257.697 122.947 257.824 106.162 257.824C89.3767 257.824 75.7476 257.697 75.7476 257.548C75.7476 257.4 89.3666 257.273 106.162 257.273C122.957 257.273 136.566 257.4 136.566 257.548Z" fill="#ECE2B2"/>
<path d="M133.843 267.904C133.843 268.052 120.224 268.179 103.439 268.179C86.6535 268.179 73.0244 268.052 73.0244 267.904C73.0244 267.756 86.6334 267.629 103.439 267.629C120.244 267.629 133.843 267.756 133.843 267.904Z" fill="#ECE2B2"/>
<path d="M133.842 279.088C133.842 279.246 123.53 279.373 110.806 279.373C98.081 279.373 87.7788 279.246 87.7788 279.088C87.7788 278.929 98.0911 278.812 110.806 278.812C123.52 278.812 133.842 278.939 133.842 279.088Z" fill="#ECE2B2"/>
<path d="M137.37 289.869C137.37 290.017 127.058 290.144 114.344 290.144C101.629 290.144 91.3169 290.017 91.3169 289.869C91.3169 289.721 101.619 289.594 114.344 289.594C127.068 289.594 137.37 289.71 137.37 289.869Z" fill="#ECE2B2"/>
<path d="M148.276 243.611C148.276 243.77 141.461 243.886 133.069 243.886C124.676 243.886 117.852 243.77 117.852 243.611C117.852 243.452 124.656 243.336 133.069 243.336C141.481 243.336 148.276 243.505 148.276 243.611Z" fill="#ECE2B2"/>
<path d="M149.382 232.631C149.382 232.789 142.597 233.075 134.235 233.276C125.872 233.477 119.068 233.53 119.068 233.382C119.068 233.234 125.842 232.937 134.215 232.726C142.587 232.514 149.382 232.482 149.382 232.631Z" fill="#ECE2B2"/>
<path d="M90.4725 262.922C90.0989 265.84 89.5517 268.73 88.8342 271.576C88.2874 274.466 87.5724 277.317 86.6934 280.114C87.0674 277.197 87.6112 274.307 88.3216 271.46C88.8632 268.568 89.5816 265.716 90.4725 262.922Z" fill="#263238"/>
<path d="M138.014 395.02L125.289 437.265L140.627 438.895L155.04 402.182L138.014 395.02Z" fill="#B78876"/>
<path d="M149.241 422.456L141.933 441.5C141.933 441.5 157.894 455.73 156.869 459.39L121.229 445.837L131.45 415.621L149.241 422.456Z" fill="#455A64"/>
<path d="M131.471 435.701C131.09 435.681 130.716 435.808 130.419 436.06C130.122 436.312 129.924 436.67 129.863 437.066C129.828 437.465 129.94 437.863 130.175 438.178C130.411 438.493 130.752 438.701 131.129 438.759C131.532 438.78 131.928 438.644 132.242 438.376C132.555 438.109 132.764 437.729 132.828 437.31C132.828 436.505 132.074 435.585 131.32 435.701" fill="#E0E0E0"/>
<path d="M121.229 445.837L122.374 442.832L156.125 456.988C156.125 456.988 157.462 458.311 156.869 459.421L121.229 445.837Z" fill="#E0E0E0"/>
<path d="M142.577 441.566C142.506 441.746 141.572 441.503 140.567 441.757C139.561 442.01 138.788 442.624 138.657 442.487C138.526 442.349 139.139 441.429 140.426 441.101C141.712 440.773 142.667 441.407 142.577 441.566Z" fill="#263238"/>
<path d="M145.753 444.613C145.753 444.814 144.869 444.835 144.014 445.385C143.16 445.935 142.738 446.644 142.537 446.644C142.336 446.644 142.607 445.491 143.683 444.835C144.758 444.179 145.813 444.443 145.753 444.613Z" fill="#263238"/>
<path d="M146.255 450.133C146.085 450.133 146.155 449.075 146.949 448.271C147.743 447.467 148.698 447.351 148.718 447.53C148.738 447.71 148.044 448.059 147.411 448.747C146.778 449.435 146.436 450.186 146.255 450.133Z" fill="#263238"/>
<path d="M143.743 437.023C143.612 437.16 142.898 436.6 141.893 436.293C140.888 435.986 140.004 436.028 139.964 435.838C139.923 435.647 140.898 435.266 142.074 435.647C143.25 436.028 143.914 436.906 143.743 437.023Z" fill="#263238"/>
<path d="M145.19 433.143C144.55 433.084 143.936 432.847 143.411 432.455C142.807 432.091 142.249 431.646 141.753 431.132C141.45 430.837 141.171 430.515 140.919 430.17C140.76 429.977 140.631 429.759 140.537 429.524C140.467 429.351 140.453 429.158 140.499 428.976C140.544 428.794 140.646 428.633 140.788 428.519C140.919 428.424 141.069 428.363 141.226 428.341C141.383 428.319 141.543 428.337 141.693 428.392C141.92 428.48 142.136 428.597 142.336 428.741C142.694 428.983 143.031 429.26 143.341 429.566C143.845 430.083 144.269 430.679 144.597 431.333C144.957 431.903 145.139 432.576 145.12 433.259C145.02 433.259 144.819 432.561 144.205 431.577C143.85 431.006 143.424 430.486 142.939 430.032C142.657 429.758 142.351 429.513 142.024 429.302C141.683 429.059 141.361 428.932 141.21 429.069C141.059 429.207 141.14 429.154 141.21 429.291C141.289 429.462 141.387 429.622 141.502 429.768C141.734 430.091 141.982 430.402 142.245 430.699C142.703 431.194 143.201 431.647 143.733 432.053C144.243 432.38 144.73 432.744 145.19 433.143Z" fill="#263238"/>
<path d="M144.869 433.324C144.715 432.657 144.772 431.955 145.029 431.325C145.36 430.191 145.983 429.177 146.829 428.394C147.009 428.184 147.238 428.026 147.493 427.935C147.748 427.844 148.021 427.824 148.286 427.875C148.444 427.942 148.581 428.053 148.682 428.197C148.784 428.341 148.845 428.512 148.859 428.69C148.876 428.946 148.856 429.203 148.799 429.452C148.717 429.893 148.571 430.317 148.366 430.711C148.029 431.378 147.538 431.946 146.939 432.361C145.934 433.07 145.1 433.017 145.11 432.943C145.647 432.656 146.168 432.335 146.668 431.981C147.163 431.559 147.564 431.028 147.844 430.425C148 430.09 148.115 429.734 148.185 429.367C148.266 428.955 148.236 428.574 148.075 428.563C147.914 428.553 147.492 428.68 147.241 428.944C146.951 429.199 146.686 429.483 146.447 429.79C146.039 430.322 145.701 430.909 145.442 431.536C145.029 432.573 144.979 433.335 144.869 433.324Z" fill="#263238"/>
<path d="M186.309 355.255L205.305 390.01L220.844 379.515L201.767 344.23L186.309 355.255Z" fill="#B78876"/>
<path d="M215.476 369.578L225.296 387.395C225.296 387.395 245.76 382.867 247.88 385.966L215.798 407.232L199.425 380.158L215.476 369.578Z" fill="#455A64"/>
<path d="M214.491 392.484C214.236 392.781 214.095 393.168 214.095 393.568C214.095 393.969 214.236 394.355 214.491 394.653C214.766 394.917 215.124 395.064 215.496 395.064C215.869 395.064 216.227 394.917 216.502 394.653C216.765 394.33 216.906 393.915 216.897 393.489C216.887 393.063 216.729 392.656 216.451 392.346C216.132 392.094 215.732 391.982 215.336 392.031C214.939 392.08 214.576 392.288 214.32 392.611" fill="#E0E0E0"/>
<path d="M215.798 407.21L214.25 404.417L245.589 385.077C245.589 385.077 247.408 384.78 247.881 385.944L215.798 407.21Z" fill="#E0E0E0"/>
<path d="M225.708 386.856C225.798 387.025 225.065 387.618 224.612 388.654C224.16 389.691 224.16 390.665 223.979 390.696C223.798 390.728 223.456 389.638 223.979 388.369C224.502 387.099 225.648 386.676 225.708 386.856Z" fill="#263238"/>
<path d="M229.95 386.085C230.08 386.223 229.568 386.953 229.457 388.011C229.347 389.069 229.628 389.894 229.457 389.989C229.286 390.084 228.643 389.227 228.804 387.873C228.965 386.519 229.849 385.937 229.95 386.085Z" fill="#263238"/>
<path d="M234.402 389.056C234.272 389.193 233.568 388.516 233.397 387.342C233.226 386.167 233.779 385.331 233.93 385.416C234.081 385.501 233.93 386.294 234.04 387.257C234.151 388.22 234.543 388.939 234.402 389.056Z" fill="#263238"/>
<path d="M223.045 383.057C223.045 383.258 222.21 383.502 221.366 384.115C220.522 384.729 220.009 385.512 219.838 385.427C219.668 385.343 219.989 384.306 220.994 383.555C221.999 382.803 223.045 382.877 223.045 383.057Z" fill="#263238"/>
<path d="M221.004 379.515C221.004 379.579 220.492 380.097 219.396 380.573C218.748 380.842 218.074 381.034 217.386 381.145C216.976 381.199 216.563 381.231 216.15 381.24C215.906 381.249 215.662 381.221 215.426 381.155C215.254 381.106 215.103 380.999 214.996 380.849C214.888 380.7 214.831 380.517 214.833 380.33C214.841 380.162 214.888 379.999 214.968 379.853C215.049 379.708 215.161 379.585 215.295 379.494C215.5 379.363 215.719 379.26 215.949 379.187C217.011 378.804 218.15 378.713 219.255 378.923C220.441 379.156 221.065 379.611 221.024 379.674C220.984 379.738 220.321 379.494 219.205 379.399C218.554 379.348 217.899 379.384 217.255 379.505C216.883 379.575 216.516 379.678 216.16 379.812C215.758 379.949 215.466 380.14 215.476 380.351C215.486 380.563 215.476 380.457 215.627 380.521C215.802 380.563 215.981 380.581 216.16 380.573C217.201 380.588 218.238 380.435 219.235 380.118C219.81 379.872 220.401 379.67 221.004 379.515Z" fill="#263238"/>
<path d="M220.944 379.885C220.944 379.949 220.241 379.557 219.537 378.531C219.134 377.924 218.835 377.247 218.653 376.531C218.544 376.109 218.474 375.677 218.442 375.241C218.396 374.959 218.421 374.67 218.512 374.401C218.604 374.133 218.759 373.893 218.964 373.706C219.106 373.612 219.27 373.562 219.437 373.562C219.604 373.562 219.768 373.612 219.909 373.706C220.112 373.848 220.294 374.019 220.452 374.214C220.729 374.56 220.959 374.945 221.135 375.357C221.421 376.049 221.542 376.805 221.487 377.558C221.387 378.848 220.854 379.483 220.804 379.43C220.915 378.808 220.992 378.179 221.035 377.547C221.022 376.879 220.871 376.222 220.593 375.621C220.433 375.271 220.227 374.947 219.98 374.659C219.718 374.341 219.417 374.13 219.306 374.257C219.206 374.383 219.133 374.531 219.093 374.69C219.053 374.849 219.047 375.015 219.075 375.177C219.093 375.576 219.143 375.972 219.226 376.362C219.373 377.025 219.61 377.663 219.929 378.256C220.472 379.293 221.015 379.8 220.944 379.885Z" fill="#263238"/>
<path d="M129.762 350.365L167.071 323.661L190.601 371.874L211.989 359.675C211.989 359.675 187.354 296.407 178.509 294.397C173.554 293.254 116.726 304.67 116.726 304.67L110.374 301.316L94.2924 299.253L93.2873 301.993C90.4801 309.476 89.1891 317.493 89.4972 325.532C89.8053 333.57 91.7056 341.452 95.0764 348.672L95.8604 350.354L129.762 350.365Z" fill="#263238"/>
<path d="M116.666 316.95C116.947 318.273 147.824 348.69 147.824 348.69L130.034 411.63L156.588 416.973L183.254 341.157L134.516 290.828L112.213 300.636L116.666 316.95Z" fill="#263238"/>
<path d="M167.071 323.65C167.152 323.777 158.859 329.85 148.567 337.225C138.275 344.599 129.852 350.471 129.762 350.365C129.672 350.259 137.964 344.154 148.266 336.78C158.568 329.406 166.981 323.523 167.071 323.65Z" fill="#455A64"/>
<path d="M186.218 362.878C185.874 362.426 185.572 361.941 185.314 361.429C184.761 360.477 183.997 359.07 183.062 357.335C181.203 353.854 178.73 348.987 176.117 343.581C173.504 338.174 171.192 333.191 169.574 329.583C168.76 327.774 168.117 326.304 167.684 325.288C167.43 324.774 167.225 324.236 167.071 323.68C167.375 324.162 167.643 324.668 167.875 325.193L169.886 329.425C171.634 333.075 173.976 337.952 176.559 343.358C179.142 348.765 181.585 353.674 183.364 357.197C184.218 358.9 184.932 360.308 185.475 361.376C185.759 361.856 186.008 362.358 186.218 362.878Z" fill="#455A64"/>
<path d="M153.362 337.434C152.568 339.754 151.614 342.01 150.507 344.184C149.551 346.432 148.439 348.603 147.18 350.68C148.926 346.109 150.992 341.682 153.362 337.434Z" fill="#455A64"/>
<path d="M69.8278 276.645L63.7973 300.09C63.0189 303.122 63.3788 306.354 64.8024 309.114C66.017 311.488 67.9392 313.375 70.2729 314.486C72.6067 315.597 75.2226 315.869 77.7178 315.261L125.51 302.872L120.485 292.419L82.8338 295.858L86.8542 279.755L69.8278 276.645Z" fill="#B78876"/>
<path d="M91.0249 312.225L91.6481 308.819L117.549 303.92L125.078 261.886L173.181 255.855L165.1 300.725L91.0249 312.225Z" fill="#455A64"/>
<path d="M146.678 284.527C146.125 284.501 145.592 284.298 145.152 283.945C144.712 283.592 144.384 283.106 144.214 282.552C144.044 281.997 144.039 281.401 144.199 280.844C144.36 280.286 144.679 279.794 145.113 279.432C145.547 279.071 146.076 278.858 146.629 278.822C147.181 278.786 147.731 278.929 148.204 279.231C148.677 279.533 149.051 279.981 149.276 280.513C149.501 281.045 149.566 281.638 149.462 282.21C149.381 282.904 149.043 283.537 148.522 283.971C148.001 284.405 147.338 284.604 146.678 284.527Z" fill="#EBEBEB"/>
<path d="M98.061 191.666L98.1515 194.702L99.237 240.196C99.3677 245.486 103.78 249.57 109.147 249.379C114.575 249.199 118.937 244.724 118.897 239.381C118.846 233.784 118.897 227.881 118.897 227.881C118.897 227.881 125.741 226.601 127.058 217.163C127.711 212.476 127.4 204.795 126.958 198.521C126.863 197.183 126.513 195.879 125.927 194.687C125.341 193.496 124.532 192.441 123.549 191.587C122.566 190.733 121.429 190.097 120.206 189.718C118.983 189.339 117.7 189.224 116.434 189.38L98.061 191.666Z" fill="#B78876"/>
<path d="M123.49 203.801C123.495 204.116 123.384 204.422 123.18 204.653C122.975 204.884 122.694 205.022 122.394 205.038C122.25 205.051 122.105 205.034 121.968 204.988C121.83 204.942 121.702 204.868 121.592 204.769C121.482 204.671 121.391 204.551 121.325 204.415C121.259 204.28 121.22 204.132 121.208 203.98C121.202 203.667 121.312 203.362 121.515 203.132C121.717 202.901 121.996 202.762 122.294 202.743C122.586 202.716 122.875 202.813 123.1 203.011C123.324 203.209 123.464 203.493 123.49 203.801Z" fill="#263238"/>
<path d="M125.42 202.573C125.279 202.732 124.414 202.065 123.168 202.076C121.922 202.086 121.037 202.763 120.897 202.605C120.756 202.446 120.977 202.245 121.369 201.938C121.898 201.543 122.53 201.329 123.178 201.324C123.821 201.318 124.449 201.521 124.977 201.906C125.359 202.245 125.49 202.499 125.42 202.573Z" fill="#263238"/>
<path d="M111.308 204.264C111.316 204.58 111.206 204.887 111.001 205.119C110.796 205.35 110.513 205.488 110.212 205.501C109.921 205.528 109.631 205.431 109.406 205.233C109.182 205.035 109.042 204.751 109.016 204.443C109.011 204.129 109.122 203.825 109.327 203.595C109.532 203.366 109.813 203.23 110.112 203.216C110.256 203.202 110.401 203.217 110.539 203.262C110.678 203.307 110.806 203.38 110.917 203.478C111.028 203.575 111.12 203.695 111.187 203.829C111.254 203.964 111.295 204.112 111.308 204.264Z" fill="#263238"/>
<path d="M113.288 202.963C113.148 203.122 112.283 202.456 111.037 202.466C109.791 202.477 108.906 203.154 108.765 202.995C108.625 202.836 108.836 202.635 109.228 202.329C109.761 201.934 110.395 201.72 111.047 201.715C111.686 201.709 112.312 201.912 112.836 202.297C113.218 202.604 113.359 202.889 113.288 202.963Z" fill="#263238"/>
<path d="M117.871 212.543C118.523 212.322 119.198 212.187 119.881 212.141C120.203 212.141 120.494 212.035 120.545 211.803C120.568 211.462 120.491 211.122 120.324 210.829L119.369 208.311C118.478 206.183 117.752 203.982 117.198 201.73C118.253 203.764 119.144 205.887 119.861 208.078L120.786 210.607C120.985 211.006 121.049 211.466 120.967 211.908C120.922 212.026 120.852 212.132 120.764 212.218C120.675 212.304 120.569 212.368 120.454 212.406C120.277 212.457 120.095 212.485 119.912 212.49C119.236 212.601 118.551 212.619 117.871 212.543Z" fill="#263238"/>
<path d="M118.897 227.916C114.674 228.058 110.498 226.959 106.835 224.742C106.835 224.742 109.851 231.175 118.756 230.18L118.897 227.916Z" fill="#AA6550"/>
<path d="M113.781 200.82C113.65 201.169 112.424 200.947 110.966 201.053C109.509 201.158 108.323 201.529 108.142 201.201C108.062 201.042 108.283 200.725 108.765 200.407C109.411 200.008 110.138 199.78 110.886 199.741C111.631 199.682 112.378 199.809 113.067 200.111C113.59 200.365 113.841 200.661 113.781 200.82Z" fill="#263238"/>
<path d="M124.907 198.014C124.686 198.31 123.832 198.014 122.817 198.014C121.802 198.014 120.927 198.236 120.726 197.93C120.525 197.623 120.726 197.485 121.138 197.2C121.644 196.856 122.236 196.679 122.838 196.692C123.439 196.705 124.024 196.908 124.515 197.274C124.877 197.612 124.998 197.919 124.907 198.014Z" fill="#263238"/>
<path d="M117.741 217.248C117.379 217.309 117.009 217.269 116.666 217.132L115.661 216.835C115.379 216.74 115.068 216.603 114.716 216.465C114.363 216.363 114.044 216.162 113.791 215.883C113.58 215.598 113.62 215.09 114.103 214.635C114.438 214.378 114.826 214.209 115.236 214.142C115.645 214.075 116.064 214.112 116.457 214.249C116.85 214.387 117.207 214.621 117.496 214.933C117.786 215.245 118.001 215.625 118.123 216.042C118.334 216.708 118.073 217.153 117.741 217.248Z" fill="#AA6550"/>
<path d="M117.911 217.13C117.791 217.225 117.188 215.924 115.74 215.532C114.855 215.399 113.953 215.504 113.117 215.839C113.117 215.839 113.278 215.501 113.77 215.236C114.421 214.894 115.167 214.812 115.871 215.003C116.577 215.192 117.195 215.643 117.61 216.273C117.922 216.749 117.972 217.109 117.911 217.13Z" fill="#263238"/>
<path d="M108.414 185.55C109.794 187.842 110.387 190.562 110.092 193.257C109.798 195.953 108.634 198.461 106.796 200.362C104.655 202.478 101.469 204.097 101.258 207.165C101.016 210.561 104.755 213.1 104.755 216.507C104.755 219.914 100.926 222.242 100.172 225.659C99.5689 228.41 101.177 231.16 102.946 233.245C104.715 235.329 106.966 237.17 107.972 239.751C108.505 241.206 108.754 242.759 108.702 244.317C108.65 245.876 108.299 247.407 107.67 248.818C106.398 251.624 104.701 254.193 102.645 256.425C99.9717 255.418 97.1893 254.768 94.3626 254.489C94.5334 253.368 94.7143 252.236 94.8953 251.114C94.8687 251.77 94.6451 252.4 94.2568 252.913C93.8684 253.426 93.3354 253.797 92.7343 253.971C91.5226 254.295 90.2552 254.313 89.0355 254.024C85.2683 253.397 81.5663 252.394 77.9795 251.03C79.5835 249.508 80.9414 247.721 81.9999 245.74C82.5215 244.737 82.8041 243.617 82.8233 242.474C82.8426 241.332 82.598 240.201 82.1104 239.18C81.226 237.593 79.5977 236.577 78.7836 234.948C77.5674 232.515 78.5725 229.425 80.3013 227.362C82.03 225.299 84.382 223.956 86.4424 222.263C88.5028 220.57 90.3924 218.285 90.5532 215.534C90.7744 211.979 88.0305 208.731 88.3722 205.187C88.7541 201.145 92.8147 198.669 94.4028 194.966C95.5586 192.29 95.4079 188.989 97.1768 186.714C97.8708 185.902 98.7333 185.27 99.6974 184.866C100.661 184.462 101.701 184.298 102.735 184.386C104.802 184.575 106.791 185.303 108.524 186.502" fill="#263238"/>
<path d="M119.62 228.929C118.012 229.86 118.103 232.452 119.088 234.092C120.073 235.732 121.651 236.906 122.626 238.557C123.45 240.063 123.737 241.83 123.437 243.54C123.137 245.249 122.269 246.791 120.987 247.888L124.847 249.422L125.691 248.925L128.063 247.507L126.948 250.396H129.42C130.734 250.424 132.028 250.065 133.158 249.358C134.287 248.652 135.206 247.627 135.811 246.4C136.416 245.172 136.682 243.79 136.579 242.412C136.476 241.033 136.009 239.712 135.23 238.599C134.224 237.118 132.636 235.943 132.285 234.155C131.873 231.986 133.43 230.029 134.184 227.977C134.784 226.243 134.847 224.353 134.363 222.58C133.879 220.806 132.873 219.24 131.491 218.105" fill="#263238"/>
<path d="M41.6349 140.346C41.6311 140.118 41.6912 139.895 41.8079 139.703C41.9246 139.511 42.0925 139.36 42.2905 139.269C42.4885 139.178 42.7078 139.15 42.9208 139.189C43.1337 139.229 43.3308 139.334 43.4871 139.491C43.6435 139.648 43.7521 139.851 43.7994 140.073C43.8466 140.295 43.8304 140.527 43.7527 140.739C43.6751 140.952 43.5394 141.135 43.3629 141.267C43.1863 141.398 42.9768 141.472 42.7606 141.478C42.6159 141.482 42.4719 141.456 42.3368 141.401C42.2017 141.347 42.0782 141.264 41.9735 141.159C41.8689 141.054 41.785 140.928 41.7269 140.788C41.6688 140.648 41.6375 140.498 41.6349 140.346Z" fill="#ECE2B2"/>
<path d="M74.3906 178.073C74.3906 178.073 74.059 178.073 73.5062 178.369C72.7491 178.712 72.1105 179.292 71.6769 180.03C71.3692 180.535 71.1734 181.106 71.104 181.702C71.0266 182.384 71.142 183.076 71.4357 183.691C71.7364 184.42 72.2428 185.035 72.8863 185.452C73.5298 185.869 74.2793 186.067 75.0336 186.021C75.7879 185.975 76.5105 185.686 77.1038 185.194C77.697 184.701 78.1323 184.029 78.3507 183.267C78.5757 182.62 78.6142 181.917 78.4613 181.247C78.3207 180.664 78.0637 180.119 77.7075 179.649C77.1901 178.968 76.4895 178.466 75.6973 178.21C75.1244 178.041 74.7826 178.062 74.7826 178.03H75.0239C75.1242 178.021 75.2251 178.021 75.3254 178.03C75.4577 178.038 75.5889 178.059 75.7174 178.094C76.5682 178.305 77.3304 178.803 77.8884 179.512C78.2852 179.994 78.5707 180.566 78.7226 181.183C78.8877 181.883 78.8562 182.618 78.6322 183.299C78.3865 184.072 77.9409 184.757 77.3456 185.278C76.7112 185.852 75.9186 186.197 75.0842 186.262C74.2498 186.296 73.4264 186.052 72.7322 185.563C72.0805 185.123 71.5584 184.5 71.2246 183.765C70.9259 183.107 70.8109 182.373 70.8929 181.649C70.9779 181.016 71.1978 180.412 71.5362 179.882C72.0173 179.108 72.7221 178.519 73.5464 178.2C73.6744 178.152 73.8054 178.113 73.9384 178.083C74.033 178.053 74.131 178.035 74.2298 178.03C74.285 178.037 74.3391 178.051 74.3906 178.073Z" fill="#263238"/>
<path d="M84.2007 188.304C84.2007 188.304 83.9896 188.357 83.658 188.516C83.1799 188.738 82.7769 189.107 82.5021 189.574C82.2943 189.906 82.1721 190.29 82.1475 190.687C82.1228 191.083 82.1965 191.48 82.3614 191.838C82.5486 192.287 82.8621 192.665 83.2595 192.922C83.657 193.178 84.1194 193.3 84.5847 193.271C85.0499 193.242 85.4956 193.064 85.8618 192.76C86.228 192.457 86.4971 192.043 86.633 191.574C86.7581 191.198 86.7878 190.794 86.719 190.403C86.6503 190.011 86.4855 189.645 86.2411 189.341C85.9166 188.91 85.4748 188.592 84.9746 188.431C84.6229 188.315 84.4118 188.326 84.4118 188.294C84.6062 188.241 84.8104 188.241 85.0048 188.294C85.4634 188.408 85.8844 188.651 86.2239 188.995C86.5633 189.339 86.8088 189.773 86.9346 190.251C87.0594 190.704 87.0594 191.185 86.9346 191.637C86.7865 192.162 86.4883 192.627 86.0806 192.967C85.673 193.307 85.1756 193.507 84.6562 193.54C84.1367 193.572 83.6204 193.435 83.1775 193.148C82.7345 192.86 82.3864 192.436 82.1805 191.933C81.9796 191.508 81.906 191.028 81.9694 190.558C82.0235 190.156 82.1645 189.772 82.3815 189.437C82.6904 188.947 83.1418 188.576 83.668 188.379C83.8383 188.313 84.0201 188.288 84.2007 188.304Z" fill="#263238"/>
<path d="M72.8031 157.101C72.8031 157.101 72.8031 156.922 72.8031 156.572C72.8031 156.223 72.8031 155.694 72.8031 155.017C72.8031 154.668 72.8031 154.287 72.8031 153.864C72.8031 153.441 72.7428 152.986 72.7126 152.489C72.6825 151.991 72.6422 151.431 72.592 150.88C72.5793 150.585 72.5423 150.291 72.4814 150.002L72.3307 149.071C71.8348 145.961 70.8963 142.947 69.5466 140.131C67.7901 136.405 65.371 133.069 62.4204 130.302L61.164 129.149C60.7218 128.789 60.2494 128.451 59.7871 128.091L59.0735 127.562C58.8491 127.368 58.6066 127.198 58.3498 127.054L56.8019 126.07C56.5406 125.912 56.2893 125.742 56.018 125.594L55.1837 125.192L53.5052 124.388C52.9223 124.134 52.3192 123.944 51.7262 123.722L50.8216 123.394L50.3593 123.235L49.8869 123.119C48.6181 122.766 47.3289 122.501 46.0273 122.325C45.3639 122.251 44.6905 122.124 44.0171 122.082L42.0069 122.018C41.6652 122.018 41.3235 122.018 41.0018 122.018L39.9967 122.103C39.2932 122.166 38.5896 122.188 37.8961 122.283C36.4744 122.495 35.0676 122.806 33.6847 123.214L32.6294 123.531C32.4585 123.531 32.2776 123.626 32.1067 123.69L31.5941 123.901L29.5236 124.748C28.8502 125.065 28.1869 125.446 27.5134 125.806C27.1818 125.996 26.84 126.144 26.5083 126.356L25.5032 127.001C24.2007 127.86 22.9549 128.811 21.7743 129.847L20.0757 131.53L19.6435 131.953L19.2516 132.418L18.4776 133.36L17.6937 134.291L16.9901 135.349L16.2966 136.407L15.9448 136.925C15.8342 137.105 15.7337 137.285 15.6332 137.465L14.417 139.676C14.0854 140.449 13.7436 141.221 13.4119 142.004C10.796 148.474 10.2629 155.668 11.8942 162.487L12.5576 164.962L13.432 167.332L13.6532 167.925L13.9245 168.485L14.4673 169.617L15 170.728L15.6433 171.786L16.2765 172.844L16.5881 173.363L16.9499 173.849L18.3872 175.796C19.4021 177.011 20.4934 178.153 21.6537 179.213L22.5081 180.007C22.7895 180.271 23.1111 180.483 23.4126 180.716C24.0258 181.171 24.6188 181.657 25.2419 182.081L27.1516 183.202L27.624 183.498L28.1266 183.742L29.1316 184.218C30.4374 184.845 31.7803 185.382 33.152 185.826C33.8355 186.038 34.529 186.175 35.1622 186.355L36.1673 186.609C36.5091 186.683 36.8508 186.704 37.1724 186.757L39.1826 187.032C39.856 187.106 40.5294 187.032 41.1928 187.117C42.5078 187.163 43.8243 187.114 45.1328 186.969H45.6152L46.0876 186.884L47.0324 186.715C47.6556 186.588 48.2787 186.503 48.8818 186.344L50.6709 185.826L51.5553 185.572L52.3996 185.223L54.058 184.546C54.3324 184.443 54.598 184.315 54.852 184.165L55.636 183.752C56.1486 183.477 56.6411 183.223 57.1537 182.938L58.5609 181.996C61.9059 179.744 64.8039 176.83 67.0941 173.416C67.3454 173.045 67.6067 172.686 67.8479 172.358L68.4711 171.236L69.0742 170.178C69.1747 169.998 69.2752 169.829 69.3656 169.649C69.4561 169.469 69.5164 169.279 69.5968 169.099L70.5014 167.047C70.7627 166.391 70.9436 165.724 71.1547 165.121L71.4562 164.222C71.555 163.947 71.6323 163.664 71.6874 163.375L72.0492 161.799C72.1497 161.312 72.2704 160.868 72.3407 160.455C72.4111 160.043 72.4412 159.662 72.4915 159.323C72.5719 158.646 72.6422 158.138 72.6925 157.778C72.7428 157.419 72.7729 157.26 72.7729 157.26C72.7729 157.26 72.7729 157.44 72.7729 157.789L72.592 159.334C72.592 159.672 72.5116 160.053 72.4613 160.466C72.4111 160.878 72.2804 161.333 72.1799 161.82C72.0794 162.307 71.9588 162.878 71.8382 163.396C71.7845 163.689 71.7072 163.975 71.607 164.253C71.5065 164.55 71.416 164.846 71.3155 165.153C71.1045 165.766 70.9336 166.433 70.6622 167.099C70.3908 167.766 70.0793 168.443 69.7777 169.215L69.5365 169.766C69.4561 169.945 69.3455 170.125 69.2551 170.305C69.0541 170.654 68.853 171.025 68.652 171.363C68.451 171.702 68.2399 172.114 68.0289 172.506C67.8178 172.897 67.5263 173.236 67.275 173.617C64.9655 177.014 62.0544 179.909 58.7016 182.144L57.2844 183.096C56.7919 183.382 56.2793 183.646 55.7566 183.922L54.9827 184.345C54.7243 184.493 54.4555 184.62 54.1786 184.726L52.5001 185.413L51.6558 185.762L50.7714 186.027L48.9722 186.556C48.3591 186.715 47.7259 186.799 47.1028 186.926L46.1479 187.106L45.6755 187.191H45.183C43.8683 187.343 42.5451 187.4 41.223 187.36C40.5495 187.36 39.8661 187.36 39.2128 187.275L37.2026 187C36.8508 187 36.5091 186.926 36.1975 186.842L35.1924 186.598C34.5089 186.418 33.8053 186.281 33.1219 186.069C31.7477 185.628 30.4044 185.088 29.1015 184.451L28.0964 183.974L27.5938 183.731L27.1114 183.435L25.1716 182.25C24.5484 181.827 23.9454 181.329 23.3322 180.875C23.0207 180.631 22.699 180.42 22.4176 180.155L21.5532 179.362C20.3279 178.292 19.1758 177.132 18.1057 175.891L16.6484 173.934L16.2865 173.437L15.9649 172.908L15.3317 171.85L14.6884 170.792L14.1457 169.67L13.5929 168.528L13.3215 167.956L13.0803 167.332C12.7787 166.539 12.4873 165.735 12.1958 164.941C11.9043 164.148 11.7535 163.28 11.5224 162.444C9.89434 155.565 10.4413 148.315 13.0803 141.792L14.0854 139.433C14.4974 138.692 14.9095 137.952 15.3116 137.211C15.4221 137.031 15.5126 136.841 15.6232 136.661L15.9749 136.142L16.6886 135.084L17.3921 134.026L18.1862 133.074L18.9701 132.133L19.3621 131.667L19.7943 131.233L21.513 129.53C22.7054 128.488 23.9648 127.533 25.2821 126.673L26.2872 126.028C26.6089 125.806 26.9606 125.658 27.2923 125.467C27.9657 125.118 28.6291 124.727 29.3025 124.409L31.3931 123.552L31.9158 123.341L32.4384 123.182L33.5038 122.875C34.8959 122.464 36.313 122.153 37.7453 121.944C38.4589 121.849 39.1625 121.817 39.8661 121.754L40.8712 121.68C41.2129 121.68 41.5647 121.68 41.8763 121.68L43.9468 121.743C44.6302 121.743 45.2936 121.912 45.9569 121.997C47.2707 122.168 48.5707 122.441 49.8467 122.812L50.3291 122.928C50.4799 122.928 50.6306 123.034 50.7814 123.087L51.696 123.415C52.2991 123.648 52.9122 123.827 53.4851 124.081L55.2943 125.012L56.1285 125.414L56.9226 125.891L58.4704 126.843C58.7263 126.997 58.9715 127.17 59.2041 127.361L59.9177 127.901C60.3801 128.26 60.8625 128.599 61.3048 128.959L62.5712 130.122C65.5468 132.924 67.9801 136.305 69.7375 140.078C71.0879 142.91 72.0167 145.943 72.4915 149.071C72.5417 149.389 72.592 149.706 72.6423 150.002C72.6944 150.296 72.7279 150.593 72.7428 150.891C72.7428 151.462 72.8232 152.002 72.8533 152.499C72.8835 152.996 72.9237 153.462 72.9337 153.885C72.9438 154.308 72.9337 154.689 72.9337 155.038C72.9337 155.715 72.9337 156.234 72.9337 156.594L72.8031 157.101Z" fill="#263238"/>
<path d="M415.329 0.292969H207.827V331.858H415.329V0.292969Z" fill="white"/>
<path d="M414.968 17.1836H207.405V159.875H414.968V17.1836Z" fill="#F5F5F5"/>
<path d="M393.62 207.248C393.62 207.406 358.059 207.523 314.217 207.523C270.375 207.523 234.814 207.406 234.814 207.248C234.814 207.089 270.365 206.973 314.217 206.973C358.069 206.973 393.62 207.1 393.62 207.248Z" fill="black"/>
<path d="M359.717 216.193C359.717 216.341 339.344 216.468 314.206 216.468C289.069 216.468 268.686 216.341 268.686 216.193C268.686 216.045 289.069 215.918 314.206 215.918C339.344 215.918 359.717 216.003 359.717 216.193Z" fill="black"/>
<path d="M345.365 102.892C348.689 99.6274 351.073 95.4436 352.243 90.8195C353.413 86.1953 353.323 81.3177 351.981 76.7454C350.64 72.173 348.103 68.0907 344.659 64.966C341.216 61.8413 337.007 59.8006 332.513 59.0776C328.019 58.3546 323.422 58.9786 319.249 60.878C315.077 62.7774 311.497 65.8755 308.919 69.8174C306.342 73.7594 304.871 78.3858 304.676 83.1668C304.48 87.9477 305.568 92.69 307.814 96.8504L302.889 101.685L304.075 110.287L296.427 108.086L290.265 114.138L291.492 122.687L283.853 120.433L278.556 125.628L279.28 130.918L274.616 129.542L271.54 132.568L271.078 140.535L282.365 143.529L319.001 107.557C323.345 109.59 328.162 110.231 332.85 109.402C337.538 108.572 341.891 106.308 345.365 102.892ZM341.746 71.5643C342.684 72.6213 343.303 73.9474 343.525 75.3748C343.746 76.8022 343.561 78.2667 342.992 79.5831C342.422 80.8994 341.495 82.0085 340.327 82.7698C339.158 83.5312 337.802 83.9108 336.429 83.8604C335.055 83.81 333.727 83.3321 332.612 82.487C331.497 81.6419 330.645 80.4676 330.165 79.1127C329.684 77.7579 329.595 76.2833 329.911 74.8756C330.226 73.4679 330.931 72.1903 331.937 71.2045C333.283 69.8841 335.073 69.1803 336.912 69.2478C338.752 69.3152 340.49 70.1484 341.746 71.5643Z" fill="#263238"/>
<path d="M341.747 71.5621C341.747 71.5621 341.294 71.1178 340.37 70.5041C339.055 69.6771 337.52 69.3242 335.998 69.499C334.764 69.6392 333.591 70.1383 332.611 70.9404C331.632 71.7425 330.883 72.8159 330.45 74.0404C330.018 75.2649 329.917 76.5921 330.16 77.8733C330.404 79.1544 330.981 80.339 331.828 81.2942C332.675 82.2494 333.758 82.9376 334.955 83.2815C336.152 83.6255 337.417 83.6118 338.607 83.2418C339.798 82.8718 340.867 82.1602 341.695 81.1868C342.523 80.2133 343.077 79.0164 343.295 77.7302C343.574 76.1452 343.344 74.5074 342.641 73.0751C342.139 72.0171 341.697 71.5939 341.747 71.5515C341.797 71.5092 341.877 71.6468 342.078 71.8689C342.374 72.1894 342.634 72.5443 342.852 72.9269C343.67 74.3862 343.975 76.1007 343.717 77.7726C343.567 78.7672 343.228 79.72 342.722 80.5745C342.216 81.429 341.551 82.1677 340.769 82.7469C339.986 83.3261 339.101 83.7339 338.166 83.9463C337.23 84.1586 336.264 84.1711 335.324 83.983C333.81 83.6908 332.425 82.8929 331.375 81.7077C330.325 80.5225 329.666 79.0128 329.495 77.4023C329.382 76.4028 329.461 75.3898 329.727 74.4231C329.993 73.4564 330.44 72.5557 331.043 71.7743C331.646 70.993 332.391 70.3469 333.235 69.8743C334.079 69.4017 335.005 69.1122 335.957 69.0229C337.564 68.8668 339.171 69.3086 340.5 70.2714C340.868 70.5199 341.206 70.8148 341.506 71.1495C341.747 71.4246 341.807 71.5516 341.747 71.5621Z" fill="#263238"/>
<path d="M345.365 102.891C345.365 102.891 345.254 103.018 345.013 103.24L343.948 104.298C342.504 105.536 340.933 106.6 339.264 107.472C336.088 109.073 332.62 109.93 329.099 109.983C325.578 110.036 322.089 109.284 318.871 107.779H319.072L282.496 143.814L282.396 143.93H282.245L270.958 140.947L270.727 140.894V140.64C270.867 138.154 271.018 135.435 271.179 132.673V132.419L271.259 132.335L274.405 129.245L274.516 129.129H274.677L279.34 130.504L278.968 130.843C278.737 129.203 278.496 127.404 278.245 125.553V125.394L278.355 125.288L283.652 120.083L283.773 119.956H283.934L291.572 122.21L291.2 122.559C290.828 119.829 290.426 116.909 290.024 113.957V113.788L290.145 113.682L291.773 112.074L296.306 107.631L296.427 107.504H296.588L304.236 109.757L303.855 110.106C303.459 107.207 303.067 104.34 302.679 101.505V101.346L302.789 101.23L307.714 96.3946L307.664 96.7755C305.758 93.2116 304.68 89.2237 304.518 85.1375C304.424 83.1633 304.559 81.1843 304.92 79.2445C305.249 77.3369 305.789 75.4764 306.528 73.7006C308.392 69.2093 311.438 65.3726 315.305 62.6425C319.172 59.9125 323.7 58.403 328.355 58.2918C333.01 58.1806 337.598 59.4724 341.579 62.015C345.559 64.5576 348.767 68.2449 350.823 72.6426C352.751 76.7915 353.574 81.4132 353.205 86.0156C352.95 89.4464 352.026 92.7851 350.491 95.8233C350.34 96.1407 350.189 96.4369 350.039 96.7331L349.546 97.5372C349.215 98.0556 348.943 98.5952 348.621 98.9867C347.968 99.8119 347.466 100.553 346.973 101.103L345.767 102.51L345.375 102.891C345.375 102.891 345.486 102.743 345.727 102.467L346.812 101.251C347.285 100.722 347.817 99.9706 348.41 99.1348C348.712 98.701 348.973 98.1932 349.295 97.6853C349.456 97.4208 349.617 97.1563 349.777 96.8707L350.22 95.9714C351.704 92.9645 352.599 89.6738 352.85 86.2953C353.101 82.9168 352.704 79.5196 351.682 76.3062C350.66 73.0927 349.034 70.1286 346.9 67.5905C344.767 65.0525 342.171 62.9923 339.265 61.5327C336.36 60.0731 333.205 59.244 329.988 59.0947C326.772 58.9454 323.56 59.4791 320.544 60.6638C317.528 61.8485 314.769 63.6602 312.432 65.9908C310.095 68.3214 308.227 71.1233 306.94 74.2296C306.223 75.9666 305.697 77.784 305.372 79.6465C305.029 81.5423 304.9 83.4744 304.99 85.402C305.162 89.3779 306.219 93.2557 308.076 96.7226L308.186 96.9342L308.016 97.1034L303.101 101.938L303.191 101.663C303.58 104.485 303.972 107.355 304.367 110.275L304.437 110.752L303.985 110.625L296.346 108.371L296.638 108.297L292.105 112.741L290.487 114.317L290.577 114.031C290.979 116.983 291.381 119.914 291.753 122.633L291.824 123.12L291.371 122.993L283.733 120.728L284.014 120.654C282.195 122.453 280.386 124.22 278.717 125.86L278.818 125.585C279.059 127.394 279.3 129.192 279.531 130.875L279.592 131.34L279.159 131.213L274.506 129.838L274.777 129.764L271.691 132.79L271.782 132.589C271.621 135.35 271.46 138.069 271.32 140.555L271.109 140.249L282.396 143.243L282.144 143.317L318.83 107.408L318.921 107.324H319.031C322.205 108.827 325.648 109.592 329.128 109.566C332.607 109.54 336.041 108.725 339.194 107.176C340.857 106.341 342.434 105.327 343.898 104.15L344.993 103.187L345.365 102.891Z" fill="#263238"/>
<path d="M344.551 100.003C347.874 96.7409 350.257 92.5596 351.427 87.938C352.597 83.3164 352.507 78.4414 351.167 73.8712C349.827 69.3009 347.292 65.2202 343.851 62.0963C340.411 58.9724 336.204 56.9316 331.713 56.2076C327.221 55.4835 322.627 56.1055 318.456 58.0024C314.285 59.8992 310.705 62.9942 308.127 66.9329C305.55 70.8716 304.078 75.4948 303.88 80.2732C303.683 85.0516 304.768 89.7919 307.011 93.9513L302.096 98.7758L303.272 107.388L295.633 105.124L289.482 111.186L290.658 119.788L283.019 117.534L277.722 122.739L278.436 128.029L273.782 126.665L270.697 129.69L270.234 137.657L281.522 140.641L318.157 104.669C322.505 106.712 327.328 107.36 332.023 106.53C336.719 105.7 341.077 103.429 344.551 100.003ZM340.973 68.6758C341.911 69.7329 342.53 71.059 342.751 72.4864C342.973 73.9138 342.787 75.3783 342.218 76.6947C341.649 78.011 340.721 79.12 339.553 79.8814C338.385 80.6428 337.028 81.0223 335.655 80.972C334.282 80.9216 332.954 80.4436 331.839 79.5985C330.724 78.7534 329.872 77.5792 329.391 76.2243C328.91 74.8694 328.822 73.3949 329.137 71.9872C329.453 70.5795 330.158 69.3019 331.163 68.3161C331.829 67.661 332.612 67.1506 333.466 66.8141C334.319 66.4776 335.228 66.3215 336.139 66.3549C337.05 66.3884 337.946 66.6105 338.776 67.0088C339.605 67.407 340.352 67.9735 340.973 68.6758Z" fill="#ECE2B2"/>
<path d="M340.973 68.674C340.973 68.674 340.521 68.2296 339.596 67.616C338.295 66.7617 336.759 66.3894 335.234 66.558C334.003 66.7004 332.834 67.2005 331.858 68.0022C330.882 68.8039 330.137 69.8757 329.706 71.0977C329.276 72.3196 329.176 73.6436 329.42 74.9216C329.663 76.1995 330.239 77.381 331.084 78.3339C331.929 79.2868 333.009 79.9735 334.203 80.3173C335.397 80.6611 336.659 80.6484 337.847 80.2805C339.035 79.9127 340.102 79.2043 340.929 78.2345C341.756 77.2647 342.311 76.0718 342.531 74.7892C342.808 73.203 342.575 71.5648 341.868 70.134C341.365 69.076 340.933 68.6528 340.973 68.6105C341.013 68.5682 341.104 68.7057 341.315 68.9279C341.607 69.249 341.863 69.6039 342.079 69.9859C342.899 71.4478 343.205 73.1668 342.943 74.8421C342.792 75.835 342.453 76.786 341.947 77.6389C341.441 78.4919 340.777 79.2295 339.996 79.8083C339.215 80.3871 338.332 80.7954 337.398 81.0091C336.464 81.2228 335.5 81.2376 334.561 81.0525C333.047 80.7761 331.658 79.9941 330.599 78.8223C329.54 77.6505 328.868 76.1511 328.681 74.5459C328.571 73.5469 328.652 72.535 328.919 71.5695C329.186 70.604 329.634 69.7044 330.236 68.9237C330.838 68.143 331.583 67.4969 332.425 67.0234C333.268 66.5499 334.192 66.2586 335.144 66.1665C336.751 66.0126 338.359 66.4582 339.687 67.4256C340.057 67.671 340.394 67.9662 340.692 68.3037C340.903 68.5365 340.993 68.6634 340.973 68.674Z" fill="#263238"/>
<path d="M344.551 100.005C344.551 100.005 344.44 100.132 344.209 100.354L343.144 101.348C341.697 102.583 340.126 103.647 338.46 104.522C335.282 106.123 331.813 106.98 328.29 107.032C324.768 107.085 321.276 106.334 318.056 104.829H318.257L281.692 140.864L281.581 140.97H281.441L270.143 137.987L269.922 137.923V137.68C270.063 135.194 270.224 132.474 270.375 129.713V129.586L270.455 129.512L273.541 126.476L273.661 126.359H273.822L278.476 127.724L278.104 128.073C277.883 126.433 277.631 124.635 277.38 122.783V122.625L277.501 122.508L282.788 117.313L282.908 117.186L283.079 117.239L290.718 119.493L290.336 119.842L289.16 111.262V111.092L289.27 110.976L290.909 109.378L295.432 104.935L295.552 104.808L295.723 104.861L303.362 107.114L302.98 107.463C302.585 104.565 302.193 101.697 301.804 98.8619V98.6927L301.925 98.5869L306.85 93.7518L306.789 94.1327C304.883 90.5688 303.805 86.5809 303.643 82.4948C303.554 80.5206 303.689 78.5423 304.045 76.6017C304.376 74.6946 304.916 72.8343 305.654 71.0578C307.94 65.4613 312.045 60.904 317.232 58.2015C322.419 55.499 328.35 54.8276 333.965 56.3077C339.579 57.7877 344.51 61.3224 347.875 66.2793C351.24 71.2362 352.819 77.2917 352.33 83.3623C352.074 86.7928 351.15 90.1311 349.616 93.1699L349.164 94.0798L348.672 94.8839C348.34 95.4023 348.069 95.9419 347.757 96.3333C347.104 97.1586 346.601 97.8992 346.109 98.4493L344.943 99.6237C344.691 99.8882 344.551 100.015 344.551 100.015C344.551 100.015 344.671 99.8565 344.913 99.5814L345.988 98.3753C346.46 97.8463 346.993 97.0951 347.586 96.2593C347.888 95.8361 348.159 95.3282 348.481 94.8098L348.963 94.0058L349.395 93.0959C350.881 90.0744 351.767 86.7663 351.999 83.3729C352.426 77.4312 350.842 71.522 347.528 66.6909C344.215 61.8599 339.384 58.4185 333.892 56.9757C328.4 55.5329 322.6 56.1817 317.518 58.8073C312.436 61.4329 308.401 65.8661 306.126 71.3223C305.412 73.0597 304.89 74.8771 304.568 76.7393C304.219 78.6343 304.091 80.567 304.186 82.4948C304.354 86.4698 305.408 90.3476 307.262 93.8153L307.382 94.0269L307.211 94.1962L302.286 99.0312L302.377 98.7561C302.772 101.577 303.164 104.445 303.553 107.358L303.623 107.844L303.181 107.707L295.512 105.443L295.794 105.369L291.271 109.823L289.632 111.42L289.723 111.145C290.135 114.097 290.527 117.017 290.899 119.747L290.969 120.233L290.527 120.096L282.878 117.842L283.17 117.768L277.873 122.963L277.963 122.699C278.204 124.508 278.456 126.296 278.677 127.936L278.737 128.412L278.305 128.285L273.651 126.909L273.923 126.835L270.847 129.861L270.937 129.65C270.777 132.411 270.616 135.141 270.465 137.616L270.254 137.31L281.541 140.314L281.29 140.388L317.976 104.48L318.066 104.395L318.177 104.448C321.352 105.944 324.795 106.704 328.273 106.679C331.752 106.653 335.184 105.842 338.339 104.3C340.005 103.464 341.584 102.45 343.053 101.274L344.139 100.311L344.551 100.005Z" fill="#263238"/>
<path d="M342.33 98.0157C343.523 96.6708 344.612 95.2273 345.586 93.699C346.689 91.8876 347.526 89.9117 348.069 87.8378C348.811 85.089 349.047 82.2158 348.762 79.3738C348.432 75.9394 347.341 72.6345 345.576 69.7249C343.544 66.3939 340.706 63.6919 337.354 61.8957C335.559 60.9118 333.63 60.2266 331.635 59.8643C330.61 59.6626 329.572 59.5354 328.53 59.4835C327.465 59.4662 326.401 59.5228 325.344 59.6527C320.903 60.1888 316.743 62.2096 313.474 65.4183C310.205 68.627 307.999 72.8545 307.181 77.48C306.984 78.5808 306.857 79.6941 306.8 80.8127C306.779 81.9118 306.829 83.0111 306.95 84.103C307.153 86.2232 307.668 88.2971 308.478 90.25C309.946 93.8959 312.312 97.0628 315.333 99.4228C317.962 101.484 321.017 102.861 324.248 103.443C326.912 103.94 329.642 103.894 332.289 103.306C334.292 102.873 336.223 102.128 338.018 101.094C339.533 100.183 340.975 99.1427 342.33 97.9839C342.33 97.9839 342.259 98.0792 342.088 98.2379L341.335 98.9573C340.931 99.347 340.497 99.7009 340.038 100.015C339.434 100.497 338.796 100.928 338.128 101.306C336.33 102.39 334.384 103.179 332.359 103.644C327.472 104.793 322.356 104.105 317.901 101.699C313.445 99.2931 309.93 95.3211 307.965 90.4722C307.127 88.4556 306.591 86.314 306.377 84.1242C306.089 81.889 306.154 79.619 306.568 77.4059C307.403 72.6464 309.669 68.2953 313.031 64.9941C316.393 61.6929 320.674 59.6164 325.243 59.0708C327.395 58.7793 329.578 58.8579 331.706 59.3036C333.753 59.6908 335.732 60.4043 337.576 61.4196C341.008 63.2733 343.906 66.0607 345.968 69.4921C347.596 72.2168 348.655 75.275 349.075 78.4635C349.494 81.652 349.264 84.898 348.4 87.9859C347.821 90.0845 346.936 92.076 345.777 93.8895C345.379 94.5623 344.928 95.1993 344.43 95.7939C344.096 96.2551 343.726 96.6868 343.325 97.0846L342.591 97.8252C342.43 97.9416 342.34 98.0263 342.33 98.0157Z" fill="#263238"/>
<path d="M341.355 79.9335C341.304 79.9335 341.857 79.3833 342.531 78.2513C343.478 76.6354 343.881 74.7313 343.676 72.8449C343.537 71.4629 343.069 70.1402 342.315 68.9992C341.562 67.8582 340.547 66.9357 339.364 66.3171C337.983 65.5729 336.422 65.2818 334.882 65.4813C333.672 65.6347 332.513 66.0816 331.496 66.7867C330.479 67.4918 329.631 68.4358 329.019 69.5444C328.407 70.6531 328.048 71.8961 327.97 73.1757C327.892 74.4552 328.097 75.7363 328.57 76.9182C329.123 78.278 330.003 79.463 331.123 80.3567C332.109 81.1299 333.251 81.6547 334.46 81.8908C336.235 82.2353 338.069 81.9409 339.666 81.0549C340.792 80.4307 341.304 79.8806 341.355 79.9335C341.405 79.9864 341.244 80.0922 340.993 80.3355C340.626 80.7018 340.218 81.0181 339.777 81.2771C338.4 82.1162 336.822 82.5159 335.234 82.4276C333.645 82.3393 332.116 81.7668 330.831 80.7799C329.546 79.8012 328.552 78.4579 327.964 76.9067C327.377 75.3556 327.221 73.6606 327.514 72.0197C327.839 70.1601 328.723 68.4601 330.038 67.1718C331.352 65.8835 333.026 65.0755 334.811 64.8676C336.468 64.657 338.146 64.9778 339.626 65.7881C340.961 66.521 342.086 67.617 342.882 68.9621C343.722 70.3818 344.154 72.0266 344.128 73.6988C344.101 75.371 343.616 76.9996 342.732 78.3888C342.444 78.832 342.106 79.2369 341.726 79.5949C341.505 79.8383 341.365 79.9546 341.355 79.9335Z" fill="#263238"/>
<path d="M278.546 139.177C278.435 139.05 286.677 130.713 296.969 120.651C307.262 110.59 315.694 102.464 315.805 102.591C315.915 102.718 307.674 111.055 297.382 121.117C287.089 131.178 278.657 139.304 278.546 139.177Z" fill="#263238"/>
<path d="M283.089 88.6931L283.431 87.9102L283.873 88.6296C284.235 89.2043 284.744 89.6593 285.341 89.9415L286.095 90.2906L285.411 90.7668C284.86 91.1442 284.424 91.6804 284.155 92.3114L283.823 93.0943L283.371 92.3749C283.011 91.7986 282.502 91.3432 281.903 91.063L281.16 90.7139L281.843 90.2378C282.394 89.8629 282.827 89.3257 283.089 88.6931Z" fill="#ECE2B2"/>
<path d="M260.665 82.8104L260.856 82.3555L261.118 82.7681C261.325 83.1053 261.622 83.3704 261.972 83.5298L262.404 83.7414L262.002 84.0165C261.686 84.2352 261.435 84.5433 261.278 84.9052L261.087 85.3708L260.826 84.9476C260.619 84.6103 260.322 84.3453 259.972 84.1858L259.54 83.9742L259.932 83.7097C260.25 83.4866 260.504 83.1755 260.665 82.8104Z" fill="#ECE2B2"/>
<path d="M331.293 123.045L331.484 122.59L331.745 123.013C331.961 123.343 332.256 123.606 332.6 123.775L333.032 123.976L332.64 124.251C332.32 124.469 332.068 124.782 331.916 125.15L331.715 125.605L331.454 125.193C331.248 124.856 330.955 124.588 330.61 124.42L330.167 124.219L330.57 123.944C330.89 123.726 331.142 123.413 331.293 123.045Z" fill="#ECE2B2"/>
<path d="M365.869 102.416L366.2 101.633L366.653 102.352C367.012 102.929 367.521 103.384 368.12 103.664L368.864 104.013L368.18 104.489C367.632 104.867 367.199 105.403 366.934 106.034L366.592 106.817L366.15 106.098C365.786 105.525 365.278 105.071 364.683 104.786L363.929 104.437L364.612 103.96C365.163 103.583 365.599 103.047 365.869 102.416Z" fill="#ECE2B2"/>
<path d="M361.376 73.51L361.939 72.1875L362.693 73.4042C363.298 74.3716 364.152 75.1383 365.155 75.6154L366.412 76.1973L365.256 76.9908C364.338 77.6347 363.611 78.5363 363.155 79.5935L362.592 80.916L361.838 79.6993C361.233 78.7319 360.379 77.9652 359.376 77.4881L358.12 76.8956L359.275 76.1021C360.194 75.4645 360.923 74.5657 361.376 73.51Z" fill="#ECE2B2"/>
<path d="M276.124 64.5998L276.687 63.2773L277.441 64.4835C278.043 65.4536 278.898 66.221 279.903 66.6947L281.159 67.2871L280.014 68.0806C279.089 68.7119 278.359 69.6125 277.913 70.6727L277.35 71.9952L276.596 70.7891C275.992 69.8163 275.133 69.0483 274.124 68.5779L272.877 67.9854L274.023 67.1919C274.945 66.5575 275.674 65.6578 276.124 64.5998Z" fill="#ECE2B2"/>
<path d="M382.835 266.053C382.835 266.053 383.156 266.053 383.779 265.968C384.171 265.962 384.562 265.916 384.945 265.831L385.679 265.704L386.513 265.471C387.973 265.075 389.359 264.424 390.614 263.546C393.373 261.645 395.43 258.807 396.444 255.505C396.85 254.155 397.073 252.752 397.107 251.336C397.107 250.596 397.107 249.823 397.107 249.062L397.047 247.898C397.047 247.506 396.936 247.115 396.876 246.724C396.585 245.088 396.045 243.513 395.278 242.058C393.539 238.82 390.72 236.377 387.368 235.202C385.547 234.59 383.638 234.325 381.729 234.419H375.638L245.589 234.504C242.462 234.506 239.423 235.596 236.945 237.604C235.735 238.598 234.677 239.783 233.809 241.116C232.965 242.454 232.33 243.926 231.93 245.475C231.731 246.246 231.587 247.031 231.497 247.824C231.497 248.617 231.397 249.411 231.417 250.226C231.374 251.811 231.557 253.395 231.96 254.923C232.374 256.424 233.001 257.851 233.819 259.155C234.663 260.435 235.679 261.579 236.834 262.551C237.985 263.512 239.275 264.273 240.654 264.805C241.332 265.071 242.027 265.287 242.734 265.45C243.448 265.59 244.17 265.679 244.895 265.715C247.8 265.789 250.735 265.715 253.61 265.715H270.505L328.972 265.767L368.391 265.863L379.106 265.916H381.9H382.845C382.845 265.916 382.523 265.916 381.9 265.916H379.106L368.391 265.968L328.972 266.053L270.505 266.117H253.599C250.715 266.117 247.82 266.117 244.855 266.117C244.107 266.081 243.361 265.992 242.624 265.852C241.889 265.68 241.167 265.453 240.463 265.175C239.035 264.629 237.702 263.843 236.513 262.847C234.075 260.84 232.314 258.062 231.487 254.923C231.075 253.346 230.885 251.713 230.924 250.077C230.924 249.273 230.924 248.437 231.005 247.623C231.1 246.801 231.251 245.988 231.457 245.189C231.875 243.581 232.534 242.052 233.407 240.661C234.305 239.276 235.403 238.048 236.664 237.022C239.235 234.954 242.383 233.838 245.619 233.848L375.668 233.922H381.759C383.706 233.841 385.651 234.117 387.508 234.736C390.921 235.958 393.784 238.464 395.549 241.772C396.331 243.26 396.877 244.871 397.167 246.544L397.338 247.739C397.338 248.141 397.338 248.533 397.338 248.924C397.338 249.707 397.338 250.458 397.338 251.22C397.294 252.658 397.061 254.082 396.645 255.452C396.251 256.687 395.714 257.867 395.047 258.965C393.928 260.812 392.439 262.379 390.684 263.556C389.406 264.428 388 265.071 386.523 265.461L385.679 265.672L384.935 265.789C384.551 265.862 384.161 265.901 383.769 265.905L382.835 266.053Z" fill="#263238"/>
<path d="M382.835 272.859H245.579C237.613 272.859 231.156 279.657 231.156 288.042V289.491C231.156 297.876 237.613 304.673 245.579 304.673H382.835C390.8 304.673 397.258 297.876 397.258 289.491V288.042C397.258 279.657 390.8 272.859 382.835 272.859Z" fill="#ECE2B2"/>
<path d="M264.505 256.492C264.485 256.179 264.485 255.864 264.505 255.551C264.505 254.895 264.505 254.038 264.455 252.98C264.455 250.716 264.394 247.584 264.344 243.807L264.555 244.019L246.594 244.082L246.855 243.807V247.129C246.855 248.187 246.855 249.309 246.855 250.367C246.855 252.483 246.855 254.535 246.855 256.471L246.614 256.217L259.489 256.344L263.208 256.408H264.213H264.575C264.155 256.458 263.732 256.479 263.309 256.471L259.64 256.535L246.574 256.662H246.262V256.408C246.262 254.472 246.262 252.43 246.262 250.303C246.262 249.245 246.262 248.187 246.262 247.066V243.828C246.031 244.071 246.584 243.49 246.524 243.542L264.485 243.606H264.696V243.828C264.646 247.669 264.605 250.843 264.585 253.139C264.585 254.197 264.585 255.022 264.525 255.667C264.536 255.942 264.529 256.218 264.505 256.492Z" fill="#263238"/>
<path d="M264.505 243.805C263.728 244.715 262.888 245.563 261.992 246.344C260.404 247.867 258.173 249.93 255.701 252.195H255.309L255.248 252.142L255.128 252.036L254.896 251.824L254.444 251.412L253.56 250.597L251.881 249.042L249.067 246.397C248.171 245.616 247.332 244.768 246.554 243.858C247.515 244.512 248.426 245.244 249.278 246.048L252.163 248.608L253.861 250.132L254.756 250.936L255.218 251.359L255.439 251.57L255.56 251.666L255.62 251.719H255.309C257.791 249.465 260.053 247.487 261.711 245.995C262.586 245.188 263.52 244.456 264.505 243.805Z" fill="#263238"/>
<path d="M253.027 249.711C252.159 251.027 251.147 252.231 250.011 253.298C248.986 254.488 247.836 255.553 246.584 256.472C247.459 255.161 248.47 253.958 249.599 252.885C250.627 251.697 251.777 250.633 253.027 249.711Z" fill="#263238"/>
<path d="M264.505 256.49C263.308 255.49 262.225 254.346 261.279 253.083C260.204 251.942 259.253 250.679 258.444 249.316C259.639 250.32 260.721 251.463 261.671 252.723C262.749 253.861 263.7 255.124 264.505 256.49Z" fill="#263238"/>
<path d="M275.35 252.683V253.106H271.179V246.758H275.199V247.181H271.601V249.688H274.817V250.101H271.601V252.704L275.35 252.683Z" fill="#263238"/>
<path d="M284.224 250.332V253.104H283.792V250.364C283.792 249.306 283.26 248.724 282.385 248.724C282.156 248.713 281.928 248.755 281.716 248.846C281.504 248.937 281.313 249.075 281.157 249.251C281 249.427 280.882 249.636 280.809 249.865C280.737 250.093 280.712 250.336 280.737 250.575V253.104H280.305V250.364C280.305 249.306 279.772 248.724 278.897 248.724C278.669 248.713 278.441 248.755 278.228 248.846C278.016 248.937 277.826 249.075 277.669 249.251C277.512 249.427 277.394 249.636 277.321 249.865C277.249 250.093 277.224 250.336 277.249 250.575V253.104H276.817V248.353H277.229V249.411C277.384 249.074 277.632 248.793 277.94 248.605C278.248 248.416 278.602 248.329 278.958 248.353C279.314 248.322 279.671 248.418 279.97 248.625C280.268 248.832 280.493 249.139 280.606 249.496C280.767 249.137 281.026 248.837 281.35 248.633C281.674 248.43 282.049 248.332 282.425 248.353C282.673 248.335 282.922 248.374 283.154 248.468C283.386 248.562 283.595 248.708 283.767 248.897C283.939 249.086 284.069 249.313 284.148 249.561C284.227 249.809 284.253 250.072 284.224 250.332Z" fill="#263238"/>
<path d="M289.25 250.088V253.104H288.838V252.257C288.669 252.547 288.428 252.782 288.141 252.937C287.854 253.092 287.532 253.16 287.21 253.135C286.205 253.135 285.592 252.596 285.592 251.781C285.592 250.966 286.024 250.459 287.27 250.459H288.818V250.078C288.837 249.89 288.815 249.701 288.753 249.524C288.692 249.347 288.593 249.188 288.464 249.057C288.335 248.926 288.18 248.828 288.009 248.771C287.839 248.713 287.658 248.697 287.481 248.724C286.911 248.718 286.358 248.928 285.923 249.316L285.712 248.988C286.218 248.547 286.856 248.311 287.512 248.321C287.742 248.286 287.978 248.307 288.2 248.382C288.422 248.457 288.625 248.585 288.793 248.756C288.961 248.926 289.089 249.135 289.168 249.366C289.248 249.597 289.276 249.844 289.25 250.088ZM288.818 251.696V250.808H287.28C286.346 250.808 286.024 251.22 286.024 251.76C286.024 252.3 286.476 252.765 287.27 252.765C287.603 252.786 287.934 252.694 288.213 252.501C288.492 252.309 288.704 252.026 288.818 251.696Z" fill="#263238"/>
<path d="M290.889 246.839C290.889 246.79 290.898 246.742 290.915 246.697C290.933 246.652 290.959 246.612 290.992 246.577C291.024 246.543 291.063 246.516 291.106 246.497C291.149 246.478 291.194 246.469 291.24 246.469C291.31 246.469 291.378 246.49 291.436 246.531C291.494 246.572 291.539 246.63 291.565 246.697C291.592 246.765 291.599 246.839 291.585 246.911C291.572 246.983 291.538 247.049 291.489 247.101C291.44 247.153 291.377 247.188 291.309 247.202C291.241 247.217 291.17 247.209 291.106 247.181C291.042 247.153 290.987 247.106 290.948 247.045C290.909 246.984 290.889 246.912 290.889 246.839ZM291.019 248.352H291.492V253.102H291.06L291.019 248.352Z" fill="#263238"/>
<path d="M293.271 246.352H293.703V253.102H293.271V246.352Z" fill="#263238"/>
<path d="M281.109 293.033L279.481 290.631C279.26 290.648 279.038 290.648 278.817 290.631H276.867V292.98H276.415V285.828H278.857C280.566 285.828 281.601 286.727 281.601 288.251C281.624 288.762 281.477 289.266 281.186 289.675C280.894 290.084 280.476 290.374 280.003 290.494L281.712 293.001L281.109 293.033ZM278.817 290.229C280.275 290.229 281.059 289.51 281.059 288.283C281.059 287.055 280.275 286.325 278.817 286.325H276.867V290.229H278.817Z" fill="white"/>
<path d="M287.521 290.483H283.149C283.149 290.774 283.205 291.062 283.315 291.329C283.424 291.596 283.585 291.836 283.787 292.035C283.989 292.233 284.227 292.386 284.488 292.483C284.748 292.58 285.025 292.62 285.3 292.599C285.607 292.611 285.912 292.55 286.193 292.422C286.475 292.294 286.726 292.102 286.928 291.859L287.21 292.197C286.972 292.484 286.676 292.71 286.343 292.86C286.011 293.01 285.651 293.08 285.29 293.065C284.945 293.083 284.6 293.025 284.277 292.895C283.955 292.765 283.661 292.566 283.415 292.31C283.17 292.055 282.977 291.748 282.85 291.41C282.723 291.072 282.664 290.709 282.677 290.346C282.656 289.997 282.702 289.646 282.815 289.317C282.927 288.987 283.102 288.685 283.33 288.43C283.557 288.175 283.832 287.971 284.137 287.832C284.443 287.693 284.772 287.621 285.104 287.621C285.437 287.621 285.766 287.693 286.071 287.832C286.376 287.971 286.651 288.175 286.879 288.43C287.106 288.685 287.281 288.987 287.394 289.317C287.506 289.646 287.553 289.997 287.532 290.346C287.532 290.346 287.521 290.431 287.521 290.483ZM283.159 290.081H287.059C287.059 289.537 286.854 289.015 286.488 288.63C286.122 288.245 285.626 288.029 285.109 288.029C284.592 288.029 284.096 288.245 283.73 288.63C283.365 289.015 283.159 289.537 283.159 290.081Z" fill="white"/>
<path d="M288.295 292.389L288.517 291.976C289.043 292.396 289.685 292.623 290.346 292.622C291.421 292.622 291.853 292.23 291.853 291.616C291.853 290.061 288.476 291.214 288.476 289.109C288.476 288.305 289.12 287.649 290.406 287.649C291.025 287.637 291.633 287.817 292.155 288.167L291.924 288.58C291.475 288.254 290.941 288.084 290.396 288.093C289.391 288.093 288.969 288.527 288.969 289.098C288.969 290.707 292.336 289.575 292.336 291.616C292.336 292.484 291.622 293.077 290.326 293.077C289.594 293.1 288.877 292.858 288.295 292.389Z" fill="white"/>
<path d="M297.995 290.483H293.623C293.622 290.774 293.678 291.061 293.788 291.328C293.898 291.595 294.059 291.835 294.26 292.034C294.462 292.233 294.701 292.385 294.961 292.482C295.221 292.58 295.498 292.619 295.774 292.599C296.08 292.61 296.385 292.549 296.667 292.421C296.949 292.293 297.2 292.101 297.402 291.858L297.683 292.197C297.444 292.482 297.148 292.708 296.816 292.858C296.484 293.008 296.125 293.078 295.764 293.064C295.418 293.082 295.073 293.024 294.75 292.894C294.426 292.765 294.132 292.566 293.886 292.31C293.639 292.055 293.446 291.748 293.317 291.41C293.189 291.072 293.129 290.709 293.14 290.345C293.121 289.996 293.17 289.646 293.284 289.317C293.399 288.989 293.576 288.688 293.804 288.434C294.033 288.181 294.309 287.979 294.615 287.842C294.921 287.705 295.25 287.635 295.583 287.637C295.913 287.633 296.24 287.701 296.544 287.837C296.849 287.973 297.123 288.173 297.35 288.425C297.577 288.677 297.753 288.976 297.866 289.303C297.978 289.629 298.026 289.977 298.005 290.324C298.005 290.324 297.995 290.43 297.995 290.483ZM293.633 290.081H297.523C297.487 289.563 297.267 289.079 296.906 288.726C296.545 288.372 296.071 288.176 295.578 288.176C295.085 288.176 294.61 288.372 294.249 288.726C293.888 289.079 293.668 289.563 293.633 290.081Z" fill="white"/>
<path d="M302.035 292.694C301.753 292.942 301.397 293.077 301.03 293.075C300.844 293.095 300.655 293.071 300.479 293.005C300.302 292.938 300.142 292.831 300.01 292.691C299.878 292.551 299.778 292.382 299.716 292.196C299.654 292.01 299.633 291.811 299.653 291.615V288.124H298.718V287.679H299.653V286.516H300.135V287.679H301.754V288.124H300.135V291.573C300.135 292.261 300.457 292.631 301.08 292.631C301.371 292.64 301.654 292.534 301.874 292.335L302.035 292.694Z" fill="white"/>
<path d="M311.242 288.283C311.242 289.785 310.237 290.684 308.498 290.684H306.568V293.033H306.065V285.828H308.518C310.206 285.828 311.242 286.759 311.242 288.283ZM310.739 288.283C310.739 287.034 309.955 286.325 308.498 286.325H306.568V290.219H308.518C309.955 290.219 310.739 289.51 310.739 288.283Z" fill="white"/>
<path d="M316.388 289.637V293.033H315.916V292.08C315.729 292.409 315.459 292.677 315.136 292.853C314.813 293.028 314.449 293.105 314.087 293.075C312.951 293.075 312.257 292.461 312.257 291.551C312.257 290.642 312.74 290.049 314.157 290.049H315.896V289.626C315.918 289.414 315.893 289.2 315.825 289C315.756 288.799 315.645 288.618 315.499 288.47C315.354 288.322 315.178 288.211 314.985 288.145C314.793 288.08 314.588 288.062 314.388 288.092C313.743 288.084 313.117 288.325 312.629 288.769L312.388 288.399C312.955 287.909 313.665 287.644 314.398 287.647C314.66 287.604 314.928 287.624 315.182 287.707C315.435 287.79 315.667 287.933 315.859 288.125C316.052 288.317 316.2 288.554 316.291 288.816C316.383 289.078 316.416 289.359 316.388 289.637ZM315.896 291.456V290.451H314.167C313.112 290.451 312.74 290.917 312.74 291.509C312.74 292.102 313.252 292.631 314.157 292.631C314.528 292.658 314.898 292.559 315.211 292.347C315.525 292.135 315.765 291.823 315.896 291.456Z" fill="white"/>
<path d="M317.624 292.389L317.845 291.976C318.369 292.402 319.013 292.629 319.674 292.622C320.75 292.622 321.172 292.23 321.172 291.617C321.172 290.061 317.805 291.215 317.805 289.109C317.805 288.305 318.448 287.649 319.735 287.649C320.35 287.635 320.956 287.816 321.474 288.168L321.252 288.58C320.803 288.256 320.269 288.085 319.725 288.094C318.72 288.094 318.287 288.527 318.287 289.099C318.287 290.707 321.664 289.575 321.664 291.617C321.664 292.484 320.951 293.077 319.654 293.077C318.922 293.102 318.204 292.859 317.624 292.389Z" fill="white"/>
<path d="M322.298 292.389L322.519 291.976C323.045 292.396 323.688 292.623 324.348 292.622C325.424 292.622 325.856 292.23 325.856 291.616C325.856 290.061 322.479 291.214 322.479 289.109C322.479 288.305 323.122 287.649 324.409 287.649C325.027 287.637 325.636 287.817 326.157 288.167L325.926 288.58C325.478 288.254 324.944 288.084 324.398 288.093C323.393 288.093 322.971 288.527 322.971 289.098C322.971 290.707 326.338 289.575 326.338 291.616C326.338 292.484 325.625 293.077 324.328 293.077C323.596 293.1 322.879 292.858 322.298 292.389Z" fill="white"/>
<path d="M334.872 287.68L332.942 293.033H332.479L330.771 288.389L329.042 293.033H328.6L326.67 287.68H327.132L328.831 292.462L330.57 287.68H330.982L332.711 292.451L334.419 287.68H334.872Z" fill="white"/>
<path d="M335.304 290.357C335.312 289.829 335.468 289.315 335.752 288.881C336.037 288.446 336.438 288.109 336.903 287.913C337.369 287.718 337.88 287.671 338.371 287.78C338.862 287.889 339.311 288.148 339.662 288.525C340.013 288.902 340.251 289.38 340.344 289.899C340.438 290.418 340.384 290.954 340.189 291.441C339.994 291.927 339.666 292.342 339.248 292.633C338.829 292.924 338.338 293.078 337.837 293.076C337.497 293.087 337.159 293.023 336.844 292.89C336.528 292.756 336.243 292.555 336.005 292.3C335.767 292.045 335.582 291.74 335.461 291.406C335.341 291.071 335.287 290.714 335.304 290.357ZM339.887 290.357C339.862 289.945 339.722 289.551 339.487 289.221C339.251 288.892 338.929 288.642 338.56 288.503C338.191 288.364 337.792 288.341 337.411 288.437C337.03 288.534 336.684 288.745 336.416 289.046C336.147 289.347 335.969 289.723 335.901 290.13C335.833 290.536 335.88 290.954 336.035 291.333C336.191 291.712 336.448 292.034 336.775 292.261C337.102 292.488 337.485 292.61 337.877 292.611C338.152 292.611 338.425 292.552 338.678 292.437C338.93 292.323 339.158 292.154 339.347 291.943C339.535 291.732 339.68 291.482 339.773 291.209C339.866 290.936 339.905 290.646 339.887 290.357Z" fill="white"/>
<path d="M344.299 287.648V288.146H344.179C343.053 288.146 342.379 288.939 342.379 290.262V293.044H341.897V287.691H342.359V288.865C342.52 288.474 342.794 288.145 343.143 287.927C343.491 287.709 343.895 287.611 344.299 287.648Z" fill="white"/>
<path d="M350.109 285.426V293.033H349.636V291.774C349.442 292.176 349.144 292.512 348.775 292.742C348.407 292.972 347.984 293.088 347.556 293.075C346.9 293.032 346.284 292.727 345.834 292.223C345.384 291.719 345.134 291.053 345.134 290.361C345.134 289.67 345.384 289.004 345.834 288.5C346.284 287.995 346.9 287.691 347.556 287.648C347.98 287.636 348.399 287.75 348.765 287.976C349.131 288.202 349.429 288.532 349.626 288.928V285.426H350.109ZM349.626 290.356C349.601 289.944 349.462 289.55 349.226 289.22C348.99 288.891 348.668 288.641 348.299 288.502C347.93 288.363 347.531 288.34 347.15 288.436C346.769 288.533 346.423 288.744 346.155 289.045C345.887 289.346 345.708 289.722 345.64 290.129C345.573 290.535 345.619 290.953 345.775 291.332C345.93 291.711 346.187 292.033 346.514 292.26C346.841 292.487 347.224 292.609 347.616 292.61C347.891 292.61 348.164 292.551 348.417 292.436C348.67 292.322 348.897 292.153 349.086 291.942C349.274 291.731 349.42 291.481 349.512 291.208C349.605 290.935 349.644 290.645 349.626 290.356Z" fill="white"/>
<path d="M414.958 17.1852C414.958 17.3334 368.492 17.4603 311.181 17.4603C253.871 17.4603 207.405 17.3334 207.405 17.1852C207.405 17.0371 253.861 16.9102 311.181 16.9102C368.502 16.9102 414.958 17.0371 414.958 17.1852Z" fill="#263238"/>
<path d="M219.125 8.50599C219.123 9.03076 218.973 9.54314 218.695 9.97846C218.416 10.4138 218.022 10.7525 217.56 10.9519C217.099 11.1512 216.592 11.2023 216.104 11.0987C215.615 10.995 215.166 10.7413 214.814 10.3694C214.463 9.99764 214.223 9.52445 214.127 9.00961C214.03 8.49477 214.081 7.96137 214.272 7.47674C214.463 6.99212 214.787 6.57799 215.201 6.28666C215.616 5.99533 216.103 5.83985 216.602 5.83984C216.934 5.83984 217.263 5.90888 217.57 6.04299C217.876 6.17711 218.155 6.37366 218.389 6.62138C218.624 6.86909 218.809 7.16309 218.936 7.4865C219.062 7.80991 219.126 8.15637 219.125 8.50599Z" fill="#263238"/>
<path d="M226.422 8.50599C226.42 9.03076 226.27 9.54314 225.992 9.97846C225.714 10.4138 225.319 10.7525 224.858 10.9519C224.397 11.1512 223.89 11.2023 223.401 11.0987C222.912 10.995 222.464 10.7413 222.112 10.3694C221.76 9.99764 221.521 9.52445 221.424 9.00961C221.328 8.49477 221.378 7.96137 221.569 7.47674C221.761 6.99212 222.084 6.57799 222.499 6.28666C222.913 5.99533 223.401 5.83985 223.899 5.83984C224.231 5.83984 224.56 5.90888 224.867 6.04299C225.174 6.17711 225.452 6.37366 225.687 6.62138C225.921 6.86909 226.107 7.16309 226.233 7.4865C226.359 7.80991 226.423 8.15637 226.422 8.50599Z" fill="#263238"/>
<path d="M233.679 8.50618C233.677 9.03229 233.526 9.54591 233.247 9.98188C232.967 10.4179 232.57 10.7565 232.107 10.9549C231.645 11.1533 231.136 11.2025 230.647 11.0963C230.157 10.99 229.709 10.7331 229.358 10.3581C229.007 9.98312 228.771 9.50697 228.677 8.99006C228.584 8.47316 228.639 7.93879 228.835 7.45475C229.031 6.97072 229.359 6.55884 229.778 6.27135C230.196 5.98387 230.686 5.83375 231.186 5.84003C231.852 5.8484 232.487 6.13333 232.954 6.63272C233.421 7.13212 233.682 7.80552 233.679 8.50618Z" fill="#263238"/>
<path d="M415.329 331.851C415.329 329.587 415.229 195.433 415.088 0.296238L415.329 0.550158H207.485L207.747 0.275077C207.747 125.394 207.747 240.747 207.686 331.83L207.485 331.618L415.349 331.83L207.485 332.052H207.274V331.83C207.274 240.747 207.274 125.394 207.224 0.275077V0H207.506H415.349H415.591V0.253921C415.43 195.433 415.329 329.597 415.329 331.851Z" fill="#263238"/>
</svg>
