<svg width="480" height="359" viewBox="0 0 480 359" fill="none" xmlns="http://www.w3.org/2000/svg">
<g filter="url(#filter0_d_60_322)">
<path d="M475.066 308.453H4V308.689H475.066V308.453Z" fill="#FAFAFA"/>
<path d="M402.729 318.703H379.336V318.939H402.729V318.703Z" fill="#E0E0E0"/>
<path d="M417.549 318.582H409.644V318.818H417.549V318.582Z" fill="#E0E0E0"/>
<path d="M316.816 320.164H267.834V320.4H316.816V320.164Z" fill="#E0E0E0"/>
<path d="M256.274 322.719H248.973V322.954H256.274V322.719Z" fill="#E0E0E0"/>
<path d="M109.472 315.266H96.8848V315.501H109.472V315.266Z" fill="#E0E0E0"/>
<path d="M178.539 315.266H114.7V315.501H178.539V315.266Z" fill="#E0E0E0"/>
<path d="M124.122 320.957H79.7097V321.193H124.122V320.957Z" fill="#E0E0E0"/>
<path d="M227.285 266.435H45.3689C43.9438 266.432 42.5779 265.864 41.5711 264.856C40.5643 263.847 39.9988 262.48 39.9988 261.055V5.33246C40.0112 3.91552 40.5821 2.56069 41.5876 1.56226C42.5931 0.563826 43.9519 0.0024273 45.3689 0H227.285C228.712 0 230.08 0.566775 231.089 1.57564C232.098 2.58451 232.665 3.95282 232.665 5.37957V261.055C232.665 262.482 232.098 263.85 231.089 264.859C230.08 265.868 228.712 266.435 227.285 266.435ZM45.3689 0.188427C44.0063 0.190923 42.7003 0.733982 41.7376 1.69841C40.775 2.66283 40.2343 3.96981 40.2343 5.33246V261.055C40.2343 262.418 40.775 263.725 41.7376 264.689C42.7003 265.654 44.0063 266.197 45.3689 266.199H227.285C228.649 266.197 229.956 265.654 230.92 264.69C231.884 263.726 232.427 262.419 232.429 261.055V5.33246C232.427 3.96895 231.884 2.66199 230.92 1.69783C229.956 0.733676 228.649 0.190917 227.285 0.188427H45.3689Z" fill="#E0E0E0"/>
<path d="M431.078 266.435H249.152C247.726 266.432 246.359 265.865 245.351 264.856C244.343 263.848 243.775 262.481 243.772 261.055V5.33246C243.787 3.91466 244.36 2.55984 245.367 1.56167C246.374 0.563497 247.734 0.00240082 249.152 0H431.078C432.493 0.00490332 433.849 0.567398 434.853 1.56557C435.856 2.56373 436.426 3.91715 436.438 5.33246V261.055C436.438 262.479 435.874 263.844 434.869 264.852C433.865 265.861 432.501 266.43 431.078 266.435ZM249.152 0.188427C247.789 0.190917 246.482 0.733676 245.517 1.69783C244.553 2.66199 244.01 3.96895 244.008 5.33246V261.055C244.01 262.419 244.553 263.726 245.517 264.69C246.482 265.654 247.789 266.197 249.152 266.199H431.078C432.441 266.197 433.748 265.654 434.712 264.69C435.676 263.726 436.219 262.419 436.222 261.055V5.33246C436.219 3.96895 435.676 2.66199 434.712 1.69783C433.748 0.733676 432.441 0.190917 431.078 0.188427H249.152Z" fill="#E0E0E0"/>
<path d="M325.974 308.453H359.259V248.044H325.974V308.453Z" fill="#E0E0E0"/>
<path d="M398.97 248.043H359.259V308.452H398.97V248.043Z" fill="#EBEBEB"/>
<g style="mix-blend-mode:multiply" opacity="0.7">
<path d="M325.973 255.895H399.318V253.162H325.973V255.895Z" fill="#E0E0E0"/>
</g>
<path d="M324.136 254.301H359.259V241.714H324.136V254.301Z" fill="#E0E0E0"/>
<path d="M400.807 241.723H359.259V254.31H400.807V241.723Z" fill="#EBEBEB"/>
<path d="M186.83 17.8906H74.7822V151.579H186.83V17.8906Z" fill="#E0E0E0"/>
<path d="M191.965 17.8906H77.1848V151.579H191.965V17.8906Z" fill="#EBEBEB"/>
<path d="M186.83 151.578H74.7822V161.103H186.83V151.578Z" fill="#E0E0E0"/>
<path d="M200.5 151.578H85.7205V161.103H200.5V151.578Z" fill="#EBEBEB"/>
<path d="M96.6868 144.401L138.809 25.0703H158.688L116.575 144.401H96.6868Z" fill="#FAFAFA"/>
<path d="M87.6801 103.919C87.5444 103.916 87.415 103.861 87.3198 103.764C87.2247 103.667 87.1714 103.536 87.1714 103.401V29.7353C87.1714 29.6004 87.225 29.471 87.3204 29.3756C87.4158 29.2802 87.5452 29.2266 87.6801 29.2266C87.8159 29.2265 87.9463 29.2798 88.0432 29.375C88.1402 29.4701 88.1958 29.5995 88.1983 29.7353V103.401C88.1983 103.538 88.1437 103.67 88.0465 103.767C87.9494 103.864 87.8176 103.919 87.6801 103.919Z" fill="#EBEBEB"/>
<path d="M120.843 144.401L162.966 25.0703H170.72L128.597 144.401H120.843Z" fill="#FAFAFA"/>
<path d="M184.776 144.401V25.0703H183.862V144.401H184.776Z" fill="#E0E0E0"/>
<path d="M193.651 34.247H81.6126L80.9531 27.8594H192.991L193.651 34.247Z" fill="#E0E0E0"/>
<path d="M193.651 38.9283H81.6126L80.9531 32.5312H192.991L193.651 38.9283Z" fill="#E0E0E0"/>
<path d="M193.651 44.5455H81.6126L80.9531 38.1484H192.991L193.651 44.5455Z" fill="#E0E0E0"/>
<path d="M193.651 50.79H81.6126L80.9531 44.4023H192.991L193.651 50.79Z" fill="#E0E0E0"/>
<path d="M193.651 58.2799H81.6126L80.9531 51.8828H192.991L193.651 58.2799Z" fill="#E0E0E0"/>
<path d="M193.651 66.6923H81.6126L80.9531 60.3047H192.991L193.651 66.6923Z" fill="#E0E0E0"/>
<path d="M390.613 17.8906H278.565V151.579H390.613V17.8906Z" fill="#E0E0E0"/>
<path d="M395.738 17.8906H280.958V151.579H395.738V17.8906Z" fill="#EBEBEB"/>
<path d="M390.613 151.578H278.565V161.103H390.613V151.578Z" fill="#E0E0E0"/>
<path d="M404.283 151.578H289.503V161.103H404.283V151.578Z" fill="#EBEBEB"/>
<path d="M388.569 144.401V25.0703L288.147 25.0703V144.401H388.569Z" fill="#F5F5F5"/>
<path d="M300.47 144.401L342.592 25.0703H362.471L320.349 144.401H300.47Z" fill="#FAFAFA"/>
<path d="M291.463 103.919C291.327 103.916 291.198 103.861 291.103 103.764C291.008 103.667 290.954 103.536 290.954 103.401V29.7353C290.954 29.6004 291.008 29.471 291.103 29.3756C291.199 29.2802 291.328 29.2266 291.463 29.2266C291.598 29.2266 291.727 29.2802 291.823 29.3756C291.918 29.471 291.972 29.6004 291.972 29.7353V103.401C291.972 103.536 291.919 103.667 291.823 103.764C291.728 103.861 291.599 103.916 291.463 103.919Z" fill="#EBEBEB"/>
<path d="M324.626 144.401L366.749 25.0703H374.493L332.38 144.401H324.626Z" fill="#FAFAFA"/>
<path d="M388.559 144.401V25.0703H387.645V144.401H388.559Z" fill="#E0E0E0"/>
<path d="M397.434 34.247H285.396L284.727 27.8594H396.775L397.434 34.247Z" fill="#E0E0E0"/>
<path d="M397.434 38.9283H285.396L284.727 32.5312H396.775L397.434 38.9283Z" fill="#E0E0E0"/>
<path d="M397.434 44.5455H285.396L284.727 38.1484H396.775L397.434 44.5455Z" fill="#E0E0E0"/>
<path d="M397.434 50.79H285.396L284.727 44.4023H396.775L397.434 50.79Z" fill="#E0E0E0"/>
<path d="M397.434 58.2799H285.396L284.727 51.8828H396.775L397.434 58.2799Z" fill="#E0E0E0"/>
<path d="M397.434 66.6923H285.396L284.727 60.3047H396.775L397.434 66.6923Z" fill="#E0E0E0"/>
<path d="M303.635 223.719H281.26V308.454H303.635V223.719Z" fill="#E0E0E0"/>
<path d="M299.377 308.453H303.626V298.07H294.921L299.377 308.453Z" fill="#F5F5F5"/>
<path d="M86.493 223.719H64.1174V308.454H86.493V223.719Z" fill="#E0E0E0"/>
<path d="M303.635 223.719H82.781V302.745H303.635V223.719Z" fill="#F5F5F5"/>
<path d="M194.631 227.676V284.109H300.338V227.676H194.631Z" fill="#E0E0E0"/>
<path d="M86.0786 227.676V284.109H191.786V227.676H86.0786Z" fill="#E0E0E0"/>
<path d="M300.329 296.038V289.754H194.621V296.038H300.329Z" fill="#E0E0E0"/>
<path d="M191.776 296.046V289.762H86.0692V296.046H191.776Z" fill="#E0E0E0"/>
<path d="M176.156 231.05H101.727C100.075 231.051 98.439 230.718 96.9186 230.07C95.3983 229.422 94.0247 228.474 92.8806 227.281H185.04C183.891 228.478 182.512 229.43 180.985 230.077C179.457 230.725 177.815 231.056 176.156 231.05Z" fill="#F5F5F5"/>
<path d="M285.104 231.05H210.675C209.023 231.051 207.387 230.718 205.867 230.07C204.346 229.422 202.973 228.474 201.829 227.281H293.988C292.842 228.481 291.462 229.434 289.935 230.082C288.407 230.73 286.763 231.059 285.104 231.05Z" fill="#F5F5F5"/>
<path d="M87.0302 308.453H82.7717V298.07H91.477L87.0302 308.453Z" fill="#F5F5F5"/>
<g style="mix-blend-mode:multiply" opacity="0.4">
<path d="M244.771 171.691H219.861V223.716H244.771V171.691Z" fill="#E0E0E0"/>
</g>
<path d="M265.696 223.718H223.535L219.569 167.539H261.72L265.696 223.718Z" fill="#E0E0E0"/>
<path d="M270.491 223.718H224.732L220.766 167.539H266.516L270.491 223.718Z" fill="#F5F5F5"/>
<path d="M226.852 221.571L223.187 169.688H264.405L268.08 221.571H226.852Z" fill="#FAFAFA"/>
<path d="M236.829 209.955L234.803 181.305H254.428L256.454 209.955H236.829Z" fill="#F5F5F5"/>
<path d="M154.129 214.497C160.175 214.497 165.076 209.595 165.076 203.549C165.076 197.503 160.175 192.602 154.129 192.602C148.083 192.602 143.181 197.503 143.181 203.549C143.181 209.595 148.083 214.497 154.129 214.497Z" fill="#EBEBEB"/>
<path d="M172.877 219.715C178.923 219.715 183.825 214.814 183.825 208.768C183.825 202.722 178.923 197.82 172.877 197.82C166.831 197.82 161.929 202.722 161.929 208.768C161.929 214.814 166.831 219.715 172.877 219.715Z" fill="#EBEBEB"/>
<path d="M191.506 210.948C195.234 209.411 197.012 205.144 195.476 201.415C193.939 197.687 189.672 195.909 185.943 197.445C182.215 198.981 180.437 203.249 181.973 206.978C183.509 210.706 187.777 212.484 191.506 210.948Z" fill="#EBEBEB"/>
<path d="M172.303 198.1C172.948 194.119 170.243 190.37 166.263 189.725C162.282 189.08 158.533 191.784 157.888 195.765C157.243 199.746 159.947 203.495 163.928 204.14C167.909 204.785 171.658 202.08 172.303 198.1Z" fill="#EBEBEB"/>
<path d="M136.624 206.809C136.624 206.809 137.481 223.72 170.333 223.72C203.185 223.72 204.043 206.809 204.043 206.809H136.624Z" fill="#E0E0E0"/>
<path d="M106.287 217.924C106.287 217.924 95.5846 199.477 110.433 184.789C110.433 184.789 114.305 187.314 114.201 190.715C114.098 194.116 110.046 194.964 110.923 197.8C111.799 200.636 115.633 203.453 113.137 205.761C110.64 208.069 113.542 210.18 113.372 213.053C113.202 215.927 106.287 217.924 106.287 217.924Z" fill="#E0E0E0"/>
<path d="M107.097 219.613C107.097 219.613 111.431 198.735 92.711 189.465C92.711 189.465 89.8281 193.092 90.9586 196.295C92.0892 199.499 96.2345 199.018 96.3005 201.948C96.3664 204.878 93.5683 208.769 96.715 210.192C99.8618 211.614 97.7231 214.526 98.7877 217.192C99.8523 219.858 107.097 219.613 107.097 219.613Z" fill="#E0E0E0"/>
<path d="M90.676 209.953C90.676 209.953 91.034 223.718 104.676 223.718C118.318 223.718 118.676 209.953 118.676 209.953H90.676Z" fill="#EBEBEB"/>
<path d="M239.533 350.998C340.419 350.998 422.203 346.223 422.203 340.333C422.203 334.443 340.419 329.668 239.533 329.668C138.647 329.668 56.863 334.443 56.863 340.333C56.863 346.223 138.647 350.998 239.533 350.998Z" fill="#F5F5F5"/>
<path d="M174.008 204.862C173.449 204.825 172.925 204.578 172.543 204.169C172.16 203.761 171.947 203.222 171.947 202.662C171.947 202.102 172.16 201.563 172.543 201.155C172.925 200.746 173.449 200.499 174.008 200.462C179.397 200.462 183.938 192.746 183.938 183.607C183.974 183.049 184.222 182.525 184.63 182.142C185.039 181.76 185.578 181.547 186.138 181.547C186.697 181.547 187.236 181.76 187.645 182.142C188.053 182.525 188.301 183.049 188.337 183.607C188.337 195.525 182.063 204.862 174.008 204.862Z" fill="#ECE2B2"/>
<path d="M207.255 204.862C206.697 204.825 206.173 204.578 205.79 204.169C205.408 203.761 205.195 203.222 205.195 202.662C205.195 202.102 205.408 201.563 205.79 201.155C206.173 200.746 206.697 200.499 207.255 200.462C212.644 200.462 217.185 192.746 217.185 183.607C217.222 183.049 217.47 182.525 217.878 182.142C218.287 181.76 218.826 181.547 219.385 181.547C219.945 181.547 220.484 181.76 220.892 182.142C221.301 182.525 221.549 183.049 221.585 183.607C221.632 195.525 215.292 204.862 207.255 204.862Z" fill="#ECE2B2"/>
<path d="M240.475 204.86C239.917 204.823 239.393 204.576 239.01 204.167C238.627 203.758 238.415 203.22 238.415 202.66C238.415 202.1 238.627 201.561 239.01 201.153C239.393 200.744 239.917 200.497 240.475 200.46C245.855 200.46 250.405 192.744 250.405 183.605C250.405 183.023 250.636 182.465 251.048 182.053C251.46 181.641 252.018 181.41 252.6 181.41C253.183 181.41 253.741 181.641 254.153 182.053C254.564 182.465 254.796 183.023 254.796 183.605C254.824 195.523 248.54 204.86 240.475 204.86Z" fill="#ECE2B2"/>
<path d="M273.751 204.86C273.45 204.88 273.148 204.837 272.864 204.736C272.58 204.634 272.32 204.475 272.1 204.269C271.88 204.063 271.704 203.814 271.584 203.537C271.464 203.26 271.402 202.962 271.402 202.66C271.402 202.358 271.464 202.06 271.584 201.783C271.704 201.506 271.88 201.257 272.1 201.051C272.32 200.845 272.58 200.686 272.864 200.584C273.148 200.483 273.45 200.44 273.751 200.46C279.131 200.46 283.681 192.744 283.681 183.605C283.681 183.023 283.912 182.465 284.324 182.053C284.736 181.641 285.294 181.41 285.876 181.41C286.458 181.41 287.017 181.641 287.428 182.053C287.84 182.465 288.071 183.023 288.071 183.605C288.071 195.523 281.778 204.86 273.751 204.86Z" fill="#ECE2B2"/>
<path d="M306.989 204.862C306.431 204.825 305.907 204.578 305.525 204.169C305.142 203.761 304.929 203.222 304.929 202.662C304.929 202.102 305.142 201.563 305.525 201.155C305.907 200.746 306.431 200.499 306.989 200.462C312.378 200.462 316.92 192.746 316.92 183.607C316.956 183.049 317.204 182.525 317.612 182.142C318.021 181.76 318.56 181.547 319.119 181.547C319.679 181.547 320.218 181.76 320.627 182.142C321.035 182.525 321.283 183.049 321.319 183.607C321.319 195.525 315.026 204.862 306.989 204.862Z" fill="#ECE2B2"/>
<path d="M340.237 204.862C339.679 204.825 339.155 204.578 338.772 204.169C338.39 203.761 338.177 203.222 338.177 202.662C338.177 202.102 338.39 201.563 338.772 201.155C339.155 200.746 339.679 200.499 340.237 200.462C345.617 200.462 350.167 192.746 350.167 183.607C350.204 183.049 350.452 182.525 350.86 182.142C351.269 181.76 351.808 181.547 352.367 181.547C352.927 181.547 353.466 181.76 353.874 182.142C354.283 182.525 354.531 183.049 354.567 183.607C354.567 195.525 348.274 204.862 340.237 204.862Z" fill="#ECE2B2"/>
<g opacity="0.3">
<path d="M174.008 204.858C173.449 204.821 172.925 204.574 172.543 204.165C172.16 203.757 171.947 203.218 171.947 202.658C171.947 202.098 172.16 201.56 172.543 201.151C172.925 200.743 173.449 200.495 174.008 200.458C179.397 200.458 183.938 192.742 183.938 183.604C183.974 183.045 184.222 182.521 184.63 182.139C185.039 181.756 185.578 181.543 186.138 181.543C186.697 181.543 187.236 181.756 187.645 182.139C188.053 182.521 188.301 183.045 188.337 183.604C188.337 195.521 182.063 204.858 174.008 204.858Z" fill="black"/>
<path d="M207.255 204.858C206.697 204.821 206.173 204.574 205.79 204.165C205.408 203.757 205.195 203.218 205.195 202.658C205.195 202.098 205.408 201.56 205.79 201.151C206.173 200.743 206.697 200.495 207.255 200.458C212.644 200.458 217.185 192.742 217.185 183.604C217.222 183.045 217.47 182.521 217.878 182.139C218.287 181.756 218.826 181.543 219.385 181.543C219.945 181.543 220.484 181.756 220.892 182.139C221.301 182.521 221.549 183.045 221.585 183.604C221.632 195.521 215.292 204.858 207.255 204.858Z" fill="black"/>
<path d="M240.475 204.86C239.916 204.823 239.393 204.576 239.01 204.167C238.627 203.758 238.414 203.22 238.414 202.66C238.414 202.1 238.627 201.561 239.01 201.153C239.393 200.744 239.916 200.497 240.475 200.46C245.854 200.46 250.405 192.744 250.405 183.605C250.405 183.023 250.636 182.465 251.048 182.053C251.46 181.641 252.018 181.41 252.6 181.41C253.182 181.41 253.741 181.641 254.152 182.053C254.564 182.465 254.795 183.023 254.795 183.605C254.824 195.523 248.54 204.86 240.475 204.86Z" fill="black"/>
<path d="M273.751 204.86C273.45 204.88 273.148 204.837 272.864 204.736C272.58 204.634 272.32 204.475 272.1 204.269C271.88 204.063 271.704 203.814 271.584 203.537C271.464 203.26 271.402 202.962 271.402 202.66C271.402 202.358 271.464 202.06 271.584 201.783C271.704 201.506 271.88 201.257 272.1 201.051C272.32 200.845 272.58 200.686 272.864 200.584C273.148 200.483 273.45 200.44 273.751 200.46C279.131 200.46 283.681 192.744 283.681 183.605C283.681 183.023 283.912 182.465 284.324 182.053C284.736 181.641 285.294 181.41 285.876 181.41C286.458 181.41 287.017 181.641 287.428 182.053C287.84 182.465 288.071 183.023 288.071 183.605C288.071 195.523 281.778 204.86 273.751 204.86Z" fill="black"/>
<path d="M306.989 204.858C306.431 204.821 305.907 204.574 305.525 204.165C305.142 203.757 304.929 203.218 304.929 202.658C304.929 202.098 305.142 201.56 305.525 201.151C305.907 200.743 306.431 200.495 306.989 200.458C312.378 200.458 316.92 192.742 316.92 183.604C316.956 183.045 317.204 182.521 317.612 182.139C318.021 181.756 318.56 181.543 319.119 181.543C319.679 181.543 320.218 181.756 320.627 182.139C321.035 182.521 321.283 183.045 321.319 183.604C321.319 195.521 315.026 204.858 306.989 204.858Z" fill="black"/>
<path d="M340.237 204.858C339.679 204.821 339.155 204.574 338.772 204.165C338.39 203.757 338.177 203.218 338.177 202.658C338.177 202.098 338.39 201.56 338.772 201.151C339.155 200.743 339.679 200.495 340.237 200.458C345.617 200.458 350.167 192.742 350.167 183.604C350.204 183.045 350.452 182.521 350.86 182.139C351.269 181.756 351.808 181.543 352.367 181.543C352.927 181.543 353.466 181.756 353.874 182.139C354.283 182.521 354.531 183.045 354.567 183.604C354.567 195.521 348.274 204.858 340.237 204.858Z" fill="black"/>
</g>
<path d="M153.177 185.857H367.211C370.08 185.914 372.83 187.017 374.945 188.958C377.059 190.899 378.393 193.545 378.695 196.399L390.547 330.022C390.691 331.362 390.549 332.718 390.13 334C389.711 335.282 389.025 336.46 388.116 337.457C387.208 338.453 386.098 339.246 384.861 339.781C383.623 340.317 382.286 340.584 380.937 340.564H166.895C164.026 340.503 161.278 339.399 159.165 337.458C157.051 335.518 155.716 332.874 155.41 330.022L143.567 196.399C143.422 195.058 143.563 193.701 143.981 192.419C144.4 191.136 145.086 189.958 145.995 188.961C146.904 187.964 148.014 187.172 149.252 186.636C150.49 186.101 151.828 185.835 153.177 185.857Z" fill="#ECE2B2"/>
<path opacity="0.4" d="M153.177 185.857H367.211C370.08 185.914 372.83 187.017 374.945 188.958C377.059 190.899 378.393 193.545 378.695 196.399L390.547 330.022C390.691 331.362 390.549 332.718 390.13 334C389.711 335.282 389.025 336.46 388.116 337.457C387.208 338.453 386.098 339.246 384.861 339.781C383.623 340.317 382.286 340.584 380.937 340.564H166.895C164.026 340.503 161.278 339.399 159.165 337.458C157.051 335.518 155.716 332.874 155.41 330.022L143.567 196.399C143.422 195.058 143.563 193.701 143.981 192.419C144.4 191.136 145.086 189.958 145.995 188.961C146.904 187.964 148.014 187.172 149.252 186.636C150.49 186.101 151.828 185.835 153.177 185.857Z" fill="#FAFAFA"/>
<path d="M365.43 185.856H151.387C148.556 185.889 145.843 186.997 143.797 188.954C141.751 190.91 140.524 193.571 140.364 196.398L134.334 330.021C134.263 331.382 134.469 332.743 134.942 334.022C135.415 335.301 136.144 336.469 137.084 337.456C138.024 338.443 139.156 339.228 140.41 339.762C141.664 340.296 143.014 340.569 144.378 340.563H358.439C361.27 340.529 363.983 339.422 366.029 337.465C368.076 335.508 369.302 332.847 369.462 330.021L375.501 196.398C375.572 195.035 375.363 193.671 374.888 192.392C374.413 191.112 373.682 189.942 372.739 188.955C371.796 187.968 370.661 187.184 369.404 186.651C368.147 186.118 366.795 185.847 365.43 185.856Z" fill="#ECE2B2"/>
<path opacity="0.2" d="M365.43 185.856H151.387C148.556 185.889 145.843 186.997 143.797 188.954C141.751 190.91 140.524 193.571 140.364 196.398L134.334 330.021C134.263 331.382 134.469 332.743 134.942 334.022C135.415 335.301 136.144 336.469 137.084 337.456C138.024 338.443 139.156 339.228 140.41 339.762C141.664 340.296 143.014 340.569 144.378 340.563H358.439C361.27 340.529 363.983 339.422 366.029 337.465C368.076 335.508 369.302 332.847 369.462 330.021L375.501 196.398C375.572 195.035 375.363 193.671 374.888 192.392C374.413 191.112 373.682 189.942 372.739 188.955C371.796 187.968 370.661 187.184 369.404 186.651C368.147 186.118 366.795 185.847 365.43 185.856Z" fill="#FAFAFA"/>
<path d="M155.316 305.251L160.3 194.9C160.36 193.817 160.829 192.798 161.613 192.049C162.397 191.3 163.436 190.878 164.521 190.867H351.845C352.367 190.864 352.884 190.967 353.365 191.171C353.846 191.375 354.28 191.675 354.641 192.053C355.001 192.43 355.281 192.877 355.463 193.367C355.645 193.856 355.725 194.378 355.698 194.9L350.705 305.251C350.645 306.334 350.175 307.353 349.391 308.102C348.607 308.851 347.568 309.273 346.484 309.284H159.169C158.647 309.287 158.13 309.184 157.649 308.98C157.168 308.776 156.734 308.476 156.373 308.099C156.012 307.721 155.732 307.274 155.551 306.784C155.369 306.295 155.289 305.773 155.316 305.251Z" fill="#ECE2B2"/>
<path opacity="0.1" d="M155.316 305.251L160.3 194.9C160.36 193.817 160.829 192.798 161.613 192.049C162.397 191.3 163.436 190.878 164.521 190.867H351.845C352.367 190.864 352.884 190.967 353.365 191.171C353.846 191.375 354.28 191.675 354.641 192.053C355.001 192.43 355.281 192.877 355.463 193.367C355.645 193.856 355.725 194.378 355.698 194.9L350.705 305.251C350.645 306.334 350.175 307.353 349.391 308.102C348.607 308.851 347.568 309.273 346.484 309.284H159.169C158.647 309.287 158.13 309.184 157.649 308.98C157.168 308.776 156.734 308.476 156.373 308.099C156.012 307.721 155.732 307.274 155.551 306.784C155.369 306.295 155.289 305.773 155.316 305.251Z" fill="#FAFAFA"/>
<path opacity="0.1" d="M150.03 314.261L155.259 198.379C155.319 197.242 155.811 196.171 156.634 195.385C157.457 194.599 158.549 194.157 159.687 194.149H356.404C356.952 194.144 357.496 194.252 358.001 194.465C358.506 194.678 358.962 194.993 359.34 195.389C359.719 195.786 360.012 196.255 360.203 196.77C360.393 197.284 360.476 197.831 360.446 198.379L355.208 314.261C355.148 315.397 354.658 316.467 353.837 317.255C353.016 318.042 351.927 318.488 350.789 318.501H154.053C153.505 318.504 152.963 318.395 152.459 318.18C151.955 317.966 151.5 317.65 151.123 317.253C150.746 316.855 150.454 316.385 150.266 315.87C150.078 315.355 149.998 314.808 150.03 314.261Z" fill="black"/>
<path d="M145.169 323.607L150.624 202.731C150.697 201.549 151.213 200.438 152.068 199.619C152.924 198.801 154.056 198.334 155.24 198.313H360.446C361.019 198.308 361.586 198.421 362.113 198.644C362.641 198.867 363.117 199.195 363.512 199.609C363.908 200.023 364.214 200.514 364.413 201.051C364.611 201.588 364.698 202.16 364.667 202.731L359.184 323.607C359.11 324.789 358.595 325.9 357.739 326.718C356.884 327.537 355.751 328.004 354.567 328.025H149.39C148.817 328.031 148.249 327.92 147.721 327.697C147.193 327.475 146.716 327.146 146.321 326.732C145.925 326.318 145.618 325.826 145.42 325.289C145.222 324.751 145.137 324.179 145.169 323.607Z" fill="#FAFAFA"/>
<path d="M340.209 205.557C339.823 205.557 339.441 205.479 339.087 205.327C338.732 205.174 338.413 204.951 338.148 204.67C337.883 204.389 337.679 204.057 337.547 203.695C337.415 203.332 337.359 202.946 337.383 202.561C337.419 201.805 337.742 201.091 338.287 200.566C338.831 200.041 339.556 199.743 340.313 199.734C340.698 199.734 341.08 199.812 341.435 199.965C341.789 200.117 342.109 200.341 342.374 200.621C342.638 200.902 342.843 201.234 342.975 201.597C343.106 201.959 343.162 202.345 343.139 202.73C343.103 203.486 342.78 204.2 342.235 204.725C341.69 205.251 340.966 205.548 340.209 205.557Z" fill="#ECE2B2"/>
<path d="M306.961 205.557C306.575 205.557 306.194 205.479 305.839 205.327C305.485 205.174 305.165 204.951 304.9 204.67C304.636 204.389 304.431 204.057 304.299 203.695C304.168 203.332 304.112 202.946 304.135 202.561C304.171 201.805 304.494 201.091 305.039 200.566C305.584 200.041 306.308 199.743 307.065 199.734C307.451 199.734 307.833 199.812 308.187 199.965C308.542 200.117 308.861 200.341 309.126 200.621C309.391 200.902 309.595 201.234 309.727 201.597C309.859 201.959 309.915 202.345 309.891 202.73C309.858 203.487 309.535 204.202 308.99 204.728C308.445 205.254 307.719 205.55 306.961 205.557Z" fill="#ECE2B2"/>
<path d="M273.713 205.557C273.327 205.557 272.946 205.479 272.591 205.327C272.237 205.174 271.917 204.951 271.652 204.67C271.388 204.389 271.183 204.057 271.051 203.695C270.92 203.332 270.864 202.946 270.887 202.561C270.925 201.806 271.249 201.093 271.793 200.568C272.338 200.044 273.061 199.745 273.817 199.734C274.203 199.734 274.585 199.812 274.939 199.965C275.294 200.117 275.613 200.341 275.878 200.621C276.143 200.902 276.347 201.234 276.479 201.597C276.611 201.959 276.667 202.345 276.643 202.73C276.61 203.487 276.287 204.202 275.742 204.728C275.197 205.254 274.471 205.55 273.713 205.557Z" fill="#ECE2B2"/>
<path d="M240.475 205.557C240.089 205.557 239.707 205.479 239.353 205.327C238.998 205.174 238.679 204.951 238.414 204.67C238.149 204.389 237.945 204.057 237.813 203.695C237.681 203.332 237.625 202.946 237.649 202.561C237.689 201.805 238.015 201.093 238.561 200.568C239.107 200.043 239.831 199.745 240.588 199.734C240.974 199.734 241.356 199.812 241.71 199.965C242.065 200.117 242.384 200.341 242.649 200.621C242.914 200.902 243.118 201.234 243.25 201.597C243.382 201.959 243.438 202.345 243.414 202.73C243.381 203.489 243.057 204.205 242.51 204.731C241.962 205.257 241.234 205.553 240.475 205.557Z" fill="#ECE2B2"/>
<path d="M207.227 205.557C206.841 205.557 206.459 205.479 206.105 205.327C205.751 205.174 205.431 204.951 205.166 204.67C204.901 204.389 204.697 204.057 204.565 203.695C204.434 203.332 204.378 202.946 204.401 202.561C204.437 201.805 204.76 201.091 205.305 200.566C205.849 200.041 206.574 199.743 207.331 199.734C207.717 199.734 208.099 199.812 208.453 199.965C208.808 200.117 209.127 200.341 209.392 200.621C209.657 200.902 209.861 201.234 209.993 201.597C210.124 201.959 210.18 202.345 210.157 202.73C210.121 203.486 209.798 204.2 209.253 204.725C208.709 205.251 207.984 205.548 207.227 205.557Z" fill="#ECE2B2"/>
<path d="M173.979 205.557C173.594 205.557 173.212 205.479 172.857 205.327C172.503 205.174 172.183 204.951 171.918 204.67C171.654 204.389 171.449 204.057 171.317 203.695C171.186 203.332 171.13 202.946 171.153 202.561C171.189 201.805 171.512 201.091 172.057 200.566C172.602 200.041 173.326 199.743 174.083 199.734C174.469 199.734 174.851 199.812 175.205 199.965C175.56 200.117 175.879 200.341 176.144 200.621C176.409 200.902 176.613 201.234 176.745 201.597C176.877 201.959 176.933 202.345 176.909 202.73C176.876 203.487 176.553 204.202 176.008 204.728C175.463 205.254 174.737 205.55 173.979 205.557Z" fill="#ECE2B2"/>
<g opacity="0.1">
<path d="M340.209 205.557C339.823 205.557 339.441 205.479 339.087 205.327C338.732 205.174 338.413 204.951 338.148 204.67C337.883 204.389 337.679 204.057 337.547 203.695C337.415 203.332 337.359 202.946 337.383 202.561C337.419 201.805 337.742 201.091 338.287 200.566C338.831 200.041 339.556 199.743 340.313 199.734C340.698 199.734 341.08 199.812 341.435 199.965C341.789 200.117 342.109 200.341 342.374 200.621C342.638 200.902 342.843 201.234 342.975 201.597C343.106 201.959 343.162 202.345 343.139 202.73C343.103 203.486 342.78 204.2 342.235 204.725C341.69 205.251 340.966 205.548 340.209 205.557Z" fill="#FAFAFA"/>
<path d="M306.961 205.557C306.575 205.557 306.193 205.479 305.839 205.327C305.484 205.174 305.165 204.951 304.9 204.67C304.635 204.389 304.431 204.057 304.299 203.695C304.168 203.332 304.112 202.946 304.135 202.561C304.171 201.805 304.494 201.091 305.039 200.566C305.583 200.041 306.308 199.743 307.065 199.734C307.451 199.734 307.833 199.812 308.187 199.965C308.541 200.117 308.861 200.341 309.126 200.621C309.391 200.902 309.595 201.234 309.727 201.597C309.858 201.959 309.914 202.345 309.891 202.73C309.857 203.487 309.535 204.202 308.99 204.728C308.445 205.254 307.718 205.55 306.961 205.557Z" fill="#FAFAFA"/>
<path d="M273.713 205.557C273.327 205.557 272.945 205.479 272.591 205.327C272.236 205.174 271.917 204.951 271.652 204.67C271.387 204.389 271.183 204.057 271.051 203.695C270.92 203.332 270.864 202.946 270.887 202.561C270.925 201.806 271.249 201.093 271.793 200.568C272.337 200.044 273.061 199.745 273.817 199.734C274.203 199.734 274.585 199.812 274.939 199.965C275.293 200.117 275.613 200.341 275.878 200.621C276.142 200.902 276.347 201.234 276.479 201.597C276.61 201.959 276.666 202.345 276.643 202.73C276.609 203.487 276.287 204.202 275.742 204.728C275.196 205.254 274.47 205.55 273.713 205.557Z" fill="#FAFAFA"/>
<path d="M240.475 205.557C240.089 205.557 239.707 205.479 239.353 205.327C238.998 205.174 238.679 204.951 238.414 204.67C238.149 204.389 237.944 204.057 237.813 203.695C237.681 203.332 237.625 202.946 237.648 202.561C237.689 201.805 238.015 201.093 238.561 200.568C239.106 200.043 239.831 199.745 240.588 199.734C240.974 199.734 241.356 199.812 241.71 199.965C242.065 200.117 242.384 200.341 242.649 200.621C242.914 200.902 243.118 201.234 243.25 201.597C243.381 201.959 243.437 202.345 243.414 202.73C243.38 203.489 243.056 204.205 242.509 204.731C241.962 205.257 241.234 205.553 240.475 205.557Z" fill="#FAFAFA"/>
<path d="M207.227 205.557C206.841 205.557 206.459 205.479 206.105 205.327C205.75 205.174 205.431 204.951 205.166 204.67C204.901 204.389 204.697 204.057 204.565 203.695C204.433 203.332 204.377 202.946 204.401 202.561C204.437 201.805 204.76 201.091 205.305 200.566C205.849 200.041 206.574 199.743 207.331 199.734C207.717 199.734 208.098 199.812 208.453 199.965C208.807 200.117 209.127 200.341 209.392 200.621C209.656 200.902 209.861 201.234 209.993 201.597C210.124 201.959 210.18 202.345 210.157 202.73C210.121 203.486 209.798 204.2 209.253 204.725C208.708 205.251 207.984 205.548 207.227 205.557Z" fill="#FAFAFA"/>
<path d="M173.979 205.557C173.593 205.557 173.211 205.479 172.857 205.327C172.502 205.174 172.183 204.951 171.918 204.67C171.653 204.389 171.449 204.057 171.317 203.695C171.186 203.332 171.13 202.946 171.153 202.561C171.189 201.805 171.512 201.091 172.057 200.566C172.601 200.041 173.326 199.743 174.083 199.734C174.469 199.734 174.851 199.812 175.205 199.965C175.56 200.117 175.879 200.341 176.144 200.621C176.409 200.902 176.613 201.234 176.745 201.597C176.876 201.959 176.932 202.345 176.909 202.73C176.875 203.487 176.553 204.202 176.008 204.728C175.463 205.254 174.737 205.55 173.979 205.557Z" fill="#FAFAFA"/>
</g>
<path d="M182.289 216.089H165.566C165.324 216.091 165.083 216.043 164.861 215.947C164.638 215.851 164.437 215.711 164.272 215.533C164.106 215.356 163.979 215.147 163.899 214.918C163.818 214.689 163.786 214.446 163.804 214.205C163.823 213.711 164.027 213.242 164.377 212.893C164.726 212.544 165.195 212.339 165.689 212.32H182.411C182.654 212.318 182.894 212.367 183.117 212.462C183.34 212.558 183.54 212.699 183.706 212.876C183.871 213.053 183.998 213.263 184.079 213.491C184.159 213.72 184.191 213.963 184.173 214.205C184.155 214.698 183.95 215.167 183.601 215.516C183.251 215.866 182.783 216.07 182.289 216.089Z" fill="#ECE2B2"/>
<path d="M215.537 216.089H198.814C198.571 216.091 198.331 216.043 198.108 215.947C197.886 215.851 197.685 215.711 197.519 215.533C197.354 215.356 197.227 215.147 197.146 214.918C197.066 214.689 197.034 214.446 197.052 214.205C197.071 213.703 197.282 213.228 197.642 212.877C198.001 212.527 198.481 212.327 198.983 212.32H215.697C215.94 212.318 216.18 212.367 216.404 212.462C216.627 212.558 216.828 212.699 216.994 212.875C217.161 213.052 217.289 213.262 217.37 213.491C217.452 213.719 217.485 213.962 217.468 214.205C217.449 214.706 217.238 215.182 216.878 215.532C216.519 215.883 216.039 216.082 215.537 216.089Z" fill="#ECE2B2"/>
<path d="M248.785 216.089H232.062C231.819 216.091 231.578 216.042 231.355 215.947C231.132 215.851 230.931 215.711 230.764 215.534C230.598 215.357 230.47 215.148 230.389 214.919C230.307 214.69 230.274 214.447 230.291 214.205C230.31 213.703 230.521 213.228 230.88 212.877C231.24 212.527 231.72 212.327 232.222 212.32H248.954C249.197 212.318 249.437 212.367 249.66 212.462C249.883 212.558 250.083 212.699 250.249 212.876C250.414 213.053 250.541 213.263 250.622 213.491C250.702 213.72 250.734 213.963 250.716 214.205C250.699 214.707 250.489 215.184 250.129 215.535C249.769 215.886 249.287 216.084 248.785 216.089Z" fill="#ECE2B2"/>
<path d="M282.023 216.089H265.3C265.058 216.091 264.818 216.043 264.595 215.947C264.372 215.851 264.171 215.711 264.006 215.533C263.84 215.356 263.713 215.147 263.633 214.918C263.552 214.689 263.52 214.446 263.538 214.205C263.557 213.711 263.762 213.242 264.111 212.893C264.46 212.544 264.929 212.339 265.423 212.32H282.146C282.388 212.318 282.628 212.367 282.851 212.462C283.074 212.558 283.274 212.699 283.44 212.876C283.606 213.053 283.733 213.263 283.813 213.491C283.893 213.72 283.926 213.963 283.907 214.205C283.889 214.698 283.684 215.167 283.335 215.516C282.985 215.866 282.517 216.07 282.023 216.089Z" fill="#ECE2B2"/>
<path d="M315.271 216.089H298.548C298.306 216.091 298.065 216.043 297.843 215.947C297.62 215.851 297.419 215.711 297.254 215.533C297.088 215.356 296.961 215.147 296.881 214.918C296.8 214.689 296.768 214.446 296.786 214.205C296.805 213.703 297.017 213.228 297.376 212.877C297.735 212.527 298.216 212.327 298.718 212.32H315.44C315.683 212.318 315.923 212.367 316.146 212.462C316.369 212.558 316.569 212.699 316.735 212.876C316.9 213.053 317.027 213.263 317.108 213.491C317.188 213.72 317.22 213.963 317.202 214.205C317.183 214.706 316.972 215.182 316.613 215.532C316.253 215.883 315.773 216.082 315.271 216.089Z" fill="#ECE2B2"/>
<path d="M348.519 216.089H331.796C331.553 216.091 331.313 216.043 331.09 215.947C330.868 215.851 330.667 215.711 330.501 215.533C330.336 215.356 330.209 215.147 330.128 214.918C330.048 214.689 330.016 214.446 330.034 214.205C330.053 213.703 330.264 213.228 330.624 212.877C330.983 212.527 331.463 212.327 331.965 212.32H348.679C348.922 212.318 349.162 212.367 349.386 212.462C349.609 212.558 349.81 212.699 349.976 212.875C350.142 213.052 350.27 213.262 350.352 213.491C350.434 213.719 350.467 213.962 350.45 214.205C350.431 214.706 350.22 215.182 349.86 215.532C349.501 215.883 349.021 216.082 348.519 216.089Z" fill="#ECE2B2"/>
<g opacity="0.3">
<path d="M182.289 216.089H165.566C165.324 216.091 165.083 216.043 164.861 215.947C164.638 215.851 164.437 215.711 164.272 215.533C164.106 215.356 163.979 215.147 163.899 214.918C163.818 214.689 163.786 214.446 163.804 214.205C163.823 213.711 164.027 213.242 164.377 212.893C164.726 212.544 165.195 212.339 165.689 212.32H182.411C182.654 212.318 182.894 212.367 183.117 212.462C183.34 212.558 183.54 212.699 183.706 212.876C183.871 213.053 183.998 213.263 184.079 213.491C184.159 213.72 184.191 213.963 184.173 214.205C184.155 214.698 183.95 215.167 183.601 215.516C183.251 215.866 182.783 216.07 182.289 216.089Z" fill="black"/>
<path d="M215.537 216.089H198.814C198.571 216.091 198.331 216.043 198.108 215.947C197.886 215.851 197.685 215.711 197.519 215.533C197.354 215.356 197.227 215.147 197.146 214.918C197.066 214.689 197.034 214.446 197.052 214.205C197.071 213.703 197.282 213.228 197.642 212.877C198.001 212.527 198.481 212.327 198.983 212.32H215.697C215.94 212.318 216.18 212.367 216.404 212.462C216.627 212.558 216.828 212.699 216.994 212.875C217.161 213.052 217.289 213.262 217.37 213.491C217.452 213.719 217.485 213.962 217.468 214.205C217.449 214.706 217.238 215.182 216.878 215.532C216.519 215.883 216.039 216.082 215.537 216.089Z" fill="black"/>
<path d="M248.784 216.089H232.062C231.819 216.091 231.578 216.042 231.355 215.947C231.132 215.851 230.931 215.711 230.764 215.534C230.598 215.357 230.47 215.148 230.388 214.919C230.307 214.69 230.274 214.447 230.29 214.205C230.31 213.703 230.521 213.228 230.88 212.877C231.239 212.527 231.72 212.327 232.222 212.32H248.954C249.196 212.318 249.437 212.367 249.659 212.462C249.882 212.558 250.083 212.699 250.248 212.876C250.414 213.053 250.541 213.263 250.621 213.491C250.702 213.72 250.734 213.963 250.716 214.205C250.699 214.707 250.488 215.184 250.129 215.535C249.769 215.886 249.287 216.084 248.784 216.089Z" fill="black"/>
<path d="M282.023 216.089H265.3C265.058 216.091 264.817 216.043 264.594 215.947C264.372 215.851 264.171 215.711 264.006 215.533C263.84 215.356 263.713 215.147 263.632 214.918C263.552 214.689 263.52 214.446 263.538 214.205C263.557 213.711 263.761 213.242 264.111 212.893C264.46 212.544 264.929 212.339 265.422 212.32H282.145C282.388 212.318 282.628 212.367 282.851 212.462C283.074 212.558 283.274 212.699 283.44 212.876C283.605 213.053 283.732 213.263 283.813 213.491C283.893 213.72 283.925 213.963 283.907 214.205C283.888 214.698 283.684 215.167 283.334 215.516C282.985 215.866 282.517 216.07 282.023 216.089Z" fill="black"/>
<path d="M315.271 216.089H298.548C298.306 216.091 298.065 216.043 297.843 215.947C297.62 215.851 297.419 215.711 297.254 215.533C297.088 215.356 296.961 215.147 296.881 214.918C296.8 214.689 296.768 214.446 296.786 214.205C296.805 213.703 297.017 213.228 297.376 212.877C297.735 212.527 298.216 212.327 298.718 212.32H315.44C315.683 212.318 315.923 212.367 316.146 212.462C316.369 212.558 316.569 212.699 316.735 212.876C316.9 213.053 317.027 213.263 317.108 213.491C317.188 213.72 317.22 213.963 317.202 214.205C317.183 214.706 316.972 215.182 316.613 215.532C316.253 215.883 315.773 216.082 315.271 216.089Z" fill="black"/>
<path d="M348.519 216.089H331.796C331.553 216.091 331.313 216.043 331.09 215.947C330.868 215.851 330.667 215.711 330.501 215.533C330.336 215.356 330.209 215.147 330.128 214.918C330.048 214.689 330.016 214.446 330.034 214.205C330.053 213.703 330.264 213.228 330.624 212.877C330.983 212.527 331.463 212.327 331.965 212.32H348.679C348.922 212.318 349.162 212.367 349.386 212.462C349.609 212.558 349.81 212.699 349.976 212.875C350.142 213.052 350.27 213.262 350.352 213.491C350.434 213.719 350.467 213.962 350.45 214.205C350.431 214.706 350.22 215.182 349.86 215.532C349.501 215.883 349.021 216.082 348.519 216.089Z" fill="black"/>
</g>
<path d="M183.212 251.672H161.43C160.953 251.674 160.479 251.579 160.04 251.392C159.6 251.204 159.203 250.93 158.874 250.584C158.544 250.238 158.288 249.829 158.122 249.381C157.956 248.933 157.882 248.456 157.907 247.979L158.849 226.197C158.906 225.207 159.336 224.275 160.053 223.59C160.77 222.905 161.72 222.517 162.712 222.504H184.494C184.971 222.502 185.444 222.598 185.884 222.785C186.324 222.972 186.72 223.247 187.05 223.592C187.38 223.938 187.636 224.347 187.802 224.795C187.968 225.243 188.042 225.72 188.017 226.197L187.075 247.979C187.016 248.968 186.585 249.899 185.868 250.584C185.152 251.269 184.203 251.657 183.212 251.672Z" fill="#ECE2B2"/>
<path d="M216.46 251.672H194.678C194.2 251.676 193.726 251.581 193.286 251.394C192.846 251.208 192.448 250.933 192.118 250.587C191.788 250.241 191.532 249.831 191.367 249.383C191.201 248.934 191.129 248.457 191.154 247.979L192.096 226.197C192.154 225.207 192.584 224.275 193.301 223.59C194.017 222.905 194.967 222.517 195.959 222.504H217.769C218.248 222.502 218.721 222.598 219.161 222.785C219.601 222.972 219.999 223.246 220.329 223.592C220.66 223.937 220.916 224.346 221.084 224.794C221.251 225.242 221.325 225.719 221.302 226.197L220.313 247.979C220.258 248.968 219.83 249.9 219.115 250.586C218.399 251.271 217.451 251.66 216.46 251.672Z" fill="#ECE2B2"/>
<path d="M249.698 251.672H227.926C227.448 251.674 226.974 251.579 226.534 251.392C226.094 251.205 225.697 250.93 225.366 250.585C225.036 250.239 224.779 249.83 224.612 249.382C224.444 248.934 224.37 248.457 224.393 247.979L225.335 226.197C225.392 225.207 225.822 224.275 226.539 223.59C227.256 222.905 228.206 222.517 229.198 222.504H250.97C251.448 222.501 251.922 222.595 252.362 222.782C252.803 222.969 253.2 223.243 253.53 223.589C253.86 223.935 254.116 224.345 254.282 224.794C254.447 225.242 254.52 225.72 254.494 226.197L253.552 247.979C253.495 248.968 253.066 249.898 252.351 250.583C251.636 251.268 250.688 251.657 249.698 251.672Z" fill="#ECE2B2"/>
<path d="M282.946 251.672H261.202C260.723 251.676 260.249 251.581 259.809 251.394C259.368 251.208 258.97 250.933 258.639 250.587C258.308 250.242 258.052 249.832 257.885 249.383C257.718 248.935 257.644 248.457 257.669 247.979L258.611 226.197C258.666 225.208 259.094 224.276 259.809 223.591C260.525 222.905 261.474 222.517 262.464 222.504H284.246C284.724 222.502 285.197 222.598 285.637 222.785C286.076 222.972 286.473 223.247 286.803 223.592C287.133 223.938 287.389 224.347 287.555 224.795C287.721 225.243 287.794 225.72 287.77 226.197L286.828 247.979C286.77 248.972 286.337 249.907 285.617 250.593C284.896 251.278 283.941 251.664 282.946 251.672Z" fill="#ECE2B2"/>
<path d="M316.194 251.672H294.412C293.934 251.674 293.461 251.579 293.022 251.392C292.582 251.204 292.185 250.93 291.856 250.584C291.526 250.238 291.27 249.829 291.104 249.381C290.937 248.933 290.864 248.456 290.889 247.979L291.831 226.197C291.888 225.207 292.318 224.275 293.035 223.59C293.752 222.905 294.702 222.517 295.693 222.504H317.466C317.945 222.501 318.419 222.595 318.859 222.782C319.3 222.968 319.698 223.243 320.029 223.589C320.36 223.935 320.616 224.344 320.783 224.793C320.95 225.241 321.023 225.719 320.999 226.197L320.057 247.979C319.998 248.969 319.567 249.899 318.85 250.584C318.134 251.269 317.185 251.658 316.194 251.672Z" fill="#ECE2B2"/>
<path d="M349.432 251.672H327.66C327.182 251.676 326.708 251.581 326.268 251.394C325.828 251.208 325.43 250.933 325.1 250.587C324.77 250.241 324.514 249.831 324.348 249.383C324.183 248.934 324.11 248.457 324.136 247.979L325.078 226.197C325.135 225.207 325.566 224.275 326.283 223.59C326.999 222.905 327.949 222.517 328.941 222.504H350.714C351.192 222.502 351.665 222.598 352.105 222.785C352.545 222.972 352.943 223.246 353.273 223.592C353.604 223.937 353.861 224.346 354.028 224.794C354.195 225.242 354.27 225.719 354.247 226.197L353.257 247.979C353.203 248.964 352.779 249.891 352.069 250.576C351.36 251.261 350.418 251.652 349.432 251.672Z" fill="#ECE2B2"/>
<g opacity="0.8">
<path d="M183.212 251.672H161.43C160.952 251.674 160.479 251.579 160.04 251.392C159.6 251.204 159.203 250.93 158.873 250.584C158.544 250.238 158.288 249.829 158.122 249.381C157.955 248.933 157.882 248.456 157.906 247.979L158.849 226.197C158.906 225.207 159.336 224.275 160.053 223.59C160.77 222.905 161.72 222.517 162.711 222.504H184.493C184.971 222.502 185.444 222.598 185.884 222.785C186.323 222.972 186.72 223.247 187.05 223.592C187.38 223.938 187.636 224.347 187.802 224.795C187.968 225.243 188.041 225.72 188.017 226.197L187.075 247.979C187.016 248.968 186.584 249.899 185.868 250.584C185.152 251.269 184.203 251.657 183.212 251.672Z" fill="#FAFAFA"/>
<path d="M216.46 251.672H194.678C194.2 251.676 193.726 251.581 193.286 251.394C192.846 251.208 192.448 250.933 192.118 250.587C191.788 250.241 191.532 249.831 191.367 249.383C191.201 248.934 191.129 248.457 191.154 247.979L192.096 226.197C192.154 225.207 192.584 224.275 193.301 223.59C194.017 222.905 194.967 222.517 195.959 222.504H217.769C218.248 222.502 218.721 222.598 219.161 222.785C219.601 222.972 219.999 223.246 220.329 223.592C220.66 223.937 220.916 224.346 221.084 224.794C221.251 225.242 221.325 225.719 221.302 226.197L220.313 247.979C220.258 248.968 219.83 249.9 219.115 250.586C218.399 251.271 217.451 251.66 216.46 251.672Z" fill="#FAFAFA"/>
<path d="M249.698 251.672H227.926C227.447 251.674 226.974 251.579 226.534 251.392C226.094 251.205 225.696 250.93 225.366 250.585C225.035 250.239 224.779 249.83 224.611 249.382C224.444 248.934 224.369 248.457 224.393 247.979L225.335 226.197C225.392 225.207 225.822 224.275 226.539 223.59C227.256 222.905 228.206 222.517 229.197 222.504H250.97C251.448 222.501 251.922 222.595 252.362 222.782C252.802 222.969 253.2 223.243 253.53 223.589C253.86 223.935 254.116 224.345 254.281 224.794C254.447 225.242 254.519 225.72 254.494 226.197L253.551 247.979C253.494 248.968 253.065 249.898 252.351 250.583C251.636 251.268 250.688 251.657 249.698 251.672Z" fill="#FAFAFA"/>
<path d="M282.946 251.672H261.202C260.723 251.676 260.249 251.581 259.808 251.394C259.368 251.208 258.97 250.933 258.639 250.587C258.308 250.242 258.051 249.832 257.885 249.383C257.718 248.935 257.644 248.457 257.669 247.979L258.611 226.197C258.666 225.208 259.094 224.276 259.809 223.591C260.524 222.905 261.473 222.517 262.464 222.504H284.246C284.724 222.502 285.197 222.598 285.637 222.785C286.076 222.972 286.473 223.247 286.803 223.592C287.132 223.938 287.388 224.347 287.555 224.795C287.721 225.243 287.794 225.72 287.77 226.197L286.828 247.979C286.77 248.972 286.337 249.907 285.616 250.593C284.896 251.278 283.941 251.664 282.946 251.672Z" fill="#FAFAFA"/>
<path d="M316.194 251.672H294.412C293.934 251.674 293.461 251.579 293.022 251.392C292.582 251.204 292.185 250.93 291.855 250.584C291.526 250.238 291.27 249.829 291.103 249.381C290.937 248.933 290.864 248.456 290.888 247.979L291.83 226.197C291.888 225.207 292.318 224.275 293.035 223.59C293.752 222.905 294.702 222.517 295.693 222.504H317.466C317.944 222.501 318.419 222.595 318.859 222.782C319.3 222.968 319.698 223.243 320.029 223.589C320.359 223.935 320.616 224.344 320.783 224.793C320.95 225.241 321.023 225.719 320.999 226.197L320.057 247.979C319.997 248.969 319.566 249.899 318.85 250.584C318.134 251.269 317.185 251.658 316.194 251.672Z" fill="#FAFAFA"/>
<path d="M349.432 251.672H327.66C327.182 251.676 326.708 251.581 326.268 251.394C325.828 251.208 325.43 250.933 325.1 250.587C324.77 250.241 324.514 249.831 324.348 249.383C324.183 248.934 324.11 248.457 324.136 247.979L325.078 226.197C325.135 225.207 325.566 224.275 326.283 223.59C326.999 222.905 327.949 222.517 328.941 222.504H350.714C351.192 222.502 351.665 222.598 352.105 222.785C352.545 222.972 352.943 223.246 353.273 223.592C353.604 223.937 353.861 224.346 354.028 224.794C354.195 225.242 354.27 225.719 354.247 226.197L353.257 247.979C353.203 248.964 352.779 249.891 352.069 250.576C351.36 251.261 350.418 251.652 349.432 251.672Z" fill="#FAFAFA"/>
</g>
<path d="M181.686 285.469H159.904C159.426 285.471 158.953 285.376 158.513 285.188C158.074 285.001 157.677 284.727 157.347 284.381C157.018 284.035 156.762 283.626 156.595 283.178C156.429 282.73 156.356 282.253 156.38 281.776L157.322 259.994C157.382 259.005 157.813 258.074 158.529 257.389C159.245 256.705 160.194 256.316 161.185 256.301H183.005C183.483 256.299 183.956 256.394 184.395 256.582C184.835 256.769 185.232 257.043 185.561 257.389C185.891 257.735 186.147 258.144 186.313 258.592C186.48 259.04 186.553 259.517 186.529 259.994L185.586 281.776C185.527 282.772 185.09 283.707 184.366 284.393C183.642 285.079 182.683 285.464 181.686 285.469Z" fill="#ECE2B2"/>
<path d="M214.934 285.469H193.152C192.674 285.471 192.201 285.376 191.761 285.188C191.322 285.001 190.925 284.727 190.595 284.381C190.265 284.035 190.009 283.626 189.843 283.178C189.677 282.73 189.604 282.253 189.628 281.776L190.57 259.994C190.627 259.004 191.058 258.072 191.775 257.387C192.491 256.702 193.441 256.314 194.433 256.301H216.206C216.688 256.297 217.166 256.393 217.61 256.582C218.053 256.771 218.454 257.048 218.786 257.398C219.118 257.748 219.375 258.162 219.54 258.615C219.706 259.068 219.776 259.55 219.748 260.032L218.806 281.776C218.751 282.769 218.32 283.703 217.601 284.389C216.881 285.075 215.928 285.461 214.934 285.469Z" fill="#ECE2B2"/>
<path d="M248.172 285.469H226.399C225.921 285.473 225.448 285.378 225.007 285.191C224.567 285.005 224.17 284.73 223.84 284.384C223.51 284.038 223.254 283.628 223.088 283.18C222.922 282.731 222.85 282.254 222.876 281.776L223.818 259.994C223.875 259.004 224.306 258.072 225.022 257.387C225.739 256.702 226.689 256.314 227.681 256.301H249.453C249.932 256.298 250.405 256.392 250.846 256.579C251.286 256.765 251.683 257.04 252.013 257.386C252.343 257.732 252.599 258.142 252.765 258.59C252.93 259.039 253.003 259.517 252.977 259.994L252.035 281.776C251.978 282.766 251.547 283.698 250.831 284.383C250.114 285.068 249.164 285.457 248.172 285.469Z" fill="#ECE2B2"/>
<path d="M281.42 285.466H259.647C259.169 285.468 258.696 285.372 258.256 285.185C257.816 284.998 257.418 284.724 257.088 284.378C256.757 284.033 256.501 283.623 256.333 283.175C256.166 282.728 256.091 282.25 256.114 281.773L257.057 259.991C257.111 259.001 257.54 258.07 258.255 257.384C258.97 256.699 259.919 256.31 260.91 256.297H282.692C283.177 256.289 283.659 256.38 284.106 256.567C284.554 256.754 284.959 257.031 285.294 257.381C285.629 257.732 285.889 258.148 286.055 258.603C286.222 259.059 286.293 259.544 286.263 260.028L285.321 281.81C285.254 282.8 284.814 283.728 284.09 284.406C283.366 285.085 282.412 285.463 281.42 285.466Z" fill="#ECE2B2"/>
<path d="M314.668 285.468H292.886C292.408 285.47 291.935 285.374 291.495 285.187C291.056 285 290.659 284.725 290.329 284.38C289.999 284.034 289.744 283.625 289.577 283.177C289.411 282.729 289.338 282.252 289.362 281.775L290.304 259.993C290.355 258.995 290.783 258.054 291.502 257.361C292.221 256.668 293.178 256.275 294.177 256.262H315.959C316.436 256.26 316.909 256.355 317.349 256.543C317.789 256.73 318.185 257.004 318.515 257.35C318.845 257.696 319.101 258.105 319.267 258.553C319.433 259.001 319.506 259.478 319.482 259.955L318.54 281.737C318.49 282.735 318.061 283.676 317.342 284.369C316.623 285.062 315.667 285.455 314.668 285.468Z" fill="#ECE2B2"/>
<path d="M347.878 285.469H326.134C325.656 285.472 325.182 285.378 324.742 285.191C324.301 285.005 323.904 284.73 323.574 284.384C323.244 284.038 322.988 283.628 322.822 283.18C322.657 282.731 322.584 282.253 322.61 281.776L323.552 259.994C323.609 259.004 324.04 258.072 324.757 257.387C325.473 256.702 326.423 256.313 327.415 256.301H349.188C349.666 256.299 350.139 256.394 350.579 256.581C351.019 256.768 351.417 257.043 351.747 257.389C352.078 257.734 352.334 258.143 352.502 258.591C352.669 259.039 352.744 259.516 352.721 259.994L351.731 281.776C351.677 282.765 351.248 283.697 350.533 284.382C349.818 285.068 348.869 285.456 347.878 285.469Z" fill="#ECE2B2"/>
<g opacity="0.8">
<path d="M181.686 285.469H159.904C159.426 285.471 158.953 285.376 158.513 285.188C158.074 285.001 157.677 284.727 157.347 284.381C157.018 284.035 156.762 283.626 156.595 283.178C156.429 282.73 156.356 282.253 156.38 281.776L157.322 259.994C157.382 259.005 157.813 258.074 158.529 257.389C159.245 256.705 160.194 256.316 161.185 256.301H183.005C183.483 256.299 183.956 256.394 184.395 256.582C184.835 256.769 185.232 257.043 185.561 257.389C185.891 257.735 186.147 258.144 186.313 258.592C186.48 259.04 186.553 259.517 186.529 259.994L185.586 281.776C185.527 282.772 185.09 283.707 184.366 284.393C183.642 285.079 182.683 285.464 181.686 285.469Z" fill="#FAFAFA"/>
<path d="M214.934 285.469H193.152C192.674 285.471 192.201 285.376 191.761 285.188C191.322 285.001 190.925 284.727 190.595 284.381C190.265 284.035 190.009 283.626 189.843 283.178C189.677 282.73 189.604 282.253 189.628 281.776L190.57 259.994C190.627 259.004 191.058 258.072 191.775 257.387C192.491 256.702 193.441 256.314 194.433 256.301H216.206C216.688 256.297 217.166 256.393 217.61 256.582C218.053 256.771 218.454 257.048 218.786 257.398C219.118 257.748 219.375 258.162 219.54 258.615C219.706 259.068 219.776 259.55 219.748 260.032L218.806 281.776C218.751 282.769 218.32 283.703 217.601 284.389C216.881 285.075 215.928 285.461 214.934 285.469Z" fill="#FAFAFA"/>
<path d="M248.172 285.469H226.399C225.921 285.473 225.448 285.378 225.007 285.191C224.567 285.005 224.17 284.73 223.84 284.384C223.51 284.038 223.254 283.628 223.088 283.18C222.922 282.731 222.85 282.254 222.876 281.776L223.818 259.994C223.875 259.004 224.306 258.072 225.022 257.387C225.739 256.702 226.689 256.314 227.681 256.301H249.453C249.932 256.298 250.405 256.392 250.846 256.579C251.286 256.765 251.683 257.04 252.013 257.386C252.343 257.732 252.599 258.142 252.765 258.59C252.93 259.039 253.003 259.517 252.977 259.994L252.035 281.776C251.978 282.766 251.547 283.698 250.831 284.383C250.114 285.068 249.164 285.457 248.172 285.469Z" fill="#FAFAFA"/>
<path d="M281.42 285.466H259.647C259.169 285.468 258.696 285.372 258.256 285.185C257.816 284.998 257.418 284.724 257.088 284.378C256.757 284.033 256.501 283.623 256.333 283.175C256.166 282.728 256.091 282.25 256.114 281.773L257.057 259.991C257.111 259.001 257.54 258.07 258.255 257.384C258.97 256.699 259.919 256.31 260.91 256.297H282.692C283.177 256.289 283.659 256.38 284.106 256.567C284.554 256.754 284.959 257.031 285.294 257.381C285.629 257.732 285.889 258.148 286.055 258.603C286.222 259.059 286.293 259.544 286.263 260.028L285.321 281.81C285.254 282.8 284.814 283.728 284.09 284.406C283.366 285.085 282.412 285.463 281.42 285.466Z" fill="#FAFAFA"/>
<path d="M314.668 285.468H292.886C292.408 285.47 291.935 285.374 291.495 285.187C291.056 285 290.659 284.725 290.329 284.38C289.999 284.034 289.744 283.625 289.577 283.177C289.411 282.729 289.338 282.252 289.362 281.775L290.304 259.993C290.355 258.995 290.783 258.054 291.502 257.361C292.221 256.668 293.178 256.275 294.177 256.262H315.959C316.436 256.26 316.909 256.355 317.349 256.543C317.789 256.73 318.185 257.004 318.515 257.35C318.845 257.696 319.101 258.105 319.267 258.553C319.433 259.001 319.506 259.478 319.482 259.955L318.54 281.737C318.49 282.735 318.061 283.676 317.342 284.369C316.623 285.062 315.667 285.455 314.668 285.468Z" fill="#FAFAFA"/>
<path d="M347.878 285.469H326.133C325.655 285.472 325.182 285.378 324.741 285.191C324.301 285.005 323.904 284.73 323.574 284.384C323.244 284.038 322.988 283.628 322.822 283.18C322.656 282.731 322.584 282.253 322.61 281.776L323.552 259.994C323.609 259.004 324.039 258.072 324.756 257.387C325.473 256.702 326.423 256.313 327.415 256.301H349.187C349.665 256.299 350.139 256.394 350.579 256.581C351.019 256.768 351.416 257.043 351.747 257.389C352.078 257.734 352.334 258.143 352.502 258.591C352.669 259.039 352.743 259.516 352.72 259.994L351.731 281.776C351.676 282.765 351.248 283.697 350.533 284.382C349.817 285.068 348.868 285.456 347.878 285.469Z" fill="#FAFAFA"/>
</g>
<path d="M180.179 319.253H158.378C157.9 319.256 157.426 319.161 156.986 318.975C156.546 318.788 156.148 318.513 155.818 318.167C155.488 317.822 155.232 317.412 155.066 316.963C154.901 316.515 154.828 316.037 154.854 315.56L155.796 293.787C155.853 292.797 156.284 291.865 157.001 291.18C157.717 290.495 158.667 290.106 159.659 290.094H181.441C181.919 290.091 182.393 290.185 182.833 290.372C183.273 290.558 183.671 290.833 184.001 291.179C184.331 291.525 184.587 291.935 184.752 292.383C184.918 292.832 184.99 293.31 184.965 293.787L184.023 315.56C183.968 316.547 183.541 317.477 182.828 318.163C182.114 318.848 181.168 319.238 180.179 319.253Z" fill="#ECE2B2"/>
<path d="M213.408 319.253H191.626C191.147 319.256 190.674 319.162 190.234 318.975C189.793 318.788 189.396 318.513 189.066 318.168C188.736 317.822 188.48 317.412 188.314 316.963C188.149 316.515 188.076 316.037 188.102 315.56L189.044 293.787C189.099 292.796 189.529 291.863 190.246 291.178C190.963 290.492 191.915 290.104 192.907 290.094H214.68C215.158 290.089 215.633 290.183 216.075 290.369C216.516 290.555 216.914 290.83 217.245 291.176C217.576 291.522 217.833 291.932 217.999 292.381C218.166 292.83 218.238 293.309 218.213 293.787L217.27 315.56C217.218 316.551 216.789 317.486 216.071 318.172C215.353 318.858 214.401 319.245 213.408 319.253Z" fill="#ECE2B2"/>
<path d="M246.646 319.253H224.873C224.395 319.256 223.921 319.161 223.481 318.975C223.041 318.788 222.644 318.513 222.313 318.167C221.983 317.822 221.728 317.412 221.562 316.963C221.396 316.515 221.324 316.037 221.35 315.56L222.292 293.787C222.347 292.796 222.776 291.863 223.494 291.177C224.211 290.492 225.162 290.104 226.154 290.094H248.012C248.49 290.091 248.965 290.185 249.405 290.372C249.846 290.558 250.244 290.833 250.575 291.179C250.905 291.524 251.162 291.934 251.329 292.383C251.496 292.831 251.569 293.309 251.545 293.787L250.556 315.56C250.5 316.559 250.064 317.498 249.337 318.185C248.609 318.872 247.646 319.254 246.646 319.253Z" fill="#ECE2B2"/>
<path d="M279.894 319.253H258.121C257.643 319.256 257.168 319.161 256.728 318.975C256.287 318.788 255.889 318.514 255.558 318.168C255.228 317.822 254.971 317.412 254.804 316.964C254.637 316.515 254.564 316.038 254.588 315.56L255.53 293.787C255.583 292.797 256.01 291.864 256.726 291.178C257.442 290.492 258.392 290.104 259.384 290.094H281.166C281.644 290.091 282.117 290.185 282.558 290.372C282.998 290.558 283.395 290.833 283.725 291.179C284.055 291.525 284.311 291.935 284.477 292.383C284.643 292.832 284.715 293.31 284.689 293.787L283.747 315.56C283.692 316.549 283.264 317.48 282.549 318.166C281.833 318.852 280.884 319.24 279.894 319.253Z" fill="#ECE2B2"/>
<path d="M313.142 319.253H291.35C290.872 319.256 290.398 319.161 289.958 318.975C289.518 318.788 289.121 318.513 288.791 318.167C288.46 317.822 288.205 317.412 288.039 316.963C287.873 316.515 287.801 316.037 287.827 315.56L288.769 293.787C288.826 292.797 289.256 291.865 289.973 291.18C290.69 290.495 291.64 290.106 292.631 290.094H314.414C314.892 290.091 315.365 290.185 315.806 290.372C316.246 290.558 316.643 290.833 316.973 291.179C317.303 291.525 317.559 291.935 317.725 292.383C317.891 292.832 317.963 293.31 317.937 293.787L316.995 315.56C316.938 316.548 316.509 317.478 315.794 318.163C315.079 318.849 314.132 319.238 313.142 319.253Z" fill="#ECE2B2"/>
<path d="M346.389 319.253H324.607C324.129 319.256 323.655 319.161 323.215 318.975C322.775 318.788 322.378 318.513 322.048 318.167C321.718 317.822 321.462 317.412 321.296 316.963C321.13 316.515 321.058 316.037 321.084 315.56L322.026 293.787C322.081 292.796 322.51 291.863 323.228 291.177C323.945 290.492 324.896 290.104 325.889 290.094H347.661C348.14 290.091 348.614 290.185 349.055 290.372C349.495 290.558 349.893 290.833 350.224 291.179C350.555 291.524 350.811 291.934 350.978 292.383C351.145 292.831 351.219 293.309 351.194 293.787L350.205 315.56C350.153 316.543 349.73 317.471 349.023 318.156C348.315 318.841 347.374 319.233 346.389 319.253Z" fill="#ECE2B2"/>
<g opacity="0.8">
<path d="M180.178 319.253H158.378C157.899 319.256 157.426 319.161 156.985 318.975C156.545 318.788 156.148 318.513 155.818 318.167C155.488 317.822 155.232 317.412 155.066 316.963C154.9 316.515 154.828 316.037 154.854 315.56L155.796 293.787C155.853 292.797 156.284 291.865 157 291.18C157.717 290.495 158.667 290.106 159.659 290.094H181.441C181.919 290.091 182.393 290.185 182.833 290.372C183.273 290.558 183.671 290.833 184.001 291.179C184.331 291.525 184.586 291.935 184.752 292.383C184.918 292.832 184.99 293.31 184.964 293.787L184.022 315.56C183.968 316.547 183.541 317.477 182.827 318.163C182.114 318.848 181.167 319.238 180.178 319.253Z" fill="#FAFAFA"/>
<path d="M213.407 319.253H191.625C191.147 319.256 190.673 319.162 190.233 318.975C189.793 318.788 189.396 318.513 189.066 318.168C188.736 317.822 188.48 317.412 188.314 316.963C188.148 316.515 188.076 316.037 188.102 315.56L189.044 293.787C189.099 292.796 189.529 291.863 190.246 291.178C190.963 290.492 191.914 290.104 192.907 290.094H214.679C215.158 290.089 215.633 290.183 216.074 290.369C216.516 290.555 216.914 290.83 217.245 291.176C217.576 291.522 217.833 291.932 217.999 292.381C218.166 292.83 218.238 293.309 218.212 293.787L217.27 315.56C217.217 316.551 216.788 317.486 216.071 318.172C215.353 318.858 214.4 319.245 213.407 319.253Z" fill="#FAFAFA"/>
<path d="M246.646 319.253H224.873C224.395 319.256 223.921 319.161 223.481 318.975C223.041 318.788 222.644 318.513 222.313 318.167C221.983 317.822 221.728 317.412 221.562 316.963C221.396 316.515 221.324 316.037 221.35 315.56L222.292 293.787C222.347 292.796 222.776 291.863 223.494 291.177C224.211 290.492 225.162 290.104 226.154 290.094H248.012C248.49 290.091 248.965 290.185 249.405 290.372C249.846 290.558 250.244 290.833 250.575 291.179C250.905 291.524 251.162 291.934 251.329 292.383C251.496 292.831 251.569 293.309 251.545 293.787L250.556 315.56C250.5 316.559 250.064 317.498 249.337 318.185C248.609 318.872 247.646 319.254 246.646 319.253Z" fill="#FAFAFA"/>
<path d="M279.893 319.253H258.121C257.642 319.256 257.168 319.161 256.727 318.975C256.287 318.788 255.889 318.514 255.558 318.168C255.227 317.822 254.971 317.412 254.804 316.964C254.637 316.515 254.563 316.038 254.588 315.56L255.53 293.787C255.583 292.797 256.01 291.864 256.726 291.178C257.442 290.492 258.392 290.104 259.383 290.094H281.165C281.643 290.091 282.117 290.185 282.557 290.372C282.998 290.558 283.395 290.833 283.725 291.179C284.055 291.525 284.311 291.935 284.477 292.383C284.642 292.832 284.715 293.31 284.689 293.787L283.747 315.56C283.692 316.549 283.264 317.48 282.548 318.166C281.833 318.852 280.884 319.24 279.893 319.253Z" fill="#FAFAFA"/>
<path d="M313.141 319.253H291.35C290.872 319.256 290.398 319.161 289.958 318.975C289.518 318.788 289.12 318.513 288.79 318.167C288.46 317.822 288.204 317.412 288.039 316.963C287.873 316.515 287.801 316.037 287.826 315.56L288.768 293.787C288.826 292.797 289.256 291.865 289.973 291.18C290.69 290.495 291.64 290.106 292.631 290.094H314.413C314.891 290.091 315.365 290.185 315.805 290.372C316.246 290.558 316.643 290.833 316.973 291.179C317.303 291.525 317.559 291.935 317.725 292.383C317.89 292.832 317.963 293.31 317.937 293.787L316.995 315.56C316.938 316.548 316.509 317.478 315.794 318.163C315.079 318.849 314.131 319.238 313.141 319.253Z" fill="#FAFAFA"/>
<path d="M346.389 319.253H324.607C324.129 319.256 323.655 319.161 323.215 318.975C322.775 318.788 322.378 318.513 322.048 318.167C321.718 317.822 321.462 317.412 321.296 316.963C321.13 316.515 321.058 316.037 321.084 315.56L322.026 293.787C322.081 292.796 322.51 291.863 323.228 291.177C323.945 290.492 324.896 290.104 325.889 290.094H347.661C348.14 290.091 348.614 290.185 349.055 290.372C349.495 290.558 349.893 290.833 350.224 291.179C350.555 291.524 350.811 291.934 350.978 292.383C351.145 292.831 351.219 293.309 351.194 293.787L350.205 315.56C350.153 316.543 349.73 317.471 349.023 318.156C348.315 318.841 347.374 319.233 346.389 319.253Z" fill="#FAFAFA"/>
</g>
<path d="M174.008 204.859C165.981 204.859 159.687 195.522 159.687 183.604C159.687 171.686 165.981 162.359 174.008 162.359C182.035 162.359 188.337 171.696 188.337 183.604C188.301 184.163 188.053 184.687 187.645 185.069C187.236 185.452 186.697 185.665 186.138 185.665C185.578 185.665 185.039 185.452 184.631 185.069C184.222 184.687 183.974 184.163 183.938 183.604C183.938 174.475 179.397 166.75 174.008 166.75C168.619 166.75 164.078 174.475 164.078 183.604C164.078 192.734 168.628 200.459 174.008 200.459C174.309 200.439 174.611 200.482 174.895 200.583C175.179 200.685 175.439 200.844 175.659 201.05C175.879 201.256 176.054 201.505 176.174 201.782C176.294 202.059 176.356 202.357 176.356 202.659C176.356 202.961 176.294 203.259 176.174 203.536C176.054 203.813 175.879 204.062 175.659 204.268C175.439 204.474 175.179 204.633 174.895 204.735C174.611 204.836 174.309 204.879 174.008 204.859Z" fill="#ECE2B2"/>
<path d="M207.255 204.859C199.229 204.859 192.935 195.522 192.935 183.604C192.935 171.686 199.229 162.359 207.255 162.359C215.282 162.359 221.632 171.696 221.632 183.604C221.596 184.163 221.348 184.687 220.94 185.069C220.531 185.452 219.992 185.665 219.433 185.665C218.873 185.665 218.334 185.452 217.925 185.069C217.517 184.687 217.269 184.163 217.233 183.604C217.233 174.475 212.692 166.75 207.303 166.75C201.914 166.75 197.373 174.475 197.373 183.604C197.373 192.734 201.923 200.459 207.303 200.459C207.861 200.496 208.385 200.743 208.768 201.152C209.15 201.56 209.363 202.099 209.363 202.659C209.363 203.219 209.15 203.758 208.768 204.166C208.385 204.575 207.861 204.822 207.303 204.859H207.255Z" fill="#ECE2B2"/>
<path d="M240.475 204.859C232.438 204.859 226.145 195.522 226.145 183.604C226.145 171.686 232.438 162.359 240.475 162.359C248.511 162.359 254.795 171.696 254.795 183.604C254.795 184.187 254.564 184.745 254.152 185.157C253.741 185.568 253.182 185.8 252.6 185.8C252.018 185.8 251.46 185.568 251.048 185.157C250.636 184.745 250.405 184.187 250.405 183.604C250.405 174.475 245.854 166.75 240.475 166.75C235.095 166.75 230.545 174.475 230.545 183.604C230.545 192.734 235.095 200.459 240.475 200.459C241.033 200.496 241.557 200.743 241.94 201.152C242.322 201.56 242.535 202.099 242.535 202.659C242.535 203.219 242.322 203.758 241.94 204.166C241.557 204.575 241.033 204.822 240.475 204.859Z" fill="#ECE2B2"/>
<path d="M273.751 204.859C265.715 204.859 259.421 195.522 259.421 183.604C259.421 171.686 265.715 162.359 273.751 162.359C281.788 162.359 288.072 171.696 288.072 183.604C288.072 184.187 287.84 184.745 287.429 185.157C287.017 185.568 286.459 185.8 285.876 185.8C285.294 185.8 284.736 185.568 284.324 185.157C283.913 184.745 283.681 184.187 283.681 183.604C283.681 174.475 279.131 166.75 273.751 166.75C268.372 166.75 263.821 174.475 263.821 183.604C263.821 192.734 268.362 200.459 273.751 200.459C274.31 200.496 274.834 200.743 275.216 201.152C275.599 201.56 275.812 202.099 275.812 202.659C275.812 203.219 275.599 203.758 275.216 204.166C274.834 204.575 274.31 204.822 273.751 204.859Z" fill="#ECE2B2"/>
<path d="M306.989 204.859C298.962 204.859 292.669 195.522 292.669 183.604C292.669 171.686 298.962 162.359 306.989 162.359C315.016 162.359 321.319 171.696 321.319 183.604C321.283 184.163 321.035 184.687 320.626 185.069C320.218 185.452 319.679 185.665 319.119 185.665C318.56 185.665 318.021 185.452 317.612 185.069C317.204 184.687 316.956 184.163 316.919 183.604C316.919 174.475 312.378 166.75 306.989 166.75C301.6 166.75 297.059 174.475 297.059 183.604C297.059 192.734 301.61 200.459 306.989 200.459C307.29 200.439 307.592 200.482 307.876 200.583C308.16 200.685 308.42 200.844 308.64 201.05C308.861 201.256 309.036 201.505 309.156 201.782C309.276 202.059 309.338 202.357 309.338 202.659C309.338 202.961 309.276 203.259 309.156 203.536C309.036 203.813 308.861 204.062 308.64 204.268C308.42 204.474 308.16 204.633 307.876 204.735C307.592 204.836 307.29 204.879 306.989 204.859Z" fill="#ECE2B2"/>
<path d="M340.237 204.859C332.21 204.859 325.917 195.522 325.917 183.604C325.917 171.686 332.21 162.359 340.237 162.359C348.264 162.359 354.567 171.696 354.567 183.604C354.531 184.163 354.283 184.687 353.874 185.069C353.466 185.452 352.927 185.665 352.367 185.665C351.808 185.665 351.269 185.452 350.86 185.069C350.452 184.687 350.204 184.163 350.167 183.604C350.167 174.475 345.617 166.75 340.237 166.75C334.858 166.75 330.307 174.475 330.307 183.604C330.307 192.734 334.858 200.459 340.237 200.459C340.796 200.496 341.32 200.743 341.702 201.152C342.085 201.56 342.298 202.099 342.298 202.659C342.298 203.219 342.085 203.758 341.702 204.166C341.32 204.575 340.796 204.822 340.237 204.859Z" fill="#ECE2B2"/>
<g opacity="0.3">
<path d="M174.008 204.859C165.981 204.859 159.687 195.522 159.687 183.604C159.687 171.686 165.981 162.359 174.008 162.359C182.035 162.359 188.337 171.696 188.337 183.604C188.301 184.163 188.053 184.687 187.645 185.069C187.236 185.452 186.697 185.665 186.138 185.665C185.578 185.665 185.039 185.452 184.631 185.069C184.222 184.687 183.974 184.163 183.938 183.604C183.938 174.475 179.397 166.75 174.008 166.75C168.619 166.75 164.078 174.475 164.078 183.604C164.078 192.734 168.628 200.459 174.008 200.459C174.309 200.439 174.611 200.482 174.895 200.583C175.179 200.685 175.439 200.844 175.659 201.05C175.879 201.256 176.054 201.505 176.174 201.782C176.294 202.059 176.356 202.357 176.356 202.659C176.356 202.961 176.294 203.259 176.174 203.536C176.054 203.813 175.879 204.062 175.659 204.268C175.439 204.474 175.179 204.633 174.895 204.735C174.611 204.836 174.309 204.879 174.008 204.859Z" fill="black"/>
<path d="M207.255 204.859C199.229 204.859 192.935 195.522 192.935 183.604C192.935 171.686 199.229 162.359 207.255 162.359C215.282 162.359 221.632 171.696 221.632 183.604C221.596 184.163 221.348 184.687 220.94 185.069C220.531 185.452 219.992 185.665 219.433 185.665C218.873 185.665 218.334 185.452 217.925 185.069C217.517 184.687 217.269 184.163 217.233 183.604C217.233 174.475 212.692 166.75 207.303 166.75C201.914 166.75 197.373 174.475 197.373 183.604C197.373 192.734 201.923 200.459 207.303 200.459C207.861 200.496 208.385 200.743 208.768 201.152C209.15 201.56 209.363 202.099 209.363 202.659C209.363 203.219 209.15 203.758 208.768 204.166C208.385 204.575 207.861 204.822 207.303 204.859H207.255Z" fill="black"/>
<path d="M240.475 204.859C232.439 204.859 226.145 195.522 226.145 183.604C226.145 171.686 232.439 162.359 240.475 162.359C248.511 162.359 254.795 171.696 254.795 183.604C254.795 184.187 254.564 184.745 254.153 185.157C253.741 185.568 253.183 185.8 252.6 185.8C252.018 185.8 251.46 185.568 251.048 185.157C250.636 184.745 250.405 184.187 250.405 183.604C250.405 174.475 245.855 166.75 240.475 166.75C235.096 166.75 230.545 174.475 230.545 183.604C230.545 192.734 235.096 200.459 240.475 200.459C241.034 200.496 241.557 200.743 241.94 201.152C242.323 201.56 242.536 202.099 242.536 202.659C242.536 203.219 242.323 203.758 241.94 204.166C241.557 204.575 241.034 204.822 240.475 204.859Z" fill="black"/>
<path d="M273.751 204.859C265.715 204.859 259.421 195.522 259.421 183.604C259.421 171.686 265.715 162.359 273.751 162.359C281.787 162.359 288.071 171.696 288.071 183.604C288.071 184.187 287.84 184.745 287.428 185.157C287.017 185.568 286.458 185.8 285.876 185.8C285.294 185.8 284.736 185.568 284.324 185.157C283.912 184.745 283.681 184.187 283.681 183.604C283.681 174.475 279.131 166.75 273.751 166.75C268.371 166.75 263.821 174.475 263.821 183.604C263.821 192.734 268.362 200.459 273.751 200.459C274.31 200.496 274.833 200.743 275.216 201.152C275.599 201.56 275.812 202.099 275.812 202.659C275.812 203.219 275.599 203.758 275.216 204.166C274.833 204.575 274.31 204.822 273.751 204.859Z" fill="black"/>
<path d="M306.99 204.859C298.963 204.859 292.669 195.522 292.669 183.604C292.669 171.686 298.963 162.359 306.99 162.359C315.017 162.359 321.319 171.696 321.319 183.604C321.283 184.163 321.035 184.687 320.627 185.069C320.218 185.452 319.679 185.665 319.12 185.665C318.56 185.665 318.021 185.452 317.612 185.069C317.204 184.687 316.956 184.163 316.92 183.604C316.92 174.475 312.379 166.75 306.99 166.75C301.601 166.75 297.06 174.475 297.06 183.604C297.06 192.734 301.61 200.459 306.99 200.459C307.291 200.439 307.592 200.482 307.876 200.583C308.16 200.685 308.421 200.844 308.641 201.05C308.861 201.256 309.036 201.505 309.156 201.782C309.276 202.059 309.338 202.357 309.338 202.659C309.338 202.961 309.276 203.259 309.156 203.536C309.036 203.813 308.861 204.062 308.641 204.268C308.421 204.474 308.16 204.633 307.876 204.735C307.592 204.836 307.291 204.879 306.99 204.859Z" fill="black"/>
<path d="M340.237 204.859C332.21 204.859 325.917 195.522 325.917 183.604C325.917 171.686 332.21 162.359 340.237 162.359C348.264 162.359 354.567 171.696 354.567 183.604C354.531 184.163 354.283 184.687 353.874 185.069C353.466 185.452 352.927 185.665 352.367 185.665C351.808 185.665 351.269 185.452 350.86 185.069C350.452 184.687 350.204 184.163 350.167 183.604C350.167 174.475 345.617 166.75 340.237 166.75C334.858 166.75 330.307 174.475 330.307 183.604C330.307 192.734 334.858 200.459 340.237 200.459C340.796 200.496 341.32 200.743 341.702 201.152C342.085 201.56 342.298 202.099 342.298 202.659C342.298 203.219 342.085 203.758 341.702 204.166C341.32 204.575 340.796 204.822 340.237 204.859Z" fill="black"/>
</g>
<path d="M275.975 252.891C268.287 251.364 259.657 253.145 256.576 261.247C254.098 267.767 257.273 274.833 264.113 276.557C270.143 278.074 280.544 276.218 282.692 269.265C285.151 261.313 275.155 258.732 269.549 258.261C267.863 258.119 267.872 260.757 269.549 260.899C272.102 261.115 275.023 261.257 277.284 262.661C281.995 265.609 280.054 270.339 276.041 272.6C272.027 274.861 265.875 275.426 261.909 272.92C257.575 270.16 257.433 264.093 260.024 260.136C263.425 254.907 269.634 254.323 275.23 255.425C276.888 255.755 277.595 253.211 275.927 252.881L275.975 252.891Z" fill="#ECE2B2"/>
<path opacity="0.1" d="M275.975 252.891C268.287 251.364 259.657 253.145 256.576 261.247C254.098 267.767 257.273 274.833 264.113 276.557C270.143 278.074 280.544 276.218 282.692 269.265C285.151 261.313 275.155 258.732 269.549 258.261C267.863 258.119 267.872 260.757 269.549 260.899C272.102 261.115 275.023 261.257 277.284 262.661C281.995 265.609 280.054 270.339 276.041 272.6C272.027 274.861 265.875 275.426 261.909 272.92C257.575 270.16 257.433 264.093 260.024 260.136C263.425 254.907 269.634 254.323 275.23 255.425C276.888 255.755 277.595 253.211 275.927 252.881L275.975 252.891Z" fill="#FAFAFA"/>
<path d="M191.154 222.542C198.506 232.289 206.703 241.368 215.65 249.676C216.893 250.834 218.768 248.969 217.534 247.791C208.741 239.648 200.68 230.749 193.444 221.195C192.436 219.857 190.146 221.195 191.173 222.523L191.154 222.542Z" fill="#ECE2B2"/>
<path d="M193.877 248.574C199.436 238.691 209.168 230.259 218.373 223.806C219.748 222.864 218.438 220.546 217.044 221.526C207.472 228.253 197.41 236.939 191.607 247.237C191.447 247.537 191.41 247.887 191.502 248.213C191.595 248.54 191.809 248.819 192.102 248.991C192.395 249.164 192.743 249.217 193.073 249.139C193.404 249.061 193.692 248.859 193.877 248.574Z" fill="#ECE2B2"/>
<g opacity="0.2">
<path d="M191.155 222.542C198.507 232.289 206.704 241.368 215.65 249.676C216.894 250.834 218.768 248.969 217.534 247.791C208.741 239.648 200.68 230.749 193.444 221.195C192.436 219.857 190.146 221.195 191.173 222.523L191.155 222.542Z" fill="black"/>
<path d="M193.877 248.574C199.436 238.691 209.168 230.259 218.373 223.806C219.748 222.864 218.439 220.546 217.044 221.526C207.472 228.253 197.41 236.939 191.607 247.237C191.448 247.537 191.41 247.887 191.503 248.213C191.595 248.54 191.81 248.819 192.102 248.991C192.395 249.164 192.743 249.217 193.073 249.139C193.404 249.061 193.692 248.859 193.877 248.574Z" fill="black"/>
</g>
<path d="M295.938 230.976H313.132C313.462 230.948 313.768 230.798 313.992 230.554C314.216 230.311 314.34 229.992 314.34 229.662C314.34 229.331 314.216 229.013 313.992 228.77C313.768 228.526 313.462 228.376 313.132 228.348H295.938C295.609 228.376 295.302 228.526 295.078 228.77C294.855 229.013 294.731 229.331 294.731 229.662C294.731 229.992 294.855 230.311 295.078 230.554C295.302 230.798 295.609 230.948 295.938 230.976Z" fill="#ECE2B2"/>
<path d="M295.74 235.865H305.708C306.058 235.865 306.393 235.726 306.641 235.478C306.888 235.231 307.027 234.895 307.027 234.546C307.027 234.196 306.888 233.86 306.641 233.613C306.393 233.366 306.058 233.227 305.708 233.227H295.74C295.391 233.227 295.055 233.366 294.808 233.613C294.56 233.86 294.421 234.196 294.421 234.546C294.421 234.895 294.56 235.231 294.808 235.478C295.055 235.726 295.391 235.865 295.74 235.865Z" fill="#ECE2B2"/>
<g opacity="0.1">
<path d="M295.939 230.976H313.132C313.462 230.948 313.769 230.798 313.992 230.554C314.216 230.311 314.34 229.992 314.34 229.662C314.34 229.331 314.216 229.013 313.992 228.77C313.769 228.526 313.462 228.376 313.132 228.348H295.939C295.609 228.376 295.302 228.526 295.079 228.77C294.855 229.013 294.731 229.331 294.731 229.662C294.731 229.992 294.855 230.311 295.079 230.554C295.302 230.798 295.609 230.948 295.939 230.976Z" fill="#FAFAFA"/>
<path d="M295.741 235.865H305.708C306.058 235.865 306.394 235.726 306.641 235.478C306.888 235.231 307.027 234.895 307.027 234.546C307.027 234.196 306.888 233.86 306.641 233.613C306.394 233.366 306.058 233.227 305.708 233.227H295.741C295.391 233.227 295.055 233.366 294.808 233.613C294.561 233.86 294.422 234.196 294.422 234.546C294.422 234.895 294.561 235.231 294.808 235.478C295.055 235.726 295.391 235.865 295.741 235.865Z" fill="#FAFAFA"/>
</g>
<path d="M192.954 298.47H207.698C208.048 298.47 208.384 298.331 208.631 298.084C208.878 297.836 209.017 297.501 209.017 297.151C209.017 296.801 208.878 296.466 208.631 296.218C208.384 295.971 208.048 295.832 207.698 295.832H192.954C192.604 295.832 192.269 295.971 192.021 296.218C191.774 296.466 191.635 296.801 191.635 297.151C191.635 297.501 191.774 297.836 192.021 298.084C192.269 298.331 192.604 298.47 192.954 298.47Z" fill="#ECE2B2"/>
<path d="M192.426 304.13H211.552C211.901 304.13 212.237 303.991 212.484 303.744C212.732 303.496 212.871 303.161 212.871 302.811C212.871 302.461 212.732 302.126 212.484 301.878C212.237 301.631 211.901 301.492 211.552 301.492H192.426C192.077 301.492 191.741 301.631 191.494 301.878C191.246 302.126 191.107 302.461 191.107 302.811C191.107 303.161 191.246 303.496 191.494 303.744C191.741 303.991 192.077 304.13 192.426 304.13Z" fill="#ECE2B2"/>
<path d="M192.426 309.962H201.989C202.339 309.962 202.674 309.823 202.922 309.576C203.169 309.328 203.308 308.993 203.308 308.643C203.308 308.293 203.169 307.958 202.922 307.711C202.674 307.463 202.339 307.324 201.989 307.324H192.426C192.077 307.324 191.741 307.463 191.494 307.711C191.246 307.958 191.107 308.293 191.107 308.643C191.107 308.993 191.246 309.328 191.494 309.576C191.741 309.823 192.077 309.962 192.426 309.962Z" fill="#ECE2B2"/>
<g opacity="0.1">
<path d="M192.954 298.47H207.698C208.048 298.47 208.384 298.331 208.631 298.084C208.878 297.836 209.017 297.501 209.017 297.151C209.017 296.801 208.878 296.466 208.631 296.218C208.384 295.971 208.048 295.832 207.698 295.832H192.954C192.604 295.832 192.269 295.971 192.021 296.218C191.774 296.466 191.635 296.801 191.635 297.151C191.635 297.501 191.774 297.836 192.021 298.084C192.269 298.331 192.604 298.47 192.954 298.47Z" fill="#FAFAFA"/>
<path d="M192.426 304.134H211.552C211.901 304.134 212.237 303.995 212.484 303.748C212.732 303.5 212.871 303.165 212.871 302.815C212.871 302.465 212.732 302.13 212.484 301.882C212.237 301.635 211.901 301.496 211.552 301.496H192.426C192.077 301.496 191.741 301.635 191.494 301.882C191.246 302.13 191.107 302.465 191.107 302.815C191.107 303.165 191.246 303.5 191.494 303.748C191.741 303.995 192.077 304.134 192.426 304.134Z" fill="#FAFAFA"/>
<path d="M192.426 309.962H201.989C202.339 309.962 202.674 309.823 202.922 309.576C203.169 309.328 203.308 308.993 203.308 308.643C203.308 308.293 203.169 307.958 202.922 307.711C202.674 307.463 202.339 307.324 201.989 307.324H192.426C192.077 307.324 191.741 307.463 191.494 307.711C191.246 307.958 191.107 308.293 191.107 308.643C191.107 308.993 191.246 309.328 191.494 309.576C191.741 309.823 192.077 309.962 192.426 309.962Z" fill="#FAFAFA"/>
</g>
<path d="M88.9711 150.545L93.4274 150.348L91.4112 158.827C89.8208 157.738 88.3715 156.456 87.0962 155.011C86.7285 154.579 86.546 154.019 86.5883 153.453C86.6306 152.887 86.8944 152.36 87.3223 151.987L88.9711 150.545Z" fill="#E4897B"/>
<path d="M98.5996 154.917L96.6023 161.813L91.4111 158.808L93.4273 150.348L98.5996 154.917Z" fill="#E4897B"/>
<path d="M97.7208 113.976L88.6023 114.82L109.516 340.691L118.634 339.847L97.7208 113.976Z" fill="#ECE2B2"/>
<path opacity="0.3" d="M97.7208 113.976L88.6023 114.82L109.516 340.691L118.634 339.847L97.7208 113.976Z" fill="black"/>
<path d="M115.962 112.281L106.844 113.125L127.757 338.996L136.876 338.152L115.962 112.281Z" fill="#ECE2B2"/>
<path opacity="0.3" d="M115.962 112.281L106.844 113.125L127.757 338.996L136.876 338.152L115.962 112.281Z" fill="black"/>
<path d="M106.846 113.128L97.7278 113.973L118.641 339.844L127.76 338.999L106.846 113.128Z" fill="#ECE2B2"/>
<path opacity="0.1" d="M106.846 113.128L97.7278 113.973L118.641 339.844L127.76 338.999L106.846 113.128Z" fill="black"/>
<path d="M104.921 97.3359L96.7155 98.0991L88.6038 114.822L115.963 112.288L104.921 97.3359Z" fill="#ECE2B2"/>
<g opacity="0.8">
<path d="M104.921 97.332L96.7153 98.0952L88.6035 114.818L115.963 112.284L104.921 97.332Z" fill="#FAFAFA"/>
</g>
<path d="M100.192 90.9258L96.7153 98.0954L104.921 97.3323L100.192 90.9258Z" fill="#263238"/>
<path d="M169.137 103.695C170.079 104.637 170.861 105.532 171.671 106.522C172.482 107.511 173.254 108.406 174.027 109.348C175.581 111.232 177.032 113.22 178.445 115.246C181.359 119.364 183.816 123.787 185.775 128.436C186.011 129.039 186.227 129.67 186.453 130.32L186.793 131.262C186.979 131.826 187.112 132.406 187.188 132.996C187.393 134.871 187.144 136.767 186.463 138.526C185.446 141.122 184.021 143.539 182.242 145.686C179.097 149.536 175.475 152.971 171.464 155.908L167.912 152.14C170.708 148.645 173.264 144.966 175.562 141.126C176.569 139.486 177.343 137.713 177.861 135.86C178.004 135.405 178.021 134.919 177.908 134.456L177.588 133.759C177.371 133.297 177.183 132.817 176.947 132.364C174.953 128.495 172.62 124.809 169.976 121.351C168.657 119.551 167.262 117.799 165.849 116.047C165.142 115.18 164.426 114.313 163.692 113.465L161.543 110.987L169.137 103.695Z" fill="#E4897B"/>
<path d="M162.212 155.009L166.226 162.951L170.155 159.569L166.932 153.926L162.212 155.009Z" fill="#E4897B"/>
<path d="M131.979 108.345C129.536 112.999 126.999 117.6 124.367 122.147C123.076 124.437 121.72 126.688 120.401 128.959L118.375 132.351L117.866 133.199C117.612 133.604 117.329 134.084 117.075 134.404C116.821 134.725 116.566 135.111 116.321 135.403C116.076 135.695 115.812 136.025 115.568 136.298C113.664 138.371 111.638 140.328 109.5 142.158C107.437 143.92 105.374 145.635 103.244 147.265C99.0331 150.553 94.7087 153.615 90.2242 156.535L86.9927 152.465L98.1569 141.47C99.9847 139.586 101.831 137.815 103.574 135.95C105.287 134.194 106.9 132.345 108.407 130.41C108.589 130.184 108.75 129.967 108.888 129.76C109.048 129.534 109.161 129.345 109.274 129.157C109.372 129.005 109.46 128.848 109.538 128.686L109.971 127.81L111.714 124.258C112.911 121.912 114.079 119.547 115.294 117.22C117.7 112.528 120.212 107.89 122.831 103.305L131.979 108.345Z" fill="#E4897B"/>
<path d="M158.425 76.5232C158.303 77.0697 158.5 77.5878 158.849 77.682C159.198 77.7762 159.584 77.3994 159.706 76.853C159.829 76.3065 159.622 75.7883 159.273 75.6941C158.924 75.5999 158.51 75.9768 158.425 76.5232Z" fill="#263238"/>
<path d="M158.444 77.5781C158.739 79.4157 159.277 81.2058 160.045 82.9012C159.612 83.0728 159.146 83.1474 158.68 83.1197C158.215 83.0921 157.761 82.9628 157.351 82.741L158.444 77.5781Z" fill="#DE5753"/>
<path d="M159.866 73.2053C159.799 73.2055 159.734 73.1858 159.678 73.1488C159.33 72.9361 158.935 72.8112 158.528 72.785C158.121 72.7587 157.714 72.8318 157.342 72.998C157.26 73.0297 157.17 73.0288 157.089 72.9955C157.008 72.9621 156.943 72.8989 156.908 72.819C156.876 72.7376 156.877 72.6471 156.911 72.5664C156.944 72.4857 157.007 72.4209 157.087 72.3856C157.563 72.1811 158.082 72.0949 158.599 72.1343C159.116 72.1737 159.615 72.3375 160.055 72.6117C160.091 72.6354 160.121 72.666 160.145 72.7018C160.169 72.7376 160.185 72.7777 160.193 72.8199C160.201 72.8621 160.2 72.9054 160.191 72.9474C160.182 72.9893 160.164 73.0289 160.14 73.064C160.109 73.108 160.068 73.1438 160.021 73.1684C159.973 73.1931 159.92 73.2057 159.866 73.2053Z" fill="#263238"/>
<path d="M139.366 78.6055C140.553 83.6741 141.9 92.9447 138.49 96.327C138.49 96.327 140.072 101.462 149.484 101.462C159.848 101.462 154.195 96.327 154.195 96.327C148.495 94.9797 148.476 90.7872 149.305 86.8586L139.366 78.6055Z" fill="#E4897B"/>
<path d="M137.208 98.0865C136.398 96.4661 135.512 94.6006 137.208 94.0165C139.036 93.3759 149.183 92.7258 152.735 93.9223C153.681 94.1755 154.492 94.7873 154.995 95.6279C155.497 96.4686 155.653 97.4721 155.429 98.4257L137.208 98.0865Z" fill="#ECE2B2"/>
<path opacity="0.6" d="M137.208 98.0865C136.398 96.4661 135.512 94.6006 137.208 94.0165C139.036 93.3759 149.183 92.7258 152.735 93.9223C153.681 94.1755 154.492 94.7873 154.995 95.6279C155.497 96.4686 155.653 97.4721 155.429 98.4257L137.208 98.0865Z" fill="#FAFAFA"/>
<path d="M123.651 334.459C123.043 334.456 122.437 334.39 121.842 334.262C121.811 334.256 121.783 334.242 121.761 334.22C121.74 334.198 121.725 334.17 121.72 334.139C121.713 334.107 121.716 334.075 121.728 334.045C121.74 334.015 121.76 333.989 121.785 333.969C121.861 333.913 123.67 332.613 124.725 332.839C124.839 332.859 124.947 332.904 125.042 332.971C125.136 333.037 125.215 333.124 125.271 333.225C125.356 333.338 125.402 333.475 125.402 333.616C125.402 333.757 125.356 333.894 125.271 334.007C125.045 334.375 124.358 334.459 123.651 334.459ZM122.304 334.026C123.34 334.196 124.753 334.196 125.036 333.809C125.036 333.809 125.149 333.659 124.989 333.385C124.954 333.325 124.907 333.274 124.85 333.235C124.793 333.196 124.727 333.17 124.659 333.159C123.803 333.214 122.984 333.523 122.304 334.045V334.026Z" fill="#FAFAFA"/>
<path d="M121.88 334.29H121.795C121.77 334.276 121.75 334.256 121.737 334.231C121.724 334.206 121.718 334.177 121.72 334.149C121.72 334.064 121.804 332.067 122.586 331.408C122.68 331.323 122.791 331.26 122.911 331.223C123.032 331.186 123.159 331.175 123.284 331.191C123.411 331.191 123.534 331.235 123.632 331.316C123.73 331.396 123.796 331.509 123.821 331.634C123.971 332.406 122.652 333.914 121.936 334.3L121.88 334.29ZM123.17 331.464C123.035 331.466 122.905 331.516 122.803 331.605C122.341 332.238 122.084 332.998 122.068 333.782C122.747 333.245 123.585 332.105 123.5 331.652C123.5 331.605 123.5 331.492 123.246 331.464H123.17Z" fill="#FAFAFA"/>
<path d="M165.218 334.461C164.504 334.461 163.791 334.394 163.089 334.263C163.056 334.258 163.025 334.242 163.002 334.218C162.978 334.195 162.962 334.164 162.957 334.131C162.952 334.099 162.956 334.065 162.969 334.035C162.983 334.005 163.004 333.979 163.032 333.962C163.381 333.764 166.452 332.002 167.196 333.217C167.271 333.324 167.311 333.45 167.311 333.58C167.311 333.71 167.271 333.836 167.196 333.943C166.989 334.357 166.103 334.461 165.218 334.461ZM163.607 334.018C164.907 334.207 166.659 334.178 166.961 333.754C166.961 333.754 167.055 333.622 166.914 333.387C166.499 332.718 164.634 333.519 163.607 334.037V334.018Z" fill="#FAFAFA"/>
<path d="M163.117 334.29C163.086 334.298 163.053 334.298 163.023 334.29C162.999 334.273 162.98 334.25 162.969 334.223C162.957 334.197 162.953 334.168 162.957 334.139C162.957 334.063 163.07 332.198 163.899 331.473C164.024 331.358 164.174 331.272 164.337 331.223C164.501 331.175 164.673 331.163 164.841 331.19C165.303 331.237 165.434 331.473 165.463 331.661C165.595 332.462 164.021 333.922 163.192 334.299L163.117 334.29ZM164.7 331.463C164.49 331.461 164.288 331.538 164.134 331.68C163.639 332.287 163.352 333.036 163.315 333.819C164.144 333.31 165.199 332.151 165.133 331.67C165.133 331.623 165.133 331.501 164.794 331.463H164.7Z" fill="#FAFAFA"/>
<path d="M155.504 334.119H162.429L162.495 318.094H155.58L155.504 334.119Z" fill="#E4897B"/>
<path d="M113.947 334.119H120.872L123.736 318.094H116.811L113.947 334.119Z" fill="#E4897B"/>
<path d="M121.333 333.32H113.561C113.423 333.319 113.29 333.366 113.184 333.454C113.079 333.542 113.008 333.665 112.986 333.801L111.855 339.953C111.832 340.106 111.842 340.261 111.885 340.41C111.928 340.558 112.003 340.695 112.104 340.812C112.206 340.928 112.331 341.021 112.472 341.084C112.613 341.148 112.766 341.179 112.92 341.178C115.633 341.131 116.943 340.97 120.363 340.97C122.464 340.97 126.807 341.197 129.718 341.197C132.629 341.197 132.884 338.37 131.687 338.059C126.308 336.891 124.235 335.28 122.473 333.754C122.159 333.475 121.753 333.321 121.333 333.32Z" fill="#263238"/>
<path d="M162.354 333.32H154.817C154.679 333.319 154.546 333.366 154.44 333.454C154.335 333.542 154.264 333.665 154.242 333.801L153.111 339.953C153.085 340.104 153.092 340.26 153.133 340.408C153.174 340.557 153.247 340.694 153.346 340.811C153.446 340.928 153.571 341.022 153.711 341.085C153.851 341.148 154.003 341.18 154.157 341.178C156.88 341.131 160.809 340.97 164.238 340.97C168.251 340.97 171.718 341.197 176.42 341.197C179.246 341.197 179.934 338.37 178.737 338.059C173.273 336.872 168.845 336.75 164.059 333.867C163.553 333.529 162.962 333.34 162.354 333.32Z" fill="#263238"/>
<path d="M125.29 97.8904C118.855 99.379 112.1 117.063 112.1 117.063L125.469 125.994C128.539 121.34 131.229 116.448 133.515 111.363C137.048 103.27 131.857 96.3736 125.29 97.8904Z" fill="#ECE2B2"/>
<path opacity="0.7" d="M125.29 97.8904C118.855 99.379 112.1 117.063 112.1 117.063L125.469 125.994C128.539 121.34 131.229 116.448 133.515 111.363C137.048 103.27 131.857 96.3736 125.29 97.8904Z" fill="black"/>
<path d="M130.368 109.168L124.838 125.57L125.469 125.994C125.469 125.994 127.994 122.226 130.679 117.204L130.368 109.168Z" fill="#ECE2B2"/>
<path opacity="0.8" d="M130.368 109.168L124.838 125.57L125.469 125.994C125.469 125.994 127.994 122.226 130.679 117.204L130.368 109.168Z" fill="black"/>
<path d="M168.468 128.813C168.412 136.538 167.95 146.148 166.801 158.075H129.775C129.294 152.422 131.8 124.667 125.29 97.8917C129.363 97.1024 133.482 96.58 137.623 96.3278C142.863 96.0261 148.116 96.0261 153.356 96.3278C156.97 96.6792 160.552 97.3091 164.068 98.2121C164.068 98.2121 167.234 101.641 168.195 117.724C168.383 120.936 168.487 124.592 168.468 128.813Z" fill="#ECE2B2"/>
<path opacity="0.7" d="M168.468 128.813C168.412 136.538 167.95 146.148 166.801 158.075H129.775C129.294 152.422 131.8 124.667 125.29 97.8917C129.363 97.1024 133.482 96.58 137.623 96.3278C142.863 96.0261 148.116 96.0261 153.356 96.3278C156.97 96.6792 160.552 97.3091 164.068 98.2121C164.068 98.2121 167.234 101.641 168.195 117.724C168.383 120.936 168.487 124.592 168.468 128.813Z" fill="black"/>
<path d="M168.468 128.81C166.226 124.721 162.156 116.515 162.731 111.852L168.195 117.768C168.383 120.934 168.487 124.589 168.468 128.81Z" fill="#ECE2B2"/>
<path opacity="0.8" d="M168.468 128.81C166.226 124.721 162.156 116.515 162.731 111.852L168.195 117.768C168.383 120.934 168.487 124.589 168.468 128.81Z" fill="black"/>
<path d="M156.814 104.505C156.23 111.1 171.182 126.965 171.182 126.965L183.165 117.205C180.027 111.908 176.266 107.005 171.964 102.602C164.954 95.8276 157.474 97.1183 156.814 104.505Z" fill="#ECE2B2"/>
<path opacity="0.7" d="M156.814 104.505C156.23 111.1 171.182 126.965 171.182 126.965L183.165 117.205C180.027 111.908 176.266 107.005 171.964 102.602C164.954 95.8276 157.474 97.1183 156.814 104.505Z" fill="black"/>
<path d="M162.495 318.105L162.457 326.359H155.542L155.57 318.105H162.495Z" fill="#CE6F64"/>
<path d="M116.811 318.105H123.736L122.257 326.359H115.332L116.811 318.105Z" fill="#CE6F64"/>
<path d="M140.609 70.8032C139.601 77.6242 138.669 81.5435 141.288 85.8773C142.12 87.2808 143.321 88.4296 144.76 89.1994C146.199 89.9691 147.821 90.3304 149.451 90.244C151.08 90.1576 152.655 89.6269 154.004 88.7093C155.354 87.7918 156.427 86.5224 157.106 85.0388C159.81 79.386 161.016 69.1733 155.071 64.8583C153.817 63.8897 152.329 63.2685 150.759 63.0572C149.188 62.8458 147.589 63.0518 146.123 63.6544C144.658 64.2569 143.376 65.2349 142.408 66.4898C141.44 67.7447 140.82 69.2324 140.609 70.8032Z" fill="#E4897B"/>
<path d="M161.101 67.5717C159.062 68.6853 156.818 69.3744 154.506 69.5973C152.782 77.4829 148.193 86.5557 140.769 83.946C137.943 83.0038 135.117 76.1546 134.825 70.0778C134.335 70.6713 134.005 71.4439 133.751 71.7642C133.327 69.0636 133.633 66.2989 134.636 63.7561C136.69 57.9337 138.056 61.7965 140.289 58.2635C141.73 55.927 144.293 54.7211 148.768 54.5703C147.515 55.2204 147.28 56.2661 149.136 56.1154C150.992 55.9647 158.915 55.5313 163.531 58.6497C160.413 59.3563 162.316 64.3025 166.48 61.6646C164.963 64.1235 163.079 66.46 161.101 67.5717Z" fill="#263238"/>
<path d="M149.173 75.0247C149.199 76.7593 149.781 78.4398 150.831 79.8202C152.235 81.6291 153.846 80.7623 154.232 78.7273C154.572 76.9184 154.232 73.7905 152.48 72.6977C150.728 71.6048 149.164 72.952 149.173 75.0247Z" fill="#E4897B"/>
<path d="M140.732 58.9983C139.792 58.9386 138.88 58.6499 138.077 58.1573C137.274 57.6646 136.604 56.983 136.125 56.1719C136.125 56.1719 136.002 61.6928 140.732 58.9983Z" fill="#1E2A4C"/>
<path d="M153.658 158.073C153.658 158.073 147.854 210.964 144.302 230.777C140.421 252.446 125.46 324.764 125.46 324.764H112.741C112.741 324.764 121.767 254.227 123.651 232.708C125.676 209.391 129.812 158.035 129.812 158.035L153.658 158.073Z" fill="#ECE2B2"/>
<path opacity="0.6" d="M153.658 158.073C153.658 158.073 147.854 210.964 144.302 230.777C140.421 252.446 125.46 324.764 125.46 324.764H112.741C112.741 324.764 121.767 254.227 123.651 232.708C125.676 209.391 129.812 158.035 129.812 158.035L153.658 158.073Z" fill="#FAFAFA"/>
<path d="M127.259 320.09C127.316 320.09 126.138 324.961 126.138 324.961H111.884L111.978 320.617L127.259 320.09Z" fill="#ECE2B2"/>
<path opacity="0.1" d="M127.259 320.09C127.316 320.09 126.138 324.961 126.138 324.961H111.884L111.978 320.617L127.259 320.09Z" fill="#FAFAFA"/>
<path d="M149.428 176.913C140.411 178.694 142.682 212.563 144.444 229.983C146.592 217.67 149.512 193.975 151.482 177.158C150.844 176.847 150.12 176.761 149.428 176.913Z" fill="#ECE2B2"/>
<path opacity="0.4" d="M149.428 176.913C140.411 178.694 142.682 212.563 144.444 229.983C146.592 217.67 149.512 193.975 151.482 177.158C150.844 176.847 150.12 176.761 149.428 176.913Z" fill="#FAFAFA"/>
<path d="M166.791 158.07C166.791 158.07 169.749 209.812 169.806 230.925C169.872 252.877 164.982 324.762 164.982 324.762H153.253C153.253 324.762 150.096 254.158 148.74 232.602C147.27 209.096 142.456 158.07 142.456 158.07H166.791Z" fill="#ECE2B2"/>
<path opacity="0.6" d="M166.791 158.07C166.791 158.07 169.749 209.812 169.806 230.925C169.872 252.877 164.982 324.762 164.982 324.762H153.253C153.253 324.762 150.096 254.158 148.74 232.602C147.27 209.096 142.456 158.07 142.456 158.07H166.791Z" fill="#FAFAFA"/>
<path d="M169.627 151.422L166.339 151.686C166.071 151.708 165.811 151.79 165.579 151.925C165.347 152.061 165.148 152.246 164.996 152.468C164.845 152.69 164.744 152.943 164.703 153.209C164.661 153.474 164.68 153.746 164.756 154.003L166.113 158.573C166.227 158.944 166.43 159.282 166.703 159.558C166.976 159.834 167.312 160.04 167.682 160.159C168.052 160.277 168.446 160.305 168.828 160.238C169.211 160.172 169.572 160.014 169.881 159.779C171.58 158.198 172.798 156.17 173.395 153.928L169.627 151.422Z" fill="#E4897B"/>
<path d="M162.203 316.34C162.171 316.335 162.142 316.319 162.122 316.295C162.101 316.271 162.09 316.24 162.09 316.208C163.39 296.319 166.405 248.186 166.348 230.926C166.348 213.261 164.2 173.748 163.522 162.056C163.521 162.04 163.523 162.025 163.528 162.01C163.533 161.995 163.541 161.981 163.551 161.97C163.562 161.958 163.575 161.949 163.589 161.943C163.604 161.937 163.619 161.934 163.635 161.934C163.666 161.934 163.696 161.945 163.718 161.966C163.741 161.987 163.755 162.016 163.757 162.047C164.398 173.738 166.499 213.251 166.584 230.926C166.64 248.195 163.626 296.329 162.325 316.226C162.325 316.242 162.322 316.258 162.316 316.272C162.31 316.286 162.301 316.299 162.289 316.31C162.277 316.321 162.264 316.329 162.249 316.334C162.234 316.339 162.219 316.341 162.203 316.34Z" fill="#ECE2B2"/>
<path opacity="0.3" d="M162.203 316.34C162.171 316.335 162.142 316.319 162.122 316.295C162.101 316.271 162.09 316.24 162.09 316.208C163.39 296.319 166.405 248.186 166.348 230.926C166.348 213.261 164.2 173.748 163.522 162.056C163.521 162.04 163.523 162.025 163.528 162.01C163.533 161.995 163.541 161.981 163.551 161.97C163.562 161.958 163.575 161.949 163.589 161.943C163.604 161.937 163.619 161.934 163.635 161.934C163.666 161.934 163.696 161.945 163.718 161.966C163.741 161.987 163.755 162.016 163.757 162.047C164.398 173.738 166.499 213.251 166.584 230.926C166.64 248.195 163.626 296.329 162.325 316.226C162.325 316.242 162.322 316.258 162.316 316.272C162.31 316.286 162.301 316.299 162.289 316.31C162.277 316.321 162.264 316.329 162.249 316.334C162.234 316.339 162.219 316.341 162.203 316.34Z" fill="#FAFAFA"/>
<path d="M167.055 320.09C167.111 320.09 166.584 324.961 166.584 324.961H152.32L151.764 320.617L167.055 320.09Z" fill="#ECE2B2"/>
<path opacity="0.1" d="M167.055 320.09C167.111 320.09 166.584 324.961 166.584 324.961H152.32L151.764 320.617L167.055 320.09Z" fill="#FAFAFA"/>
</g>
<defs>
<filter id="filter0_d_60_322" x="0" y="0" width="479.066" height="358.996" filterUnits="userSpaceOnUse" color-interpolation-filters="sRGB">
<feFlood flood-opacity="0" result="BackgroundImageFix"/>
<feColorMatrix in="SourceAlpha" type="matrix" values="0 0 0 0 0 0 0 0 0 0 0 0 0 0 0 0 0 0 127 0" result="hardAlpha"/>
<feOffset dy="4"/>
<feGaussianBlur stdDeviation="2"/>
<feComposite in2="hardAlpha" operator="out"/>
<feColorMatrix type="matrix" values="0 0 0 0 0 0 0 0 0 0 0 0 0 0 0 0 0 0 0.25 0"/>
<feBlend mode="normal" in2="BackgroundImageFix" result="effect1_dropShadow_60_322"/>
<feBlend mode="normal" in="SourceGraphic" in2="effect1_dropShadow_60_322" result="shape"/>
</filter>
</defs>
</svg>
