<svg width="462" height="440" viewBox="0 0 462 440" fill="none" xmlns="http://www.w3.org/2000/svg">
<g opacity="0.2">
<path d="M362.406 258.902C362.264 258.875 362.13 258.818 362.014 258.734C361.897 258.65 361.801 258.54 361.732 258.414C361.663 258.288 361.623 258.148 361.615 258.004C361.607 257.861 361.631 257.717 361.685 257.584L361.737 257.45C361.778 257.318 361.847 257.196 361.939 257.092C362.032 256.989 362.145 256.907 362.272 256.851C362.399 256.796 362.536 256.768 362.675 256.77C362.813 256.772 362.95 256.804 363.075 256.863C363.915 257.187 364.713 257.608 365.453 258.119C365.191 257.228 365.039 256.308 365 255.38C364.992 255.24 365.012 255.1 365.06 254.967C365.108 254.835 365.183 254.714 365.279 254.612C365.376 254.51 365.492 254.428 365.621 254.373C365.75 254.317 365.889 254.289 366.03 254.289H366.174C366.315 254.289 366.454 254.317 366.583 254.373C366.712 254.428 366.828 254.51 366.925 254.612C367.021 254.714 367.096 254.835 367.144 254.967C367.192 255.1 367.212 255.24 367.204 255.38C367.164 256.308 367.016 257.227 366.761 258.119C367.503 257.617 368.297 257.196 369.129 256.863C369.255 256.802 369.393 256.77 369.534 256.768C369.674 256.767 369.813 256.796 369.94 256.854C370.068 256.912 370.181 256.997 370.272 257.103C370.364 257.21 370.43 257.335 370.467 257.47V257.563C370.528 257.696 370.557 257.84 370.553 257.986C370.549 258.132 370.512 258.274 370.444 258.403C370.377 258.532 370.281 258.644 370.163 258.731C370.046 258.817 369.911 258.875 369.767 258.902C368.903 259.133 368.015 259.264 367.121 259.293C367.854 259.831 368.517 260.457 369.098 261.156C369.183 261.262 369.246 261.384 369.284 261.514C369.322 261.645 369.333 261.782 369.318 261.916C369.303 262.051 369.261 262.182 369.195 262.301C369.129 262.419 369.04 262.524 368.933 262.608L368.82 262.701C368.71 262.794 368.579 262.862 368.439 262.899C368.299 262.935 368.152 262.94 368.01 262.912C367.867 262.885 367.733 262.825 367.617 262.739C367.5 262.652 367.405 262.541 367.338 262.412C366.843 261.653 366.432 260.841 366.112 259.993C365.775 260.839 365.355 261.65 364.856 262.412C364.789 262.541 364.693 262.652 364.577 262.739C364.461 262.825 364.326 262.885 364.184 262.912C364.042 262.94 363.895 262.935 363.755 262.899C363.615 262.862 363.484 262.794 363.374 262.701L363.271 262.608C363.163 262.525 363.074 262.421 363.007 262.302C362.94 262.184 362.897 262.054 362.881 261.919C362.864 261.784 362.875 261.647 362.912 261.516C362.949 261.385 363.011 261.263 363.096 261.156C363.69 260.457 364.356 259.822 365.083 259.262C364.179 259.257 363.279 259.136 362.406 258.902Z" fill="black"/>
<path d="M372.846 258.902C372.704 258.875 372.57 258.818 372.454 258.734C372.337 258.65 372.241 258.54 372.172 258.414C372.103 258.288 372.063 258.148 372.055 258.004C372.047 257.861 372.071 257.717 372.125 257.584L372.177 257.45C372.218 257.318 372.287 257.196 372.379 257.092C372.472 256.989 372.585 256.907 372.712 256.851C372.839 256.796 372.976 256.768 373.115 256.77C373.253 256.772 373.39 256.804 373.515 256.863C374.354 257.187 375.153 257.608 375.893 258.119C375.631 257.228 375.479 256.308 375.44 255.38C375.432 255.24 375.452 255.1 375.5 254.967C375.548 254.835 375.623 254.714 375.719 254.612C375.816 254.51 375.932 254.428 376.061 254.373C376.19 254.317 376.329 254.289 376.47 254.289H376.552C376.693 254.289 376.832 254.317 376.961 254.373C377.09 254.428 377.207 254.51 377.303 254.612C377.4 254.714 377.474 254.835 377.522 254.967C377.57 255.1 377.59 255.24 377.582 255.38C377.543 256.308 377.394 257.227 377.139 258.119C377.881 257.617 378.675 257.196 379.507 256.863C379.635 256.812 379.773 256.787 379.911 256.79C380.049 256.794 380.184 256.824 380.31 256.881C380.436 256.938 380.549 257.019 380.643 257.12C380.737 257.222 380.809 257.341 380.856 257.47V257.563C380.916 257.696 380.945 257.84 380.941 257.986C380.937 258.132 380.9 258.274 380.833 258.403C380.765 258.532 380.669 258.644 380.552 258.731C380.435 258.817 380.299 258.875 380.156 258.902C379.292 259.133 378.404 259.264 377.51 259.293C378.242 259.831 378.906 260.457 379.487 261.156C379.572 261.262 379.635 261.384 379.672 261.514C379.71 261.645 379.722 261.782 379.706 261.916C379.691 262.051 379.649 262.182 379.583 262.301C379.517 262.419 379.428 262.524 379.322 262.608L379.209 262.701C379.099 262.794 378.969 262.862 378.83 262.899C378.69 262.935 378.544 262.94 378.403 262.912C378.261 262.884 378.128 262.825 378.012 262.739C377.897 262.652 377.803 262.541 377.736 262.412C377.234 261.656 376.819 260.844 376.501 259.993C376.164 260.839 375.743 261.65 375.245 262.412C375.177 262.541 375.082 262.652 374.966 262.739C374.849 262.825 374.715 262.885 374.573 262.912C374.43 262.94 374.284 262.935 374.143 262.899C374.003 262.862 373.873 262.794 373.762 262.701L373.659 262.608C373.552 262.525 373.462 262.421 373.395 262.302C373.328 262.184 373.285 262.054 373.269 261.919C373.253 261.784 373.264 261.647 373.3 261.516C373.337 261.385 373.4 261.263 373.484 261.156C374.078 260.457 374.744 259.822 375.471 259.262C374.584 259.253 373.702 259.132 372.846 258.902Z" fill="black"/>
<path d="M383.286 258.902C383.149 258.866 383.022 258.804 382.911 258.717C382.8 258.631 382.707 258.522 382.64 258.399C382.572 258.275 382.531 258.139 382.518 257.999C382.505 257.859 382.521 257.717 382.565 257.584L382.616 257.45C382.658 257.318 382.727 257.196 382.819 257.092C382.912 256.989 383.025 256.907 383.152 256.851C383.279 256.796 383.416 256.768 383.555 256.77C383.693 256.772 383.83 256.804 383.955 256.863C384.794 257.187 385.593 257.608 386.333 258.119C386.074 257.228 385.925 256.308 385.891 255.38C385.882 255.24 385.902 255.1 385.95 254.967C385.998 254.835 386.073 254.714 386.169 254.612C386.266 254.51 386.382 254.428 386.511 254.373C386.64 254.317 386.78 254.289 386.92 254.289H387.064C387.205 254.289 387.344 254.317 387.473 254.373C387.602 254.428 387.719 254.51 387.815 254.612C387.911 254.714 387.986 254.835 388.034 254.967C388.082 255.1 388.102 255.24 388.094 255.38C388.055 256.308 387.906 257.227 387.651 258.119C388.393 257.617 389.187 257.196 390.019 256.863C390.147 256.812 390.285 256.787 390.422 256.79C390.56 256.794 390.696 256.824 390.822 256.881C390.948 256.938 391.061 257.019 391.155 257.12C391.249 257.222 391.321 257.341 391.368 257.47V257.563C391.428 257.695 391.458 257.839 391.454 257.984C391.451 258.129 391.415 258.271 391.348 258.4C391.282 258.529 391.187 258.641 391.071 258.728C390.955 258.815 390.82 258.874 390.678 258.902C389.81 259.132 388.919 259.263 388.022 259.293C388.754 259.831 389.418 260.457 389.999 261.156C390.083 261.262 390.147 261.384 390.184 261.514C390.222 261.645 390.234 261.782 390.218 261.916C390.203 262.051 390.161 262.182 390.095 262.301C390.029 262.419 389.94 262.524 389.834 262.608L389.721 262.701C389.611 262.794 389.481 262.862 389.342 262.899C389.202 262.935 389.056 262.94 388.915 262.912C388.773 262.884 388.64 262.825 388.524 262.739C388.409 262.652 388.315 262.541 388.248 262.412C387.749 261.653 387.335 260.842 387.013 259.993C386.676 260.839 386.255 261.65 385.757 262.412C385.69 262.541 385.596 262.652 385.481 262.739C385.365 262.825 385.232 262.884 385.09 262.912C384.949 262.94 384.803 262.935 384.663 262.899C384.524 262.862 384.394 262.794 384.284 262.701L384.171 262.608C384.064 262.525 383.974 262.421 383.907 262.302C383.84 262.184 383.797 262.054 383.781 261.919C383.765 261.784 383.776 261.647 383.812 261.516C383.849 261.385 383.912 261.263 383.996 261.156C384.59 260.457 385.256 259.822 385.983 259.262C385.072 259.259 384.166 259.138 383.286 258.902Z" fill="black"/>
<path d="M393.726 258.902C393.589 258.866 393.462 258.804 393.351 258.717C393.24 258.631 393.147 258.522 393.08 258.399C393.012 258.275 392.971 258.139 392.958 257.999C392.945 257.859 392.961 257.717 393.005 257.584V257.45C393.046 257.318 393.115 257.196 393.208 257.092C393.3 256.989 393.413 256.907 393.54 256.851C393.667 256.796 393.805 256.768 393.943 256.77C394.082 256.772 394.218 256.804 394.343 256.863C395.183 257.187 395.981 257.608 396.722 258.119C396.467 257.227 396.318 256.308 396.279 255.38C396.271 255.24 396.291 255.1 396.339 254.967C396.387 254.835 396.461 254.714 396.558 254.612C396.654 254.51 396.771 254.428 396.9 254.373C397.029 254.317 397.168 254.289 397.309 254.289H397.453C397.593 254.289 397.732 254.317 397.862 254.373C397.991 254.428 398.107 254.51 398.203 254.612C398.3 254.714 398.374 254.835 398.422 254.967C398.47 255.1 398.491 255.24 398.482 255.38C398.443 256.308 398.294 257.227 398.04 258.119C398.782 257.617 399.576 257.196 400.408 256.863C400.536 256.812 400.673 256.787 400.811 256.79C400.949 256.794 401.085 256.824 401.211 256.881C401.336 256.938 401.45 257.019 401.543 257.12C401.637 257.222 401.71 257.341 401.756 257.47V257.563C401.817 257.695 401.846 257.839 401.843 257.984C401.839 258.129 401.803 258.271 401.737 258.4C401.67 258.529 401.575 258.641 401.459 258.728C401.343 258.815 401.209 258.874 401.067 258.902C400.199 259.132 399.308 259.263 398.41 259.293C399.142 259.831 399.806 260.457 400.387 261.156C400.472 261.262 400.535 261.384 400.573 261.514C400.611 261.645 400.622 261.782 400.607 261.916C400.591 262.051 400.55 262.182 400.484 262.301C400.418 262.419 400.329 262.524 400.222 262.608L400.109 262.701C399.999 262.794 399.87 262.862 399.73 262.899C399.591 262.935 399.445 262.94 399.303 262.912C399.162 262.884 399.028 262.825 398.913 262.739C398.797 262.652 398.703 262.541 398.637 262.412C398.138 261.653 397.724 260.842 397.401 259.993C397.054 260.841 396.623 261.651 396.114 262.412C396.048 262.541 395.954 262.652 395.838 262.739C395.723 262.825 395.589 262.884 395.448 262.912C395.306 262.94 395.16 262.935 395.021 262.899C394.881 262.862 394.752 262.794 394.642 262.701L394.529 262.608C394.421 262.525 394.332 262.421 394.265 262.302C394.198 262.184 394.155 262.054 394.139 261.919C394.122 261.784 394.133 261.647 394.17 261.516C394.207 261.385 394.269 261.263 394.354 261.156C394.948 260.457 395.614 259.822 396.341 259.262C395.457 259.252 394.579 259.131 393.726 258.902Z" fill="black"/>
<path d="M404.166 258.902C404.029 258.866 403.902 258.804 403.791 258.717C403.68 258.631 403.587 258.522 403.52 258.399C403.452 258.275 403.411 258.139 403.398 257.999C403.385 257.859 403.401 257.717 403.445 257.584L403.496 257.45C403.545 257.322 403.619 257.205 403.714 257.106C403.808 257.007 403.922 256.928 404.047 256.873C404.173 256.818 404.308 256.789 404.445 256.788C404.582 256.786 404.718 256.812 404.845 256.863C405.68 257.189 406.475 257.611 407.213 258.119C406.958 257.227 406.81 256.308 406.77 255.38C406.762 255.24 406.782 255.1 406.83 254.967C406.878 254.835 406.953 254.714 407.049 254.612C407.146 254.51 407.262 254.428 407.391 254.373C407.52 254.317 407.659 254.289 407.8 254.289H407.944C408.085 254.289 408.224 254.317 408.353 254.373C408.482 254.428 408.598 254.51 408.695 254.612C408.791 254.714 408.866 254.835 408.914 254.967C408.962 255.1 408.982 255.24 408.974 255.38C408.934 256.308 408.786 257.227 408.531 258.119C409.273 257.617 410.067 257.196 410.899 256.863C411.027 256.812 411.164 256.787 411.302 256.79C411.44 256.794 411.576 256.824 411.702 256.881C411.828 256.938 411.941 257.019 412.035 257.12C412.129 257.222 412.201 257.341 412.248 257.47V257.563C412.308 257.695 412.338 257.839 412.334 257.984C412.331 258.129 412.295 258.271 412.228 258.4C412.162 258.529 412.067 258.641 411.951 258.728C411.835 258.815 411.7 258.874 411.558 258.902C410.69 259.132 409.799 259.263 408.902 259.293C409.634 259.831 410.298 260.457 410.878 261.156C410.963 261.262 411.027 261.384 411.064 261.514C411.102 261.645 411.113 261.782 411.098 261.916C411.083 262.051 411.041 262.182 410.975 262.301C410.909 262.419 410.82 262.524 410.714 262.608L410.6 262.701C410.491 262.794 410.361 262.862 410.222 262.899C410.082 262.935 409.936 262.94 409.795 262.912C409.653 262.884 409.52 262.825 409.404 262.739C409.289 262.652 409.194 262.541 409.128 262.412C408.629 261.653 408.215 260.842 407.893 259.993C407.556 260.839 407.135 261.65 406.637 262.412C406.57 262.541 406.476 262.652 406.361 262.739C406.245 262.825 406.112 262.884 405.97 262.912C405.828 262.94 405.682 262.935 405.543 262.899C405.403 262.862 405.274 262.794 405.164 262.701L405.051 262.608C404.937 262.53 404.841 262.427 404.77 262.309C404.698 262.19 404.653 262.057 404.638 261.92C404.622 261.782 404.636 261.643 404.679 261.511C404.722 261.379 404.793 261.258 404.886 261.156C405.474 260.454 406.137 259.819 406.863 259.262C405.952 259.259 405.045 259.138 404.166 258.902Z" fill="black"/>
<path d="M414.647 258.902C414.51 258.866 414.383 258.804 414.272 258.717C414.16 258.631 414.068 258.522 414.001 258.399C413.933 258.275 413.892 258.139 413.879 257.999C413.866 257.859 413.882 257.717 413.926 257.584L413.977 257.45C414.026 257.322 414.1 257.205 414.195 257.106C414.289 257.007 414.403 256.928 414.528 256.873C414.654 256.818 414.789 256.789 414.926 256.788C415.063 256.786 415.199 256.812 415.326 256.863C416.161 257.189 416.956 257.611 417.694 258.119C417.439 257.227 417.291 256.308 417.251 255.38C417.243 255.24 417.263 255.1 417.311 254.967C417.359 254.835 417.434 254.714 417.53 254.612C417.627 254.51 417.743 254.428 417.872 254.373C418.001 254.317 418.14 254.289 418.281 254.289H418.425C418.566 254.289 418.705 254.317 418.834 254.373C418.963 254.428 419.079 254.51 419.176 254.612C419.272 254.714 419.347 254.835 419.395 254.967C419.443 255.1 419.463 255.24 419.455 255.38C419.415 256.308 419.267 257.227 419.012 258.119C419.756 257.614 420.554 257.193 421.39 256.863C421.517 256.804 421.655 256.773 421.794 256.772C421.934 256.772 422.072 256.801 422.199 256.859C422.326 256.917 422.44 257.001 422.531 257.107C422.622 257.212 422.69 257.336 422.729 257.47V257.563C422.789 257.695 422.819 257.839 422.815 257.984C422.812 258.129 422.775 258.271 422.709 258.4C422.643 258.529 422.548 258.641 422.432 258.728C422.316 258.815 422.181 258.874 422.039 258.902C421.171 259.133 420.28 259.264 419.383 259.293C420.116 259.834 420.782 260.46 421.37 261.156C421.454 261.263 421.516 261.385 421.553 261.516C421.59 261.647 421.601 261.784 421.585 261.919C421.568 262.054 421.526 262.184 421.459 262.302C421.392 262.421 421.302 262.525 421.195 262.608L421.081 262.701C420.972 262.794 420.842 262.862 420.703 262.899C420.563 262.935 420.417 262.94 420.276 262.912C420.134 262.884 420.001 262.825 419.885 262.739C419.77 262.652 419.675 262.541 419.609 262.412C419.11 261.653 418.696 260.842 418.374 259.993C418.037 260.839 417.616 261.65 417.118 262.412C417.051 262.541 416.957 262.652 416.841 262.739C416.726 262.825 416.593 262.884 416.451 262.912C416.309 262.94 416.163 262.935 416.024 262.899C415.884 262.862 415.755 262.794 415.645 262.701L415.532 262.608C415.418 262.53 415.322 262.427 415.251 262.309C415.179 262.19 415.134 262.057 415.119 261.92C415.103 261.782 415.117 261.643 415.16 261.511C415.203 261.379 415.274 261.258 415.367 261.156C415.955 260.454 416.618 259.819 417.344 259.262C416.433 259.259 415.526 259.138 414.647 258.902Z" fill="black"/>
<path d="M425.055 258.902C424.918 258.867 424.79 258.806 424.677 258.72C424.565 258.634 424.472 258.525 424.403 258.402C424.335 258.278 424.292 258.142 424.279 258.001C424.265 257.86 424.281 257.718 424.324 257.584L424.376 257.45C424.425 257.322 424.499 257.205 424.593 257.106C424.688 257.007 424.801 256.928 424.927 256.873C425.053 256.818 425.188 256.789 425.325 256.788C425.462 256.786 425.598 256.812 425.725 256.863C426.56 257.189 427.354 257.611 428.093 258.119C427.838 257.227 427.689 256.308 427.65 255.38C427.642 255.24 427.662 255.1 427.71 254.967C427.758 254.835 427.832 254.714 427.929 254.612C428.025 254.51 428.142 254.428 428.271 254.373C428.4 254.317 428.539 254.289 428.68 254.289H428.824C428.964 254.289 429.103 254.317 429.233 254.373C429.362 254.428 429.478 254.51 429.574 254.612C429.671 254.714 429.745 254.835 429.793 254.967C429.841 255.1 429.862 255.24 429.853 255.38C429.815 256.308 429.663 257.228 429.4 258.119C430.145 257.614 430.942 257.193 431.779 256.863C431.905 256.804 432.043 256.773 432.183 256.772C432.322 256.772 432.46 256.801 432.588 256.859C432.715 256.917 432.828 257.001 432.919 257.107C433.011 257.212 433.078 257.336 433.117 257.47V257.563C433.177 257.696 433.207 257.84 433.203 257.986C433.199 258.132 433.161 258.274 433.094 258.403C433.026 258.532 432.93 258.644 432.813 258.731C432.696 258.817 432.56 258.875 432.417 258.902C431.549 259.133 430.658 259.264 429.761 259.293C430.494 259.834 431.161 260.46 431.748 261.156C431.832 261.263 431.895 261.385 431.931 261.516C431.968 261.647 431.979 261.784 431.963 261.919C431.946 262.054 431.904 262.184 431.837 262.302C431.77 262.421 431.68 262.525 431.573 262.608L431.47 262.701C431.359 262.794 431.229 262.862 431.089 262.899C430.948 262.935 430.802 262.94 430.659 262.912C430.517 262.885 430.383 262.825 430.266 262.739C430.15 262.652 430.055 262.541 429.987 262.412C429.488 261.655 429.077 260.843 428.762 259.993C428.422 260.84 427.998 261.65 427.496 262.412C427.429 262.541 427.335 262.652 427.22 262.739C427.104 262.825 426.971 262.884 426.829 262.912C426.687 262.94 426.542 262.935 426.402 262.899C426.262 262.862 426.133 262.794 426.023 262.701L425.91 262.608C425.796 262.53 425.7 262.427 425.629 262.309C425.557 262.19 425.512 262.057 425.497 261.92C425.481 261.782 425.495 261.643 425.538 261.511C425.581 261.379 425.652 261.258 425.745 261.156C426.333 260.454 426.996 259.819 427.722 259.262C426.821 259.258 425.925 259.137 425.055 258.902Z" fill="black"/>
<path d="M435.495 258.902C435.358 258.867 435.229 258.806 435.117 258.72C435.005 258.634 434.912 258.525 434.843 258.402C434.775 258.278 434.732 258.142 434.719 258.001C434.705 257.86 434.721 257.718 434.764 257.584V257.45C434.813 257.322 434.887 257.205 434.982 257.106C435.076 257.007 435.19 256.928 435.315 256.873C435.441 256.818 435.576 256.789 435.713 256.788C435.85 256.786 435.986 256.812 436.113 256.863C436.948 257.189 437.743 257.611 438.481 258.119C438.226 257.227 438.078 256.308 438.038 255.38C438.03 255.24 438.05 255.1 438.098 254.967C438.146 254.835 438.221 254.714 438.317 254.612C438.414 254.51 438.53 254.428 438.659 254.373C438.788 254.317 438.927 254.289 439.068 254.289H439.212C439.353 254.289 439.492 254.317 439.621 254.373C439.75 254.428 439.866 254.51 439.963 254.612C440.059 254.714 440.134 254.835 440.182 254.967C440.23 255.1 440.25 255.24 440.242 255.38C440.204 256.308 440.051 257.228 439.789 258.119C440.533 257.614 441.331 257.193 442.167 256.863C442.294 256.804 442.431 256.773 442.571 256.772C442.711 256.772 442.849 256.801 442.976 256.859C443.103 256.917 443.216 257.001 443.308 257.107C443.399 257.212 443.467 257.336 443.506 257.47V257.563C443.566 257.696 443.595 257.84 443.591 257.986C443.587 258.132 443.55 258.274 443.482 258.403C443.415 258.532 443.319 258.644 443.201 258.731C443.084 258.817 442.949 258.875 442.805 258.902C441.938 259.133 441.047 259.264 440.149 259.293C440.882 259.834 441.549 260.46 442.136 261.156C442.221 261.263 442.283 261.385 442.32 261.516C442.357 261.647 442.367 261.784 442.351 261.919C442.335 262.054 442.292 262.184 442.225 262.302C442.158 262.421 442.068 262.525 441.961 262.608L441.848 262.701C441.738 262.794 441.609 262.862 441.469 262.899C441.33 262.935 441.184 262.94 441.042 262.912C440.901 262.884 440.767 262.825 440.652 262.739C440.536 262.652 440.442 262.541 440.376 262.412C439.877 261.655 439.466 260.843 439.15 259.993C438.81 260.84 438.386 261.65 437.884 262.412C437.818 262.541 437.723 262.652 437.608 262.739C437.493 262.825 437.359 262.884 437.218 262.912C437.076 262.94 436.93 262.935 436.79 262.899C436.651 262.862 436.521 262.794 436.412 262.701L436.298 262.608C436.184 262.53 436.088 262.427 436.017 262.309C435.946 262.19 435.901 262.057 435.885 261.92C435.87 261.782 435.884 261.643 435.927 261.511C435.969 261.379 436.04 261.258 436.134 261.156C436.721 260.454 437.384 259.819 438.111 259.262C437.227 259.253 436.348 259.132 435.495 258.902Z" fill="black"/>
</g>
<g opacity="0.2">
<path d="M157.037 27.7726C156.895 27.7475 156.762 27.6914 156.645 27.6083C156.528 27.5252 156.431 27.4171 156.361 27.292C156.291 27.1669 156.25 27.0278 156.24 26.8848C156.231 26.7418 156.253 26.5984 156.306 26.4651L156.367 26.3209C156.409 26.1886 156.478 26.0667 156.57 25.9634C156.662 25.8602 156.776 25.7779 156.903 25.7223C157.03 25.6667 157.167 25.6389 157.306 25.6409C157.444 25.643 157.581 25.6747 157.706 25.7341C158.539 26.0644 159.333 26.4856 160.074 26.9901C159.819 26.0979 159.67 25.1786 159.631 24.2515C159.614 24.1098 159.629 23.9662 159.674 23.8308C159.718 23.6954 159.793 23.5716 159.891 23.4683C159.99 23.365 160.11 23.2847 160.243 23.2332C160.376 23.1817 160.518 23.1603 160.661 23.1704H160.795C160.934 23.1702 161.072 23.1985 161.201 23.2534C161.329 23.3083 161.445 23.3888 161.541 23.4899C161.638 23.5911 161.712 23.7107 161.761 23.8416C161.81 23.9726 161.831 24.112 161.824 24.2515C161.786 25.1795 161.634 26.0993 161.371 26.9901C162.104 26.4847 162.887 26.0569 163.708 25.7135C163.836 25.6546 163.974 25.6241 164.114 25.624C164.254 25.6239 164.393 25.6543 164.52 25.7131C164.648 25.7718 164.761 25.8575 164.851 25.9643C164.942 26.071 165.009 26.1962 165.047 26.3312V26.4136C165.107 26.5462 165.136 26.6908 165.132 26.8364C165.128 26.982 165.091 27.1247 165.024 27.2538C164.956 27.3829 164.86 27.4948 164.743 27.5812C164.625 27.6675 164.49 27.7259 164.347 27.752C163.479 27.984 162.588 28.1153 161.69 28.1433C162.426 28.6854 163.093 29.3146 163.677 30.0171C163.762 30.123 163.825 30.2448 163.863 30.3752C163.901 30.5057 163.912 30.6423 163.897 30.7772C163.882 30.9122 163.84 31.0427 163.774 31.1614C163.708 31.2801 163.619 31.3846 163.513 31.4688L163.399 31.5512C163.286 31.6353 163.156 31.6951 163.018 31.7268C162.88 31.7585 162.737 31.7614 162.598 31.7353C162.458 31.7092 162.326 31.6547 162.209 31.5752C162.092 31.4957 161.992 31.3929 161.917 31.2732C161.428 30.4964 161.028 29.6677 160.723 28.8022C160.383 29.6507 159.963 30.4645 159.466 31.232C159.391 31.3517 159.291 31.4545 159.174 31.534C159.057 31.6135 158.925 31.668 158.786 31.6941C158.647 31.7202 158.504 31.7173 158.366 31.6856C158.228 31.6539 158.098 31.5941 157.984 31.51L157.871 31.4276C157.764 31.3434 157.675 31.2389 157.609 31.1202C157.543 31.0016 157.501 30.871 157.486 30.736C157.471 30.6011 157.482 30.4645 157.52 30.334C157.558 30.2036 157.621 30.0819 157.706 29.9759C158.293 29.2706 158.956 28.6319 159.683 28.0712C158.792 28.0847 157.902 27.9843 157.037 27.7726Z" fill="black"/>
<path d="M167.477 27.7726C167.335 27.7475 167.202 27.6914 167.085 27.6083C166.968 27.5252 166.871 27.4171 166.801 27.292C166.731 27.1669 166.69 27.0278 166.68 26.8848C166.671 26.7418 166.693 26.5984 166.746 26.4651L166.807 26.3209C166.849 26.1886 166.918 26.0667 167.01 25.9634C167.102 25.8602 167.216 25.7779 167.343 25.7223C167.47 25.6667 167.607 25.6389 167.746 25.6409C167.884 25.643 168.021 25.6747 168.146 25.7341C168.98 26.0622 169.774 26.4835 170.514 26.9901C170.259 26.0979 170.11 25.1786 170.071 24.2515C170.054 24.1098 170.069 23.9662 170.113 23.8308C170.158 23.6954 170.233 23.5716 170.331 23.4683C170.43 23.365 170.55 23.2847 170.683 23.2332C170.816 23.1817 170.958 23.1603 171.101 23.1704H171.235C171.377 23.1603 171.52 23.1817 171.653 23.2332C171.786 23.2847 171.906 23.365 172.004 23.4683C172.102 23.5716 172.177 23.6954 172.222 23.8308C172.267 23.9662 172.281 24.1098 172.264 24.2515C172.226 25.1795 172.074 26.0993 171.811 26.9901C172.544 26.4847 173.327 26.0569 174.148 25.7135C174.275 25.6546 174.414 25.6241 174.554 25.624C174.694 25.6239 174.833 25.6543 174.96 25.7131C175.087 25.7718 175.2 25.8575 175.291 25.9643C175.382 26.071 175.449 26.1962 175.487 26.3312V26.4136C175.547 26.5462 175.576 26.6908 175.572 26.8364C175.568 26.982 175.531 27.1247 175.464 27.2538C175.396 27.3829 175.3 27.4948 175.183 27.5812C175.065 27.6675 174.93 27.7259 174.787 27.752C173.919 27.984 173.028 28.1153 172.13 28.1433C172.866 28.6854 173.533 29.3146 174.117 30.0171C174.202 30.123 174.265 30.2448 174.303 30.3752C174.341 30.5057 174.352 30.6423 174.337 30.7772C174.322 30.9122 174.28 31.0427 174.214 31.1614C174.148 31.2801 174.059 31.3846 173.953 31.4688L173.839 31.5512C173.726 31.6353 173.596 31.6951 173.458 31.7268C173.32 31.7585 173.177 31.7614 173.037 31.7353C172.898 31.7092 172.766 31.6547 172.649 31.5752C172.532 31.4957 172.432 31.3929 172.357 31.2732C171.868 30.4964 171.468 29.6677 171.162 28.8022C170.823 29.6507 170.402 30.4645 169.906 31.232C169.831 31.3517 169.731 31.4545 169.614 31.534C169.497 31.6135 169.365 31.668 169.226 31.6941C169.087 31.7202 168.943 31.7173 168.806 31.6856C168.668 31.6539 168.538 31.5941 168.424 31.51L168.311 31.4276C168.204 31.3434 168.115 31.2389 168.049 31.1202C167.983 31.0016 167.941 30.871 167.926 30.736C167.911 30.6011 167.922 30.4645 167.96 30.334C167.998 30.2036 168.061 30.0819 168.146 29.9759C168.736 29.273 169.398 28.6346 170.123 28.0712C169.231 28.0847 168.342 27.9843 167.477 27.7726Z" fill="black"/>
<path d="M177.917 27.7726C177.775 27.7475 177.642 27.6914 177.525 27.6083C177.408 27.5252 177.311 27.4171 177.241 27.292C177.171 27.1669 177.13 27.0278 177.12 26.8848C177.111 26.7418 177.133 26.5984 177.186 26.4651L177.247 26.3209C177.288 26.1886 177.358 26.0667 177.45 25.9634C177.542 25.8602 177.656 25.7779 177.783 25.7223C177.91 25.6667 178.047 25.6389 178.185 25.6409C178.324 25.643 178.461 25.6747 178.586 25.7341C179.42 26.0622 180.214 26.4835 180.954 26.9901C180.699 26.0979 180.55 25.1786 180.511 24.2515C180.494 24.1098 180.508 23.9662 180.553 23.8308C180.598 23.6954 180.673 23.5716 180.771 23.4683C180.869 23.365 180.989 23.2847 181.123 23.2332C181.256 23.1817 181.398 23.1603 181.541 23.1704H181.674C181.817 23.1603 181.96 23.1817 182.093 23.2332C182.226 23.2847 182.346 23.365 182.444 23.4683C182.542 23.5716 182.617 23.6954 182.662 23.8308C182.707 23.9662 182.721 24.1098 182.704 24.2515C182.666 25.1795 182.514 26.0993 182.251 26.9901C182.984 26.4847 183.767 26.0569 184.588 25.7135C184.715 25.6546 184.854 25.6241 184.994 25.624C185.134 25.6239 185.273 25.6543 185.4 25.7131C185.527 25.7718 185.64 25.8575 185.731 25.9643C185.822 26.071 185.889 26.1962 185.927 26.3312V26.4136C185.987 26.5462 186.016 26.6908 186.012 26.8364C186.008 26.982 185.971 27.1247 185.903 27.2538C185.836 27.3829 185.74 27.4948 185.623 27.5812C185.505 27.6675 185.37 27.7259 185.227 27.752C184.359 27.984 183.468 28.1153 182.57 28.1433C183.306 28.6854 183.973 29.3146 184.557 30.0171C184.642 30.123 184.705 30.2448 184.743 30.3752C184.781 30.5057 184.792 30.6423 184.777 30.7772C184.762 30.9122 184.72 31.0427 184.654 31.1614C184.588 31.2801 184.499 31.3846 184.393 31.4688L184.279 31.5512C184.165 31.6353 184.036 31.6951 183.898 31.7268C183.76 31.7585 183.617 31.7614 183.477 31.7353C183.338 31.7092 183.206 31.6547 183.089 31.5752C182.972 31.4957 182.872 31.3929 182.797 31.2732C182.308 30.4964 181.907 29.6677 181.602 28.8022C181.263 29.6507 180.842 30.4645 180.346 31.232C180.271 31.3517 180.171 31.4545 180.054 31.534C179.937 31.6135 179.805 31.668 179.666 31.6941C179.526 31.7202 179.383 31.7173 179.245 31.6856C179.108 31.6539 178.978 31.5941 178.864 31.51L178.75 31.4276C178.644 31.3434 178.555 31.2389 178.489 31.1202C178.423 31.0016 178.381 30.871 178.366 30.736C178.351 30.6011 178.362 30.4645 178.4 30.334C178.438 30.2036 178.501 30.0819 178.586 29.9759C179.176 29.273 179.838 28.6346 180.563 28.0712C179.671 28.0847 178.782 27.9843 177.917 27.7726Z" fill="black"/>
<path d="M188.356 27.7726C188.215 27.7475 188.082 27.6914 187.965 27.6083C187.848 27.5252 187.751 27.4171 187.681 27.292C187.611 27.1669 187.57 27.0278 187.56 26.8848C187.551 26.7418 187.573 26.5984 187.625 26.4651L187.687 26.3209C187.728 26.1886 187.798 26.0667 187.89 25.9634C187.982 25.8602 188.096 25.7779 188.223 25.7223C188.35 25.6667 188.487 25.6389 188.625 25.6409C188.764 25.643 188.9 25.6747 189.026 25.7341C189.86 26.0622 190.654 26.4835 191.394 26.9901C191.139 26.0979 190.99 25.1786 190.951 24.2515C190.934 24.1098 190.948 23.9662 190.993 23.8308C191.038 23.6954 191.113 23.5716 191.211 23.4683C191.309 23.365 191.429 23.2847 191.562 23.2332C191.695 23.1817 191.838 23.1603 191.981 23.1704H192.114C192.257 23.1603 192.399 23.1817 192.533 23.2332C192.666 23.2847 192.786 23.365 192.884 23.4683C192.982 23.5716 193.057 23.6954 193.102 23.8308C193.147 23.9662 193.161 24.1098 193.144 24.2515C193.106 25.1795 192.954 26.0993 192.691 26.9901C193.424 26.4847 194.207 26.0569 195.028 25.7135C195.155 25.6546 195.294 25.6241 195.434 25.624C195.574 25.6239 195.713 25.6543 195.84 25.7131C195.967 25.7718 196.08 25.8575 196.171 25.9643C196.262 26.071 196.329 26.1962 196.367 26.3312V26.4136C196.427 26.5462 196.456 26.6908 196.452 26.8364C196.448 26.982 196.411 27.1247 196.343 27.2538C196.276 27.3829 196.18 27.4948 196.063 27.5812C195.945 27.6675 195.81 27.7259 195.666 27.752C194.799 27.984 193.908 28.1153 193.01 28.1433C193.746 28.6854 194.413 29.3146 194.997 30.0171C195.082 30.123 195.145 30.2448 195.183 30.3752C195.221 30.5057 195.232 30.6423 195.217 30.7772C195.202 30.9122 195.16 31.0427 195.094 31.1614C195.028 31.2801 194.939 31.3846 194.832 31.4688L194.719 31.5512C194.607 31.627 194.481 31.6801 194.348 31.7072C194.216 31.7343 194.079 31.7349 193.946 31.7091C193.813 31.6833 193.687 31.6315 193.574 31.5567C193.461 31.4819 193.364 31.3855 193.288 31.2732C192.782 30.4988 192.364 29.6699 192.042 28.8022C191.703 29.6507 191.282 30.4645 190.786 31.232C190.711 31.3517 190.611 31.4545 190.494 31.534C190.377 31.6135 190.245 31.668 190.106 31.6941C189.966 31.7202 189.823 31.7173 189.685 31.6856C189.547 31.6539 189.417 31.5941 189.304 31.51L189.19 31.4276C189.084 31.3434 188.995 31.2389 188.929 31.1202C188.863 31.0016 188.821 30.871 188.806 30.736C188.791 30.6011 188.802 30.4645 188.84 30.334C188.878 30.2036 188.941 30.0819 189.026 29.9759C189.616 29.273 190.278 28.6346 191.002 28.0712C190.111 28.0847 189.222 27.9843 188.356 27.7726Z" fill="black"/>
<path d="M198.796 27.7737C198.655 27.7486 198.521 27.6924 198.405 27.6093C198.288 27.5262 198.191 27.4182 198.121 27.2931C198.051 27.168 198.01 27.0289 198 26.8859C197.991 26.7429 198.013 26.5995 198.065 26.4661L198.127 26.322C198.166 26.1879 198.234 26.0638 198.325 25.9582C198.416 25.8526 198.53 25.7681 198.657 25.7104C198.784 25.6527 198.922 25.6232 199.062 25.6239C199.201 25.6246 199.339 25.6555 199.466 25.7145C200.3 26.0426 201.094 26.464 201.834 26.9706C201.579 26.0783 201.43 25.1591 201.391 24.2319C201.374 24.0903 201.388 23.9467 201.433 23.8113C201.478 23.6759 201.553 23.5521 201.651 23.4488C201.749 23.3455 201.869 23.2652 202.002 23.2137C202.135 23.1622 202.278 23.1408 202.42 23.1509H202.554C202.697 23.1408 202.839 23.1622 202.972 23.2137C203.105 23.2652 203.225 23.3455 203.324 23.4488C203.422 23.5521 203.497 23.6759 203.542 23.8113C203.587 23.9467 203.601 24.0903 203.584 24.2319C203.545 25.1591 203.396 26.0783 203.141 26.9706C203.883 26.4681 204.677 26.047 205.509 25.7145C205.636 25.6557 205.775 25.6251 205.915 25.6251C206.055 25.625 206.194 25.6554 206.321 25.7141C206.448 25.7729 206.561 25.8586 206.652 25.9653C206.743 26.0721 206.81 26.1973 206.848 26.3323V26.4146C206.908 26.5472 206.937 26.6918 206.933 26.8374C206.929 26.983 206.892 27.1258 206.825 27.2549C206.757 27.3839 206.661 27.4959 206.544 27.5822C206.426 27.6686 206.291 27.727 206.148 27.7531C205.28 27.985 204.389 28.1163 203.491 28.1443C204.227 28.6865 204.894 29.3157 205.478 30.0182C205.563 30.1241 205.626 30.2458 205.664 30.3763C205.702 30.5067 205.713 30.6434 205.698 30.7783C205.683 30.9132 205.641 31.0438 205.575 31.1625C205.509 31.2812 205.42 31.3856 205.314 31.4699L205.2 31.5522C205.087 31.6364 204.957 31.6962 204.819 31.7279C204.681 31.7595 204.538 31.7624 204.398 31.7363C204.259 31.7102 204.127 31.6557 204.01 31.5762C203.893 31.4967 203.793 31.3939 203.718 31.2742C203.215 30.4994 202.8 29.6705 202.482 28.8033C202.143 29.6518 201.722 30.4655 201.226 31.2331C201.151 31.3527 201.051 31.4555 200.934 31.5351C200.817 31.6146 200.685 31.6691 200.545 31.6951C200.406 31.7212 200.263 31.7184 200.125 31.6867C199.987 31.655 199.857 31.5952 199.744 31.511L199.63 31.4287C199.524 31.3445 199.435 31.24 199.369 31.1213C199.303 31.0026 199.261 30.872 199.246 30.7371C199.231 30.6022 199.242 30.4655 199.28 30.3351C199.318 30.2046 199.381 30.0829 199.466 29.977C200.057 29.2716 200.723 28.633 201.453 28.0723C200.558 28.0865 199.665 27.9862 198.796 27.7737Z" fill="black"/>
<path d="M209.236 27.7726C209.1 27.7384 208.972 27.6768 208.861 27.5915C208.75 27.5061 208.657 27.399 208.588 27.2765C208.52 27.1541 208.477 27.019 208.463 26.8794C208.449 26.7399 208.463 26.5989 208.505 26.4651L208.567 26.3209C208.608 26.1886 208.677 26.0667 208.769 25.9634C208.862 25.8602 208.975 25.7779 209.102 25.7223C209.229 25.6667 209.366 25.6389 209.505 25.6409C209.644 25.643 209.78 25.6747 209.905 25.7341C210.742 26.0641 211.539 26.4853 212.284 26.9901C212.021 26.0993 211.869 25.1795 211.831 24.2515C211.813 24.1098 211.828 23.9662 211.873 23.8308C211.918 23.6954 211.992 23.5716 212.091 23.4683C212.189 23.365 212.309 23.2847 212.442 23.2332C212.575 23.1817 212.718 23.1603 212.86 23.1704H212.994C213.136 23.1603 213.279 23.1817 213.412 23.2332C213.545 23.2847 213.665 23.365 213.764 23.4683C213.862 23.5716 213.936 23.6954 213.981 23.8308C214.026 23.9662 214.041 24.1098 214.024 24.2515C213.984 25.1786 213.836 26.0979 213.581 26.9901C214.32 26.4831 215.11 26.0552 215.939 25.7135C216.066 25.6546 216.204 25.6241 216.344 25.624C216.485 25.6239 216.623 25.6543 216.751 25.7131C216.878 25.7718 216.991 25.8575 217.082 25.9643C217.173 26.071 217.239 26.1962 217.277 26.3312V26.4136C217.337 26.5462 217.367 26.6908 217.363 26.8364C217.359 26.982 217.321 27.1247 217.254 27.2538C217.186 27.3829 217.09 27.4948 216.973 27.5812C216.856 27.6675 216.72 27.7259 216.577 27.752C215.713 27.9832 214.825 28.1145 213.931 28.1433C214.672 28.686 215.346 29.315 215.939 30.0171C216.023 30.123 216.087 30.2448 216.124 30.3752C216.162 30.5057 216.174 30.6423 216.158 30.7772C216.143 30.9122 216.101 31.0427 216.035 31.1614C215.969 31.2801 215.88 31.3846 215.774 31.4688L215.661 31.5512C215.547 31.6353 215.417 31.6951 215.279 31.7268C215.141 31.7585 214.998 31.7614 214.859 31.7353C214.72 31.7092 214.587 31.6547 214.47 31.5752C214.353 31.4957 214.254 31.3929 214.178 31.2732C213.668 30.4992 213.247 29.6704 212.922 28.8022C212.583 29.6507 212.162 30.4645 211.666 31.232C211.59 31.3517 211.491 31.4545 211.374 31.534C211.256 31.6135 211.124 31.668 210.985 31.6941C210.846 31.7202 210.703 31.7173 210.565 31.6856C210.427 31.6539 210.297 31.5941 210.183 31.51L210.07 31.4276C209.963 31.3434 209.875 31.2389 209.809 31.1202C209.743 31.0016 209.701 30.871 209.685 30.736C209.67 30.6011 209.682 30.4645 209.719 30.334C209.757 30.2036 209.82 30.0819 209.905 29.9759C210.496 29.2706 211.163 28.6319 211.892 28.0712C210.998 28.0855 210.105 27.9851 209.236 27.7726Z" fill="black"/>
<path d="M219.676 27.7726C219.535 27.748 219.401 27.6919 219.284 27.6087C219.168 27.5254 219.071 27.4171 219.002 27.2916C218.933 27.1661 218.893 27.0267 218.885 26.8837C218.877 26.7406 218.901 26.5976 218.955 26.4651V26.3209C218.997 26.1886 219.066 26.0667 219.158 25.9634C219.25 25.8602 219.364 25.7779 219.491 25.7223C219.618 25.6667 219.755 25.6389 219.894 25.6409C220.032 25.643 220.169 25.6747 220.294 25.7341C221.13 26.0641 221.928 26.4853 222.672 26.9901C222.409 26.0993 222.257 25.1795 222.219 24.2515C222.212 24.112 222.234 23.9726 222.282 23.8416C222.331 23.7107 222.406 23.5911 222.502 23.4899C222.598 23.3888 222.714 23.3083 222.842 23.2534C222.971 23.1985 223.109 23.1702 223.249 23.1704H223.382C223.525 23.1603 223.668 23.1817 223.801 23.2332C223.934 23.2847 224.054 23.365 224.152 23.4683C224.25 23.5716 224.325 23.6954 224.37 23.8308C224.415 23.9662 224.429 24.1098 224.412 24.2515C224.373 25.1786 224.224 26.0979 223.969 26.9901C224.713 26.4896 225.506 26.0686 226.337 25.7341C226.465 25.6752 226.603 25.6447 226.743 25.6446C226.884 25.6445 227.022 25.6749 227.149 25.7337C227.277 25.7924 227.39 25.8781 227.481 25.9849C227.571 26.0916 227.638 26.2168 227.676 26.3518V26.4342C227.736 26.5668 227.765 26.7114 227.761 26.857C227.757 27.0026 227.72 27.1453 227.653 27.2744C227.585 27.4035 227.489 27.5154 227.372 27.6018C227.254 27.6881 227.119 27.7465 226.976 27.7726C226.112 28.0038 225.224 28.1351 224.33 28.1639C225.06 28.7085 225.724 29.3374 226.307 30.0377C226.391 30.1436 226.455 30.2653 226.492 30.3958C226.53 30.5263 226.542 30.6629 226.526 30.7978C226.511 30.9328 226.469 31.0633 226.403 31.182C226.337 31.3007 226.248 31.4052 226.142 31.4894L226.029 31.5718C225.915 31.6559 225.785 31.7157 225.647 31.7474C225.509 31.7791 225.366 31.7819 225.227 31.7559C225.088 31.7298 224.955 31.6753 224.838 31.5958C224.721 31.5163 224.622 31.4134 224.546 31.2938C224.059 30.51 223.662 29.6743 223.362 28.8022C223.028 29.6645 222.611 30.4921 222.116 31.2732C222.041 31.3929 221.941 31.4957 221.824 31.5752C221.707 31.6547 221.575 31.7092 221.435 31.7353C221.296 31.7614 221.153 31.7585 221.015 31.7268C220.877 31.6951 220.747 31.6353 220.634 31.5512L220.52 31.4688C220.414 31.3846 220.325 31.2801 220.259 31.1614C220.193 31.0427 220.151 30.9122 220.136 30.7772C220.12 30.6423 220.132 30.5057 220.17 30.3752C220.207 30.2448 220.271 30.123 220.356 30.0171C220.947 29.3118 221.613 28.6731 222.343 28.1124C221.443 28.1141 220.547 27.9999 219.676 27.7726Z" fill="black"/>
<path d="M230.116 27.7726C229.975 27.748 229.841 27.6919 229.724 27.6087C229.608 27.5254 229.511 27.4171 229.442 27.2916C229.373 27.1661 229.333 27.0267 229.325 26.8837C229.317 26.7406 229.341 26.5976 229.395 26.4651L229.447 26.3209C229.488 26.1886 229.557 26.0667 229.649 25.9634C229.742 25.8602 229.855 25.7779 229.982 25.7223C230.109 25.6667 230.246 25.6389 230.385 25.6409C230.523 25.643 230.66 25.6747 230.785 25.7341C231.622 26.0641 232.419 26.4853 233.164 26.9901C232.901 26.0993 232.749 25.1795 232.711 24.2515C232.693 24.1098 232.708 23.9662 232.753 23.8308C232.798 23.6954 232.872 23.5716 232.971 23.4683C233.069 23.365 233.189 23.2847 233.322 23.2332C233.455 23.1817 233.598 23.1603 233.74 23.1704H233.874C234.016 23.1603 234.159 23.1817 234.292 23.2332C234.425 23.2847 234.545 23.365 234.643 23.4683C234.742 23.5716 234.816 23.6954 234.861 23.8308C234.906 23.9662 234.921 24.1098 234.904 24.2515C234.864 25.1786 234.716 26.0979 234.461 26.9901C235.204 26.4896 235.998 26.0686 236.829 25.7341C236.956 25.6752 237.095 25.6447 237.235 25.6446C237.375 25.6445 237.513 25.6749 237.641 25.7337C237.768 25.7924 237.881 25.8781 237.972 25.9849C238.063 26.0916 238.13 26.2168 238.167 26.3518V26.4342C238.228 26.5668 238.257 26.7114 238.253 26.857C238.249 27.0026 238.212 27.1453 238.144 27.2744C238.077 27.4035 237.981 27.5154 237.863 27.6018C237.746 27.6881 237.61 27.7465 237.467 27.7726C236.603 28.0038 235.715 28.1351 234.821 28.1639C235.552 28.7085 236.215 29.3374 236.798 30.0377C236.883 30.1436 236.946 30.2653 236.984 30.3958C237.021 30.5263 237.033 30.6629 237.018 30.7978C237.002 30.9328 236.96 31.0633 236.895 31.182C236.829 31.3007 236.74 31.4052 236.633 31.4894L236.52 31.5718C236.406 31.6559 236.276 31.7157 236.138 31.7474C236 31.7791 235.857 31.7819 235.718 31.7559C235.579 31.7298 235.447 31.6753 235.33 31.5958C235.212 31.5163 235.113 31.4134 235.037 31.2938C234.533 30.5124 234.119 29.6766 233.802 28.8022C233.463 29.6507 233.042 30.4645 232.546 31.232C232.47 31.3517 232.371 31.4545 232.254 31.534C232.136 31.6135 232.004 31.668 231.865 31.6941C231.726 31.7202 231.583 31.7173 231.445 31.6856C231.307 31.6539 231.177 31.5941 231.063 31.51L230.95 31.4276C230.843 31.3434 230.755 31.2389 230.689 31.1202C230.623 31.0016 230.581 30.871 230.565 30.736C230.55 30.6011 230.562 30.4645 230.599 30.334C230.637 30.2036 230.7 30.0819 230.785 29.9759C231.376 29.2706 232.043 28.6319 232.772 28.0712C231.878 28.0854 230.985 27.9851 230.116 27.7726Z" fill="black"/>
</g>
<g opacity="0.2">
<path d="M410.94 303.063V295.733C411.016 293.562 411.932 291.506 413.495 289.997C415.057 288.489 417.144 287.646 419.316 287.646C421.488 287.646 423.575 288.489 425.137 289.997C426.7 291.506 427.615 293.562 427.692 295.733V303.012H431.027V295.733C430.937 292.687 429.664 289.796 427.477 287.673C425.291 285.55 422.363 284.363 419.316 284.363C416.269 284.363 413.341 285.55 411.155 287.673C408.968 289.796 407.695 292.687 407.604 295.733V303.063H410.94Z" stroke="black" stroke-width="0.146805" stroke-miterlimit="10"/>
<path d="M431.934 303.082H406.369V324.23H431.934V303.082Z" stroke="black" stroke-width="0.146805" stroke-miterlimit="10"/>
<path d="M421.854 311.867C421.811 311.157 421.498 310.491 420.981 310.004C420.463 309.517 419.779 309.246 419.069 309.246C418.358 309.246 417.674 309.517 417.157 310.004C416.639 310.491 416.327 311.157 416.284 311.867C416.285 312.362 416.421 312.848 416.679 313.271C416.937 313.694 417.306 314.038 417.746 314.266L417.272 319.064H420.824L420.361 314.266C420.805 314.04 421.179 313.697 421.442 313.275C421.705 312.852 421.848 312.365 421.854 311.867Z" stroke="black" stroke-width="0.146805" stroke-miterlimit="10"/>
</g>
<g opacity="0.2">
<path d="M48.7455 73.0759V65.7248C48.8216 63.5542 49.7374 61.498 51.2998 59.9894C52.8622 58.4808 54.9492 57.6377 57.1211 57.6377C59.293 57.6377 61.38 58.4808 62.9424 59.9894C64.5048 61.498 65.4206 63.5542 65.4967 65.7248V73.0039H68.8325V65.7248C68.7422 62.6788 67.4687 59.7879 65.2823 57.6653C63.0958 55.5427 60.1684 54.3555 57.1211 54.3555C54.0738 54.3555 51.1464 55.5427 48.9599 57.6653C46.7735 59.7879 45.5 62.6788 45.4097 65.7248V73.0759H48.7455Z" stroke="black" stroke-width="0.146805" stroke-miterlimit="10"/>
<path d="M69.7387 73.0742H44.1743V94.2217H69.7387V73.0742Z" stroke="black" stroke-width="0.146805" stroke-miterlimit="10"/>
<path d="M59.6179 81.859C59.5747 81.1497 59.2625 80.4835 58.745 79.9965C58.2274 79.5095 57.5435 79.2383 56.8328 79.2383C56.1222 79.2383 55.4383 79.5095 54.9208 79.9965C54.4032 80.4835 54.091 81.1497 54.0479 81.859C54.0488 82.3544 54.1856 82.8399 54.4434 83.2629C54.7012 83.6859 55.0701 84.03 55.5098 84.2579L55.0362 89.0661H58.6192L58.1559 84.2579C58.5942 84.0283 58.9618 83.6837 59.2193 83.2611C59.4769 82.8385 59.6146 82.3539 59.6179 81.859Z" stroke="black" stroke-width="0.146805" stroke-miterlimit="10"/>
</g>
<g opacity="0.2">
<path d="M367.925 17.6528V12.8447C367.986 11.4291 368.592 10.0918 369.615 9.11173C370.638 8.1317 372.001 7.58463 373.418 7.58463C374.835 7.58463 376.197 8.1317 377.22 9.11173C378.244 10.0918 378.849 11.4291 378.91 12.8447V17.6219H381.103V12.8447C381.103 10.8077 380.294 8.85407 378.854 7.41367C377.413 5.97327 375.46 5.16406 373.423 5.16406C371.386 5.16406 369.432 5.97327 367.992 7.41367C366.551 8.85407 365.742 10.8077 365.742 12.8447V17.6528H367.925Z" stroke="black" stroke-width="0.146805" stroke-miterlimit="10"/>
<path d="M381.701 17.6641H364.929V31.5428H381.701V17.6641Z" stroke="black" stroke-width="0.146805" stroke-miterlimit="10"/>
<path d="M375.06 23.4298C375.025 22.9688 374.818 22.5379 374.479 22.2235C374.14 21.9091 373.695 21.7344 373.232 21.7344C372.77 21.7344 372.325 21.9091 371.986 22.2235C371.647 22.5379 371.439 22.9688 371.405 23.4298C371.406 23.7532 371.496 24.07 371.665 24.3459C371.834 24.6218 372.075 24.8462 372.362 24.9947L372.053 28.1555H374.401L374.102 24.9947C374.39 24.8462 374.631 24.6218 374.799 24.3459C374.968 24.07 375.058 23.7532 375.06 23.4298Z" stroke="black" stroke-width="0.146805" stroke-miterlimit="10"/>
</g>
<path opacity="0.3" d="M314.634 94.707H183.363V210.534H314.634V94.707Z" fill="black"/>
<path d="M317.929 88.7852H186.658V204.612H317.929V88.7852Z" fill="white" stroke="#263238" stroke-width="0.146805" stroke-linecap="round" stroke-linejoin="round"/>
<path d="M317.929 88.7852H186.658V97.063H317.929V88.7852Z" fill="#263238" stroke="#263238" stroke-width="0.146805" stroke-linecap="round" stroke-linejoin="round"/>
<path d="M244.087 138.39V126.179C244.087 123.959 244.969 121.83 246.539 120.26C248.109 118.69 250.238 117.808 252.458 117.808C254.678 117.808 256.807 118.69 258.377 120.26C259.946 121.83 260.828 123.959 260.828 126.179V133.314H264.164V126.179C264.164 123.074 262.931 120.097 260.735 117.901C258.54 115.706 255.562 114.473 252.458 114.473C249.353 114.473 246.376 115.706 244.18 117.901C241.985 120.097 240.751 123.074 240.751 126.179V138.39H244.087Z" fill="white" stroke="#263238" stroke-width="0.146805" stroke-linecap="round" stroke-linejoin="round"/>
<path d="M265.07 137.199H239.506V158.347H265.07V137.199Z" fill="#0A7ABF" stroke="#263238" stroke-width="0.146805" stroke-linecap="round" stroke-linejoin="round"/>
<path d="M268.715 129.441L270.372 125.652" stroke="#263238" stroke-width="0.146805" stroke-linecap="round" stroke-linejoin="round"/>
<path d="M268.952 133.934H275.109" stroke="#263238" stroke-width="0.146805" stroke-linecap="round" stroke-linejoin="round"/>
<path d="M268.241 138.195L271.556 141.747" stroke="#263238" stroke-width="0.146805" stroke-linecap="round" stroke-linejoin="round"/>
<path d="M254.949 145.978C254.959 145.482 254.837 144.993 254.595 144.561C254.353 144.129 254.001 143.769 253.574 143.518C253.147 143.267 252.661 143.134 252.165 143.133C251.67 143.132 251.183 143.263 250.755 143.512C250.327 143.761 249.973 144.12 249.73 144.551C249.487 144.983 249.362 145.471 249.37 145.966C249.378 146.462 249.517 146.946 249.774 147.369C250.031 147.793 250.396 148.141 250.831 148.376L250.368 153.185H253.94L253.477 148.376C253.919 148.15 254.29 147.806 254.549 147.383C254.809 146.96 254.947 146.474 254.949 145.978Z" fill="#263238" stroke="#263238" stroke-width="0.146805" stroke-linecap="round" stroke-linejoin="round"/>
<path d="M298.057 166.961H206.518C204.243 166.961 202.399 168.805 202.399 171.079V180.85C202.399 183.124 204.243 184.968 206.518 184.968H298.057C300.332 184.968 302.176 183.124 302.176 180.85V171.079C302.176 168.805 300.332 166.961 298.057 166.961Z" fill="white" stroke="#263238" stroke-width="0.146805" stroke-linecap="round" stroke-linejoin="round"/>
<path d="M212.088 176.538C211.947 176.512 211.813 176.455 211.696 176.371C211.579 176.286 211.483 176.177 211.414 176.051C211.345 175.925 211.305 175.785 211.297 175.641C211.289 175.497 211.313 175.354 211.367 175.22L211.419 175.087C211.46 174.954 211.529 174.832 211.621 174.729C211.714 174.626 211.827 174.544 211.954 174.488C212.081 174.432 212.218 174.405 212.357 174.407C212.496 174.409 212.632 174.44 212.757 174.5C213.597 174.823 214.395 175.245 215.136 175.756C214.873 174.865 214.721 173.945 214.683 173.017C214.674 172.877 214.694 172.736 214.742 172.604C214.79 172.472 214.865 172.351 214.961 172.249C215.058 172.147 215.174 172.065 215.303 172.01C215.432 171.954 215.572 171.926 215.712 171.926H215.856C215.997 171.926 216.136 171.954 216.265 172.01C216.394 172.065 216.511 172.147 216.607 172.249C216.703 172.351 216.778 172.472 216.826 172.604C216.874 172.736 216.894 172.877 216.886 173.017C216.847 173.944 216.698 174.864 216.443 175.756C217.185 175.253 217.979 174.832 218.811 174.5C218.937 174.439 219.076 174.407 219.216 174.405C219.356 174.403 219.495 174.432 219.622 174.49C219.75 174.548 219.863 174.634 219.955 174.74C220.046 174.847 220.112 174.972 220.15 175.107V175.2C220.21 175.332 220.239 175.477 220.235 175.623C220.231 175.768 220.194 175.911 220.126 176.04C220.059 176.169 219.963 176.281 219.846 176.367C219.728 176.454 219.593 176.512 219.449 176.538C218.585 176.769 217.698 176.901 216.803 176.93C217.536 177.468 218.2 178.094 218.78 178.793C218.865 178.899 218.928 179.021 218.966 179.151C219.004 179.282 219.015 179.418 219 179.553C218.985 179.688 218.943 179.819 218.877 179.937C218.811 180.056 218.722 180.161 218.616 180.245L218.502 180.337C218.392 180.431 218.261 180.499 218.121 180.536C217.981 180.572 217.834 180.577 217.692 180.549C217.549 180.521 217.415 180.462 217.299 180.376C217.182 180.289 217.087 180.178 217.02 180.049C216.525 179.29 216.114 178.478 215.794 177.63C215.458 178.476 215.037 179.287 214.538 180.049C214.471 180.178 214.376 180.289 214.259 180.376C214.143 180.462 214.009 180.521 213.866 180.549C213.724 180.577 213.577 180.572 213.437 180.536C213.297 180.499 213.166 180.431 213.056 180.337L212.953 180.245C212.846 180.161 212.756 180.057 212.689 179.939C212.622 179.821 212.579 179.69 212.563 179.555C212.547 179.42 212.557 179.284 212.594 179.153C212.631 179.022 212.693 178.9 212.778 178.793C213.372 178.094 214.038 177.459 214.765 176.899C213.861 176.894 212.961 176.773 212.088 176.538Z" fill="#263238"/>
<path d="M222.528 176.538C222.386 176.512 222.253 176.455 222.136 176.371C222.019 176.286 221.923 176.177 221.854 176.051C221.785 175.925 221.745 175.785 221.737 175.641C221.729 175.497 221.753 175.354 221.807 175.22L221.859 175.087C221.9 174.954 221.969 174.832 222.061 174.729C222.154 174.626 222.267 174.544 222.394 174.488C222.521 174.432 222.658 174.405 222.797 174.407C222.935 174.409 223.072 174.44 223.197 174.5C224.037 174.823 224.835 175.245 225.576 175.756C225.313 174.865 225.161 173.945 225.122 173.017C225.114 172.877 225.134 172.736 225.182 172.604C225.23 172.472 225.305 172.351 225.401 172.249C225.498 172.147 225.614 172.065 225.743 172.01C225.872 171.954 226.011 171.926 226.152 171.926H226.234C226.375 171.926 226.514 171.954 226.643 172.01C226.772 172.065 226.889 172.147 226.985 172.249C227.082 172.351 227.156 172.472 227.204 172.604C227.252 172.736 227.272 172.877 227.264 173.017C227.225 173.944 227.076 174.864 226.821 175.756C227.563 175.253 228.357 174.832 229.189 174.5C229.318 174.449 229.455 174.424 229.593 174.427C229.731 174.43 229.867 174.461 229.992 174.518C230.118 174.574 230.231 174.656 230.325 174.757C230.419 174.858 230.491 174.977 230.538 175.107V175.2C230.598 175.332 230.628 175.477 230.624 175.623C230.62 175.768 230.582 175.911 230.515 176.04C230.447 176.169 230.351 176.281 230.234 176.367C230.117 176.454 229.981 176.512 229.838 176.538C228.974 176.769 228.086 176.901 227.192 176.93C227.924 177.468 228.588 178.094 229.169 178.793C229.254 178.899 229.317 179.021 229.355 179.151C229.392 179.282 229.404 179.418 229.388 179.553C229.373 179.688 229.331 179.819 229.265 179.937C229.199 180.056 229.111 180.161 229.004 180.245L228.891 180.337C228.781 180.431 228.652 180.499 228.512 180.535C228.373 180.572 228.227 180.577 228.085 180.549C227.943 180.521 227.81 180.462 227.694 180.375C227.579 180.289 227.485 180.177 227.418 180.049C226.916 179.292 226.501 178.481 226.183 177.63C225.846 178.476 225.425 179.287 224.927 180.049C224.859 180.178 224.764 180.289 224.648 180.376C224.531 180.462 224.397 180.521 224.255 180.549C224.112 180.577 223.966 180.572 223.825 180.536C223.685 180.499 223.555 180.431 223.444 180.337L223.341 180.245C223.234 180.161 223.144 180.057 223.077 179.939C223.01 179.821 222.968 179.69 222.951 179.555C222.935 179.42 222.946 179.284 222.983 179.153C223.019 179.022 223.082 178.9 223.166 178.793C223.76 178.094 224.426 177.459 225.153 176.899C224.267 176.889 223.384 176.768 222.528 176.538Z" fill="#263238"/>
<path d="M232.968 176.538C232.832 176.503 232.704 176.44 232.593 176.354C232.482 176.267 232.39 176.159 232.322 176.035C232.255 175.912 232.213 175.776 232.2 175.636C232.187 175.496 232.203 175.354 232.247 175.22V175.087C232.288 174.954 232.357 174.832 232.45 174.729C232.542 174.626 232.656 174.544 232.783 174.488C232.909 174.432 233.047 174.405 233.185 174.407C233.324 174.409 233.46 174.44 233.586 174.5C234.425 174.823 235.223 175.245 235.964 175.756C235.705 174.865 235.556 173.945 235.521 173.017C235.513 172.877 235.533 172.736 235.581 172.604C235.629 172.472 235.704 172.351 235.8 172.249C235.896 172.147 236.013 172.065 236.142 172.01C236.271 171.954 236.41 171.926 236.551 171.926H236.695C236.835 171.926 236.975 171.954 237.104 172.01C237.233 172.065 237.349 172.147 237.446 172.249C237.542 172.351 237.617 172.472 237.665 172.604C237.713 172.736 237.733 172.877 237.724 173.017C237.685 173.944 237.537 174.864 237.282 175.756C238.024 175.253 238.818 174.832 239.65 174.5C239.778 174.449 239.915 174.424 240.053 174.427C240.191 174.43 240.327 174.461 240.453 174.518C240.579 174.574 240.692 174.656 240.786 174.757C240.879 174.858 240.952 174.977 240.999 175.107V175.2C241.059 175.332 241.088 175.476 241.085 175.621C241.082 175.765 241.045 175.908 240.979 176.037C240.912 176.166 240.818 176.278 240.701 176.365C240.585 176.451 240.451 176.511 240.309 176.538C239.441 176.769 238.55 176.9 237.652 176.93C238.385 177.468 239.048 178.094 239.629 178.793C239.714 178.899 239.777 179.021 239.815 179.151C239.853 179.282 239.864 179.418 239.849 179.553C239.834 179.688 239.792 179.819 239.726 179.937C239.66 180.056 239.571 180.161 239.464 180.245L239.351 180.337C239.241 180.431 239.112 180.499 238.973 180.535C238.833 180.572 238.687 180.577 238.545 180.549C238.404 180.521 238.27 180.462 238.155 180.375C238.04 180.289 237.945 180.177 237.879 180.049C237.38 179.29 236.966 178.479 236.643 177.63C236.306 178.476 235.886 179.287 235.387 180.049C235.321 180.177 235.227 180.289 235.111 180.375C234.996 180.462 234.862 180.521 234.721 180.549C234.579 180.577 234.433 180.572 234.294 180.535C234.154 180.499 234.025 180.431 233.915 180.337L233.802 180.245C233.694 180.161 233.605 180.057 233.538 179.939C233.471 179.821 233.428 179.69 233.412 179.555C233.396 179.42 233.406 179.284 233.443 179.153C233.48 179.022 233.542 178.9 233.627 178.793C234.221 178.094 234.887 177.459 235.614 176.899C234.72 176.891 233.831 176.77 232.968 176.538Z" fill="#263238"/>
<path d="M243.408 176.538C243.271 176.503 243.144 176.44 243.033 176.354C242.922 176.267 242.83 176.159 242.762 176.035C242.694 175.912 242.653 175.776 242.64 175.636C242.627 175.496 242.643 175.354 242.687 175.22V175.087C242.728 174.954 242.797 174.832 242.89 174.729C242.982 174.626 243.096 174.544 243.222 174.488C243.349 174.432 243.487 174.405 243.625 174.407C243.764 174.409 243.9 174.44 244.026 174.5C244.865 174.823 245.663 175.245 246.404 175.756C246.149 174.864 246 173.944 245.961 173.017C245.953 172.877 245.973 172.736 246.021 172.604C246.069 172.472 246.143 172.351 246.24 172.249C246.336 172.147 246.453 172.065 246.582 172.01C246.711 171.954 246.85 171.926 246.991 171.926H247.135C247.275 171.926 247.415 171.954 247.544 172.01C247.673 172.065 247.789 172.147 247.886 172.249C247.982 172.351 248.057 172.472 248.105 172.604C248.152 172.736 248.173 172.877 248.164 173.017C248.125 173.944 247.977 174.864 247.722 175.756C248.464 175.253 249.258 174.832 250.09 174.5C250.218 174.449 250.355 174.424 250.493 174.427C250.631 174.43 250.767 174.461 250.893 174.518C251.019 174.574 251.132 174.656 251.225 174.757C251.319 174.858 251.392 174.977 251.438 175.107V175.2C251.499 175.332 251.528 175.476 251.525 175.621C251.522 175.765 251.485 175.908 251.419 176.037C251.352 176.166 251.258 176.278 251.141 176.365C251.025 176.451 250.891 176.511 250.749 176.538C249.881 176.769 248.99 176.9 248.092 176.93C248.825 177.468 249.488 178.094 250.069 178.793C250.154 178.899 250.217 179.021 250.255 179.151C250.293 179.282 250.304 179.418 250.289 179.553C250.274 179.688 250.232 179.819 250.166 179.937C250.1 180.056 250.011 180.161 249.904 180.245L249.791 180.337C249.681 180.431 249.552 180.499 249.412 180.535C249.273 180.572 249.127 180.577 248.985 180.549C248.844 180.521 248.71 180.462 248.595 180.375C248.479 180.289 248.385 180.177 248.319 180.049C247.82 179.29 247.406 178.479 247.083 177.63C246.737 178.477 246.305 179.288 245.796 180.049C245.73 180.177 245.636 180.289 245.52 180.375C245.405 180.462 245.271 180.521 245.13 180.549C244.988 180.577 244.842 180.572 244.703 180.535C244.563 180.499 244.434 180.431 244.324 180.337L244.211 180.245C244.104 180.161 244.014 180.057 243.947 179.939C243.88 179.821 243.837 179.69 243.821 179.555C243.805 179.42 243.815 179.284 243.852 179.153C243.889 179.022 243.951 178.9 244.036 178.793C244.63 178.094 245.296 177.459 246.023 176.899C245.14 176.888 244.261 176.767 243.408 176.538Z" fill="#263238"/>
<path d="M253.848 176.538C253.711 176.503 253.584 176.44 253.473 176.354C253.362 176.267 253.269 176.159 253.202 176.035C253.134 175.912 253.093 175.776 253.08 175.636C253.067 175.496 253.083 175.354 253.127 175.22L253.179 175.087C253.227 174.959 253.301 174.842 253.396 174.743C253.491 174.644 253.604 174.564 253.73 174.51C253.855 174.455 253.99 174.426 254.127 174.424C254.264 174.423 254.4 174.448 254.527 174.5C255.362 174.826 256.157 175.247 256.895 175.756C256.64 174.864 256.492 173.944 256.453 173.017C256.444 172.877 256.464 172.736 256.512 172.604C256.56 172.472 256.635 172.351 256.731 172.249C256.828 172.147 256.944 172.065 257.073 172.01C257.202 171.954 257.342 171.926 257.482 171.926H257.626C257.767 171.926 257.906 171.954 258.035 172.01C258.164 172.065 258.281 172.147 258.377 172.249C258.473 172.351 258.548 172.472 258.596 172.604C258.644 172.736 258.664 172.877 258.656 173.017C258.617 173.944 258.468 174.864 258.213 175.756C258.955 175.253 259.749 174.832 260.581 174.5C260.709 174.449 260.847 174.424 260.985 174.427C261.122 174.43 261.258 174.461 261.384 174.518C261.51 174.574 261.623 174.656 261.717 174.757C261.811 174.858 261.883 174.977 261.93 175.107V175.2C261.99 175.332 262.02 175.476 262.016 175.621C262.013 175.765 261.977 175.908 261.91 176.037C261.844 176.166 261.749 176.278 261.633 176.365C261.517 176.451 261.382 176.511 261.24 176.538C260.372 176.769 259.481 176.9 258.584 176.93C259.316 177.468 259.98 178.094 260.561 178.793C260.646 178.899 260.709 179.021 260.746 179.151C260.784 179.282 260.796 179.418 260.78 179.553C260.765 179.688 260.723 179.819 260.657 179.937C260.591 180.056 260.502 180.161 260.396 180.245L260.283 180.337C260.173 180.431 260.043 180.499 259.904 180.535C259.764 180.572 259.618 180.577 259.477 180.549C259.335 180.521 259.202 180.462 259.086 180.375C258.971 180.289 258.877 180.177 258.81 180.049C258.311 179.29 257.897 178.479 257.575 177.63C257.238 178.476 256.817 179.287 256.319 180.049C256.252 180.177 256.158 180.289 256.043 180.375C255.927 180.462 255.794 180.521 255.652 180.549C255.511 180.577 255.365 180.572 255.225 180.535C255.086 180.499 254.956 180.431 254.846 180.337L254.733 180.245C254.619 180.166 254.523 180.064 254.452 179.945C254.381 179.827 254.336 179.694 254.32 179.556C254.304 179.419 254.318 179.279 254.361 179.148C254.404 179.016 254.475 178.895 254.568 178.793C255.156 178.091 255.819 177.456 256.545 176.899C255.634 176.895 254.728 176.774 253.848 176.538Z" fill="#263238"/>
<path d="M264.329 176.538C264.192 176.503 264.065 176.44 263.954 176.354C263.843 176.267 263.75 176.159 263.683 176.035C263.615 175.912 263.574 175.776 263.561 175.636C263.548 175.496 263.564 175.354 263.608 175.22L263.659 175.087C263.708 174.959 263.782 174.842 263.877 174.743C263.971 174.644 264.085 174.564 264.21 174.51C264.336 174.455 264.471 174.426 264.608 174.424C264.745 174.423 264.881 174.448 265.008 174.5C265.843 174.826 266.638 175.247 267.376 175.756C267.121 174.864 266.973 173.944 266.933 173.017C266.925 172.877 266.945 172.736 266.993 172.604C267.041 172.472 267.116 172.351 267.212 172.249C267.309 172.147 267.425 172.065 267.554 172.01C267.683 171.954 267.822 171.926 267.963 171.926H268.107C268.248 171.926 268.387 171.954 268.516 172.01C268.645 172.065 268.762 172.147 268.858 172.249C268.954 172.351 269.029 172.472 269.077 172.604C269.125 172.736 269.145 172.877 269.137 173.017C269.098 173.944 268.949 174.864 268.694 175.756C269.438 175.251 270.236 174.83 271.072 174.5C271.199 174.441 271.337 174.41 271.476 174.409C271.616 174.408 271.754 174.438 271.881 174.496C272.009 174.553 272.122 174.638 272.213 174.743C272.304 174.849 272.372 174.973 272.411 175.107V175.2C272.471 175.332 272.501 175.476 272.497 175.621C272.494 175.765 272.458 175.908 272.391 176.037C272.325 176.166 272.23 176.278 272.114 176.365C271.998 176.451 271.863 176.511 271.721 176.538C270.853 176.769 269.962 176.901 269.065 176.93C269.798 177.471 270.465 178.096 271.052 178.793C271.136 178.9 271.199 179.022 271.236 179.153C271.272 179.284 271.283 179.42 271.267 179.555C271.25 179.69 271.208 179.821 271.141 179.939C271.074 180.057 270.984 180.161 270.877 180.245L270.764 180.337C270.654 180.431 270.524 180.499 270.385 180.535C270.245 180.572 270.099 180.577 269.958 180.549C269.816 180.521 269.683 180.462 269.567 180.375C269.452 180.289 269.357 180.177 269.291 180.049C268.792 179.29 268.378 178.479 268.056 177.63C267.719 178.476 267.298 179.287 266.8 180.049C266.733 180.177 266.639 180.289 266.524 180.375C266.408 180.462 266.275 180.521 266.133 180.549C265.992 180.577 265.846 180.572 265.706 180.535C265.566 180.499 265.437 180.431 265.327 180.337L265.214 180.245C265.1 180.166 265.004 180.064 264.933 179.945C264.861 179.827 264.816 179.694 264.801 179.556C264.785 179.419 264.799 179.279 264.842 179.148C264.885 179.016 264.956 178.895 265.049 178.793C265.637 178.091 266.3 177.456 267.026 176.899C266.115 176.895 265.208 176.774 264.329 176.538Z" fill="#263238"/>
<path d="M274.738 176.538C274.6 176.504 274.472 176.442 274.359 176.356C274.247 176.27 274.154 176.162 274.085 176.038C274.017 175.915 273.974 175.778 273.961 175.638C273.947 175.497 273.963 175.355 274.007 175.22L274.058 175.087C274.107 174.959 274.181 174.842 274.275 174.743C274.37 174.644 274.484 174.564 274.609 174.51C274.735 174.455 274.87 174.426 275.007 174.424C275.144 174.423 275.28 174.448 275.407 174.5C276.242 174.826 277.037 175.247 277.775 175.756C277.52 174.864 277.371 173.944 277.332 173.017C277.324 172.877 277.344 172.736 277.392 172.604C277.44 172.472 277.515 172.351 277.611 172.249C277.707 172.147 277.824 172.065 277.953 172.01C278.082 171.954 278.221 171.926 278.362 171.926H278.506C278.646 171.926 278.786 171.954 278.915 172.01C279.044 172.065 279.16 172.147 279.257 172.249C279.353 172.351 279.428 172.472 279.476 172.604C279.523 172.736 279.544 172.877 279.535 173.017C279.497 173.945 279.345 174.865 279.082 175.756C279.827 175.251 280.624 174.83 281.461 174.5C281.587 174.441 281.725 174.41 281.865 174.409C282.004 174.408 282.143 174.438 282.27 174.496C282.397 174.553 282.51 174.638 282.601 174.743C282.693 174.849 282.76 174.973 282.799 175.107V175.2C282.859 175.332 282.889 175.477 282.885 175.623C282.881 175.768 282.844 175.911 282.776 176.04C282.709 176.169 282.612 176.281 282.495 176.367C282.378 176.454 282.242 176.512 282.099 176.538C281.231 176.769 280.34 176.901 279.443 176.93C280.176 177.471 280.843 178.096 281.43 178.793C281.514 178.9 281.577 179.022 281.614 179.153C281.65 179.284 281.661 179.42 281.645 179.555C281.629 179.69 281.586 179.821 281.519 179.939C281.452 180.057 281.362 180.161 281.255 180.245L281.152 180.337C281.041 180.431 280.911 180.499 280.771 180.536C280.63 180.572 280.484 180.577 280.341 180.549C280.199 180.521 280.065 180.462 279.948 180.376C279.832 180.289 279.737 180.178 279.669 180.049C279.17 179.292 278.759 178.48 278.444 177.63C278.104 178.477 277.68 179.287 277.178 180.049C277.111 180.177 277.017 180.289 276.902 180.375C276.786 180.462 276.653 180.521 276.511 180.549C276.37 180.577 276.224 180.572 276.084 180.535C275.945 180.499 275.815 180.431 275.705 180.337L275.592 180.245C275.478 180.166 275.382 180.064 275.311 179.945C275.239 179.827 275.195 179.694 275.179 179.556C275.163 179.419 275.177 179.279 275.22 179.148C275.263 179.016 275.334 178.895 275.427 178.793C276.015 178.091 276.678 177.456 277.404 176.899C276.503 176.895 275.607 176.773 274.738 176.538Z" fill="#263238"/>
<path d="M285.178 176.538C285.04 176.504 284.912 176.442 284.799 176.356C284.687 176.27 284.594 176.162 284.525 176.038C284.457 175.915 284.414 175.778 284.401 175.638C284.387 175.497 284.403 175.355 284.447 175.22V175.087C284.495 174.959 284.569 174.842 284.664 174.743C284.759 174.644 284.872 174.564 284.998 174.51C285.123 174.455 285.258 174.426 285.395 174.424C285.532 174.423 285.668 174.448 285.795 174.5C286.63 174.826 287.425 175.247 288.163 175.756C287.908 174.864 287.76 173.944 287.721 173.017C287.712 172.877 287.733 172.736 287.781 172.604C287.828 172.472 287.903 172.351 287.999 172.249C288.096 172.147 288.212 172.065 288.341 172.01C288.47 171.954 288.61 171.926 288.75 171.926H288.894C289.035 171.926 289.174 171.954 289.303 172.01C289.432 172.065 289.549 172.147 289.645 172.249C289.742 172.351 289.816 172.472 289.864 172.604C289.912 172.736 289.932 172.877 289.924 173.017C289.886 173.945 289.734 174.865 289.471 175.756C290.215 175.251 291.013 174.83 291.849 174.5C291.976 174.441 292.114 174.41 292.253 174.409C292.393 174.408 292.531 174.438 292.658 174.496C292.785 174.553 292.898 174.638 292.99 174.743C293.081 174.849 293.149 174.973 293.188 175.107V175.2C293.248 175.332 293.277 175.477 293.273 175.623C293.269 175.768 293.232 175.911 293.164 176.04C293.097 176.169 293.001 176.281 292.884 176.367C292.766 176.454 292.631 176.512 292.488 176.538C291.62 176.769 290.729 176.901 289.831 176.93C290.564 177.471 291.231 178.096 291.818 178.793C291.903 178.9 291.965 179.022 292.002 179.153C292.039 179.284 292.05 179.42 292.033 179.555C292.017 179.69 291.974 179.821 291.907 179.939C291.84 180.057 291.751 180.161 291.643 180.245L291.53 180.337C291.42 180.431 291.291 180.499 291.151 180.535C291.012 180.572 290.866 180.577 290.724 180.549C290.583 180.521 290.449 180.462 290.334 180.375C290.218 180.289 290.124 180.177 290.058 180.049C289.559 179.292 289.148 178.48 288.833 177.63C288.493 178.477 288.068 179.287 287.566 180.049C287.5 180.177 287.406 180.289 287.29 180.375C287.175 180.462 287.041 180.521 286.9 180.549C286.758 180.577 286.612 180.572 286.473 180.535C286.333 180.499 286.204 180.431 286.094 180.337L285.981 180.245C285.866 180.166 285.771 180.064 285.699 179.945C285.628 179.827 285.583 179.694 285.567 179.556C285.552 179.419 285.566 179.279 285.609 179.148C285.652 179.016 285.722 178.895 285.816 178.793C286.404 178.091 287.066 177.456 287.793 176.899C286.909 176.89 286.03 176.769 285.178 176.538Z" fill="#263238"/>
<path d="M121.578 439.085H125.13C125.365 439.085 125.59 438.996 125.761 438.835C125.931 438.674 126.033 438.454 126.047 438.22L128.868 408.836H117.851L120.662 438.22C120.677 438.453 120.78 438.672 120.95 438.832C121.12 438.993 121.345 439.083 121.578 439.085Z" fill="white" stroke="#263238" stroke-width="0.146805" stroke-linecap="round" stroke-linejoin="round"/>
<path d="M87.2413 439.085H90.7933C91.0269 439.083 91.2512 438.993 91.4211 438.832C91.591 438.672 91.6941 438.453 91.7096 438.22L94.5204 408.836H83.5039L86.3249 438.22C86.3381 438.454 86.4404 438.674 86.6109 438.835C86.7813 438.996 87.0069 439.085 87.2413 439.085Z" fill="white" stroke="#263238" stroke-width="0.146805" stroke-linecap="round" stroke-linejoin="round"/>
<path d="M143.199 439.085H146.751C146.985 439.085 147.211 438.996 147.381 438.835C147.552 438.674 147.654 438.454 147.667 438.22L150.488 408.836H139.472L142.282 438.22C142.298 438.453 142.401 438.672 142.571 438.832C142.741 438.993 142.965 439.083 143.199 439.085Z" fill="white" stroke="#263238" stroke-width="0.146805" stroke-linecap="round" stroke-linejoin="round"/>
<path d="M178.874 439.085H182.426C182.66 439.083 182.884 438.993 183.054 438.832C183.224 438.672 183.327 438.453 183.342 438.22L186.153 408.836H175.137L177.958 438.22C177.971 438.454 178.073 438.674 178.244 438.835C178.414 438.996 178.64 439.085 178.874 439.085Z" fill="white" stroke="#263238" stroke-width="0.146805" stroke-linecap="round" stroke-linejoin="round"/>
<path d="M126.942 410.043H197.489C197.489 410.043 204.696 385.951 210.317 362.682C215.939 339.414 222.343 310.174 215.527 304.151C208.711 298.128 190.673 308.568 177.041 311.358C163.41 314.148 160.568 310.956 151.395 301.34C142.221 291.724 134.16 276.085 118.52 266.067C102.881 256.049 91.2674 254.443 80.4259 261.259C73.5363 267.764 69.3774 276.645 68.7917 286.102C67.9989 301.742 72.4055 321.386 78.0579 332.207C83.7103 343.028 126.942 410.043 126.942 410.043Z" fill="white" stroke="#263238" stroke-width="0.146805" stroke-linecap="round" stroke-linejoin="round"/>
<path d="M117.027 365.932H193.216C193.216 365.932 206.94 352.208 208.999 319.262" stroke="#263238" stroke-width="0.146805" stroke-linecap="round" stroke-linejoin="round"/>
<path d="M170.287 232.707L161.659 237.978C161.659 237.978 167.651 270.812 166.22 288.067C164.789 305.323 157.592 321.858 157.592 321.858H180.83C180.83 321.858 189.458 301.267 193.298 286.852C197.138 272.438 190.425 238.679 190.425 238.679L170.287 232.707Z" fill="#757575" stroke="#263238" stroke-width="0.146805" stroke-linecap="round" stroke-linejoin="round"/>
<path d="M262.654 333.745C262.654 333.745 267.606 332.169 268.934 332.18C270.262 332.19 274.576 335.567 274.576 335.567C274.576 335.567 274.751 336.803 273.773 337.06C272.795 337.317 269.449 335.001 269.449 335.001L263.879 336.648L262.654 333.745Z" fill="#FCE6E3" stroke="#263238" stroke-width="0.146805" stroke-linecap="round" stroke-linejoin="round"/>
<path d="M263.708 325.312C265.851 325.612 267.968 326.076 270.04 326.702C271.224 327.289 273.592 332.231 273.592 332.231C273.592 332.231 273.201 333.415 272.212 333.261C271.224 333.106 269.247 329.503 269.247 329.503L263.512 328.473L263.708 325.312Z" fill="#FCE6E3" stroke="#263238" stroke-width="0.146805" stroke-linecap="round" stroke-linejoin="round"/>
<path d="M262.739 315.484L269.266 317.07L273.385 319.839L275.753 325.564C275.519 325.79 275.238 325.961 274.93 326.064C274.621 326.167 274.294 326.2 273.971 326.161C272.942 325.965 268.824 321.415 268.824 321.415L262.914 317.657L260.937 315.484H262.739Z" fill="#FCE6E3" stroke="#263238" stroke-width="0.146805" stroke-linecap="round" stroke-linejoin="round"/>
<path d="M246.826 313.715C246.826 313.715 256.905 314.106 259.078 314.106C261.25 314.106 266.985 318.647 267.973 319.048C268.961 319.45 273.121 325.37 273.121 325.37C273.121 325.37 273.317 325.37 271.937 325.771C270.557 326.173 268.375 324.742 268.375 324.742L265.615 321.375L258.892 320.191C258.892 320.191 263.834 322.765 265.018 323.156C266.202 323.547 266.995 324.937 266.604 325.73C266.213 326.523 260.241 323.959 260.241 323.959C259.522 324.3 258.736 324.477 257.94 324.477C257.144 324.477 256.358 324.3 255.639 323.959C253.26 322.775 252.952 322.744 250.439 321.581C247.927 320.417 242.882 317.462 242.882 317.462L246.826 313.715Z" fill="#FCE6E3" stroke="#263238" stroke-width="0.146805" stroke-linecap="round" stroke-linejoin="round"/>
<path d="M195.45 243.249C195.45 243.249 199.29 243.969 200.248 246.121C201.205 248.273 207.455 297.178 207.455 297.178L248.638 312.23L247.845 326.644C247.845 326.644 199.074 320.662 195.718 321.383C192.361 322.104 184.207 323.061 180.85 320.415C177.494 317.769 190.199 306.784 192.526 296.612C198.024 272.592 197.334 256.118 197.334 256.118C197.334 256.118 190.662 240.376 195.45 243.249Z" fill="#ECE2B2" stroke="#263238" stroke-width="0.146805" stroke-linecap="round" stroke-linejoin="round"/>
<path d="M200.732 271.285C200.732 271.285 194.74 295.253 192.104 301.729C189.468 308.205 184.186 318.985 184.186 318.985L178.441 319.943C178.441 319.943 190.426 294.059 192.577 283.753C194.729 273.447 189.942 247.327 189.705 246.369C189.468 245.412 191.383 239.419 194.976 240.614" fill="#ECE2B2"/>
<path d="M200.732 271.285C200.732 271.285 194.74 295.253 192.104 301.729C189.468 308.205 184.186 318.985 184.186 318.985L178.441 319.943C178.441 319.943 190.426 294.059 192.577 283.753C194.729 273.447 189.942 247.327 189.705 246.369C189.468 245.412 191.383 239.419 194.976 240.614" stroke="#263238" stroke-width="0.146805" stroke-linecap="round" stroke-linejoin="round"/>
<path d="M189.942 264.584L182.992 282.076L175.559 263.379L184.434 256.43L189.942 264.584Z" fill="white" stroke="#263238" stroke-width="0.146805" stroke-linecap="round" stroke-linejoin="round"/>
<path d="M191.62 250.438L194.256 270.813L182.992 262.185L191.62 250.438Z" fill="white" stroke="#263238" stroke-width="0.146805" stroke-linecap="round" stroke-linejoin="round"/>
<path d="M223.022 214.196C223.022 214.196 222.775 227.724 221.673 229.639C220.572 231.554 218.245 234.406 218.142 236.991C218.039 239.575 221.128 245.155 219.274 246.947C218.684 247.467 217.968 247.826 217.197 247.986C216.427 248.147 215.627 248.104 214.878 247.863C214.878 247.863 208.855 255.07 205.488 256.738C202.122 258.406 193.133 253.649 193.133 253.649L184.166 262.915L167.631 232.955L177.103 226.581C177.103 226.581 180.758 207.751 192.485 203.787C204.212 199.823 221.189 209.449 223.022 214.196Z" fill="#E7D4D1" stroke="#263238" stroke-width="0.146805" stroke-linecap="round" stroke-linejoin="round"/>
<path d="M189.993 231.246C189.993 231.246 186.369 238.813 189.478 243.601" stroke="#263238" stroke-width="0.146805" stroke-linecap="round" stroke-linejoin="round"/>
<path d="M213.107 233.532C212.654 234.562 212.675 235.591 213.159 235.776C213.643 235.962 214.405 235.334 214.858 234.304C215.311 233.275 215.3 232.245 214.858 232.06C214.415 231.874 213.571 232.502 213.107 233.532Z" fill="#263238"/>
<path d="M210.904 248.441C210.904 248.441 207.28 247.71 207.28 244.816" stroke="#263238" stroke-width="0.146805" stroke-linecap="round" stroke-linejoin="round"/>
<path d="M210.657 234.438L213.313 236.857" stroke="#263238" stroke-width="0.146805" stroke-linecap="round" stroke-linejoin="round"/>
<path d="M217.998 229.566C217.998 229.566 217.864 226.014 212.108 227.507" stroke="#263238" stroke-width="0.146805" stroke-linecap="round" stroke-linejoin="round"/>
<path d="M230.919 204.064C228.386 204.342 225.863 206.309 225.019 204.62C224.175 202.932 224.741 196.754 220.52 196.198C216.299 195.642 216.587 197.598 215.187 197.887C213.786 198.175 212.098 191.709 206.765 192.543C201.432 193.377 198.075 195.632 197.777 196.744C188.572 196.672 182.909 200.419 178.853 207.935C174.395 216.172 177.123 226.571 177.123 226.571C177.123 226.571 172.923 229.824 176.279 230.782C179.635 231.739 189.993 231.245 189.993 231.245L188.902 230.761C187.8 230.277 186.029 226.643 189.653 221.392C193.277 216.141 195.738 220.681 196.057 222.926C196.376 225.17 196.562 227.044 197.879 227.672C199.197 228.3 200.093 226.818 200.433 224.872C200.773 222.926 204.736 222.813 207.64 221.536C210.543 220.259 207.794 217.675 205.354 213.701C202.914 209.727 209.102 208.81 214.847 212.414C218.162 214.473 219.892 215.606 221.529 215.812L221.611 215.863C221.611 215.863 224.412 218.107 226.666 216.141C228.921 214.174 230.311 213.896 232.278 211.642C234.244 209.387 233.441 203.827 230.919 204.064Z" fill="#263238" stroke="#263238" stroke-width="0.146805" stroke-linecap="round" stroke-linejoin="round"/>
<path d="M168.578 231.266L184.403 261.947L174.333 272.49C174.333 272.49 165.706 249.242 164.748 243.487C163.791 237.731 163.07 233.665 163.07 233.665L168.578 231.266Z" fill="white" stroke="#263238" stroke-width="0.146805" stroke-linecap="round" stroke-linejoin="round"/>
<path d="M177.772 317.895C177.772 317.895 224.103 315.486 229.941 317.895C235.779 320.304 237.148 326.472 236.458 332.649C235.768 338.826 232.34 375.201 230.97 385.497C229.601 395.793 228.911 408.498 229.941 410.897C230.97 413.296 234.059 417.414 233.03 419.823C232 422.232 230.281 423.252 230.281 424.281C230.515 425.293 230.984 426.234 231.65 427.03C231.65 427.03 244.355 432.518 248.813 434.237C253.271 435.957 253.621 437.326 252.592 438.006C251.562 438.685 230.281 438.006 226.502 438.006C222.724 438.006 215.527 435.607 215.527 435.607V437.326H206.261V430.798C206.26 428.735 206.374 426.672 206.6 424.621C206.6 424.621 204.881 420.163 205.231 418.444C205.581 416.724 207.63 412.956 208.32 409.527C209.01 406.099 208.32 401.291 207.97 397.512C207.696 394.764 207.814 391.991 208.32 389.276C208.66 387.217 206.261 349.812 206.261 349.812C206.261 349.812 179.142 358.049 176.403 358.388C173.664 358.728 151.343 366.965 142.077 364.566C132.811 362.167 145.855 332.989 156.151 323.043C166.447 313.097 177.772 317.895 177.772 317.895Z" fill="#263238" stroke="#263238" stroke-width="0.146805" stroke-linecap="round" stroke-linejoin="round"/>
<path d="M158.9 314.455C158.9 314.455 189.437 316.864 192.876 320.292C196.315 323.721 195.275 330.588 195.275 335.046C195.275 339.504 191.157 398.88 190.817 402.319C190.477 405.757 194.245 409.176 192.876 411.585C191.765 413.477 191.063 415.582 190.817 417.762C190.817 418.792 200.083 426.339 203.851 428.398C207.619 430.457 218.265 432.856 219.985 434.575C221.704 436.295 221.354 437.664 218.265 438.694C215.177 439.723 189.437 438.694 189.437 438.694C189.437 438.694 185.669 438.694 184.289 437.664C183.562 437.091 182.753 436.63 181.89 436.295L181.551 438.57H168.166C167.488 434.859 167.027 431.112 166.786 427.348C166.907 424.467 167.251 421.599 167.816 418.771C166.63 416.934 166.034 414.779 166.107 412.594C166.447 409.505 168.846 408.125 168.846 406.066C168.846 404.007 166.786 397.83 167.137 394.061C167.487 390.293 167.816 385.825 167.816 385.825L164.727 355.617C164.727 355.617 144.136 366.942 134.19 365.913C124.244 364.883 121.485 363.514 118.746 358.706C116.008 353.898 115.997 333.656 120.456 325.759C124.914 317.863 149.634 310.686 158.9 314.455Z" fill="#263238" stroke="#263238" stroke-width="0.146805" stroke-linecap="round" stroke-linejoin="round"/>
<path d="M163.101 233.688C163.101 233.688 170.308 251.664 171.008 262.444C171.708 273.223 170.771 298.396 168.135 305.583C165.499 312.769 164.295 317.33 164.295 317.33C164.295 317.33 140.337 320.924 137.217 322.118C134.097 323.312 127.632 332.671 126.427 340.578C126.087 342.853 125.84 345.314 125.665 347.662C125.329 353.032 125.734 358.422 126.87 363.682C127.065 364.711 127.107 365.494 126.808 365.792C125.85 366.75 113.012 360.943 108.698 346.086C104.384 331.23 106.536 313.737 110.376 305.583C114.216 297.429 129.063 248.781 135.539 242.315C142.015 235.85 163.101 233.688 163.101 233.688Z" fill="#ECE2B2" stroke="#263238" stroke-width="0.146805" stroke-linecap="round" stroke-linejoin="round"/>
<path d="M240.337 324.453C240.337 324.453 249.397 325.627 251.734 326.214C253.285 326.694 254.651 327.639 255.647 328.921L254.772 329.735L248.223 327.254L240.337 324.453Z" fill="#FCE6E3" stroke="#263238" stroke-width="0.146805" stroke-linecap="round" stroke-linejoin="round"/>
<path d="M242.912 328.746C242.912 328.746 248.441 329.086 249.09 329.776C249.738 330.465 252.703 335.418 252.703 335.418L251.355 336.324L247.628 332.823L242.912 330.218V328.746Z" fill="#FCE6E3" stroke="#263238" stroke-width="0.146805" stroke-linecap="round" stroke-linejoin="round"/>
<path d="M240.37 315.871C240.37 315.871 250.666 316.746 252.674 317.93C254.682 319.114 257.307 324.365 257.307 324.365L255.845 324.942L250.882 319.979L238.62 317.92L240.37 315.871Z" fill="#FCE6E3" stroke="#263238" stroke-width="0.146805" stroke-linecap="round" stroke-linejoin="round"/>
<path d="M237.271 324.604C237.271 324.604 240.103 326.077 241.565 326.077C243.027 326.077 247.66 324.491 247.66 324.491C245.855 323.707 244.009 323.02 242.131 322.432C241.225 322.35 237.271 324.604 237.271 324.604Z" fill="#FCE6E3" stroke="#263238" stroke-width="0.146805" stroke-linecap="round" stroke-linejoin="round"/>
<path d="M225.205 314.734C225.205 314.734 237.467 317.658 238.929 318.534C240.391 319.409 247.403 322.909 248.278 323.496C249.153 324.083 251.789 328.757 251.789 328.757C251.789 328.757 250.028 330.816 249.451 329.334C248.567 327.825 247.487 326.44 246.239 325.215L240.978 323.465C239.041 324.372 236.938 324.87 234.801 324.927C231.588 324.927 228.129 321.756 228.129 321.756L222.24 323.259L225.205 314.734Z" fill="#FCE6E3" stroke="#263238" stroke-width="0.146805" stroke-linecap="round" stroke-linejoin="round"/>
<path d="M152.578 246.285C152.578 246.285 159.857 252.638 160.455 259.803C161.052 266.969 160.969 269.852 161.021 271.057C161.072 272.261 165.345 303.736 165.345 303.736L226.533 313.65L225.359 327.241L155.636 325.902C155.636 325.902 150.879 326.86 148.306 323.39C145.732 319.92 130.803 267.299 130.803 267.299" fill="#ECE2B2"/>
<path d="M152.578 246.285C152.578 246.285 159.857 252.638 160.455 259.803C161.052 266.969 160.969 269.852 161.021 271.057C161.072 272.261 165.345 303.736 165.345 303.736L226.533 313.65L225.359 327.241L155.636 325.902C155.636 325.902 150.879 326.86 148.306 323.39C145.732 319.92 130.803 267.299 130.803 267.299" stroke="#263238" stroke-width="0.146805" stroke-linecap="round" stroke-linejoin="round"/>
<path d="M153.351 308.527C152.667 309.114 152.049 309.774 151.508 310.494" stroke="#263238" stroke-width="0.146805" stroke-linecap="round" stroke-linejoin="round"/>
<path d="M164.46 304.797C161.451 304.789 158.484 305.494 155.801 306.856" stroke="#263238" stroke-width="0.146805" stroke-linecap="round" stroke-linejoin="round"/>
<path d="M160.228 307.414C160.228 307.414 154.329 309.391 153.104 313.53" stroke="#263238" stroke-width="0.146805" stroke-linecap="round" stroke-linejoin="round"/>
<path d="M126.942 410.041C126.942 410.041 125.737 367.107 114.917 339C104.096 310.892 97.6814 307.33 93.2954 308.535C88.9094 309.739 82.4746 317.348 78.4695 312.138C74.4645 306.929 68.4517 292.494 70.8507 279.665C73.2496 266.837 78.0577 264.438 80.4772 261.236C82.8967 258.034 70.0476 265.643 64.4364 274.054C58.8252 282.466 58.8252 302.882 62.0375 324.164C65.2498 345.445 73.2599 405.583 76.0603 407.981C78.8608 410.38 85.6868 410.391 85.6868 410.391H122.566L126.942 410.041Z" fill="white" stroke="#263238" stroke-width="0.146805" stroke-linecap="round" stroke-linejoin="round"/>
<path d="M326.937 325.891H232.731V330.009H326.937V325.891Z" fill="white" stroke="#263238" stroke-width="0.146805" stroke-linecap="round" stroke-linejoin="round"/>
<path d="M326.937 325.891H281.306V330.009H326.937V325.891Z" fill="#B2B2B2" stroke="#263238" stroke-width="0.146805" stroke-linecap="round" stroke-linejoin="round"/>
<path d="M340.064 289.07H294.433L281.306 325.878H326.937L340.064 289.07Z" fill="#D9D9D9" stroke="#263238" stroke-width="0.146805" stroke-linecap="round" stroke-linejoin="round"/>
<path d="M292.838 439.176H292.189C291.482 439.176 290.804 438.895 290.304 438.395C289.804 437.895 289.523 437.216 289.523 436.509V332.522H295.494L295.494 436.509C295.494 437.215 295.215 437.891 294.717 438.391C294.219 438.891 293.543 439.173 292.838 439.176Z" fill="#525252" stroke="#263238" stroke-width="0.146805" stroke-linecap="round" stroke-linejoin="round"/>
<path d="M303.7 439.176H303.051C302.344 439.176 301.666 438.895 301.166 438.395C300.666 437.894 300.385 437.216 300.385 436.509V332.522H306.397V436.509C306.397 436.862 306.328 437.211 306.192 437.537C306.056 437.862 305.856 438.158 305.606 438.406C305.355 438.654 305.057 438.849 304.73 438.982C304.403 439.114 304.053 439.18 303.7 439.176Z" fill="#525252" stroke="#263238" stroke-width="0.146805" stroke-linecap="round" stroke-linejoin="round"/>
<path d="M219.182 439.176H218.533C217.826 439.176 217.148 438.895 216.648 438.395C216.148 437.895 215.867 437.216 215.867 436.509V332.522H221.838V436.509C221.838 437.215 221.559 437.891 221.061 438.391C220.563 438.891 219.888 439.173 219.182 439.176Z" fill="#525252" stroke="#263238" stroke-width="0.146805" stroke-linecap="round" stroke-linejoin="round"/>
<path d="M367.904 439.176H367.256C366.548 439.176 365.87 438.895 365.37 438.395C364.87 437.895 364.589 437.216 364.589 436.509V332.522H370.561V436.509C370.561 437.215 370.281 437.891 369.783 438.391C369.285 438.891 368.61 439.173 367.904 439.176Z" fill="#525252" stroke="#263238" stroke-width="0.146805" stroke-linecap="round" stroke-linejoin="round"/>
<path d="M208.917 334.98H376.213V330.121H208.917V334.98Z" fill="white" stroke="#263238" stroke-width="0.146805" stroke-linecap="round" stroke-linejoin="round"/>
<path d="M208.917 386.492H376.213V381.633H208.917V386.492Z" fill="white" stroke="#263238" stroke-width="0.146805" stroke-linecap="round" stroke-linejoin="round"/>
<path d="M282.429 376.68H238.744V381.55H282.429V376.68Z" fill="white" stroke="#263238" stroke-width="0.146805" stroke-linecap="round" stroke-linejoin="round"/>
<path d="M282.439 376.68H262.815V381.55H282.439V376.68Z" fill="white" stroke="#263238" stroke-width="0.146805" stroke-linecap="round" stroke-linejoin="round"/>
<path d="M348.754 376.68H305.069V381.55H348.754V376.68Z" fill="white" stroke="#263238" stroke-width="0.146805" stroke-linecap="round" stroke-linejoin="round"/>
<path d="M348.764 376.68H329.141V381.55H348.764V376.68Z" fill="white" stroke="#263238" stroke-width="0.146805" stroke-linecap="round" stroke-linejoin="round"/>
<path d="M278.825 371.586H235.14V376.456H278.825V371.586Z" fill="white" stroke="#263238" stroke-width="0.146805" stroke-linecap="round" stroke-linejoin="round"/>
<path d="M278.825 371.586H259.202V376.456H278.825V371.586Z" fill="white" stroke="#263238" stroke-width="0.146805" stroke-linecap="round" stroke-linejoin="round"/>
<path d="M7.24316 439.148H458.198" stroke="#263238" stroke-width="0.146805" stroke-linecap="round" stroke-linejoin="round"/>
</svg>
