<svg width="735" height="548" viewBox="0 0 735 548" fill="none" xmlns="http://www.w3.org/2000/svg">
<path d="M735 481.277H0V481.645H735V481.277Z" fill="#EBEBEB"/>
<path d="M661.353 504.93H612.667V505.297H661.353V504.93Z" fill="#EBEBEB"/>
<path d="M486.893 508.93H474.119V509.297H486.893V508.93Z" fill="#EBEBEB"/>
<path d="M611.197 491.289H582.987V491.657H611.197V491.289Z" fill="#EBEBEB"/>
<path d="M140.606 493.758H77.1162V494.125H140.606V493.758Z" fill="#EBEBEB"/>
<path d="M163.008 493.758H153.703V494.125H163.008V493.758Z" fill="#EBEBEB"/>
<path d="M330.97 499.961H193.261V500.328H330.97V499.961Z" fill="#EBEBEB"/>
<path d="M348.39 415.716H64.5477C62.3241 415.712 60.1929 414.826 58.622 413.252C57.051 411.679 56.1687 409.546 56.1687 407.322V8.3202C56.1881 6.10936 57.0789 3.99543 58.6478 2.43758C60.2166 0.879734 62.3368 0.00378729 64.5477 0H348.39C350.616 0 352.751 0.884334 354.325 2.45846C355.899 4.03258 356.784 6.16755 356.784 8.3937V407.322C356.784 409.548 355.899 411.683 354.325 413.258C352.751 414.832 350.616 415.716 348.39 415.716ZM64.5477 0.294001C62.4216 0.297895 60.3838 1.14523 58.8818 2.65001C57.3798 4.15479 56.5362 6.19406 56.5362 8.3202V407.322C56.5362 409.448 57.3798 411.488 58.8818 412.992C60.3838 414.497 62.4216 415.345 64.5477 415.348H348.39C350.518 415.345 352.557 414.498 354.061 412.993C355.565 411.489 356.412 409.45 356.416 407.322V8.3202C356.412 6.19271 355.565 4.15347 354.061 2.64911C352.557 1.14475 350.518 0.297887 348.39 0.294001H64.5477Z" fill="#EBEBEB"/>
<path d="M666.366 415.716H382.509C380.284 415.712 378.151 414.827 376.578 413.253C375.004 411.68 374.119 409.547 374.115 407.322V8.3202C374.138 6.10802 375.032 3.9941 376.604 2.43666C378.175 0.87922 380.296 0.00374599 382.509 0H666.366C668.574 0.00765061 670.69 0.885306 672.256 2.44274C673.822 4.00017 674.711 6.1119 674.73 8.3202V407.322C674.73 409.543 673.85 411.674 672.282 413.247C670.714 414.82 668.587 415.708 666.366 415.716ZM382.509 0.294001C380.381 0.297887 378.342 1.14475 376.838 2.64911C375.333 4.15347 374.486 6.19271 374.482 8.3202V407.322C374.486 409.45 375.333 411.489 376.838 412.993C378.342 414.498 380.381 415.345 382.509 415.348H666.366C668.493 415.345 670.532 414.498 672.037 412.993C673.541 411.489 674.388 409.45 674.392 407.322V8.3202C674.388 6.19271 673.541 4.15347 672.037 2.64911C670.532 1.14475 668.493 0.297887 666.366 0.294001H382.509Z" fill="#EBEBEB"/>
<path d="M318.137 92.5938H142.384V481.276H318.137V92.5938Z" fill="#F0F0F0"/>
<path d="M318.137 92.5938H150.719V481.276H318.137V92.5938Z" fill="#F5F5F5"/>
<path d="M309.303 472.445V101.402L159.524 101.402L159.524 472.445H309.303Z" fill="#F0F0F0"/>
<path d="M276.713 281.02H289.149C290.798 281.013 292.378 280.353 293.542 279.185C294.707 278.018 295.363 276.437 295.367 274.787C295.363 273.138 294.707 271.557 293.542 270.39C292.378 269.222 290.798 268.562 289.149 268.555H276.713C275.062 268.562 273.481 269.222 272.314 270.389C271.147 271.556 270.488 273.137 270.48 274.787C270.488 276.438 271.147 278.019 272.314 279.186C273.481 280.353 275.062 281.013 276.713 281.02Z" fill="white"/>
<path d="M309.317 472.457V101.414H307.024V472.457H309.317Z" fill="#F0F0F0"/>
<path d="M458.214 314.258H418.259V474.503H458.214V314.258Z" fill="#F0F0F0"/>
<path d="M622.942 474.5H425.918V481.277H622.942V474.5Z" fill="#F0F0F0"/>
<path d="M458.214 474.5H630.63V314.255H458.214V474.5Z" fill="#F5F5F5"/>
<path d="M473.913 362.457H614.916V327.412H473.913V362.457Z" fill="#F0F0F0"/>
<path d="M473.913 461.359H614.916V372.924H473.913V461.359Z" fill="#F0F0F0"/>
<path d="M562.216 342.523H526.613C525.549 342.523 524.687 343.386 524.687 344.449V345.405C524.687 346.468 525.549 347.33 526.613 347.33H562.216C563.28 347.33 564.142 346.468 564.142 345.405V344.449C564.142 343.386 563.28 342.523 562.216 342.523Z" fill="#F5F5F5"/>
<path d="M562.216 412.953H526.613C525.549 412.953 524.687 413.815 524.687 414.879V415.834C524.687 416.898 525.549 417.76 526.613 417.76H562.216C563.28 417.76 564.142 416.898 564.142 415.834V414.879C564.142 413.815 563.28 412.953 562.216 412.953Z" fill="#F5F5F5"/>
<path d="M630.248 108.941H573.873V215.222H630.248V108.941Z" fill="#E6E6E6"/>
<path d="M642.875 108.941H576.666V215.222H642.875V108.941Z" fill="#F5F5F5"/>
<path d="M632.806 205.755V118.363H586.751V205.755H632.806Z" fill="white"/>
<path d="M537.006 77.8672H480.631V184.148H537.006V77.8672Z" fill="#E6E6E6"/>
<path d="M549.618 77.8672H483.41V184.148H549.618V77.8672Z" fill="#F5F5F5"/>
<path d="M539.549 174.696V87.3047H493.494V174.696H539.549Z" fill="white"/>
<path d="M451.628 146.547H395.254V252.828H451.628V146.547Z" fill="#E6E6E6"/>
<path d="M464.27 146.547H398.047V252.828H464.27V146.547Z" fill="#F5F5F5"/>
<path d="M454.186 243.356V155.965H408.131V243.356H454.186Z" fill="white"/>
<path d="M367.5 547.664C524.911 547.664 652.518 540.213 652.518 531.023C652.518 521.833 524.911 514.383 367.5 514.383C210.089 514.383 82.4817 521.833 82.4817 531.023C82.4817 540.213 210.089 547.664 367.5 547.664Z" fill="#F5F5F5"/>
<path d="M439.265 132.461H172.71C168.74 132.461 165.522 135.679 165.522 139.649V329.764C165.522 333.734 168.74 336.953 172.71 336.953H439.265C443.235 336.953 446.454 333.734 446.454 329.764V139.649C446.454 135.679 443.235 132.461 439.265 132.461Z" fill="#263238"/>
<path d="M308.362 123.199H303.628C302.679 123.199 301.909 123.969 301.909 124.919V525.215C301.909 526.165 302.679 526.935 303.628 526.935H308.362C309.312 526.935 310.082 526.165 310.082 525.215V124.919C310.082 123.969 309.312 123.199 308.362 123.199Z" fill="#263238"/>
<path d="M297.234 518.762H314.727C316.544 518.762 318.286 519.483 319.571 520.768C320.855 522.053 321.577 523.795 321.577 525.612V526.45C321.577 526.578 321.526 526.702 321.435 526.793C321.344 526.884 321.221 526.935 321.092 526.935H290.869C290.74 526.935 290.617 526.884 290.526 526.793C290.435 526.702 290.384 526.578 290.384 526.45V525.612C290.384 523.795 291.106 522.053 292.39 520.768C293.675 519.483 295.417 518.762 297.234 518.762Z" fill="#263238"/>
<path d="M407.411 127.316H383.891V128.786H407.411V127.316Z" fill="#ECE2B2"/>
<path d="M369.852 127.316H362.664V128.786H369.852V127.316Z" fill="#ECE2B2"/>
<path d="M440.309 132.461H173.754C169.784 132.461 166.566 135.679 166.566 139.649V329.764C166.566 333.734 169.784 336.953 173.754 336.953H440.309C444.279 336.953 447.497 333.734 447.497 329.764V139.649C447.497 135.679 444.279 132.461 440.309 132.461Z" fill="#ECE2B2"/>
<path opacity="0.7" d="M440.147 323.397V146.012C440.147 142.586 437.37 139.809 433.944 139.809L180.119 139.809C176.693 139.809 173.916 142.586 173.916 146.012V323.397C173.916 326.823 176.693 329.6 180.119 329.6H433.944C437.37 329.6 440.147 326.823 440.147 323.397Z" fill="white"/>
<path opacity="0.2" d="M251.37 232.258C234.229 230.653 217.017 229.927 199.802 230.082C199.964 206.709 202.051 181.44 203.889 156.582L254.428 159.831C252.472 188.834 250.532 217.925 251.37 232.258Z" fill="black"/>
<path d="M252.34 231.214C235.2 229.602 217.988 228.876 200.773 229.038C200.934 205.651 202.007 181.454 203.845 156.582L255.412 158.758C253.487 187.761 251.546 216.867 252.34 231.214Z" fill="white"/>
<path opacity="0.2" d="M320.019 282.046L268.466 284.295L266.32 210.781L316.873 209.59L320.019 282.046Z" fill="black"/>
<path d="M317.872 208.562L266.309 210.805L269.46 283.251L321.022 281.009L317.872 208.562Z" fill="white"/>
<path opacity="0.2" d="M434.958 280.297L383.788 273.55L394.46 200.785L444.44 208.4L434.958 280.297Z" fill="black"/>
<path d="M445.606 207.559L394.438 200.805L384.948 272.696L436.115 279.451L445.606 207.559Z" fill="white"/>
<path opacity="0.2" d="M259.043 333.452C249.694 336.392 225.616 336.848 207.593 335.951C205.021 313.313 205.285 287.97 205.932 262.451L256.485 261.613C255.368 279.136 256.236 310.314 259.043 333.452Z" fill="black"/>
<path d="M260.072 332.394C250.708 335.334 226.63 335.775 208.622 334.878C206.069 310.811 205.175 286.597 205.947 262.407L257.515 260.496C256.383 278.077 257.25 309.256 260.072 332.394Z" fill="white"/>
<path opacity="0.2" d="M385.831 224.907L334.234 226.039C332.499 201.902 332.999 176.662 333.661 152.539H384.243C383.67 178.191 384.052 202.666 385.831 224.907Z" fill="black"/>
<path d="M386.845 223.821L335.248 224.953C333.523 200.815 333.004 176.648 333.69 152.452L385.287 151.32C384.728 177.134 385.14 201.594 386.845 223.821Z" fill="white"/>
<path d="M407.19 508.635L395.797 505.578L399.855 478.383L411.247 481.44L407.19 508.635Z" fill="#FF8B7B"/>
<path d="M512.574 518.968H500.77L491.583 491.641H503.387L512.574 518.968Z" fill="#FF8B7B"/>
<path d="M499.197 517.602H513.589C513.822 517.603 514.048 517.684 514.23 517.831C514.412 517.977 514.538 518.182 514.588 518.41L516.925 528.906C516.979 529.161 516.973 529.425 516.91 529.678C516.847 529.931 516.728 530.167 516.561 530.368C516.395 530.568 516.185 530.729 515.948 530.837C515.71 530.945 515.452 530.999 515.191 530.993C510.56 530.92 507.194 530.641 501.358 530.641C497.771 530.641 486.952 531.023 482.013 531.023C477.074 531.023 476.412 526.128 478.441 525.672C487.525 523.687 494.376 520.953 497.286 518.322C497.817 517.861 498.495 517.606 499.197 517.602Z" fill="#263238"/>
<path d="M396.238 504.283L408.675 507.62C408.901 507.683 409.099 507.82 409.238 508.009C409.377 508.199 409.448 508.429 409.439 508.664L408.969 519.395C408.961 519.655 408.894 519.909 408.773 520.139C408.651 520.369 408.479 520.568 408.269 520.721C408.06 520.874 407.817 520.977 407.562 521.023C407.306 521.068 407.043 521.054 406.793 520.982C402.383 519.704 395.9 517.69 390.256 516.176C383.655 514.412 377.863 513.236 370.131 511.163C365.457 509.913 365.427 504.827 367.5 504.93C376.937 505.371 384.273 507.12 393.254 504.43C394.216 504.103 395.25 504.052 396.238 504.283Z" fill="#263238"/>
<path d="M457.244 167.126C453.348 172.021 449.306 177.284 445.484 182.444C441.662 187.603 437.987 192.939 434.606 198.29C432.915 200.951 431.372 203.656 429.887 206.346L425.83 214.328L425.492 215.048C425.492 215.122 425.403 215.18 425.389 215.166C425.369 214.99 425.369 214.812 425.389 214.637C425.387 214.182 425.338 213.729 425.242 213.284C425.19 213.04 425.121 212.799 425.036 212.564C425.036 212.417 424.933 212.27 424.874 212.123C424.801 211.916 424.713 211.714 424.61 211.52C424.347 211.027 424.032 210.563 423.669 210.138C423.157 209.558 422.557 209.062 421.89 208.668C421.214 208.277 420.48 207.999 419.714 207.845C419.143 207.739 418.561 207.7 417.98 207.728C417.32 207.759 416.669 207.898 416.054 208.139C415.623 208.288 415.216 208.501 414.849 208.771C414.481 209.051 414.496 209.095 414.481 209.124C414.467 209.153 414.569 209.124 414.658 209.124C415.18 208.768 415.671 208.37 416.128 207.933C416.686 207.448 417.245 206.919 417.803 206.36C420.082 204.17 422.434 201.759 424.889 199.51L432.312 204.332C431.122 207.638 429.687 210.852 428.02 213.946C427.112 215.709 426.039 217.383 424.815 218.944C424.589 219.225 424.349 219.495 424.095 219.752C423.689 220.178 423.24 220.562 422.757 220.899C422.21 221.279 421.617 221.59 420.993 221.825C420.276 222.091 419.523 222.25 418.759 222.295C418.129 222.325 417.497 222.281 416.877 222.163C416.059 222.003 415.273 221.705 414.555 221.281C413.844 220.866 413.204 220.34 412.658 219.723C412.264 219.271 411.919 218.778 411.629 218.253C411.527 218.032 411.409 217.797 411.321 217.577L411.13 217.062C411.012 216.68 410.953 216.445 410.894 216.18C410.762 215.532 410.703 214.871 410.718 214.21C410.727 213.62 410.776 213.03 410.865 212.446C410.865 212.02 410.983 211.682 411.041 211.358C411.174 210.712 411.291 210.182 411.409 209.668C411.894 207.654 412.409 205.964 412.997 204.258C413.585 202.553 414.349 200.848 415.099 199.216C416.569 195.923 418.186 192.748 419.891 189.691C423.275 183.621 426.974 177.733 430.975 172.051C432.944 169.243 434.973 166.465 437.06 163.745C439.148 161.026 441.265 158.394 443.602 155.66L457.244 167.126Z" fill="#FF8B7B"/>
<path d="M463.653 158.468C466.181 169.449 442.058 197.57 442.058 197.57L420.42 181.723C425.224 172.613 430.99 164.043 437.619 156.16C447.527 144.959 460.874 146.399 463.653 158.468Z" fill="#ECE2B2"/>
<path opacity="0.2" d="M463.653 158.468C466.181 169.449 442.058 197.57 442.058 197.57L420.42 181.723C425.224 172.613 430.99 164.043 437.619 156.16C447.527 144.959 460.874 146.399 463.653 158.468Z" fill="black"/>
<path opacity="0.2" d="M399.855 478.383L397.753 492.407L409.16 495.464L411.247 481.44L399.855 478.383Z" fill="black"/>
<path opacity="0.2" d="M503.387 491.656H491.583L496.331 505.739H508.135L503.387 491.656Z" fill="black"/>
<path d="M516.44 156.821C501.079 200.804 500.8 248.432 499.08 257.987C489.907 256.767 455.362 252.107 436.531 249.564C432.298 182.032 450.849 148.575 450.849 148.575C450.849 148.575 454.936 148.031 460.463 147.796C462.197 147.796 464.064 147.678 466.005 147.693C467.078 147.693 468.166 147.693 469.268 147.766C478.195 148.471 487.073 149.689 495.86 151.412C497.521 151.72 499.212 152.073 500.844 152.441C502.475 152.808 503.784 153.161 505.254 153.529C511.56 155.131 516.44 156.821 516.44 156.821Z" fill="#ECE2B2"/>
<path opacity="0.2" d="M516.44 156.821C501.079 200.804 500.8 248.432 499.08 257.987C489.907 256.767 455.362 252.107 436.531 249.564C432.298 182.032 450.849 148.575 450.849 148.575C450.849 148.575 454.936 148.031 460.463 147.796C462.197 147.796 464.064 147.678 466.005 147.693C467.078 147.693 468.166 147.693 469.268 147.766C478.195 148.471 487.073 149.689 495.86 151.412C497.521 151.72 499.212 152.073 500.844 152.441C502.475 152.808 503.784 153.161 505.254 153.529C511.56 155.131 516.44 156.821 516.44 156.821Z" fill="black"/>
<path opacity="0.2" d="M502.064 177.074C499.579 183.704 501.52 202.064 504.239 208.326C505.21 201.77 506.4 194.891 507.9 187.835L502.064 177.074Z" fill="black"/>
<path d="M425.006 198.656L434.356 189.836L440.441 203.625C438.757 205.35 436.566 206.494 434.187 206.891C431.808 207.287 429.365 206.915 427.211 205.83L425.006 198.656Z" fill="#FF8B7B"/>
<path d="M441.22 185.25L445.895 197.451L440.441 203.551L434.356 189.763L441.22 185.25Z" fill="#FF8B7B"/>
<path d="M497.257 121.055C494.42 129.39 490.642 144.839 495.86 151.351C490.583 155.35 483.777 159.863 473.575 158.848C463.373 157.834 466.093 151.087 469.268 147.765C479.117 146.78 479.823 139.665 479.058 132.785L497.257 121.055Z" fill="#FF8B7B"/>
<path d="M467.46 145.529C467.46 143.207 477.015 141.251 477.382 143.456C477.75 145.661 474.442 146.396 475.486 149.336C476.53 152.276 486.158 152.571 490.01 148.41C492.568 145.632 493.376 142.839 496.625 144.677C499.873 146.514 503.784 149.087 501.637 153.129C499.491 157.172 487.378 166.727 476.353 164.272C465.328 161.817 462.256 155.893 464.402 153.32C466.27 151.141 467.347 148.396 467.46 145.529Z" fill="#ECE2B2"/>
<path opacity="0.2" d="M489.833 125.848L479.058 132.786C479.267 134.384 479.331 135.998 479.249 137.608C481.407 137.519 483.509 136.898 485.368 135.8C487.228 134.702 488.787 133.162 489.907 131.316C491.142 128.949 490.73 126.259 489.833 125.848Z" fill="black"/>
<path d="M499.036 106.353C497.992 118.025 497.963 124.904 491.891 130.74C482.763 139.56 468.489 133.68 466.034 122.008C463.829 111.439 465.917 94.0783 477.471 89.8153C480.016 88.8457 482.767 88.5435 485.462 88.9373C488.158 89.3312 490.707 90.4082 492.869 92.0657C495.03 93.7232 496.731 95.9062 497.811 98.4069C498.89 100.908 499.312 103.643 499.036 106.353Z" fill="#FF8B7B"/>
<path d="M499.932 97.0204C491.348 96.3736 490.627 111.279 497.727 117.689C506.312 114.322 518.307 98.3287 499.932 97.0204Z" fill="#263238"/>
<path d="M491.436 99.343C486.408 91.405 476.736 103.988 471.958 95.3152C469.092 90.0967 464.197 95.7562 461.213 92.6251C458.228 89.494 462.844 81.0856 465.961 80.3359C464.211 82.2322 463.873 89.0089 469.121 85.6573C474.369 82.3057 478.132 78.8365 484.556 84.4666C490.98 90.0967 497.698 78.7777 503.593 87.4066C508.767 94.9036 497.389 108.78 491.436 99.343Z" fill="#263238"/>
<path d="M501.152 98.1072C499.774 98.1021 498.404 97.8789 497.095 97.4457C497.027 97.4245 496.963 97.39 496.908 97.3441C496.853 97.2983 496.807 97.242 496.774 97.1785C496.74 97.1151 496.719 97.0456 496.713 96.9742C496.706 96.9027 496.714 96.8307 496.735 96.7622C496.756 96.6936 496.791 96.63 496.837 96.5748C496.883 96.5196 496.939 96.474 497.002 96.4405C497.066 96.4071 497.135 96.3865 497.207 96.3799C497.278 96.3733 497.35 96.3808 497.419 96.402C501.182 97.5927 504.842 96.9606 506.518 94.8438C507.826 93.1974 507.723 90.9336 506.268 88.4787C506.194 88.354 506.172 88.2049 506.208 88.0643C506.244 87.9237 506.334 87.8031 506.459 87.729C506.584 87.6549 506.733 87.6335 506.874 87.6693C507.014 87.7051 507.135 87.7954 507.209 87.9201C508.899 90.7425 508.958 93.5208 507.385 95.52C506.609 96.3935 505.645 97.0799 504.565 97.528C503.486 97.976 502.319 98.174 501.152 98.1072Z" fill="#263238"/>
<path d="M503.945 119.394C502.301 121.836 499.761 123.532 496.875 124.113C493.038 124.833 491.45 121.335 492.788 117.88C493.994 114.778 497.448 110.662 501.167 111.486C504.886 112.309 505.93 116.366 503.945 119.394Z" fill="#FF8B7B"/>
<path d="M393.548 488.215L412.835 493.39C412.835 493.39 431.195 425.387 437.002 389.02C438.766 377.98 442.705 362.692 447.468 346.39C453.466 325.81 460.771 303.642 466.696 286.281C472.958 267.994 477.647 255.073 477.647 255.073L436.487 249.531C436.487 249.531 405.161 345.566 401.633 381.405C398.002 418.699 393.548 488.215 393.548 488.215Z" fill="#263238"/>
<path opacity="0.2" d="M447.468 346.42C453.466 325.84 460.772 303.672 466.696 286.312L463.05 276.801C451.981 288.326 446.792 325.825 447.468 346.42Z" fill="black"/>
<path d="M458.713 252.562C458.713 252.562 456.685 353.654 459.448 388.111C462.491 425.861 490.774 503.006 490.774 503.006H512.383C512.383 503.006 497.963 432.446 493.553 395.696C488.51 353.948 499.08 257.957 499.08 257.957L458.713 252.562Z" fill="#263238"/>
<path d="M488.187 503.475H513.633V495.875L485.188 495.375L488.187 503.475Z" fill="#ECE2B2"/>
<path d="M391.005 488.009L413.996 494.183L415.995 486.76L391.681 479.836L391.005 488.009Z" fill="#ECE2B2"/>
<path d="M481.219 109.131C481.219 110.072 480.675 110.837 480.043 110.822C479.411 110.807 478.941 110.013 478.97 109.058C478.999 108.102 479.529 107.353 480.146 107.367C480.763 107.382 481.249 108.176 481.219 109.131Z" fill="#263238"/>
<path d="M470.473 108.781C470.473 109.737 469.915 110.487 469.297 110.472C468.68 110.457 468.195 109.663 468.21 108.723C468.224 107.782 468.768 107.003 469.386 107.032C470.003 107.061 470.488 107.87 470.473 108.781Z" fill="#263238"/>
<path d="M473.869 109.398C472.657 112.274 471.049 114.965 469.092 117.395C469.728 117.882 470.463 118.222 471.246 118.392C472.028 118.563 472.839 118.558 473.619 118.38L473.869 109.398Z" fill="#FF5652"/>
<path d="M477.559 121.043C478.621 120.953 479.653 120.645 480.591 120.139C481.529 119.634 482.354 118.941 483.013 118.103C483.061 118.051 483.088 117.983 483.088 117.912C483.088 117.841 483.061 117.772 483.013 117.721C482.982 117.699 482.947 117.683 482.91 117.675C482.874 117.666 482.836 117.666 482.798 117.673C482.761 117.68 482.726 117.694 482.695 117.715C482.663 117.736 482.636 117.763 482.616 117.794C481.856 118.725 480.884 119.46 479.782 119.938C478.679 120.416 477.479 120.624 476.28 120.543C476.242 120.541 476.204 120.547 476.169 120.56C476.133 120.573 476.1 120.593 476.073 120.619C476.045 120.646 476.024 120.677 476.009 120.712C475.994 120.747 475.986 120.784 475.986 120.822C475.986 120.894 476.013 120.963 476.063 121.015C476.112 121.067 476.179 121.098 476.251 121.102C476.688 121.115 477.125 121.096 477.559 121.043Z" fill="#263238"/>
<path d="M484.63 105.752C484.726 105.742 484.817 105.707 484.894 105.649C484.954 105.607 485.005 105.553 485.044 105.491C485.083 105.428 485.11 105.359 485.122 105.287C485.134 105.214 485.132 105.14 485.116 105.069C485.099 104.997 485.069 104.93 485.027 104.87C484.528 104.135 483.861 103.531 483.081 103.106C482.301 102.682 481.431 102.45 480.543 102.43C480.47 102.433 480.398 102.452 480.331 102.483C480.265 102.515 480.206 102.559 480.156 102.614C480.107 102.668 480.069 102.732 480.045 102.802C480.02 102.871 480.01 102.944 480.014 103.018C480.016 103.09 480.032 103.162 480.062 103.228C480.092 103.295 480.135 103.354 480.189 103.403C480.242 103.453 480.305 103.491 480.373 103.516C480.442 103.54 480.515 103.551 480.587 103.547C481.29 103.57 481.976 103.761 482.59 104.104C483.204 104.447 483.727 104.931 484.115 105.517C484.173 105.597 484.251 105.661 484.341 105.702C484.432 105.743 484.531 105.761 484.63 105.752Z" fill="#263238"/>
<path d="M465.99 104.989C466.08 104.981 466.167 104.949 466.242 104.898C466.316 104.846 466.376 104.776 466.416 104.695C466.721 104.059 467.174 103.506 467.737 103.082C468.299 102.657 468.955 102.374 469.65 102.255C469.783 102.224 469.9 102.145 469.979 102.034C470.058 101.923 470.093 101.787 470.079 101.652C470.064 101.516 470.001 101.391 469.9 101.299C469.8 101.207 469.669 101.155 469.533 101.152C468.655 101.288 467.824 101.635 467.11 102.162C466.396 102.69 465.82 103.382 465.431 104.181C465.396 104.245 465.374 104.316 465.367 104.389C465.359 104.462 465.367 104.536 465.389 104.606C465.411 104.676 465.447 104.741 465.495 104.796C465.542 104.852 465.601 104.898 465.667 104.93C465.765 104.986 465.879 105.006 465.99 104.989Z" fill="#263238"/>
<path d="M495.302 519.674C496.343 519.645 497.378 519.502 498.389 519.248C498.443 519.234 498.491 519.204 498.528 519.162C498.564 519.12 498.588 519.068 498.595 519.013C498.602 518.96 498.595 518.906 498.575 518.857C498.554 518.808 498.52 518.765 498.477 518.734C498.036 518.469 494.229 516.132 492.935 516.793C492.79 516.87 492.669 516.984 492.584 517.124C492.498 517.263 492.452 517.423 492.45 517.587C492.421 517.86 492.458 518.136 492.558 518.392C492.658 518.647 492.817 518.876 493.023 519.057C493.694 519.509 494.495 519.726 495.302 519.674ZM497.58 518.851C495.566 519.248 494.038 519.175 493.391 518.631C493.246 518.511 493.135 518.356 493.068 518.181C493.001 518.006 492.981 517.817 493.009 517.631C493.004 517.564 493.018 517.497 493.049 517.437C493.081 517.378 493.127 517.328 493.185 517.293C493.92 516.94 496.037 517.955 497.58 518.91V518.851Z" fill="#ECE2B2"/>
<path d="M498.33 519.25C498.383 519.266 498.439 519.266 498.492 519.25C498.534 519.225 498.567 519.188 498.588 519.143C498.609 519.099 498.616 519.049 498.609 519C498.609 518.853 498.315 515.443 496.948 514.326C496.787 514.184 496.598 514.079 496.392 514.018C496.186 513.957 495.97 513.941 495.758 513.973C495.55 513.972 495.348 514.044 495.188 514.175C495.027 514.307 494.916 514.49 494.875 514.693C494.626 516.016 496.978 518.604 498.198 519.265L498.33 519.25ZM495.934 514.502C496.173 514.5 496.405 514.59 496.581 514.752C497.411 515.811 497.899 517.098 497.977 518.442C496.757 517.516 495.258 515.502 495.405 514.796C495.405 514.723 495.405 514.546 495.816 514.502H495.934Z" fill="#ECE2B2"/>
<path d="M394.695 505.565C394.746 505.558 394.795 505.539 394.836 505.508C394.877 505.477 394.91 505.436 394.93 505.388C394.951 505.335 394.955 505.278 394.942 505.222C394.928 505.167 394.899 505.117 394.857 505.079C394.416 504.668 390.447 501.111 388.859 501.507C388.711 501.546 388.575 501.621 388.465 501.727C388.354 501.832 388.272 501.964 388.227 502.11C388.13 502.349 388.093 502.607 388.119 502.863C388.145 503.119 388.232 503.365 388.374 503.58C389.329 505.05 392.71 505.447 394.651 505.579L394.695 505.565ZM389.109 502.037C390.05 502.037 392.269 503.58 393.857 504.977C391.226 504.712 389.374 504.109 388.844 503.301C388.751 503.162 388.694 503.001 388.678 502.834C388.663 502.667 388.69 502.499 388.756 502.345C388.768 502.286 388.796 502.231 388.838 502.187C388.879 502.142 388.933 502.111 388.991 502.095L389.109 502.037Z" fill="#ECE2B2"/>
<path d="M394.695 505.562H394.769C394.813 505.546 394.853 505.518 394.883 505.482C394.914 505.446 394.935 505.403 394.945 505.356C394.945 505.224 395.489 502.063 394.357 500.491C394.199 500.259 393.994 500.062 393.756 499.913C393.519 499.764 393.253 499.665 392.975 499.623C392.211 499.506 391.902 499.814 391.77 500.108C391.211 501.343 393.24 504.518 394.489 505.518C394.552 505.553 394.624 505.569 394.695 505.562ZM392.593 500.123H392.887C393.092 500.153 393.289 500.226 393.463 500.338C393.638 500.449 393.787 500.597 393.901 500.77C394.479 501.987 394.673 503.35 394.46 504.68C393.284 503.46 391.946 501.034 392.284 500.27C392.299 500.255 392.358 500.138 392.593 500.123Z" fill="#ECE2B2"/>
<path d="M519.513 165.934C521.218 173.592 522.659 181.207 523.923 188.91C525.187 196.612 526.319 204.33 527.201 212.15L527.51 215.09L527.686 216.913C527.821 218.341 527.691 219.781 527.304 221.161C526.78 223.081 525.725 224.813 524.261 226.159C523.036 227.26 521.579 228.069 519.998 228.526C518.159 229.044 516.237 229.199 514.338 228.982C511.873 228.711 509.446 228.158 507.106 227.335C505.004 226.615 503.063 225.865 501.226 224.969C497.537 223.284 493.94 221.405 490.451 219.339C486.996 217.295 483.689 215.193 480.396 212.797L484.586 204.991C491.715 207.461 498.977 210.107 505.945 212.018C507.679 212.503 509.399 212.915 511.031 213.209C512.395 213.52 513.792 213.668 515.191 213.65C515.617 213.65 515.955 213.459 515.279 213.576C514.62 213.746 514.017 214.086 513.53 214.561C512.767 215.238 512.207 216.113 511.913 217.09C511.789 217.536 511.715 217.994 511.692 218.457C511.692 218.707 511.692 218.31 511.619 218.104L511.487 217.398L510.957 214.605C509.517 207.138 508.047 199.646 506.547 192.129C505.077 184.617 503.519 177.061 502.137 169.579L519.513 165.934Z" fill="#FF8B7B"/>
<path d="M520.38 159.716C528.083 167.963 528.774 193.291 528.774 193.291L506.474 203.801C506.474 203.801 499.241 187.705 499.006 173.137C498.771 156.614 512.662 151.411 520.38 159.716Z" fill="#ECE2B2"/>
<path opacity="0.2" d="M520.38 159.716C528.083 167.963 528.774 193.291 528.774 193.291L506.474 203.801C506.474 203.801 499.241 187.705 499.006 173.137C498.771 156.614 512.662 151.411 520.38 159.716Z" fill="black"/>
<path d="M440.441 190.499C440.314 190.498 440.188 190.468 440.074 190.411C439.906 190.31 439.784 190.147 439.735 189.957C439.685 189.768 439.712 189.566 439.809 189.396L451.569 169.096C451.676 168.949 451.834 168.846 452.012 168.809C452.19 168.771 452.376 168.801 452.533 168.893C452.69 168.984 452.808 169.131 452.864 169.304C452.919 169.477 452.908 169.665 452.833 169.831L441.147 190.131C441.076 190.253 440.972 190.351 440.847 190.416C440.722 190.481 440.582 190.51 440.441 190.499Z" fill="#263238"/>
<path d="M476.927 246.959L432.489 240.491C431.577 240.353 430.737 239.915 430.101 239.247C429.465 238.579 429.069 237.719 428.975 236.801L426.035 175.458C426.014 175.049 426.087 174.641 426.25 174.265C426.413 173.889 426.661 173.556 426.975 173.293C427.288 173.029 427.659 172.842 428.057 172.746C428.455 172.65 428.87 172.647 429.269 172.739L473.708 179.192C474.62 179.338 475.46 179.779 476.097 180.449C476.734 181.118 477.134 181.978 477.236 182.897L480.102 244.24C480.122 244.643 480.049 245.045 479.889 245.415C479.729 245.786 479.487 246.115 479.18 246.377C478.874 246.639 478.512 246.828 478.121 246.929C477.73 247.03 477.322 247.04 476.927 246.959Z" fill="white"/>
<path d="M475.927 247.579L431.489 241.082C430.576 240.944 429.734 240.507 429.095 239.839C428.457 239.171 428.058 238.311 427.961 237.392L425.095 176.049C425.07 175.64 425.142 175.232 425.303 174.856C425.464 174.48 425.711 174.147 426.023 173.883C426.336 173.619 426.706 173.431 427.103 173.335C427.501 173.239 427.915 173.237 428.314 173.329L472.752 179.783C473.668 179.921 474.511 180.361 475.15 181.031C475.789 181.702 476.186 182.566 476.28 183.487L479.22 244.815C479.255 245.235 479.189 245.657 479.027 246.046C478.865 246.435 478.612 246.779 478.289 247.05C477.967 247.321 477.584 247.51 477.173 247.602C476.762 247.694 476.335 247.686 475.927 247.579Z" fill="#263238"/>
<path d="M485.438 205.212L474.986 199.332L473.766 214.355C473.766 214.355 483.762 217.384 485.953 212.253L485.438 205.212Z" fill="#FF8B7B"/>
<path d="M463.344 202.023L464.814 213.254L473.766 214.371L474.986 199.348L463.344 202.023Z" fill="#FF8B7B"/>
</svg>
