<svg width="736" height="548" viewBox="0 0 736 548" fill="none" xmlns="http://www.w3.org/2000/svg">
<path d="M735.454 481.574H0V481.942H735.454V481.574Z" fill="#EBEBEB"/>
<path d="M348.605 415.973H64.5875C62.3626 415.969 60.2301 415.082 58.6581 413.507C57.0862 411.933 56.2034 409.799 56.2034 407.574V8.32534C56.2227 6.11313 57.1141 3.99789 58.684 2.43909C60.2538 0.880277 62.3753 0.00378963 64.5875 0H348.605C350.833 0 352.969 0.88488 354.544 2.45998C356.119 4.03507 357.004 6.17136 357.004 8.39888V407.574C357.004 409.801 356.119 411.938 354.544 413.513C352.969 415.088 350.833 415.973 348.605 415.973ZM64.5875 0.294183C62.4601 0.298079 60.4211 1.14593 58.9182 2.65164C57.4152 4.15736 56.5711 6.19789 56.5711 8.32534V407.574C56.5711 409.701 57.4152 411.742 58.9182 413.247C60.4211 414.753 62.4601 415.601 64.5875 415.605H348.605C350.734 415.601 352.774 414.754 354.28 413.248C355.785 411.743 356.632 409.703 356.636 407.574V8.32534C356.632 6.19654 355.785 4.15604 354.28 2.65075C352.774 1.14545 350.734 0.298071 348.605 0.294183H64.5875Z" fill="#EBEBEB"/>
<path d="M666.777 415.973H382.745C380.518 415.969 378.384 415.083 376.81 413.508C375.236 411.934 374.35 409.8 374.346 407.574V8.32534C374.369 6.11179 375.264 3.99657 376.836 2.43817C378.408 0.879762 380.531 0.0037483 382.745 0H666.777C668.987 0.00765533 671.104 0.885853 672.671 2.44425C674.238 4.00264 675.127 6.11567 675.147 8.32534V407.574C675.147 409.796 674.266 411.928 672.697 413.502C671.128 415.076 668.999 415.965 666.777 415.973ZM382.745 0.294183C380.616 0.298071 378.576 1.14545 377.07 2.65075C375.565 4.15604 374.718 6.19654 374.714 8.32534V407.574C374.718 409.703 375.565 411.743 377.07 413.248C378.576 414.754 380.616 415.601 382.745 415.605H666.777C668.906 415.601 670.946 414.754 672.452 413.248C673.957 411.743 674.804 409.703 674.808 407.574V8.32534C674.804 6.19654 673.957 4.15604 672.452 2.65075C670.946 1.14545 668.906 0.298071 666.777 0.294183H382.745Z" fill="#EBEBEB"/>
<path d="M661.761 495.578H615.325V495.946H661.761V495.578Z" fill="#EBEBEB"/>
<path d="M493.254 491.594H444.111V491.961H493.254V491.594Z" fill="#EBEBEB"/>
<path d="M675.176 509.242H583.347V509.61H675.176V509.242Z" fill="#EBEBEB"/>
<path d="M105.449 506.773H77.1638V507.141H105.449V506.773Z" fill="#EBEBEB"/>
<path d="M163.109 506.773H118.555V507.141H163.109V506.773Z" fill="#EBEBEB"/>
<path d="M359.107 500.562H278.855V500.93H359.107V500.562Z" fill="#EBEBEB"/>
<path d="M671.396 294.533C656.481 288.282 631.769 294.312 611.294 319.141C601.836 330.614 592.717 347.442 590.26 364.666C590.422 345.015 590.628 323.907 590.819 303.976C593.077 294.201 596.633 284.772 601.395 275.941C616.413 245.758 628.828 249.097 649.229 225.474C683.163 186.171 702.608 112.023 668.851 141.632C638.241 168.403 623.429 195.203 613.148 218.458C599.233 249.891 593.644 271.822 590.922 293.827C591.114 275.117 591.29 257.937 591.452 244.684C591.981 201.454 593.158 187.554 593.379 183.259C593.908 172.86 597.336 166.8 598.292 165.314C606.337 152.679 618.973 144.412 631.343 130.012C660.187 96.4902 676.838 54.9959 662.938 51.0833C648.42 47.0677 629.342 65.3657 608.147 108.331C595.997 132.954 592.893 138.779 590.496 187.024C590.29 191.217 589.363 207.014 588.922 228.96C585.495 205.352 578.979 181.891 567.609 166.344C545.677 136.352 528.997 133.483 516.847 136.352C504.698 139.22 509.787 170.712 523.496 187.539C544.089 212.868 578.508 207.485 588.701 241.183C588.186 270.94 587.819 308.624 587.613 343.72C584.141 325.599 580.508 310.522 572.536 296.328C557.709 269.94 539.47 258.422 526.938 270.852C519.127 278.588 528.188 300.27 544.515 309.095C561.092 318.126 574.698 330.614 579.964 338.131C581.185 339.881 585.259 346.589 587.583 350.457C587.363 393.305 587.392 431.122 587.76 444.021L589.834 444.213C589.702 440.888 589.834 419.09 590.01 390.245C593.629 354.252 619.046 352.296 635.3 345.441C664.35 333.159 686.311 300.799 671.396 294.533Z" fill="#E6E6E6"/>
<path d="M567.77 481.573H610.632C611.686 481.635 612.73 481.347 613.603 480.754C614.476 480.161 615.128 479.295 615.457 478.293L618.516 425.09H559.916L562.946 478.248C563.269 479.258 563.918 480.132 564.791 480.733C565.664 481.335 566.712 481.63 567.77 481.573Z" fill="#E6E6E6"/>
<path d="M560.989 443.229H617.443C618.796 443.229 619.929 441.449 620.09 439.095L621.238 421.15C621.414 418.385 620.179 415.973 618.605 415.973H559.768C558.18 415.973 556.944 418.385 557.136 421.15L558.283 439.095C558.489 441.449 559.636 443.229 560.989 443.229Z" fill="#F5F5F5"/>
<path d="M273.589 366.945H217.944V471.836H273.589V366.945Z" fill="#F0F0F0"/>
<path d="M503.065 471.84H228.638V481.577H503.065V471.84Z" fill="#F0F0F0"/>
<path d="M273.589 471.824L513.744 471.824V366.934H273.589V471.824Z" fill="#FAFAFA"/>
<path d="M295.476 411.988H491.871V379.717H295.476V411.988Z" fill="#F0F0F0"/>
<path d="M295.476 453.453H491.871V421.181H295.476V453.453Z" fill="#F0F0F0"/>
<path d="M417.767 375.699H369.58C367.712 375.699 366.197 377.214 366.197 379.082V379.229C366.197 381.098 367.712 382.612 369.58 382.612H417.767C419.635 382.612 421.15 381.098 421.15 379.229V379.082C421.15 377.214 419.635 375.699 417.767 375.699Z" fill="#FAFAFA"/>
<path d="M417.767 417.164H369.58C367.712 417.164 366.197 418.679 366.197 420.547V420.694C366.197 422.563 367.712 424.077 369.58 424.077H417.767C419.635 424.077 421.15 422.563 421.15 420.694V420.547C421.15 418.679 419.635 417.164 417.767 417.164Z" fill="#FAFAFA"/>
<path d="M521.172 357.535H273.603V366.934H521.172V357.535Z" fill="#F0F0F0"/>
<path d="M210.163 366.945H273.589V357.546H210.163V366.945Z" fill="#E6E6E6"/>
<path d="M164.506 399.32C158.152 395.996 147.003 397.717 137.015 407.91C131.715 413.272 127.916 419.932 125.998 427.223C126.807 418.559 127.704 409.234 128.543 400.438C129.914 396.205 131.843 392.174 134.279 388.45C142.06 375.682 147.429 377.624 157.328 367.96C173.832 351.883 185.276 319.847 169.198 331.629C157.694 339.98 148.271 350.873 141.663 363.459C134.309 376.83 131.014 386.302 128.969 395.922C129.763 387.67 130.44 380.08 131.073 374.226C132.955 355.104 134.014 349.044 134.264 347.162C134.541 344.377 135.523 341.709 137.118 339.41C141.207 334.129 147.091 330.952 153.063 325.069C167.08 311.345 176.009 293.621 170.022 291.385C163.756 289.061 154.622 296.43 143.634 314.596C137.324 325.024 135.735 327.481 132.823 348.706C132.558 350.559 131.558 357.531 130.528 367.181C129.911 356.62 127.925 346.014 123.483 338.704C114.937 324.613 107.67 322.715 102.199 323.598C96.7269 324.48 97.7859 338.513 103.184 346.47C111.348 358.443 126.719 357.37 129.969 372.652C128.616 385.773 127.028 402.424 125.557 417.927C124.718 409.778 123.689 402.983 120.703 396.408C115.157 384.184 107.465 378.404 101.581 383.419C97.8448 386.538 101.022 396.452 107.906 401.07C114.79 405.689 120.423 411.72 122.468 415.25C122.938 416.059 124.483 419.192 125.41 420.986C123.556 439.799 122.174 456.494 121.85 462.201L122.806 462.334C122.88 460.863 123.747 451.243 124.939 438.505C127.881 422.722 139.207 422.825 146.649 420.413C159.932 416.118 170.861 402.644 164.506 399.32Z" fill="#F0F0F0"/>
<path d="M66.1026 366.549C74.325 362.842 88.1663 365.828 99.9335 379.375C106.187 386.482 110.467 395.104 112.348 404.381C111.951 393.423 111.539 381.655 111.127 370.55C109.721 365.134 107.599 359.93 104.817 355.076C95.9915 338.469 89.1076 340.514 77.3845 327.644C57.8656 306.227 45.9071 265.174 65.1907 281.148C79.0083 292.495 90.0302 306.869 97.4035 323.157C105.626 340.485 109.068 352.575 110.921 364.858C110.539 354.429 110.171 344.853 109.877 337.455C108.95 313.361 108.082 305.624 107.891 303.227C107.756 299.723 106.744 296.31 104.949 293.298C100.272 286.37 93.182 281.957 85.9746 274.103C69.3975 255.834 59.4983 232.917 67.1764 230.564C75.2223 228.107 86.1364 238.021 98.595 261.659C105.744 275.22 107.553 278.412 109.641 305.286C109.833 307.625 110.568 316.421 111.112 328.659C112.672 315.42 115.952 302.27 122.071 293.357C133.838 276.294 143.105 274.456 149.915 275.868C156.725 277.28 154.328 294.989 146.973 304.521C135.853 318.951 116.599 316.45 111.421 335.41C112.142 351.987 112.892 373.006 113.554 392.569C115.216 382.42 117.025 373.948 121.247 365.917C129.131 350.972 139.133 344.28 146.252 351.031C150.665 355.223 146.002 367.446 137.015 372.653C128.028 377.86 120.614 385.23 117.79 389.495C117.128 390.481 114.966 394.29 113.731 396.482C114.495 420.37 115.04 441.462 115.025 448.655L113.804 448.758C113.804 446.905 113.451 434.755 112.892 418.663C110.318 398.615 96.1386 397.938 86.9748 394.364C70.6036 387.98 57.8803 370.256 66.1026 366.549Z" fill="#E6E6E6"/>
<path d="M100.89 481.572H138.912C139.852 481.622 140.782 481.361 141.559 480.829C142.335 480.297 142.915 479.524 143.208 478.63L145.899 431.473H93.9027L96.6092 478.63C96.8971 479.524 97.4734 480.298 98.2478 480.831C99.0223 481.363 99.9512 481.623 100.89 481.572Z" fill="#E6E6E6"/>
<path d="M94.8588 447.568H144.943C146.149 447.568 147.15 445.98 147.297 443.891L148.312 427.976C148.473 425.52 147.385 423.387 145.973 423.387H93.8439C92.373 423.387 91.3433 425.52 91.4904 427.976L92.5201 443.891C92.6671 445.98 93.6674 447.568 94.8588 447.568Z" fill="#F5F5F5"/>
<path d="M401.896 36.5664H88.5339V213.752H401.896V36.5664Z" fill="#E6E6E6"/>
<path d="M411.692 36.5664H90.196V213.752H411.692V36.5664Z" fill="#F5F5F5"/>
<path d="M403.867 199.792V50.539C403.867 47.1434 401.114 44.3906 397.719 44.3906L104.155 44.3906C100.759 44.3906 98.0066 47.1434 98.0066 50.539V199.792C98.0066 203.188 100.759 205.94 104.155 205.94L397.719 205.94C401.114 205.94 403.867 203.188 403.867 199.792Z" fill="white"/>
<path d="M367.727 547.997C525.235 547.997 652.921 540.542 652.921 531.346C652.921 522.15 525.235 514.695 367.727 514.695C210.218 514.695 82.5326 522.15 82.5326 531.346C82.5326 540.542 210.218 547.997 367.727 547.997Z" fill="#F5F5F5"/>
<path d="M591.172 378.623H555.871V377.152H591.172C595.324 377.067 599.38 375.884 602.927 373.724C606.474 371.565 609.386 368.505 611.368 364.855L612.662 365.562C610.553 369.443 607.454 372.696 603.679 374.99C599.904 377.285 595.589 378.538 591.172 378.623Z" fill="#ECE2B2"/>
<path d="M548.884 377.156H534.425V378.627H548.884V377.156Z" fill="#ECE2B2"/>
<path d="M591.172 373.477H178.142C175.877 373.521 173.629 373.082 171.547 372.191C169.465 371.299 167.597 369.974 166.066 368.305C164.536 366.635 163.378 364.659 162.67 362.507C161.963 360.356 161.721 358.078 161.962 355.826L184.275 99.888C184.774 95.125 186.99 90.7066 190.509 87.4583C194.028 84.21 198.609 82.354 203.397 82.2371H616.428C618.692 82.1954 620.939 82.6354 623.019 83.5279C625.1 84.4205 626.968 85.7453 628.498 87.4144C630.028 89.0835 631.185 91.0587 631.894 93.2092C632.602 95.3597 632.846 97.6363 632.608 99.888L610.426 355.826C609.925 360.611 607.69 365.047 604.143 368.299C600.596 371.55 595.983 373.392 591.172 373.477Z" fill="#ECE2B2"/>
<path d="M582.568 368.109H179.833C177.905 368.138 175.993 367.755 174.223 366.988C172.454 366.221 170.869 365.085 169.572 363.658C168.275 362.231 167.297 360.543 166.703 358.709C166.108 356.874 165.911 354.934 166.124 353.018L186.452 119.864C186.574 118.696 187.117 117.612 187.981 116.815C188.845 116.019 189.97 115.566 191.144 115.54H615.31C615.863 115.53 616.413 115.638 616.921 115.858C617.429 116.077 617.885 116.402 618.258 116.811C618.631 117.22 618.913 117.704 619.084 118.231C619.255 118.757 619.313 119.314 619.252 119.864L598.909 353.018C598.497 357.094 596.608 360.88 593.598 363.66C590.587 366.44 586.664 368.022 582.568 368.109Z" fill="white"/>
<path d="M231.168 103.934C228.389 103.981 225.633 103.437 223.081 102.337C220.529 101.238 218.24 99.608 216.366 97.5561C214.492 95.5042 213.076 93.0771 212.212 90.4361C211.348 87.7951 211.056 85.0005 211.355 82.2378C211.959 76.3745 214.685 70.9339 219.018 66.9386C223.352 62.9434 228.996 60.6686 234.889 60.5419C237.667 60.4943 240.423 61.0384 242.974 62.1381C245.526 63.2378 247.814 64.8679 249.687 66.9201C251.559 68.9723 252.974 71.3996 253.836 74.0406C254.698 76.6816 254.989 79.4759 254.688 82.2378H245.862C246.04 80.5977 245.866 78.9385 245.353 77.3707C244.84 75.8028 243.999 74.3622 242.886 73.1446C241.772 71.9271 240.413 70.9605 238.897 70.3092C237.381 69.658 235.744 69.3369 234.095 69.3674C230.591 69.4316 227.233 70.7763 224.653 73.1474C222.073 75.5186 220.451 78.7522 220.092 82.2378C219.914 83.8779 220.088 85.5371 220.601 87.105C221.114 88.6728 221.955 90.1135 223.068 91.331C224.181 92.5485 225.541 93.5151 227.057 94.1664C228.573 94.8177 230.21 95.1388 231.859 95.1083L231.168 103.934Z" fill="#263238"/>
<path d="M318.466 103.934C315.683 103.99 312.92 103.452 310.361 102.356C307.801 101.26 305.505 99.6314 303.625 97.5785C301.745 95.5257 300.323 93.0957 299.456 90.4504C298.589 87.8052 298.295 85.0055 298.594 82.2378C299.199 76.3745 301.924 70.9339 306.258 66.9386C310.592 62.9434 316.236 60.6686 322.129 60.5419C324.906 60.4943 327.663 61.0384 330.214 62.1381C332.765 63.2378 335.053 64.8679 336.926 66.9201C338.799 68.9723 340.213 71.3996 341.075 74.0406C341.938 76.6816 342.228 79.4759 341.927 82.2378H333.102C333.279 80.5977 333.106 78.9385 332.593 77.3707C332.079 75.8028 331.238 74.3622 330.125 73.1446C329.012 71.9271 327.652 70.9605 326.137 70.3092C324.621 69.658 322.984 69.3369 321.334 69.3674C317.831 69.4316 314.472 70.7763 311.892 73.1474C309.313 75.5186 307.69 78.7522 307.331 82.2378C307.156 83.8775 307.331 85.5357 307.845 87.1025C308.359 88.6693 309.201 90.1089 310.313 91.3259C311.426 92.5429 312.785 93.5095 314.299 94.1616C315.814 94.8137 317.45 95.1364 319.099 95.1083L318.466 103.934Z" fill="#263238"/>
<path d="M405.764 103.934C402.987 103.979 400.232 103.433 397.682 102.333C395.132 101.232 392.845 99.6021 390.973 97.5505C389.1 95.4988 387.686 93.0725 386.823 90.4326C385.96 87.7926 385.667 84.9992 385.966 82.2378C386.565 76.3721 389.288 70.9278 393.623 66.9314C397.958 62.9349 403.606 60.6623 409.501 60.5419C412.278 60.4943 415.035 61.0384 417.586 62.1381C420.137 63.2378 422.425 64.8679 424.298 66.9201C426.171 68.9723 427.585 71.3996 428.447 74.0406C429.31 76.6816 429.6 79.4759 429.299 82.2378H420.474C420.654 80.5972 420.482 78.9371 419.97 77.3682C419.457 75.7992 418.616 74.3576 417.503 73.1395C416.389 71.9214 415.028 70.9549 413.511 70.3044C411.995 69.654 410.356 69.3345 408.706 69.3674C405.204 69.432 401.848 70.7772 399.27 73.1486C396.693 75.5201 395.073 78.7535 394.718 82.2378C394.54 83.8779 394.714 85.5371 395.227 87.105C395.74 88.6728 396.581 90.1135 397.694 91.331C398.808 92.5486 400.167 93.5151 401.683 94.1664C403.199 94.8177 404.836 95.1388 406.485 95.1083L405.764 103.934Z" fill="#263238"/>
<path d="M493.063 103.934C490.286 103.979 487.531 103.433 484.98 102.333C482.43 101.232 480.143 99.6021 478.271 97.5504C476.399 95.4988 474.984 93.0725 474.121 90.4325C473.258 87.7925 472.966 84.9992 473.264 82.2378C473.866 76.3733 476.59 70.9308 480.925 66.935C485.259 62.9391 490.905 60.6654 496.799 60.5419C499.577 60.4945 502.334 61.0387 504.886 62.1382C507.438 63.2378 509.727 64.8676 511.601 66.9195C513.474 68.9714 514.89 71.3985 515.754 74.0395C516.618 76.6805 516.911 79.4751 516.612 82.2378H507.787C507.964 80.5977 507.791 78.9385 507.278 77.3706C506.764 75.8028 505.923 74.3621 504.81 73.1446C503.697 71.9271 502.337 70.9605 500.822 70.3092C499.306 69.6579 497.669 69.3369 496.019 69.3674C492.518 69.432 489.161 70.7771 486.583 73.1486C484.006 75.52 482.386 78.7535 482.031 82.2378C481.853 83.8779 482.027 85.5371 482.54 87.1049C483.053 88.6728 483.894 90.1134 485.007 91.331C486.121 92.5485 487.48 93.5151 488.996 94.1664C490.512 94.8176 492.149 95.1387 493.798 95.1082L493.063 103.934Z" fill="#263238"/>
<path d="M580.361 103.934C577.584 103.979 574.829 103.433 572.279 102.333C569.729 101.232 567.442 99.6021 565.569 97.5504C563.697 95.4988 562.282 93.0725 561.419 90.4325C560.556 87.7925 560.264 84.9992 560.563 82.2378C561.164 76.3733 563.889 70.9308 568.223 66.935C572.558 62.9391 578.203 60.6654 584.097 60.5419C586.876 60.4945 589.632 61.0387 592.184 62.1382C594.736 63.2378 597.025 64.8676 598.899 66.9195C600.773 68.9714 602.189 71.3985 603.053 74.0395C603.917 76.6805 604.209 79.4751 603.91 82.2378H595.085C595.263 80.5977 595.089 78.9385 594.576 77.3706C594.063 75.8028 593.222 74.3621 592.108 73.1446C590.995 71.9271 589.636 70.9605 588.12 70.3092C586.604 69.6579 584.967 69.3369 583.318 69.3674C579.817 69.4351 576.462 70.7814 573.885 73.1522C571.308 75.523 569.688 78.7547 569.329 82.2378C569.152 83.8779 569.325 85.5371 569.838 87.1049C570.351 88.6728 571.193 90.1134 572.306 91.331C573.419 92.5485 574.779 93.5151 576.294 94.1664C577.81 94.8176 579.447 95.1387 581.097 95.1082L580.361 103.934Z" fill="#263238"/>
<path d="M581.508 357.532H183.378C183.284 357.535 183.19 357.517 183.103 357.481C183.017 357.444 182.939 357.388 182.876 357.318C182.813 357.248 182.766 357.165 182.738 357.075C182.711 356.985 182.703 356.89 182.716 356.797L202.559 129.306C202.577 129.107 202.668 128.922 202.815 128.786C202.961 128.65 203.153 128.573 203.353 128.571H601.469C601.563 128.568 601.658 128.586 601.745 128.622C601.832 128.659 601.91 128.714 601.975 128.784C602.039 128.854 602.087 128.936 602.117 129.027C602.146 129.117 602.156 129.212 602.145 129.306L582.303 356.797C582.285 356.996 582.193 357.181 582.047 357.317C581.9 357.452 581.708 357.529 581.508 357.532ZM184.246 356.061H580.891L600.616 130.041H203.971L184.246 356.061Z" fill="#E0E0E0"/>
<path d="M585.421 312.038H187.349C187.256 312.038 187.163 312.019 187.078 311.981C186.992 311.943 186.916 311.888 186.853 311.818C186.791 311.749 186.744 311.667 186.715 311.578C186.686 311.489 186.677 311.395 186.687 311.302C186.702 311.102 186.793 310.915 186.94 310.778C187.087 310.642 187.281 310.566 187.482 310.567H585.597C585.692 310.564 585.786 310.582 585.874 310.618C585.961 310.655 586.039 310.71 586.103 310.78C586.168 310.85 586.216 310.933 586.245 311.023C586.275 311.113 586.285 311.208 586.274 311.302C586.249 311.509 586.147 311.698 585.989 311.834C585.832 311.97 585.629 312.043 585.421 312.038Z" fill="#E0E0E0"/>
<path d="M589.437 266.541H191.321C191.227 266.542 191.134 266.523 191.048 266.485C190.961 266.447 190.884 266.392 190.82 266.323C190.757 266.254 190.708 266.172 190.678 266.083C190.648 265.994 190.636 265.9 190.644 265.806C190.666 265.606 190.76 265.42 190.909 265.285C191.058 265.149 191.252 265.073 191.453 265.071H589.569C589.664 265.068 589.758 265.086 589.845 265.122C589.933 265.159 590.011 265.214 590.075 265.284C590.139 265.354 590.188 265.436 590.217 265.527C590.247 265.617 590.256 265.712 590.246 265.806C590.221 266.005 590.126 266.189 589.978 266.324C589.829 266.459 589.637 266.536 589.437 266.541Z" fill="#E0E0E0"/>
<path d="M593.408 221.033H195.292C195.198 221.036 195.103 221.018 195.016 220.982C194.929 220.945 194.851 220.89 194.786 220.82C194.722 220.75 194.674 220.668 194.644 220.577C194.615 220.487 194.605 220.392 194.616 220.298C194.64 220.099 194.735 219.915 194.884 219.78C195.032 219.645 195.224 219.568 195.425 219.563H593.54C593.634 219.562 593.726 219.581 593.812 219.619C593.897 219.657 593.974 219.712 594.037 219.782C594.099 219.851 594.146 219.933 594.175 220.022C594.203 220.111 594.213 220.205 594.202 220.298C594.187 220.498 594.097 220.685 593.95 220.822C593.803 220.958 593.609 221.034 593.408 221.033Z" fill="#E0E0E0"/>
<path d="M597.38 175.538H199.264C199.169 175.54 199.075 175.523 198.988 175.486C198.9 175.449 198.822 175.394 198.758 175.324C198.694 175.254 198.645 175.172 198.616 175.082C198.586 174.992 198.577 174.896 198.587 174.802C198.605 174.603 198.696 174.418 198.843 174.282C198.99 174.146 199.182 174.07 199.381 174.067H597.512C597.606 174.064 597.7 174.081 597.786 174.118C597.873 174.155 597.951 174.211 598.014 174.281C598.077 174.351 598.124 174.434 598.151 174.524C598.179 174.614 598.187 174.709 598.174 174.802C598.159 175.002 598.069 175.19 597.921 175.326C597.774 175.463 597.58 175.538 597.38 175.538Z" fill="#E0E0E0"/>
<path d="M531.733 357.532C531.639 357.535 531.545 357.517 531.458 357.481C531.372 357.444 531.294 357.388 531.231 357.318C531.168 357.248 531.121 357.165 531.093 357.075C531.066 356.985 531.058 356.89 531.071 356.797L550.914 129.306C550.932 129.107 551.023 128.922 551.17 128.786C551.316 128.65 551.508 128.573 551.708 128.571C551.803 128.568 551.897 128.586 551.984 128.622C552.071 128.659 552.15 128.714 552.214 128.784C552.278 128.854 552.326 128.936 552.356 129.027C552.385 129.117 552.395 129.212 552.385 129.306L532.542 356.797C532.52 356.997 532.426 357.182 532.277 357.318C532.128 357.453 531.934 357.53 531.733 357.532Z" fill="#E0E0E0"/>
<path d="M481.972 357.532C481.877 357.535 481.783 357.517 481.696 357.48C481.609 357.443 481.53 357.388 481.466 357.319C481.402 357.249 481.354 357.166 481.324 357.076C481.295 356.986 481.285 356.891 481.296 356.797L501.138 129.306C501.16 129.106 501.254 128.92 501.403 128.785C501.552 128.649 501.746 128.573 501.947 128.571C502.041 128.568 502.135 128.585 502.222 128.622C502.308 128.659 502.386 128.715 502.449 128.785C502.512 128.855 502.559 128.938 502.587 129.028C502.614 129.118 502.622 129.213 502.609 129.306L482.766 356.797C482.752 356.997 482.661 357.184 482.514 357.321C482.367 357.457 482.173 357.533 481.972 357.532Z" fill="#E0E0E0"/>
<path d="M432.211 357.532C432.117 357.535 432.023 357.517 431.935 357.48C431.848 357.443 431.77 357.388 431.705 357.319C431.641 357.249 431.593 357.166 431.563 357.076C431.534 356.986 431.524 356.891 431.535 356.797L451.377 129.306C451.399 129.106 451.493 128.92 451.642 128.785C451.791 128.649 451.985 128.573 452.186 128.571C452.281 128.568 452.374 128.585 452.461 128.622C452.548 128.659 452.625 128.715 452.688 128.785C452.751 128.855 452.798 128.938 452.826 129.028C452.853 129.118 452.861 129.213 452.848 129.306L433.006 356.797C432.988 356.996 432.896 357.181 432.75 357.317C432.603 357.453 432.411 357.529 432.211 357.532Z" fill="#E0E0E0"/>
<path d="M382.436 357.532C382.341 357.535 382.247 357.517 382.16 357.48C382.072 357.443 381.994 357.388 381.93 357.319C381.866 357.249 381.817 357.166 381.788 357.076C381.758 356.986 381.749 356.891 381.759 356.797L401.558 129.306C401.576 129.107 401.667 128.922 401.814 128.786C401.96 128.65 402.152 128.573 402.352 128.571C402.447 128.568 402.541 128.586 402.628 128.622C402.715 128.659 402.794 128.714 402.858 128.784C402.922 128.854 402.97 128.936 403 129.027C403.029 129.117 403.039 129.212 403.029 129.306L383.245 356.797C383.226 356.998 383.133 357.186 382.983 357.322C382.834 357.458 382.638 357.533 382.436 357.532Z" fill="#E0E0E0"/>
<path d="M332.675 357.532C332.581 357.535 332.487 357.517 332.4 357.481C332.314 357.444 332.236 357.388 332.173 357.318C332.11 357.248 332.063 357.165 332.035 357.075C332.008 356.985 332 356.89 332.013 356.797L351.856 129.306C351.87 129.106 351.961 128.919 352.108 128.782C352.255 128.646 352.449 128.57 352.65 128.571C352.745 128.568 352.839 128.586 352.926 128.622C353.013 128.659 353.092 128.714 353.156 128.784C353.22 128.854 353.268 128.936 353.298 129.027C353.327 129.117 353.337 129.212 353.327 129.306L333.484 356.797C333.462 356.997 333.368 357.182 333.219 357.318C333.07 357.453 332.876 357.53 332.675 357.532Z" fill="#E0E0E0"/>
<path d="M282.914 357.532C282.82 357.535 282.725 357.517 282.638 357.48C282.551 357.443 282.472 357.388 282.408 357.319C282.344 357.249 282.296 357.166 282.266 357.076C282.237 356.986 282.227 356.891 282.238 356.797L302.08 129.306C302.102 129.106 302.196 128.92 302.345 128.785C302.494 128.649 302.688 128.573 302.889 128.571C302.983 128.568 303.077 128.585 303.164 128.622C303.25 128.659 303.328 128.715 303.391 128.785C303.454 128.855 303.501 128.938 303.529 129.028C303.556 129.118 303.564 129.213 303.551 129.306L283.709 356.797C283.694 356.997 283.603 357.184 283.456 357.321C283.309 357.457 283.115 357.533 282.914 357.532Z" fill="#E0E0E0"/>
<path d="M233.154 357.532C233.059 357.535 232.965 357.517 232.877 357.48C232.79 357.443 232.712 357.388 232.648 357.319C232.583 357.249 232.535 357.166 232.506 357.076C232.476 356.986 232.466 356.891 232.477 356.797L252.319 129.306C252.341 129.106 252.435 128.92 252.584 128.785C252.733 128.649 252.927 128.573 253.128 128.571C253.223 128.568 253.316 128.585 253.403 128.622C253.49 128.659 253.567 128.715 253.63 128.785C253.693 128.855 253.74 128.938 253.768 129.028C253.796 129.118 253.803 129.213 253.79 129.306L233.948 356.797C233.93 356.996 233.838 357.181 233.692 357.317C233.545 357.453 233.353 357.529 233.154 357.532Z" fill="#E0E0E0"/>
<path d="M434.903 215.753H404.499C403.897 215.763 403.3 215.645 402.748 215.406C402.195 215.167 401.7 214.813 401.295 214.368C400.89 213.923 400.584 213.396 400.399 212.823C400.213 212.251 400.152 211.645 400.219 211.047L402.573 184.055C402.698 182.782 403.288 181.599 404.229 180.731C405.17 179.863 406.397 179.371 407.677 179.349H438.08C438.683 179.336 439.282 179.453 439.836 179.691C440.391 179.929 440.888 180.283 441.295 180.728C441.701 181.174 442.008 181.701 442.194 182.275C442.381 182.849 442.442 183.456 442.375 184.055L440.022 211.047C439.895 212.323 439.304 213.508 438.36 214.376C437.416 215.244 436.185 215.734 434.903 215.753Z" fill="#ECE2B2"/>
<path opacity="0.6" d="M434.903 215.753H404.499C403.897 215.763 403.3 215.645 402.748 215.406C402.195 215.167 401.7 214.813 401.295 214.368C400.89 213.923 400.584 213.396 400.399 212.823C400.213 212.251 400.152 211.645 400.219 211.047L402.573 184.055C402.698 182.782 403.288 181.599 404.229 180.731C405.17 179.863 406.397 179.371 407.677 179.349H438.08C438.683 179.336 439.282 179.453 439.836 179.691C440.391 179.929 440.888 180.283 441.295 180.728C441.701 181.174 442.008 181.701 442.194 182.275C442.381 182.849 442.442 183.456 442.375 184.055L440.022 211.047C439.895 212.323 439.304 213.508 438.36 214.376C437.416 215.244 436.185 215.734 434.903 215.753Z" fill="white"/>
<path d="M647.037 215.753H615.075L618.237 179.348H650.214L638.197 197.557L647.037 215.753Z" fill="white"/>
<path d="M648.229 216.485H614.266L617.575 178.609H651.612L639.124 197.555L648.229 216.485ZM615.869 215.014H645.831L637.344 197.555L648.876 180.08H618.914L615.869 215.014Z" fill="#ECE2B2"/>
<path d="M530.174 261.25H499.77C499.168 261.262 498.571 261.146 498.018 260.908C497.465 260.671 496.968 260.319 496.562 259.875C496.155 259.431 495.848 258.906 495.661 258.334C495.474 257.762 495.41 257.156 495.475 256.558L497.829 229.552C497.961 228.28 498.555 227.1 499.498 226.236C500.441 225.371 501.668 224.882 502.947 224.86H533.351C533.952 224.85 534.548 224.969 535.1 225.206C535.653 225.444 536.148 225.797 536.554 226.24C536.96 226.684 537.267 227.208 537.455 227.779C537.643 228.35 537.709 228.954 537.646 229.552L535.293 256.558C535.16 257.83 534.566 259.01 533.623 259.875C532.68 260.739 531.453 261.228 530.174 261.25Z" fill="#ECE2B2"/>
<path opacity="0.4" d="M530.174 261.25H499.77C499.168 261.262 498.571 261.146 498.018 260.908C497.465 260.671 496.968 260.319 496.562 259.875C496.155 259.431 495.848 258.906 495.661 258.334C495.474 257.762 495.41 257.156 495.475 256.558L497.829 229.552C497.961 228.28 498.555 227.1 499.498 226.236C500.441 225.371 501.668 224.882 502.947 224.86H533.351C533.952 224.85 534.548 224.969 535.1 225.206C535.653 225.444 536.148 225.797 536.554 226.24C536.96 226.684 537.267 227.208 537.455 227.779C537.643 228.35 537.709 228.954 537.646 229.552L535.293 256.558C535.16 257.83 534.566 259.01 533.623 259.875C532.68 260.739 531.453 261.228 530.174 261.25Z" fill="white"/>
<path d="M588.436 170.257H507.713C507.11 170.269 506.511 170.152 505.957 169.914C505.402 169.676 504.905 169.323 504.499 168.877C504.092 168.432 503.785 167.904 503.599 167.33C503.413 166.757 503.351 166.15 503.418 165.55L505.772 138.559C505.898 137.285 506.487 136.102 507.428 135.234C508.369 134.367 509.596 133.875 510.876 133.852H591.614C592.216 133.842 592.814 133.961 593.367 134.2C593.92 134.438 594.416 134.792 594.822 135.237C595.229 135.682 595.536 136.209 595.723 136.781C595.91 137.354 595.973 137.96 595.909 138.559L593.555 165.55C593.429 166.826 592.837 168.012 591.893 168.88C590.949 169.748 589.719 170.238 588.436 170.257Z" fill="#ECE2B2"/>
<path d="M266.411 209.604C254.143 209.604 243.921 205.265 236.669 196.954C227.358 186.261 225.961 172.993 233.006 162.315C243.465 146.502 270.72 138.074 288.651 140.413C288.745 140.425 288.835 140.456 288.916 140.505C288.997 140.554 289.066 140.62 289.121 140.697C289.175 140.775 289.212 140.863 289.23 140.956C289.248 141.049 289.246 141.144 289.224 141.237C289.179 141.431 289.065 141.602 288.902 141.719C288.74 141.835 288.541 141.888 288.342 141.869C270.853 139.589 244.347 147.753 234.227 163.05C226.255 175.111 230.859 187.938 237.831 195.94C247.554 207.089 260.807 208.663 270.191 208.001C288.121 206.751 307.758 196.498 319.069 182.495C322.232 178.583 327.086 171.067 324.114 164.845C319.702 155.534 304.993 156.181 292.725 157.769C292.633 157.782 292.539 157.775 292.449 157.749C292.36 157.724 292.277 157.68 292.205 157.62C292.133 157.561 292.074 157.487 292.032 157.404C291.99 157.321 291.966 157.23 291.96 157.137C291.955 156.937 292.024 156.741 292.155 156.589C292.285 156.437 292.468 156.339 292.666 156.313C300.874 155.24 320.084 152.754 325.453 164.139C328.777 171.14 323.57 179.23 320.187 183.437C308.611 197.763 288.504 208.266 270.176 209.531C268.911 209.56 267.705 209.604 266.411 209.604Z" fill="#ECE2B2"/>
<path d="M511.876 253.143H511.758C511.528 253.127 511.306 253.051 511.115 252.922C510.924 252.793 510.77 252.615 510.67 252.408C509.154 248.939 507.071 245.748 504.506 242.964C504.218 242.678 504.055 242.288 504.053 241.881C504.052 241.474 504.212 241.083 504.499 240.795C504.786 240.506 505.176 240.343 505.582 240.342C505.989 240.34 506.38 240.501 506.669 240.787C509.027 243.253 510.979 246.078 512.449 249.157C517.504 243.966 522.979 239.204 528.821 234.918C529.124 234.683 529.509 234.575 529.891 234.619C530.273 234.663 530.623 234.855 530.865 235.154C530.978 235.316 531.056 235.499 531.096 235.692C531.136 235.885 531.137 236.085 531.099 236.278C531.06 236.472 530.984 236.655 530.873 236.819C530.762 236.982 530.619 237.121 530.453 237.228C524.187 241.809 518.361 246.965 513.052 252.628C512.902 252.79 512.72 252.92 512.518 253.009C512.315 253.097 512.097 253.143 511.876 253.143Z" fill="white"/>
<path d="M457.702 350.563C455.588 350.598 453.489 350.184 451.547 349.346C449.605 348.508 447.863 347.267 446.438 345.705C445.012 344.143 443.934 342.295 443.277 340.285C442.62 338.275 442.398 336.148 442.625 334.045C443.085 329.575 445.166 325.427 448.475 322.386C451.784 319.346 456.092 317.622 460.585 317.541C462.699 317.504 464.797 317.917 466.739 318.753C468.681 319.589 470.423 320.828 471.849 322.39C473.275 323.951 474.353 325.797 475.01 327.807C475.668 329.816 475.89 331.943 475.662 334.045C475.203 338.517 473.123 342.666 469.814 345.709C466.505 348.752 462.197 350.479 457.702 350.563ZM460.394 320.483C456.711 320.564 453.184 321.987 450.476 324.484C447.768 326.981 446.064 330.381 445.685 334.045C445.497 335.773 445.679 337.521 446.218 339.173C446.758 340.825 447.642 342.344 448.814 343.628C449.985 344.912 451.416 345.932 453.012 346.621C454.608 347.309 456.332 347.65 458.07 347.621C461.754 347.537 465.281 346.111 467.989 343.612C470.697 341.112 472.4 337.711 472.779 334.045C472.962 332.319 472.777 330.573 472.236 328.924C471.695 327.274 470.809 325.759 469.639 324.477C468.468 323.195 467.039 322.176 465.445 321.488C463.851 320.799 462.13 320.457 460.394 320.483Z" fill="#ECE2B2"/>
<path d="M316.245 259.394C314.13 259.429 312.032 259.014 310.09 258.177C308.148 257.339 306.406 256.098 304.98 254.536C303.554 252.974 302.477 251.126 301.82 249.116C301.163 247.106 300.941 244.979 301.168 242.876C301.629 238.394 303.717 234.237 307.038 231.192C310.359 228.148 314.682 226.428 319.187 226.358C321.302 226.322 323.4 226.737 325.342 227.575C327.284 228.412 329.026 229.653 330.451 231.216C331.877 232.778 332.955 234.625 333.612 236.636C334.269 238.646 334.491 240.773 334.264 242.876C333.8 247.356 331.71 251.512 328.39 254.556C325.07 257.599 320.749 259.321 316.245 259.394ZM318.863 229.299C315.178 229.381 311.649 230.805 308.941 233.305C306.232 235.805 304.53 239.209 304.154 242.876C303.966 244.604 304.148 246.352 304.687 248.004C305.227 249.656 306.111 251.175 307.283 252.459C308.454 253.743 309.885 254.763 311.481 255.452C313.077 256.14 314.801 256.481 316.539 256.452C320.223 256.368 323.75 254.942 326.458 252.443C329.167 249.943 330.87 246.542 331.248 242.876C331.434 241.151 331.251 239.406 330.712 237.757C330.174 236.108 329.291 234.592 328.124 233.309C326.956 232.026 325.53 231.005 323.938 230.314C322.347 229.623 320.627 229.277 318.893 229.299H318.863Z" fill="#ECE2B2"/>
<path opacity="0.1" d="M344.987 298.944H192.159C190.748 298.964 189.349 298.685 188.054 298.124C186.759 297.564 185.597 296.735 184.646 295.692C183.695 294.649 182.976 293.417 182.537 292.075C182.098 290.734 181.948 289.315 182.098 287.912C182.41 284.928 183.799 282.161 186.007 280.129C188.214 278.098 191.087 276.943 194.086 276.88H346.914C348.325 276.859 349.724 277.139 351.019 277.699C352.314 278.26 353.476 279.089 354.427 280.132C355.378 281.174 356.097 282.407 356.536 283.748C356.975 285.089 357.125 286.508 356.975 287.912C356.663 290.895 355.274 293.663 353.066 295.694C350.859 297.725 347.986 298.881 344.987 298.944Z" fill="black"/>
<path d="M141.781 263.895L147.517 266.351L139.824 275.779C138.48 273.437 137.433 270.937 136.706 268.337C136.598 267.956 136.568 267.558 136.617 267.165C136.666 266.772 136.795 266.394 136.994 266.052C137.193 265.71 137.459 265.412 137.776 265.175C138.093 264.938 138.455 264.768 138.839 264.674L141.781 263.895Z" fill="#FF8B7B"/>
<path d="M150.15 276.53L146.708 280.354C146.448 280.645 146.125 280.872 145.764 281.018C145.403 281.165 145.014 281.227 144.625 281.2C144.236 281.173 143.859 281.058 143.521 280.863C143.184 280.668 142.895 280.398 142.678 280.075L139.824 275.839L147.517 266.41L150.621 273.765C150.822 274.221 150.885 274.726 150.801 275.218C150.717 275.71 150.491 276.166 150.15 276.53Z" fill="#FF8B7B"/>
<path d="M352.488 295.24L153.548 279.471C152.143 279.378 150.773 278.989 149.528 278.329C148.284 277.669 147.193 276.754 146.328 275.642C145.463 274.531 144.842 273.249 144.507 271.881C144.172 270.513 144.13 269.09 144.384 267.704C144.931 264.754 146.536 262.106 148.898 260.256C151.26 258.406 154.216 257.482 157.211 257.658L356.151 273.411C357.557 273.502 358.928 273.89 360.174 274.549C361.419 275.208 362.511 276.124 363.377 277.236C364.243 278.348 364.863 279.63 365.197 280.999C365.531 282.369 365.571 283.793 365.315 285.179C364.768 288.13 363.163 290.78 360.802 292.632C358.441 294.484 355.485 295.412 352.488 295.24Z" fill="#ECE2B2"/>
<path d="M212.12 202.41C214.605 208.014 217.15 213.766 219.724 219.355C222.298 224.944 224.961 230.622 227.814 235.535C228.419 236.56 229.093 237.542 229.829 238.477C230.712 239.521 231.697 240.595 232.698 241.698C234.742 243.89 236.934 246.111 239.125 248.288C243.538 252.7 247.951 257.113 252.364 261.717L247.951 267.468C242.376 264.255 236.975 260.75 231.771 256.966C229.153 255.069 226.593 253.098 224.034 250.95C222.754 249.876 221.489 248.729 220.195 247.479C218.843 246.066 217.609 244.546 216.503 242.934C212.82 237.416 209.512 231.657 206.604 225.695C203.735 219.885 201.103 214.104 198.646 208.044L212.12 202.41Z" fill="#FF8B7B"/>
<path d="M163.477 201.515C160.138 206.972 156.711 212.459 153.283 217.886L143.061 234.184L141.81 236.214L141.663 236.479V236.596V236.684C141.59 236.797 141.526 236.915 141.472 237.037C141.13 238.025 140.922 239.054 140.854 240.097C140.686 242.943 140.77 245.797 141.104 248.628C141.737 254.63 142.928 260.969 144.193 267.103L137.368 269.633C134.253 263.596 131.788 257.245 130.014 250.687C129.046 247.168 128.469 243.552 128.293 239.906C128.19 237.701 128.398 235.492 128.91 233.345C129.116 232.698 129.278 232.11 129.558 231.419L130.014 230.418L130.205 230.021L130.337 229.756L131.47 227.535C134.412 221.652 137.662 215.945 140.942 210.296C144.223 204.648 147.635 199.103 151.239 193.602L163.477 201.515Z" fill="#FF8B7B"/>
<path d="M202.397 160.783C202.132 161.504 202.294 162.254 202.765 162.46C203.235 162.666 203.838 162.225 204.118 161.489C204.397 160.754 204.221 160.018 203.75 159.812C203.279 159.606 202.676 160.048 202.397 160.783Z" fill="#263238"/>
<path d="M202.22 162.238C202.252 164.841 202.628 167.427 203.338 169.931C202.703 170.082 202.043 170.091 201.405 169.956C200.766 169.821 200.166 169.546 199.646 169.152L202.22 162.238Z" fill="#FF5652"/>
<path d="M205.089 156.487C204.994 156.47 204.906 156.424 204.839 156.355C204.398 155.993 203.877 155.742 203.319 155.622C202.761 155.501 202.183 155.516 201.632 155.664C201.573 155.679 201.512 155.682 201.451 155.674C201.391 155.665 201.333 155.644 201.281 155.612C201.229 155.581 201.184 155.539 201.148 155.49C201.112 155.441 201.087 155.385 201.073 155.325C201.047 155.208 201.067 155.086 201.13 154.984C201.194 154.882 201.295 154.809 201.411 154.781C202.111 154.594 202.846 154.579 203.553 154.738C204.26 154.897 204.918 155.225 205.471 155.693C205.514 155.735 205.548 155.786 205.571 155.841C205.594 155.897 205.606 155.957 205.606 156.017C205.606 156.077 205.594 156.136 205.571 156.192C205.548 156.247 205.514 156.298 205.471 156.34C205.423 156.393 205.364 156.434 205.297 156.459C205.231 156.485 205.159 156.494 205.089 156.487Z" fill="#263238"/>
<path d="M175.582 162.227C174.656 170.14 176.171 180.113 170.758 184.084C170.758 184.084 171.89 191.439 184.908 193.454C199.22 195.572 192.527 187.32 192.527 187.32C184.923 184.275 185.761 178.495 187.717 173.214L175.582 162.227Z" fill="#FF8B7B"/>
<path d="M166.213 189.054C166.021 185.406 166.213 179.905 168.478 179.111C170.949 178.243 185.555 179.405 192.88 186.039C191.203 189.347 190.346 193.009 190.38 196.718L166.213 189.054Z" fill="#263238"/>
<path d="M121.453 517.126C120.129 517.016 118.839 516.647 117.658 516.037C117.617 516.017 117.582 515.986 117.559 515.947C117.535 515.908 117.524 515.862 117.526 515.817C117.529 515.774 117.545 515.733 117.571 515.699C117.597 515.665 117.632 515.64 117.673 515.626C117.805 515.626 120.747 514.449 122.085 515.081C122.23 515.15 122.358 515.249 122.462 515.371C122.565 515.492 122.643 515.634 122.688 515.787C122.771 515.967 122.794 516.167 122.754 516.36C122.714 516.553 122.614 516.729 122.468 516.861C122.174 517.071 121.812 517.165 121.453 517.126ZM118.349 515.861C119.702 516.464 121.629 516.935 122.144 516.508C122.144 516.508 122.35 516.346 122.144 515.92C122.115 515.827 122.068 515.742 122.005 515.668C121.941 515.595 121.864 515.535 121.776 515.493C120.622 515.289 119.434 515.416 118.349 515.861Z" fill="#ECE2B2"/>
<path d="M117.761 516.066C117.7 516.064 117.641 516.037 117.599 515.993C117.578 515.96 117.567 515.921 117.567 515.882C117.567 515.843 117.578 515.805 117.599 515.772C117.599 515.654 118.423 512.977 119.717 512.345C119.877 512.272 120.05 512.234 120.225 512.234C120.4 512.234 120.573 512.272 120.732 512.345C120.904 512.386 121.057 512.487 121.162 512.63C121.267 512.772 121.318 512.948 121.306 513.124C121.306 514.228 118.938 515.816 117.879 516.066H117.761ZM120.232 512.668C120.1 512.67 119.969 512.7 119.85 512.757C119.014 513.462 118.413 514.407 118.129 515.463C119.232 514.963 120.747 513.713 120.791 513.051C120.791 513.051 120.791 512.83 120.512 512.727C120.424 512.688 120.328 512.668 120.232 512.668Z" fill="#ECE2B2"/>
<path d="M195.395 521.408C194.408 521.404 193.424 521.311 192.454 521.129C192.412 521.113 192.376 521.084 192.351 521.048C192.326 521.011 192.312 520.967 192.312 520.923C192.312 520.878 192.326 520.835 192.351 520.798C192.376 520.761 192.412 520.733 192.454 520.717C192.939 520.423 197.234 517.966 198.264 519.672C198.368 519.821 198.424 519.998 198.424 520.18C198.424 520.361 198.368 520.539 198.264 520.687C197.822 521.232 196.631 521.408 195.395 521.408ZM193.145 520.79C194.969 521.055 197.425 521.011 197.837 520.423C197.837 520.423 197.969 520.231 197.837 519.908C197.19 518.937 194.572 520.04 193.145 520.79Z" fill="#ECE2B2"/>
<path d="M192.454 521.143C192.416 521.158 192.374 521.158 192.336 521.143C192.301 521.122 192.274 521.091 192.255 521.055C192.237 521.018 192.23 520.978 192.233 520.937C192.271 519.579 192.745 518.269 193.586 517.201C193.76 517.055 193.962 516.944 194.179 516.876C194.396 516.808 194.625 516.783 194.851 516.804C195.498 516.878 195.69 517.201 195.734 517.466C195.91 518.584 193.719 520.628 192.557 521.158L192.454 521.143ZM194.675 517.216C194.384 517.217 194.102 517.321 193.88 517.51C193.202 518.348 192.801 519.376 192.733 520.452C193.895 519.731 195.395 518.113 195.278 517.437C195.278 517.437 195.278 517.201 194.807 517.157L194.675 517.216Z" fill="#ECE2B2"/>
<path d="M181.819 520.904H191.497L191.6 498.473H181.907L181.819 520.904Z" fill="#FF8B7B"/>
<path d="M106.803 513.963L115.878 516.066L123.497 493.885L114.422 491.781L106.803 513.963Z" fill="#FF8B7B"/>
<path d="M117.29 514.565L106.744 511.874C106.56 511.822 106.364 511.838 106.191 511.919C106.018 512 105.88 512.14 105.802 512.315L102.169 520.272C102.081 520.471 102.038 520.686 102.043 520.903C102.048 521.12 102.101 521.333 102.198 521.527C102.295 521.721 102.434 521.891 102.604 522.025C102.775 522.159 102.973 522.254 103.184 522.302C106.891 523.17 108.73 523.406 113.363 524.568C116.216 525.288 122.041 527.068 125.983 528.054C129.925 529.039 131.264 525.229 129.719 524.479C122.821 521.052 120.57 518.169 118.688 515.477C118.343 515.019 117.849 514.696 117.29 514.565Z" fill="#263238"/>
<path d="M191.394 519.789H180.819C180.628 519.789 180.443 519.855 180.296 519.975C180.148 520.096 180.047 520.264 180.01 520.451L178.436 529.056C178.399 529.269 178.41 529.487 178.467 529.696C178.524 529.904 178.627 530.097 178.767 530.262C178.908 530.426 179.082 530.557 179.279 530.646C179.476 530.735 179.691 530.78 179.907 530.777C183.716 530.777 189.217 530.497 194.013 530.497C199.632 530.497 199.734 530.791 206.309 530.791C210.281 530.791 211.237 526.776 209.56 526.379C201.911 524.731 200.47 524.555 193.763 520.495C193.053 520.048 192.234 519.803 191.394 519.789Z" fill="#263238"/>
<path d="M159.417 183.42C150.209 184.156 137.221 207.249 137.221 207.249L153.901 222.355C159.096 216.54 163.822 210.323 168.036 203.763C174.582 193.275 168.831 182.67 159.417 183.42Z" fill="#ECE2B2"/>
<path opacity="0.6" d="M159.417 183.42C150.209 184.156 137.221 207.249 137.221 207.249L153.901 222.355C159.096 216.54 163.822 210.323 168.036 203.763C174.582 193.275 168.831 182.67 159.417 183.42Z" fill="white"/>
<path opacity="0.2" d="M164.124 200.043L153.107 221.606L153.886 222.327C153.886 222.327 158.152 217.664 162.903 211.237L164.124 200.043Z" fill="black"/>
<path d="M205.559 235.199C203.897 245.878 201.264 259.086 197.219 275.355L145.988 267.706C146.458 260.351 154.298 227.565 152.754 192.366C152.699 191.194 152.886 190.023 153.303 188.926C153.72 187.829 154.358 186.83 155.177 185.99C155.996 185.15 156.98 184.487 158.066 184.043C159.152 183.599 160.318 183.383 161.491 183.408C164.021 183.408 166.801 183.599 169.537 183.864C176.854 184.531 184.127 185.612 191.321 187.1C196.254 188.349 201.083 189.976 205.765 191.969C205.765 191.969 209.443 197.367 207.457 219.828C207.06 224.285 206.457 229.359 205.559 235.199Z" fill="#ECE2B2"/>
<path opacity="0.6" d="M205.559 235.199C203.897 245.878 201.264 259.086 197.219 275.355L145.988 267.706C146.458 260.351 154.298 227.565 152.754 192.366C152.699 191.194 152.886 190.023 153.303 188.926C153.72 187.829 154.358 186.83 155.177 185.99C155.996 185.15 156.98 184.487 158.066 184.043C159.152 183.599 160.318 183.383 161.491 183.408C164.021 183.408 166.801 183.599 169.537 183.864C176.854 184.531 184.127 185.612 191.321 187.1C196.254 188.349 201.083 189.976 205.765 191.969C205.765 191.969 209.443 197.367 207.457 219.828C207.06 224.285 206.457 229.359 205.559 235.199Z" fill="white"/>
<path opacity="0.2" d="M205.559 235.195C201.397 232.562 197.499 220.486 199.249 214.117L207.457 219.854C207.06 224.281 206.457 229.356 205.559 235.195Z" fill="black"/>
<path d="M194.042 198.569C191.395 207.395 207.427 233.386 207.427 233.386L226.549 223.384C223.737 215.238 219.964 207.456 215.311 200.202C207.648 188.92 197.102 188.597 194.042 198.569Z" fill="#ECE2B2"/>
<path opacity="0.6" d="M194.042 198.569C191.395 207.395 207.427 233.386 207.427 233.386L226.549 223.384C223.737 215.238 219.964 207.456 215.311 200.202C207.648 188.92 197.102 188.597 194.042 198.569Z" fill="white"/>
<path opacity="0.2" d="M191.586 498.488L191.542 510.05H181.863L181.907 498.488H191.586Z" fill="black"/>
<path opacity="0.2" d="M114.422 491.797L123.497 493.886L119.555 505.329L110.495 503.226L114.422 491.797Z" fill="black"/>
<path d="M178.936 149.206C176.126 158.428 174.023 163.665 176.788 170.137C177.647 172.256 179.07 174.098 180.903 175.464C182.737 176.829 184.91 177.665 187.186 177.881C189.462 178.096 191.753 177.683 193.81 176.686C195.867 175.688 197.611 174.146 198.852 172.226C203.765 164.871 207.53 151.074 200.19 143.881C198.65 142.276 196.713 141.107 194.576 140.492C192.438 139.877 190.176 139.838 188.019 140.378C185.861 140.919 183.885 142.02 182.29 143.57C180.695 145.12 179.538 147.065 178.936 149.206Z" fill="#FF8B7B"/>
<path d="M193.748 159.342C192.645 164.063 189.777 172.58 182.716 173.565C178.774 174.11 172.214 172.948 171.611 169.771C171.008 166.593 173.449 167.02 172.832 164.416C172.214 161.813 168.993 152.649 172.655 146.236C167.566 146.663 171.052 139.117 180.186 137.411C177.362 136.307 178.715 128.585 192.807 132.262C199.396 133.954 204.294 136.543 204.883 140.088C210.884 142.618 212.473 148.987 208.751 151.311C205.03 153.635 199.646 151.016 199.646 151.016C199.646 151.016 202.191 164.49 193.748 159.342Z" fill="#263238"/>
<path d="M189.909 158.62C189.78 160.738 190.428 162.831 191.733 164.504C193.483 166.74 194.072 166.755 194.792 164.269C195.454 162.033 197.057 157.032 194.719 155.708C192.38 154.384 190.115 156.046 189.909 158.62Z" fill="#FF8B7B"/>
<path d="M179.054 272.647C179.054 272.647 171.096 348.605 166.213 376.317C160.77 406.676 124.615 504.286 124.615 504.286L107.376 500.02C116.202 466.189 129.278 403.19 137.236 379.067C143.237 342.398 137.236 296.299 146.061 267.734L179.054 272.647Z" fill="#263238"/>
<path d="M128.631 498.636L125.454 504.858L106.097 499.989L107.7 494.105L128.631 498.636Z" fill="#ECE2B2"/>
<path opacity="0.2" d="M174.141 302.27C174.689 302.16 175.254 302.16 175.803 302.27C173.258 324.951 169.64 355.222 166.786 372.594C164.403 347.353 162.197 304.623 174.141 302.27Z" fill="black"/>
<path d="M197.219 275.351C197.219 275.351 201.235 356.516 201.823 386.037C202.426 416.75 195.072 507.814 195.072 507.814H178.657C178.657 507.814 172.464 423.369 175.803 382.183C171.846 350.809 163.55 270.395 163.55 270.395L197.219 275.351Z" fill="#263238"/>
<path d="M256.453 260.792C253.784 260.57 251.099 260.952 248.598 261.91L247.407 263.881C247.175 264.271 247.034 264.708 246.995 265.16C246.956 265.612 247.019 266.067 247.181 266.491C247.342 266.916 247.597 267.298 247.926 267.61C248.256 267.922 248.651 268.155 249.084 268.293L254.835 270.132L257.644 270.985C258.235 271.168 258.869 271.16 259.455 270.962C260.042 270.764 260.551 270.386 260.91 269.882L262.116 268.205C262.549 267.613 262.745 266.881 262.666 266.151C262.587 265.422 262.239 264.749 261.689 264.263L259.1 261.924C258.363 261.272 257.434 260.874 256.453 260.792Z" fill="#FF8B7B"/>
<path d="M197.97 501.27L197.308 508.08H177.347L176.583 502.005L197.97 501.27Z" fill="#ECE2B2"/>
</svg>
