<svg width="735" height="465" viewBox="0 0 735 465" fill="none" xmlns="http://www.w3.org/2000/svg">
<path d="M141.94 28.5938H39.3111V177.358H141.94V28.5938Z" fill="#E0E0E0"/>
<path d="M136.794 28.5938H34.1651V177.358H136.794V28.5938Z" fill="#F5F5F5"/>
<path d="M124.052 44.7031H46.9182V161.238H124.052V44.7031Z" fill="white"/>
<path d="M124.052 161.247C124.052 161.247 124.052 161.046 124.052 160.677C124.052 160.308 124.052 159.737 124.052 159.021C124.052 157.556 124.052 155.408 124.052 152.633C124.052 147.04 124.052 138.907 123.974 128.626C123.974 108.076 123.907 78.9671 123.851 44.7238L124.108 44.9811H46.9853L47.265 44.7014C47.265 88.6662 47.265 129.197 47.265 161.247L47.0413 161.024L103.189 161.135L118.694 161.191H122.766H124.175H122.811H118.783H103.323L47.0413 161.303H46.8175V161.079C46.8175 129.029 46.8175 88.4984 46.8175 44.5336V44.2539H47.1084H124.231H124.489V44.7126C124.489 79.0566 124.388 108.21 124.366 128.805C124.366 139.064 124.31 147.174 124.287 152.745C124.287 155.508 124.287 157.634 124.287 159.088C124.287 159.793 124.287 160.341 124.287 160.71C124.287 161.079 124.052 161.247 124.052 161.247Z" fill="#E0E0E0"/>
<path d="M137.096 28.5938C136.566 29.545 135.952 30.4472 135.262 31.2898C134.076 32.8784 132.375 35.0486 130.451 37.3979C128.527 39.7472 126.715 41.8168 125.372 43.2934C124.698 44.1276 123.949 44.899 123.135 45.598C123.714 44.6905 124.369 43.8335 125.093 43.0361L130.037 37.0399L134.96 31.0101C135.602 30.1456 136.317 29.3372 137.096 28.5938Z" fill="#E0E0E0"/>
<path d="M124.444 160.867C128.274 166.947 132.777 172.576 137.868 177.648L124.444 160.867Z" fill="white"/>
<path d="M137.902 177.692C137.041 177.071 136.253 176.354 135.553 175.556C133.764 173.737 132.069 171.829 130.474 169.839C128.617 167.501 127.062 165.275 125.999 163.63C125.388 162.763 124.863 161.837 124.433 160.867C125.125 161.666 125.757 162.515 126.323 163.407C127.442 164.995 129.053 167.165 130.899 169.481C132.745 171.797 134.535 173.833 135.832 175.287C136.579 176.038 137.27 176.842 137.902 177.692Z" fill="#E0E0E0"/>
<path d="M34.1539 177.235L47.5782 160.656L34.1539 177.235Z" fill="white"/>
<path d="M47.6006 160.656C45.5758 163.588 43.4027 166.415 41.0898 169.125C38.9254 171.951 36.6101 174.659 34.1539 177.235C36.1787 174.304 38.3518 171.477 40.6647 168.767C42.829 165.94 45.1444 163.233 47.6006 160.656Z" fill="#E0E0E0"/>
<path d="M34.1651 28.5938C36.4842 31.0828 38.6651 33.697 40.6983 36.4246C42.8756 39.0288 44.9073 41.7514 46.784 44.5799C44.4689 42.0905 42.2916 39.4763 40.262 36.7491C38.0817 34.1444 36.0463 31.4219 34.1651 28.5938Z" fill="#E0E0E0"/>
<path d="M100.023 68.3633H74.1921V141.694H100.023V68.3633Z" fill="#E0E0E0"/>
<path d="M280.312 6.91406V72.067H186.744L183.377 7.37273L280.312 6.91406Z" fill="#E0E0E0"/>
<path d="M183.366 7.37302V71.9219H276.934V7.37302H183.366Z" fill="white"/>
<path d="M277.381 72.3696H182.929V6.92578H277.381V72.3696ZM183.824 71.4858H276.497V7.79836H183.824V71.4858Z" fill="#E0E0E0"/>
<path d="M266.809 15.3945H193.512V63.9013H266.809V15.3945Z" fill="white"/>
<path d="M266.809 15.3922H265.4H261.372H246.27L193.512 15.6272L193.725 15.4146C193.725 30.2374 193.725 46.6598 193.725 63.9213L193.501 63.6976H266.798L266.608 63.8766C266.608 49.121 266.686 37.0279 266.709 28.5817C266.709 24.3754 266.709 21.0864 266.709 18.8266C266.709 17.7079 266.709 16.8577 266.709 16.2648C266.709 15.6719 266.709 15.3699 266.709 15.3699C266.709 15.3699 266.709 15.6495 266.709 16.2201C266.709 16.7906 266.709 17.652 266.709 18.7483C266.709 20.9857 266.709 24.2747 266.765 28.4698C266.765 36.9272 266.821 49.0762 266.854 63.8766V64.0668H266.675H193.378H193.143V63.8318C193.143 46.5703 193.143 30.1479 193.143 15.3251V15.1797H193.356L246.259 15.2804L261.317 15.3475H265.299H266.653L266.809 15.3922Z" fill="#E0E0E0"/>
<path d="M183.377 7.19531C183.955 7.47339 184.496 7.82291 184.988 8.2357C185.939 8.92929 187.225 9.91375 188.657 11.0324C190.089 12.1511 191.297 13.2698 192.17 14.0194C192.669 14.4246 193.12 14.8863 193.512 15.3954C191.73 14.1489 190.012 12.8122 188.366 11.3904C186.616 10.0993 184.949 8.69806 183.377 7.19531Z" fill="#E0E0E0"/>
<path d="M276.945 7.37109C275.406 8.88496 273.761 10.2869 272.022 11.5662C270.377 12.9626 268.635 14.2411 266.809 15.3922C268.348 13.8783 269.993 12.4763 271.732 11.197C273.375 9.79767 275.117 8.51902 276.945 7.37109Z" fill="#E0E0E0"/>
<path d="M276.866 71.9339L266.429 63.4766L276.866 71.9339Z" fill="white"/>
<path d="M266.429 63.4766C268.306 64.7072 270.1 66.06 271.799 67.5262C273.585 68.8801 275.278 70.3527 276.866 71.9339C274.988 70.7105 273.198 69.3573 271.508 67.8842C269.714 66.5359 268.017 65.063 266.429 63.4766Z" fill="#E0E0E0"/>
<path d="M183.377 71.9237C184.897 70.4284 186.523 69.045 188.243 67.7846C189.871 66.4004 191.594 65.1331 193.4 63.9922C191.885 65.4962 190.258 66.8836 188.534 68.1426C186.908 69.5255 185.185 70.7892 183.377 71.9237Z" fill="#E0E0E0"/>
<path d="M208.391 30.5065V46.75H254.515V30.5065L208.391 30.5065Z" fill="#E0E0E0"/>
<path d="M661.519 298.848C661.519 298.848 653.118 294.933 646.529 314.622C639.94 334.311 637.982 345.397 637.982 345.397C637.982 345.397 636.091 349.604 633.082 347.489C630.073 345.375 625.408 338.808 621.123 340.777C616.839 342.746 615.921 348.205 617.946 355.689C619.971 363.173 623.808 379.719 624.144 381.218C624.479 382.717 623.954 385.01 621.683 383.903C619.412 382.795 605.517 371.329 600.427 378.231C595.337 385.133 604.443 405.08 605.394 407.25C606.345 409.42 606.043 410.494 605.036 411.221C604.03 411.949 599.745 407.653 595.662 404.509C591.578 401.366 586.309 398.535 583.725 402.764C581.141 406.993 582.483 422.755 601.132 445.89L610.473 456.036L624.043 453.229C652.715 445.454 663.052 433.484 663.444 428.539C663.835 423.594 657.85 422.834 652.76 422.945C647.67 423.057 641.64 424.008 641.26 422.822C640.879 421.636 641.26 420.585 643.296 419.466C645.332 418.348 664.383 407.44 664.361 398.882C664.338 390.324 646.361 391.465 643.866 391.051C641.372 390.637 642.311 388.422 643.441 387.427C644.571 386.431 657.414 375.267 663.444 370.4C669.473 365.534 672.046 360.712 669.63 356.472C667.214 352.233 659.674 354.951 656.004 354.895C652.335 354.839 653.263 350.32 653.263 350.32C653.263 350.32 658.186 340.251 664.45 320.394C670.715 300.538 661.34 298.826 661.34 298.826" fill="#EBEBEB"/>
<path d="M608.706 458.845C613.337 444.302 621.996 418.628 629.323 396.534C636.651 374.44 643.262 354.449 647.972 339.95C650.31 332.701 652.201 326.839 653.565 322.767C654.225 320.753 654.684 319.176 655.087 318.091C655.258 317.576 655.393 317.174 655.49 316.883C655.579 316.603 655.635 316.469 655.635 316.469C655.635 316.469 655.635 316.614 655.523 316.894C655.411 317.174 655.322 317.587 655.165 318.113C654.83 319.232 654.348 320.787 653.722 322.812C652.469 326.895 650.623 332.779 648.296 340.04C643.665 354.583 637.109 374.585 629.782 396.668C622.454 418.751 613.74 444.437 609.03 458.935" fill="#E0E0E0"/>
<path d="M627.287 350.211C627.473 350.487 627.634 350.779 627.768 351.084C628.059 351.654 628.451 352.504 628.887 353.545C629.838 355.637 631.124 358.556 632.366 361.801C633.608 365.045 634.782 367.898 635.722 370.113C636.114 371.108 636.461 371.958 636.729 372.63C636.882 372.927 636.995 373.243 637.065 373.569C636.879 373.293 636.718 373.001 636.584 372.697C636.293 372.126 635.901 371.287 635.465 370.236C634.536 368.132 633.339 365.201 632.042 361.957C630.744 358.713 629.581 355.872 628.686 353.668L627.656 351.151C627.494 350.854 627.37 350.539 627.287 350.211Z" fill="#E0E0E0"/>
<path d="M638.374 373.611C638.318 373.499 644.224 370.702 651.563 367.346C658.902 363.99 664.875 361.372 664.987 361.484C665.099 361.596 659.125 364.393 651.787 367.737C644.448 371.082 638.374 373.734 638.374 373.611Z" fill="#E0E0E0"/>
<path d="M625.553 407.039C625.88 406.933 626.218 406.865 626.56 406.837L629.301 406.434C631.605 406.099 634.805 405.618 638.306 404.947C641.808 404.275 644.951 403.593 647.256 403.056L649.952 402.441C650.279 402.339 650.617 402.279 650.959 402.262C650.649 402.403 650.327 402.515 649.997 402.597C649.37 402.788 648.464 403.056 647.334 403.358C645.097 403.962 641.92 404.712 638.385 405.372C634.85 406.032 631.673 406.49 629.334 406.737C628.216 406.871 627.231 406.96 626.571 407.005C626.234 407.046 625.893 407.057 625.553 407.039Z" fill="#E0E0E0"/>
<path d="M610.898 388.055C611.14 388.256 611.358 388.485 611.547 388.737L613.192 390.706C614.568 392.373 616.436 394.7 618.483 397.284C620.53 399.868 622.376 402.217 623.685 403.94L625.218 405.987C625.418 406.23 625.595 406.493 625.743 406.771C625.498 406.573 625.28 406.343 625.095 406.088L623.45 404.13C622.074 402.452 620.206 400.137 618.147 397.552C616.089 394.968 614.266 392.608 612.957 390.896L611.424 388.849C611.218 388.606 611.042 388.339 610.898 388.055Z" fill="#E0E0E0"/>
<path d="M595.863 416.121C596.165 416.386 596.439 416.683 596.68 417.005C597.239 417.654 597.944 418.504 598.794 419.511C600.573 421.636 602.989 424.601 605.652 427.89C608.314 431.179 610.697 434.166 612.364 436.347L614.377 438.931C614.634 439.242 614.862 439.575 615.06 439.927C614.765 439.654 614.492 439.359 614.243 439.043L612.129 436.537C610.361 434.401 607.934 431.447 605.271 428.158C602.609 424.869 600.226 421.882 598.559 419.701C597.754 418.661 597.071 417.788 596.557 417.106C596.294 416.801 596.061 416.471 595.863 416.121Z" fill="#E0E0E0"/>
<path d="M614.881 439.222C615.291 439.097 615.71 439.004 616.134 438.942L619.591 438.316C622.51 437.779 626.538 437.018 630.957 436.079C635.375 435.139 639.358 434.154 642.233 433.427L645.645 432.577C646.058 432.454 646.481 432.364 646.909 432.309C646.516 432.487 646.108 432.629 645.69 432.734C644.895 432.98 643.743 433.327 642.334 433.718C639.47 434.524 635.498 435.542 631.068 436.493C626.638 437.443 622.6 438.171 619.669 438.629C618.203 438.864 617.006 439.032 616.19 439.133C615.757 439.204 615.319 439.234 614.881 439.222Z" fill="#E0E0E0"/>
<path d="M686.477 458.443C686.477 458.6 532.78 458.734 343.239 458.734C153.698 458.734 0 458.633 0 458.443C0 458.253 153.664 458.152 343.283 458.152C532.903 458.152 686.477 458.287 686.477 458.443Z" fill="#263238"/>
<path d="M476.561 69.1304L465.917 78.2344L480.125 94.8475L490.77 85.7435L476.561 69.1304Z" fill="#263238"/>
<path d="M485.761 67.8406L463.857 86.6571L448.497 68.7579C454.538 60.2782 461.742 53.8792 470.367 49.9414L485.761 67.8406Z" fill="#455A64"/>
<path d="M467.548 83.5005C467.425 83.6124 463.722 79.5403 459.27 74.4279C454.818 69.3154 451.305 65.0868 451.439 64.9749C451.573 64.863 455.265 68.9351 459.717 74.0475C464.17 79.16 467.671 83.3998 467.548 83.5005Z" fill="#263238"/>
<path d="M471.688 79.9189C470.802 79.0577 469.98 78.1343 469.226 77.1558C467.75 75.4218 465.747 73.0166 463.543 70.3317L457.95 63.4405L456.272 61.3486C455.869 60.834 455.657 60.599 455.657 60.5655C455.88 60.3641 459.606 64.604 464.013 69.9625C466.251 72.6474 468.175 75.0974 469.607 76.8985C470.388 77.842 471.084 78.8528 471.688 79.9189Z" fill="#263238"/>
<path d="M477.281 75.1443C476.383 74.2859 475.549 73.3624 474.786 72.3811C473.298 70.6248 471.285 68.1748 469.07 65.4564L463.476 58.4534L461.798 56.3167C461.581 56.0619 461.386 55.7887 461.217 55.5C462.178 56.2941 463.041 57.1991 463.79 58.1961C465.3 59.93 467.336 62.3688 469.54 65.0872C471.743 67.8057 473.724 70.3004 475.133 72.1238C475.933 73.0686 476.651 74.079 477.281 75.1443Z" fill="#263238"/>
<path d="M482.326 70.6701C482.203 70.7708 478.523 66.6652 474.104 61.4968C469.685 56.3284 466.217 52.0438 466.34 51.9319C466.463 51.82 470.133 55.9369 474.551 61.1164C478.97 66.296 482.449 70.5694 482.326 70.6701Z" fill="#263238"/>
<path d="M664.009 80.4385L654.333 70.3125L638.529 85.4147L648.206 95.5407L664.009 80.4385Z" fill="#263238"/>
<path d="M664.473 90.4025L644.537 69.5388L661.575 53.2617C670.346 58.8552 677.125 65.7128 681.499 74.1254L664.473 90.4025Z" fill="#455A64"/>
<path d="M647.871 73.0386C647.759 72.9156 651.619 69.0001 656.496 64.2904C661.374 59.5807 665.446 55.8554 665.524 55.9673C665.603 56.0792 661.777 59.9946 656.899 64.7155C652.022 69.4364 647.983 73.1505 647.871 73.0386Z" fill="#263238"/>
<path d="M651.675 77.0127C652.47 76.0733 653.337 75.198 654.27 74.395C655.915 72.8288 658.219 70.6921 660.781 68.3428L667.37 62.3802L669.372 60.5903C669.854 60.1651 670.088 59.9526 670.122 59.9414C670.335 60.154 666.296 64.103 661.172 68.7791C658.611 71.1172 656.261 73.2539 654.539 74.697C653.646 75.543 652.689 76.3173 651.675 77.0127Z" fill="#263238"/>
<path d="M656.731 82.3041C657.536 81.3558 658.415 80.473 659.36 79.664C661.027 78.0866 663.365 75.9387 665.972 73.5894L672.684 67.6156L674.731 65.8257C674.981 65.6032 675.242 65.3941 675.514 65.1992C674.774 66.2031 673.918 67.1156 672.964 67.9177C671.308 69.5174 668.97 71.6765 666.374 74.0257C663.779 76.375 661.385 78.5005 659.662 79.9772C658.746 80.827 657.767 81.6049 656.731 82.3041Z" fill="#263238"/>
<path d="M661.463 87.1231C661.352 87.0001 665.267 83.1182 670.2 78.4308C675.134 73.7435 679.228 70.0518 679.34 70.1749C679.452 70.2979 675.537 74.1798 670.603 78.856C665.67 83.5321 661.575 87.2238 661.463 87.1231Z" fill="#263238"/>
<path d="M574.697 32.0977H558.118V57.9731H574.697V32.0977Z" fill="#263238"/>
<path d="M583.557 39.8358H549.437V11.9467C561.396 8.99334 572.807 8.81435 583.591 11.9467L583.557 39.8358Z" fill="#ECE2B2"/>
<path d="M583.994 12.0594C583.594 12.3095 583.17 12.5193 582.729 12.6859C581.561 13.2003 580.362 13.6412 579.138 14.006C577.306 14.5705 575.437 15.0115 573.545 15.326C571.247 15.6908 568.925 15.8852 566.598 15.9077C564.272 15.9112 561.95 15.7392 559.651 15.3931C557.76 15.0998 555.891 14.6775 554.057 14.129C552.832 13.7706 551.63 13.3411 550.455 12.8425C550.011 12.6885 549.586 12.4819 549.191 12.2272C549.191 12.1265 551.07 12.8984 554.169 13.7263C555.988 14.2069 557.833 14.5805 559.695 14.845C561.972 15.153 564.267 15.31 566.564 15.3148C568.863 15.2887 571.158 15.1093 573.433 14.7779C575.287 14.5096 577.125 14.1361 578.937 13.6592C582.114 12.753 583.949 11.9587 583.994 12.0594Z" fill="#263238"/>
<path d="M560.713 39.7576C560.557 39.7576 560.423 34.399 560.423 27.7987C560.423 21.1984 560.557 15.8398 560.713 15.8398C560.87 15.8398 561.004 21.1872 561.004 27.7987C561.004 34.4102 560.881 39.7576 560.713 39.7576Z" fill="#263238"/>
<path d="M567.213 39.9169C567.056 39.9169 566.922 34.5359 566.922 27.9021C566.922 21.2682 567.056 15.8984 567.213 15.8984C567.37 15.8984 567.504 21.2682 567.504 27.9021C567.504 34.5359 567.381 39.9169 567.213 39.9169Z" fill="#263238"/>
<path d="M573.713 39.8148C573.556 39.8148 573.422 34.4338 573.422 27.8C573.422 21.1661 573.556 15.7852 573.713 15.7852C573.869 15.7852 574.004 21.1661 574.004 27.8C574.004 34.4338 573.88 39.8148 573.713 39.8148Z" fill="#263238"/>
<path d="M579.082 39.816C578.915 39.816 578.792 33.9988 578.792 26.8279C578.792 19.6571 578.915 13.8398 579.082 13.8398C579.25 13.8398 579.373 19.6571 579.373 26.8279C579.373 33.9988 579.284 39.816 579.082 39.816Z" fill="#263238"/>
<path d="M554.572 39.648C554.415 39.648 554.281 33.8308 554.281 26.66C554.281 19.4891 554.415 13.6719 554.572 13.6719C554.728 13.6719 554.863 19.4891 554.863 26.66C554.863 33.8308 554.74 39.648 554.572 39.648Z" fill="#263238"/>
<path d="M649.702 255.891C696.811 208.783 696.811 132.405 649.702 85.296C602.594 38.1874 526.216 38.1874 479.107 85.2961C431.998 132.405 431.998 208.783 479.107 255.891C526.215 303 602.594 303 649.702 255.891Z" fill="#ECE2B2"/>
<path d="M564.405 270.951C620.357 270.951 665.714 225.593 665.714 169.641C665.714 113.69 620.357 68.332 564.405 68.332C508.454 68.332 463.096 113.69 463.096 169.641C463.096 225.593 508.454 270.951 564.405 270.951Z" fill="#FAFAFA"/>
<path d="M665.714 169.64C665.714 169.64 665.714 169.092 665.636 168.006C665.558 166.921 665.636 165.299 665.424 163.185C665.024 157.016 664.058 150.897 662.537 144.905C661.441 140.581 660.055 136.335 658.387 132.197C656.427 127.263 654.07 122.497 651.339 117.945C644.658 106.823 635.927 97.071 625.609 89.2054C613.087 79.6782 598.51 73.2115 583.043 70.3218C569.933 67.9097 556.48 68.0655 543.43 70.7805C538.847 71.7753 534.333 73.0645 529.916 74.64C511.12 81.4869 494.771 93.7444 482.93 109.868C479.841 114.067 477.088 118.503 474.697 123.136C473.455 125.451 472.392 127.856 471.341 130.273C470.289 132.689 469.349 135.195 468.555 137.746C466.838 142.85 465.551 148.089 464.707 153.407C463.858 158.785 463.413 164.218 463.376 169.662C463.415 175.109 463.856 180.546 464.696 185.928C465.552 191.244 466.839 196.482 468.544 201.59C469.349 204.129 470.356 206.59 471.33 209.051C472.303 211.513 473.477 213.884 474.686 216.2C477.076 220.835 479.833 225.272 482.93 229.468C494.768 245.597 511.117 257.859 529.916 264.707C534.333 266.282 538.847 267.571 543.43 268.566C547.898 269.5 552.424 270.132 556.977 270.457C565.691 271.115 574.453 270.634 583.043 269.025C598.51 266.135 613.087 259.668 625.609 250.141C635.93 242.279 644.662 232.526 651.339 221.402C654.068 216.848 656.425 212.082 658.387 207.15C662.36 197.259 664.736 186.799 665.424 176.162C665.614 174.047 665.58 172.425 665.636 171.34C665.692 170.255 665.714 169.696 665.714 169.696C665.714 169.696 665.714 170.255 665.714 171.34C665.714 172.425 665.714 174.047 665.558 176.162C664.945 186.829 662.615 197.327 658.655 207.25C656.707 212.207 654.358 216.996 651.63 221.57C644.965 232.747 636.233 242.554 625.9 250.466C613.333 260.051 598.699 266.564 583.166 269.484C574.538 271.114 565.734 271.61 556.977 270.96C552.402 270.636 547.853 270.004 543.362 269.07C538.752 268.078 534.212 266.785 529.77 265.199C510.863 258.326 494.416 246.005 482.505 229.792C479.397 225.574 476.629 221.115 474.227 216.457C472.974 214.13 471.9 211.692 470.804 209.264C469.707 206.836 468.812 204.319 468.007 201.758C466.291 196.629 464.996 191.368 464.136 186.029C462.361 175.197 462.361 164.149 464.136 153.318C465.001 148.001 466.295 142.764 468.007 137.656C468.824 135.094 469.83 132.622 470.815 130.15C471.799 127.677 472.974 125.295 474.227 122.968C476.636 118.312 479.408 113.854 482.517 109.633C494.422 93.4218 510.866 81.1042 529.77 74.2373C534.208 72.6528 538.745 71.3598 543.351 70.3666C547.846 69.4328 552.398 68.8012 556.977 68.476C565.73 67.8259 574.53 68.3223 583.155 69.9527C598.691 72.8597 613.329 79.3738 625.889 88.9705C636.221 96.8874 644.953 106.697 651.619 117.878C656.63 126.317 660.398 135.435 662.806 144.95C664.298 150.963 665.231 157.101 665.591 163.286C665.759 165.4 665.703 167.022 665.748 168.107C665.793 169.192 665.714 169.64 665.714 169.64Z" fill="#263238"/>
<path d="M650.847 165.969C647.636 166.103 645.018 165.969 645.007 165.689C644.996 165.41 647.58 165.029 650.791 164.85C654.002 164.671 656.619 164.783 656.642 165.119C656.664 165.454 654.035 165.835 650.847 165.969Z" fill="#263238"/>
<path d="M648.688 189.297C645.555 188.558 643.094 187.742 643.094 187.462C643.094 187.182 645.757 187.518 648.9 188.2C652.044 188.883 654.494 189.711 654.494 190.035C654.494 190.359 651.798 190.024 648.688 189.297Z" fill="#263238"/>
<path d="M640.331 211.167C637.501 209.623 635.331 208.158 635.465 207.912C635.599 207.666 638.015 208.684 640.857 210.149C643.698 211.615 645.88 213.125 645.723 213.416C645.567 213.707 643.15 212.722 640.331 211.167Z" fill="#263238"/>
<path d="M626.403 230.007C624.099 227.769 622.387 225.778 622.589 225.532C622.79 225.286 624.826 226.953 627.175 229.168C629.525 231.383 631.214 233.363 630.99 233.642C630.766 233.922 628.697 232.255 626.403 230.007Z" fill="#263238"/>
<path d="M607.945 244.435C606.334 241.649 605.215 239.277 605.461 239.132C605.707 238.987 607.251 241.112 608.907 243.864C610.563 246.616 611.681 248.988 611.402 249.167C611.122 249.346 609.567 247.198 607.945 244.435Z" fill="#263238"/>
<path d="M586.298 253.375C585.493 250.254 585.056 247.67 585.336 247.603C585.616 247.536 586.522 249.986 587.383 253.085C588.245 256.183 588.67 258.768 588.345 258.857C588.021 258.947 587.103 256.485 586.298 253.375Z" fill="#263238"/>
<path d="M563.04 256.149C563.04 252.927 563.365 250.32 563.644 250.32C563.924 250.32 564.159 252.938 564.159 256.149C564.159 259.359 563.879 261.977 563.555 261.977C563.23 261.977 562.984 259.382 563.04 256.149Z" fill="#263238"/>
<path d="M539.928 252.646C540.845 249.558 541.807 247.131 542.087 247.209C542.367 247.287 541.875 249.86 540.968 252.959C540.062 256.058 539.134 258.552 538.809 258.396C538.485 258.239 538.955 255.733 539.928 252.646Z" fill="#263238"/>
<path d="M518.527 243.016C520.239 240.297 521.816 238.205 522.063 238.351C522.309 238.496 521.145 240.857 519.478 243.609C517.811 246.361 516.223 248.442 515.943 248.274C515.664 248.106 516.816 245.746 518.527 243.016Z" fill="#263238"/>
<path d="M500.528 228.026C502.91 225.856 505.002 224.267 505.181 224.48C505.36 224.693 503.638 226.639 501.288 228.843C498.939 231.047 496.869 232.635 496.634 232.4C496.4 232.165 498.156 230.197 500.528 228.026Z" fill="#263238"/>
<path d="M487.193 208.759C490.068 207.316 492.507 206.343 492.63 206.589C492.753 206.835 490.56 208.256 487.707 209.755C484.855 211.254 482.427 212.227 482.27 211.925C482.114 211.623 484.329 210.213 487.193 208.759Z" fill="#263238"/>
<path d="M479.518 186.633C482.684 186.007 485.291 185.727 485.347 186.007C485.403 186.287 482.897 187.058 479.753 187.73C476.61 188.401 473.992 188.681 473.925 188.356C473.858 188.032 476.386 187.26 479.518 186.633Z" fill="#263238"/>
<path d="M478.098 163.296C481.308 163.531 483.893 163.956 483.881 164.236C483.87 164.516 481.241 164.594 478.031 164.404C474.82 164.214 472.225 163.8 472.247 163.464C472.269 163.128 474.887 163.005 478.098 163.296Z" fill="#263238"/>
<path d="M482.964 140.33C485.996 141.449 488.367 142.567 488.278 142.802C488.188 143.037 485.638 142.433 482.595 141.382C479.552 140.33 477.18 139.234 477.281 138.92C477.382 138.607 479.943 139.234 482.964 140.33Z" fill="#263238"/>
<path d="M493.827 119.577C496.444 121.445 498.436 123.145 498.301 123.38C498.167 123.615 495.863 122.317 493.211 120.494C490.56 118.67 488.569 116.97 488.736 116.69C488.904 116.411 491.198 117.708 493.827 119.577Z" fill="#263238"/>
<path d="M509.835 102.484C511.86 104.979 513.325 107.149 513.113 107.339C512.9 107.529 511.032 105.661 508.974 103.189C506.915 100.716 505.439 98.5572 505.696 98.3447C505.953 98.1321 507.81 99.9892 509.835 102.484Z" fill="#263238"/>
<path d="M529.86 90.2906C531.135 93.2439 531.974 95.7275 531.706 95.8841C531.437 96.0407 530.162 93.7138 528.842 90.7828C527.522 87.8518 526.683 85.3683 526.985 85.1893C527.287 85.0103 528.551 87.3484 529.86 90.2906Z" fill="#263238"/>
<path d="M552.39 83.9492C552.827 87.1375 552.961 89.7552 552.67 89.8C552.379 89.8447 551.764 87.2941 551.283 84.117C550.802 80.9399 550.668 78.311 550.992 78.2662C551.316 78.2215 551.954 80.7609 552.39 83.9492Z" fill="#263238"/>
<path d="M575.816 83.8709C575.391 87.0592 574.82 89.621 574.541 89.5874C574.261 89.5539 574.328 86.9249 574.708 83.7366C575.089 80.5484 575.659 77.9754 575.984 78.0201C576.308 78.0649 576.241 80.6714 575.816 83.8709Z" fill="#263238"/>
<path d="M598.402 90.0567C597.138 93.0212 595.896 95.3257 595.628 95.2138C595.359 95.102 596.154 92.6073 597.373 89.6204C598.592 86.6334 599.845 84.3401 600.148 84.4744C600.45 84.6086 599.678 87.1033 598.402 90.0567Z" fill="#263238"/>
<path d="M618.494 102.106C616.48 104.623 614.668 106.514 614.444 106.335C614.221 106.156 615.641 103.952 617.622 101.412C619.602 98.8729 621.403 96.9376 621.671 97.1949C621.94 97.4522 620.474 99.6001 618.494 102.106Z" fill="#263238"/>
<path d="M634.637 119.084C632.019 120.963 629.771 122.306 629.603 122.071C629.435 121.836 631.393 120.102 633.977 118.178C636.561 116.253 638.81 114.922 639.011 115.191C639.212 115.459 637.255 117.204 634.637 119.084Z" fill="#263238"/>
<path d="M645.634 139.805C642.613 140.924 640.04 141.584 639.973 141.327C639.906 141.069 642.211 139.906 645.242 138.754C648.274 137.602 650.769 136.919 650.892 137.232C651.015 137.546 648.654 138.687 645.634 139.805Z" fill="#263238"/>
<path d="M650.679 162.647C647.468 162.904 644.851 162.882 644.828 162.647C644.806 162.412 647.379 161.897 650.578 161.528C653.778 161.159 656.407 161.248 656.429 161.584C656.452 161.92 653.856 162.39 650.679 162.647Z" fill="#263238"/>
<path d="M525.061 60.0391L524.714 60.1957L523.685 60.6096C522.79 60.99 521.447 61.4486 519.736 62.1981C514.913 64.2143 510.23 66.5501 505.718 69.19C502.854 70.8457 499.823 72.8258 496.634 75.052C493.446 77.2782 490.191 79.8736 486.935 82.7934C472.643 95.3914 461.725 111.362 455.176 129.253C453.643 133.347 452.491 137.352 451.495 141.1C450.499 144.848 449.828 148.427 449.325 151.694C448.508 156.855 448.033 162.065 447.904 167.289C447.814 169.146 447.904 170.578 447.904 171.551C447.904 172.021 447.904 172.379 447.904 172.67C447.914 172.796 447.914 172.923 447.904 173.05C447.889 172.927 447.889 172.803 447.904 172.681C447.904 172.401 447.904 172.032 447.904 171.562C447.904 170.589 447.781 169.157 447.837 167.3C447.877 162.056 448.292 156.822 449.079 151.638C449.548 148.349 450.276 144.78 451.182 140.988C452.193 136.957 453.41 132.98 454.829 129.074C461.346 111.063 472.328 95.0006 486.745 82.3906C490.023 79.4708 493.357 76.9538 496.511 74.6604C499.666 72.3671 502.776 70.4653 505.674 68.832C510.216 66.2193 514.937 63.9315 519.803 61.9856C521.514 61.2696 522.89 60.8669 523.808 60.4977L524.859 60.1397C524.924 60.1013 524.991 60.0676 525.061 60.0391Z" fill="white"/>
<path d="M558.733 53.5071C557.583 53.746 556.416 53.8993 555.243 53.9658C553.073 54.1895 550.097 54.514 546.808 54.9391C543.519 55.3642 540.555 55.8117 538.407 56.1473C537.256 56.3838 536.089 56.5334 534.916 56.5947C536.029 56.2069 537.175 55.9223 538.34 55.7445C540.476 55.3082 543.441 54.7936 546.73 54.3685C550.019 53.9434 553.028 53.6749 555.209 53.5519C556.38 53.4268 557.56 53.4118 558.733 53.5071Z" fill="white"/>
<g opacity="0.4">
<path d="M483.434 230.543C483.434 230.543 535.934 313.394 617.375 270.962C702.396 226.661 655.411 125.117 655.411 125.117C655.411 125.117 695.416 206.044 612.543 258.802C591.903 271.946 569.428 271.957 552.29 270.235C508.493 265.849 483.434 230.543 483.434 230.543Z" fill="black"/>
</g>
<path d="M592.641 115.797C593.145 130.655 592.697 145.531 591.299 160.332C590.784 165.691 590.18 171.105 588.11 176.083C586.041 181.062 582.517 185.626 577.55 187.729C572.583 189.832 566.229 188.96 562.772 184.843L592.641 115.797Z" fill="#E0E0E0"/>
<path d="M562.201 161.654L599.018 99.6562L576.8 169.653L565.446 173.043L562.201 161.654Z" fill="#ECE2B2"/>
<g opacity="0.4">
<path d="M599.018 99.6562L571.71 163.008L576.8 169.653L599.018 99.6562Z" fill="black"/>
</g>
<path d="M565.446 184.889C571.988 184.889 577.293 179.585 577.293 173.042C577.293 166.499 571.988 161.195 565.446 161.195C558.903 161.195 553.599 166.499 553.599 173.042C553.599 179.585 558.903 184.889 565.446 184.889Z" fill="#FAFAFA"/>
<path d="M577.293 173.04C577.186 172.077 577.026 171.121 576.811 170.176C576.125 167.624 574.605 165.376 572.493 163.788C570.942 162.621 569.122 161.861 567.201 161.577C565.28 161.294 563.319 161.496 561.497 162.166C560.447 162.537 559.462 163.07 558.577 163.744C557.634 164.427 556.806 165.258 556.127 166.205C554.673 168.187 553.889 170.581 553.889 173.04C553.889 175.498 554.673 177.893 556.127 179.875C557.485 181.718 559.351 183.125 561.497 183.925C563.027 184.486 564.659 184.721 566.286 184.616C567.913 184.51 569.5 184.065 570.945 183.309C572.39 182.554 573.662 181.505 574.678 180.23C575.694 178.955 576.432 177.481 576.845 175.904C577.061 174.959 577.222 174.003 577.326 173.04C577.395 174.021 577.308 175.006 577.069 175.96C576.458 178.627 574.939 181 572.773 182.672C571.288 183.825 569.552 184.611 567.705 184.965C565.581 185.371 563.387 185.201 561.351 184.473C560.245 184.091 559.207 183.536 558.275 182.828C557.285 182.113 556.417 181.245 555.702 180.255C554.161 178.182 553.33 175.668 553.33 173.085C553.33 170.502 554.161 167.987 555.702 165.914C556.42 164.927 557.288 164.059 558.275 163.341C559.211 162.643 560.249 162.092 561.351 161.707C563.386 160.974 565.582 160.804 567.705 161.215C569.961 161.649 572.044 162.724 573.705 164.311C575.366 165.898 576.534 167.931 577.069 170.165C577.292 171.106 577.368 172.076 577.293 173.04Z" fill="#263238"/>
<path d="M574.125 174.818C575.089 170.046 572.003 165.396 567.231 164.431C562.459 163.466 557.808 166.552 556.844 171.324C555.879 176.096 558.965 180.747 563.737 181.712C568.509 182.677 573.16 179.59 574.125 174.818Z" fill="#455A64"/>
<path d="M472.046 457.391H530.33L503.156 223.203L472.046 457.391Z" fill="#E0E0E0"/>
<path d="M185.256 223.203L147.31 460.154L471.117 464.372L503.156 223.203H185.256Z" fill="#FAFAFA"/>
<path d="M488.736 331.75H167.872L174.852 288.121H494.531L488.736 331.75Z" fill="#EBEBEB"/>
<path d="M488.759 331.787H167.838L174.83 288.157H494.565L488.759 331.787ZM167.905 331.731H488.714L494.498 288.102H174.886L167.905 331.731Z" fill="#263238"/>
<path d="M185.256 223.203L174.852 288.121H494.531L503.156 223.203H185.256Z" fill="#ECE2B2"/>
<path d="M185.301 223.206L503.201 222.938H503.503V223.24C494.14 293.841 483.512 373.906 472.28 458.468V458.725H468.387L147.578 458.636H147.265V458.356L185.301 223.206C184.988 225.153 170.534 316.002 147.858 458.468L147.623 458.188H468.309H471.945L471.665 458.434C482.908 373.872 493.558 293.818 502.989 223.217L503.246 223.508L185.301 223.206Z" fill="#263238"/>
<path d="M494.531 288.123C494.531 288.279 422.935 288.414 334.703 288.414C246.471 288.414 174.852 288.279 174.852 288.123C174.852 287.966 246.449 287.832 334.703 287.832C422.957 287.832 494.531 287.955 494.531 288.123Z" fill="#263238"/>
<path d="M488.736 331.752C488.736 331.92 416.759 332.043 328.002 332.043C239.245 332.043 167.256 331.92 167.256 331.752C167.256 331.584 239.211 331.461 328.002 331.461C416.793 331.461 488.736 331.595 488.736 331.752Z" fill="#263238"/>
<path d="M482.203 371.904C482.203 372.072 410.237 372.195 321.48 372.195C232.723 372.195 160.69 372.072 160.69 371.904C160.69 371.736 232.644 371.613 321.435 371.613C410.226 371.613 482.203 371.748 482.203 371.904Z" fill="#263238"/>
<path d="M475.681 412.053C475.681 412.209 403.704 412.343 314.947 412.343C226.189 412.343 154.201 412.209 154.201 412.053C154.201 411.896 226.156 411.762 314.947 411.762C403.738 411.762 475.681 411.896 475.681 412.053Z" fill="#263238"/>
<path d="M192.763 458.79C192.606 458.79 198.479 420.53 205.896 373.411C213.313 326.291 219.432 288.088 219.589 288.121C219.746 288.155 213.872 326.358 206.467 373.5C199.061 420.642 192.93 458.812 192.763 458.79Z" fill="#263238"/>
<path d="M242.243 458.79C242.075 458.79 247.959 420.53 255.365 373.411C262.771 326.291 268.901 288.088 269.069 288.121C269.237 288.155 263.352 326.358 255.936 373.5C248.519 420.642 242.355 458.812 242.243 458.79Z" fill="#263238"/>
<path d="M288.221 457.078C288.064 457.078 293.882 419.21 301.209 372.56C308.537 325.911 314.634 288.088 314.779 288.121C314.924 288.155 309.118 325.978 301.791 372.65C294.463 419.322 288.367 457.1 288.221 457.078Z" fill="#263238"/>
<path d="M333.696 458.432C333.54 458.432 339.402 420.25 346.796 373.232C354.191 326.213 360.31 288.088 360.467 288.121C360.623 288.155 354.761 326.28 347.367 373.321C339.972 420.362 333.853 458.454 333.696 458.432Z" fill="#263238"/>
<path d="M379.395 458.432C379.238 458.432 385.1 420.25 392.495 373.232C399.889 326.213 406.009 288.088 406.165 288.121C406.322 288.155 400.471 326.28 393.077 373.321C385.682 420.362 379.563 458.454 379.395 458.432Z" fill="#263238"/>
<path d="M425.06 458.635C424.904 458.635 430.777 420.409 438.183 373.312C445.588 326.215 451.708 288.045 451.875 288.078C452.043 288.112 446.159 326.293 438.753 373.401C431.347 420.51 425.217 458.702 425.06 458.635Z" fill="#263238"/>
<g opacity="0.2">
<path d="M396.31 291.165C401.814 288.726 405.259 282.998 406.68 277.147C408.101 271.297 407.877 265.189 408.09 259.159C408.302 253.129 409.018 246.92 412.095 241.741C413.918 238.687 416.48 236.147 418.505 233.205C420.529 230.263 422.029 226.683 421.279 223.137L386.846 223.316L396.31 291.165Z" fill="black"/>
</g>
<path d="M253.542 334.984C253.45 335.134 253.337 335.27 253.206 335.387L252.177 336.506C251.271 337.434 249.939 338.743 248.261 340.377C244.905 343.598 240.24 347.984 234.926 352.682C229.613 357.381 224.69 361.475 221.077 364.384C219.265 365.838 217.788 367.001 216.759 367.74L215.562 368.635C215.428 368.751 215.277 368.846 215.114 368.914C215.114 368.914 215.237 368.769 215.483 368.545L216.602 367.561L220.797 364.015C224.355 361.028 229.232 356.877 234.535 352.201C239.837 347.525 244.603 343.184 247.959 340.041L251.998 336.316L253.116 335.32C253.243 335.191 253.386 335.078 253.542 334.984Z" fill="#263238"/>
<path d="M250.957 369.363C250.482 368.948 250.037 368.499 249.626 368.02L246.125 364.284C243.104 361.073 239.054 356.755 234.591 351.978L222.934 339.784L219.399 336.081C218.953 335.641 218.538 335.17 218.157 334.672C218.664 335.046 219.136 335.465 219.567 335.925C220.439 336.753 221.692 337.972 223.225 339.493C226.29 342.536 230.474 346.799 235.005 351.587C239.535 356.375 243.563 360.782 246.427 364.015C247.859 365.626 249.011 366.946 249.783 367.864C250.219 368.326 250.613 368.828 250.957 369.363Z" fill="#263238"/>
<path d="M262.905 345.266C262.905 345.266 263.017 344.975 263.252 344.405C263.623 343.577 264.072 342.786 264.594 342.044C266.651 339.17 269.553 337.008 272.895 335.858C275.289 334.992 277.843 334.656 280.379 334.873C283.399 335.167 286.31 336.159 288.881 337.771C291.849 339.6 294.357 342.088 296.209 345.042C298.351 348.34 299.418 352.222 299.263 356.151C299.134 358.271 298.477 360.325 297.35 362.125C296.169 363.992 294.596 365.58 292.741 366.779C288.789 369.313 284.137 370.531 279.451 370.258C276.996 370.126 274.579 369.601 272.291 368.703C269.91 367.773 267.769 366.32 266.026 364.452C265.16 363.469 264.43 362.374 263.856 361.196C263.309 359.994 262.932 358.722 262.737 357.415C262.366 354.739 262.599 352.013 263.42 349.439C265.13 344.07 268.839 339.564 273.779 336.854C276.34 335.447 279.189 334.646 282.107 334.512C285.026 334.378 287.936 334.915 290.615 336.082C293.391 337.251 295.821 339.111 297.674 341.485C299.53 343.923 300.69 346.819 301.03 349.864C301.417 352.953 300.917 356.088 299.587 358.903C298.904 360.316 298.006 361.614 296.925 362.751C295.824 363.873 294.583 364.847 293.233 365.649C290.509 367.149 287.504 368.072 284.408 368.361C281.311 368.65 278.188 368.298 275.233 367.327C272.324 366.434 269.649 364.905 267.402 362.852C265.174 360.798 263.651 358.092 263.05 355.122C262.42 352.202 262.836 349.153 264.225 346.508C264.93 345.204 265.897 344.062 267.067 343.152C268.218 342.283 269.502 341.607 270.87 341.149C273.557 340.288 276.375 339.909 279.193 340.031C281.938 340.051 284.668 340.427 287.315 341.149C289.932 341.838 292.351 343.133 294.374 344.931C296.312 346.739 297.635 349.11 298.155 351.71C298.669 354.222 298.518 356.825 297.719 359.261C296.927 361.611 295.589 363.738 293.815 365.47C290.445 368.765 285.982 370.708 281.274 370.929C279.07 371.046 276.866 370.726 274.786 369.989C272.789 369.273 270.993 368.088 269.55 366.533C268.184 365.049 267.151 363.291 266.518 361.375C265.895 359.579 265.618 357.681 265.702 355.782C265.861 352.265 267.265 348.919 269.662 346.34C271.711 344.098 274.304 342.422 277.191 341.474C279.613 340.684 282.18 340.44 284.708 340.758C288.202 341.192 291.522 342.53 294.34 344.64C295.072 345.178 295.764 345.769 296.41 346.407C296.846 346.844 297.059 347.078 297.059 347.078C297.059 347.078 296.813 346.866 296.376 346.452C295.712 345.835 295.009 345.259 294.273 344.729C291.45 342.682 288.149 341.392 284.686 340.982C281.955 340.665 279.188 341.008 276.617 341.982C274.046 342.955 271.745 344.53 269.908 346.575C267.573 349.098 266.213 352.37 266.071 355.804C265.995 357.667 266.272 359.527 266.888 361.286C267.511 363.144 268.522 364.848 269.852 366.287C271.254 367.793 272.995 368.944 274.931 369.643C276.96 370.348 279.107 370.652 281.252 370.538C285.847 370.311 290.198 368.404 293.479 365.179C295.193 363.503 296.485 361.444 297.249 359.172C298.015 356.817 298.153 354.303 297.652 351.878C297.148 349.382 295.877 347.105 294.016 345.367C292.048 343.637 289.704 342.388 287.17 341.72C284.566 341.007 281.881 340.631 279.182 340.601C276.43 340.497 273.682 340.876 271.06 341.72C268.387 342.538 266.123 344.342 264.728 346.765C263.404 349.294 263.008 352.208 263.61 354.999C264.19 357.852 265.658 360.449 267.805 362.416C269.981 364.427 272.581 365.926 275.412 366.801C278.288 367.747 281.327 368.091 284.342 367.81C287.356 367.529 290.28 366.629 292.931 365.168C294.24 364.399 295.44 363.459 296.499 362.371C297.538 361.28 298.402 360.034 299.061 358.679C300.349 355.963 300.834 352.936 300.46 349.954C300.14 347.014 299.03 344.215 297.249 341.854C295.457 339.56 293.108 337.761 290.425 336.63C287.826 335.494 285.001 334.97 282.167 335.098C279.333 335.226 276.567 336.003 274.081 337.368C269.28 340.012 265.676 344.396 264.013 349.618C263.215 352.116 262.982 354.76 263.33 357.359C263.531 358.621 263.908 359.849 264.449 361.006C265.002 362.137 265.702 363.19 266.53 364.139C268.217 365.948 270.289 367.355 272.593 368.255C274.83 369.14 277.194 369.661 279.596 369.799C284.182 370.08 288.739 368.905 292.618 366.443C294.41 365.346 295.92 363.843 297.026 362.055C298.131 360.267 298.802 358.245 298.983 356.151C299.139 352.308 298.104 348.51 296.018 345.277C294.208 342.36 291.751 339.899 288.836 338.084C286.312 336.486 283.452 335.495 280.48 335.187C277.981 334.95 275.461 335.263 273.096 336.104C269.784 337.224 266.895 339.332 264.818 342.145C264.282 342.875 263.818 343.654 263.431 344.472C263.05 344.987 262.905 345.266 262.905 345.266Z" fill="#ECE2B2"/>
<path d="M293.211 376.154C293.311 376.277 284.44 383.862 273.387 393.102C262.334 402.343 253.251 409.715 253.184 409.592C253.116 409.469 261.954 401.884 273.007 392.655C284.06 383.425 293.11 376.031 293.211 376.154Z" fill="#263238"/>
<path d="M295.146 408.594C294.619 408.284 294.122 407.929 293.658 407.531L289.72 404.466C286.42 401.848 281.889 398.201 276.9 394.152C271.911 390.102 267.425 386.41 264.192 383.714L260.377 380.492C259.893 380.123 259.444 379.711 259.034 379.262C259.558 379.575 260.056 379.93 260.522 380.324L264.449 383.39C267.749 386.007 272.28 389.654 277.269 393.704C282.258 397.754 286.744 401.446 289.989 404.142L293.792 407.352C294.273 407.733 294.725 408.148 295.146 408.594Z" fill="#263238"/>
<path d="M386.599 376.588C386.689 376.711 378.209 383.211 367.637 391.131C357.066 399.052 348.429 405.305 348.329 405.171C348.228 405.037 356.719 398.548 367.291 390.628C377.862 382.707 386.499 376.454 386.599 376.588Z" fill="#263238"/>
<path d="M389.888 404.109C389.81 404.243 380.793 398.661 369.752 391.624C358.71 384.588 349.861 378.793 349.94 378.647C350.018 378.502 359.035 384.107 370.076 391.132C381.118 398.157 390.023 403.975 389.888 404.109Z" fill="#263238"/>
<path d="M294.665 458.446C294.542 458.334 303.357 449.094 314.343 437.829C325.328 426.563 334.334 417.491 334.479 417.603C334.625 417.714 325.787 426.955 314.801 438.231C303.816 449.508 294.777 458.558 294.665 458.446Z" fill="#ECE2B2"/>
<path d="M331.929 458.432C331.929 458.432 331.783 458.309 331.559 458.041L330.62 456.922C329.747 455.803 328.584 454.36 327.163 452.593C324.243 448.946 320.104 443.99 315.305 438.721C310.506 433.452 305.953 428.876 302.596 425.632L298.614 421.717L297.495 420.665C297.366 420.547 297.25 420.416 297.148 420.273C297.148 420.273 297.316 420.363 297.573 420.576L298.692 421.549C299.688 422.399 301.097 423.663 302.82 425.252C306.243 428.429 310.852 432.971 315.674 438.251C320.496 443.531 324.624 448.543 327.42 452.257C328.852 454.114 329.982 455.613 330.776 456.732L331.638 457.962C331.754 458.106 331.852 458.264 331.929 458.432Z" fill="#ECE2B2"/>
<path d="M240.352 411.379C240.352 411.379 240.71 438.865 233.774 455.321L191.499 448.117C191.499 448.117 204.229 422.074 200.761 407.598L240.352 411.379Z" fill="#EBEBEB"/>
<path d="M240.341 410.352C240.341 410.352 235.038 444.092 231.794 454.16L189.776 445.814C189.776 445.814 198.423 413.193 198.311 404.109L240.341 410.352Z" fill="#ECE2B2"/>
<path d="M202.574 419.236C202.574 419.393 208.816 420.847 216.591 422.481C224.366 424.114 230.687 425.311 230.72 425.165C230.754 425.02 224.478 423.554 216.703 421.921C208.928 420.288 202.607 419.08 202.574 419.236Z" fill="white"/>
<path d="M201.5 426.383C201.5 426.539 207.742 427.982 215.517 429.627C223.292 431.271 229.613 432.457 229.646 432.312C229.68 432.166 223.404 430.701 215.629 429.067C207.854 427.434 201.533 426.192 201.5 426.383Z" fill="white"/>
<path d="M207.675 434.469C208.392 434.78 209.143 435.006 209.912 435.14C211.355 435.487 213.358 435.945 215.562 436.415C217.766 436.885 219.79 437.266 221.256 437.534C222.039 437.73 222.843 437.828 223.65 437.825C222.906 437.512 222.129 437.283 221.334 437.142C219.902 436.784 217.9 436.326 215.685 435.867C213.47 435.408 211.456 435.006 210.002 434.748C209.24 434.562 208.459 434.468 207.675 434.469Z" fill="white"/>
<path d="M440.364 334.203C440.364 334.203 444.693 360.985 440.308 378.067L397.977 377.161C397.977 377.161 406.635 349.887 401.142 336.25L440.364 334.203Z" fill="#EBEBEB"/>
<path d="M440.174 333.195C440.174 333.195 439.894 366.879 438.183 377.16L395.929 375.158C395.929 375.158 399.632 342.044 398.167 333.195H440.174Z" fill="#455A64"/>
<path d="M404.163 348.188C404.163 348.344 410.517 348.479 418.359 348.49C426.201 348.501 432.567 348.389 432.567 348.232C432.567 348.076 426.212 347.942 418.359 347.93C410.506 347.919 404.163 348.031 404.163 348.188Z" fill="white"/>
<path d="M404.566 355.313C404.566 355.469 410.92 355.604 418.762 355.615C426.604 355.626 432.969 355.514 432.969 355.357C432.969 355.201 426.615 355.067 418.762 355.055C410.909 355.044 404.566 355.156 404.566 355.313Z" fill="white"/>
<path d="M412.139 361.878C412.918 362.045 413.715 362.116 414.511 362.09C415.976 362.09 418.001 362.169 420.239 362.18C422.476 362.191 424.49 362.18 425.955 362.101C426.75 362.133 427.547 362.069 428.327 361.911C427.548 361.745 426.751 361.677 425.955 361.71C424.49 361.654 422.476 361.62 420.239 361.609C418.001 361.598 415.976 361.609 414.511 361.687C413.716 361.656 412.919 361.719 412.139 361.878Z" fill="white"/>
<path d="M449.314 256.978C441.416 256.978 433.462 252.022 429.278 244.225C425.21 236.461 423.95 227.53 425.709 218.943C428.025 207.756 435.431 198.582 444.581 195.651C452.356 193.157 466.251 194.533 472.806 205.507C475.929 210.874 477.48 217.01 477.281 223.216C477.252 223.657 477.136 224.087 476.94 224.483C476.744 224.879 476.472 225.233 476.14 225.524C475.807 225.814 475.421 226.037 475.003 226.179C474.584 226.32 474.142 226.378 473.701 226.348C472.811 226.289 471.981 225.879 471.394 225.207C470.806 224.536 470.509 223.659 470.569 222.769C470.629 217.923 469.385 213.151 466.967 208.953C461.91 200.506 450.824 200.674 446.55 202.039C438.719 204.545 433.708 213.013 432.198 220.296C430.747 227.347 431.779 234.682 435.117 241.059C438.417 247.212 445.096 251.038 451.014 250.132C451.888 250.01 452.774 250.237 453.481 250.764C454.189 251.291 454.66 252.075 454.794 252.947C454.928 253.819 454.713 254.708 454.196 255.423C453.679 256.137 452.902 256.62 452.032 256.766C451.133 256.905 450.224 256.976 449.314 256.978Z" fill="#263238"/>
<path d="M232.644 256.979C224.735 256.979 216.792 252.023 212.608 244.226C208.537 236.462 207.273 227.531 209.029 218.943C210.986 209.501 217.609 198.628 228.046 195.629C233.079 194.266 238.414 194.537 243.283 196.401L240.867 202.666C237.363 201.334 233.531 201.127 229.903 202.073C222.207 204.311 217.195 212.835 215.651 220.297C214.201 227.347 215.233 234.682 218.571 241.06C221.871 247.224 228.561 251.039 234.468 250.132L235.486 256.766C234.546 256.912 233.596 256.983 232.644 256.979Z" fill="#263238"/>
<path d="M446.55 223.383L443.463 240.286H488.893L492.932 223.551L446.55 223.383Z" fill="#ECE2B2"/>
<path d="M244.156 254.305C244.158 255.736 243.736 257.135 242.942 258.325C242.149 259.515 241.021 260.443 239.7 260.991C238.379 261.54 236.925 261.684 235.522 261.405C234.119 261.127 232.83 260.438 231.819 259.427C230.807 258.415 230.119 257.127 229.84 255.724C229.562 254.321 229.706 252.867 230.254 251.546C230.803 250.225 231.731 249.096 232.921 248.303C234.111 247.51 235.51 247.088 236.94 247.09C238.853 247.093 240.686 247.854 242.039 249.207C243.392 250.559 244.153 252.393 244.156 254.305Z" fill="#263238"/>
<path d="M460.635 254.305C460.637 255.736 460.215 257.135 459.422 258.325C458.628 259.515 457.5 260.443 456.179 260.991C454.858 261.54 453.404 261.684 452.001 261.405C450.598 261.127 449.309 260.438 448.298 259.427C447.287 258.415 446.598 257.127 446.32 255.724C446.041 254.321 446.185 252.867 446.734 251.546C447.282 250.225 448.21 249.096 449.4 248.303C450.59 247.51 451.989 247.088 453.419 247.09C455.332 247.093 457.166 247.854 458.518 249.207C459.871 250.559 460.632 252.393 460.635 254.305Z" fill="#263238"/>
<path d="M341.415 114.43L329.535 159.491L288.523 163.898V171.17L346.147 173.195L356.976 122.641L341.415 114.43Z" fill="#FFBE9D"/>
<path d="M358.699 174.393C358.699 174.393 294.62 171.339 276.374 185.58C258.128 199.821 266.966 223.201 266.966 223.201L370.087 222.933L379.194 170.656L358.699 174.393Z" fill="#263238"/>
<path d="M369.606 208.882C369.295 208.89 368.985 208.868 368.678 208.815C368.074 208.748 367.19 208.658 366.049 208.513C363.812 208.233 360.455 207.764 356.428 207.081C345.855 205.283 335.395 202.866 325.105 199.843C319.086 198.064 313.392 196.275 308.134 194.966C303.493 193.764 298.746 193.015 293.96 192.728C290.731 192.547 287.492 192.735 284.306 193.288C283.187 193.422 282.326 193.713 281.722 193.813C281.423 193.887 281.121 193.943 280.815 193.981C281.1 193.859 281.396 193.765 281.699 193.701C282.54 193.44 283.395 193.227 284.261 193.064C287.455 192.419 290.716 192.167 293.971 192.314C298.826 192.546 303.645 193.261 308.358 194.451C313.649 195.726 319.355 197.516 325.351 199.295C335.586 202.292 345.97 204.753 356.462 206.667C360.5 207.406 363.778 207.931 366.049 208.289L368.667 208.703C368.984 208.737 369.299 208.796 369.606 208.882Z" fill="#455A64"/>
<path d="M310.047 194.617C308.267 193.149 306.37 191.828 304.375 190.668C302.285 189.69 300.118 188.882 297.898 188.252C298.587 188.192 299.281 188.26 299.945 188.453C301.581 188.805 303.161 189.377 304.644 190.153C306.124 190.934 307.493 191.908 308.716 193.051C309.252 193.486 309.704 194.017 310.047 194.617Z" fill="#455A64"/>
<path d="M365.49 313.68L366.351 340.607L360.937 362.108C360.849 362.476 360.838 362.859 360.904 363.231C360.971 363.604 361.113 363.959 361.323 364.274C361.533 364.589 361.806 364.857 362.125 365.062C362.443 365.267 362.8 365.404 363.174 365.464C363.606 365.543 364.051 365.517 364.472 365.389C364.892 365.26 365.276 365.033 365.59 364.726C369.662 360.743 384.608 346.021 384.418 344.064C384.217 341.826 385.391 315.581 385.391 315.581L365.49 313.68Z" fill="#ECE2B2"/>
<g opacity="0.6">
<path d="M363.073 365.509L384.328 342.285V343.404C384.341 344.392 384 345.353 383.366 346.111C381.677 348.136 376.878 353.629 365.59 364.749C365.268 365.068 364.871 365.302 364.436 365.431C364 365.56 363.54 365.579 363.096 365.487L363.073 365.509Z" fill="white"/>
</g>
<g opacity="0.6">
<path d="M378.69 333.637C378.349 333.886 378.115 334.255 378.034 334.67C377.953 335.085 378.032 335.515 378.254 335.874C378.489 336.209 378.844 336.442 379.245 336.525C379.646 336.608 380.064 336.536 380.413 336.322C380.764 336.062 381.004 335.68 381.087 335.251C381.17 334.822 381.089 334.378 380.86 334.006C380.582 333.678 380.187 333.471 379.759 333.43C379.331 333.388 378.904 333.514 378.567 333.782" fill="white"/>
</g>
<path d="M369.125 353.674C368.969 353.752 368.342 352.354 366.743 351.604C365.753 351.216 364.696 351.026 363.633 351.045C363.633 350.978 363.946 350.765 364.572 350.665C365.402 350.564 366.244 350.703 366.998 351.066C367.751 351.429 368.385 352 368.823 352.712C369.137 353.26 369.181 353.652 369.125 353.674Z" fill="#263238"/>
<path d="M367.235 357.31C366.461 356.887 365.661 356.514 364.841 356.191C363.967 356.037 363.086 355.933 362.201 355.878C362.612 355.614 363.081 355.452 363.568 355.407C364.054 355.363 364.545 355.436 364.997 355.621C366.586 356.046 367.369 357.232 367.235 357.31Z" fill="#263238"/>
<path d="M372.649 348.998C371.506 348.245 370.31 347.575 369.069 346.996C367.759 346.595 366.42 346.296 365.065 346.101C366.474 345.806 367.938 345.922 369.282 346.436C370.627 346.949 371.796 347.839 372.649 348.998Z" fill="#263238"/>
<path d="M373.074 340.808C373.007 340.976 371.508 340.361 369.573 340.316C367.638 340.271 366.105 340.741 366.038 340.573C367.123 339.975 368.35 339.681 369.588 339.723C370.827 339.764 372.031 340.139 373.074 340.808Z" fill="#263238"/>
<path d="M373.018 332.899C371.84 332.528 370.617 332.321 369.383 332.283C368.159 332.426 366.962 332.738 365.825 333.212C365.825 333.156 366.071 332.809 366.687 332.451C367.51 331.986 368.432 331.722 369.377 331.681C370.322 331.641 371.263 331.824 372.124 332.216C372.739 332.518 373.063 332.831 373.018 332.899Z" fill="#263238"/>
<path d="M369.416 330.772C369.347 330.436 369.347 330.09 369.416 329.754C369.5 328.819 369.77 327.91 370.211 327.081C370.472 326.442 370.941 325.91 371.542 325.57C371.75 325.477 371.981 325.45 372.205 325.492C372.429 325.534 372.635 325.643 372.795 325.805C373.083 326.141 373.238 326.571 373.231 327.013C373.178 327.915 372.815 328.771 372.203 329.435C371.592 330.1 370.769 330.533 369.875 330.66C368.982 330.76 368.081 330.591 367.284 330.177C366.487 329.763 365.831 329.121 365.4 328.333C365.291 328.135 365.227 327.915 365.212 327.689C365.196 327.463 365.23 327.236 365.311 327.025C365.415 326.824 365.578 326.66 365.778 326.555C365.978 326.449 366.205 326.406 366.429 326.432C367.094 326.574 367.711 326.886 368.219 327.338C368.953 327.919 369.582 328.623 370.076 329.419C370.274 329.699 370.418 330.014 370.501 330.347C369.79 329.336 368.935 328.436 367.962 327.673C367.508 327.301 366.971 327.044 366.396 326.924C366.272 326.903 366.144 326.922 366.031 326.978C365.919 327.034 365.827 327.125 365.769 327.237C365.73 327.381 365.719 327.531 365.738 327.679C365.757 327.827 365.806 327.97 365.881 328.099C366.273 328.765 366.849 329.305 367.539 329.654C368.229 330.003 369.005 330.146 369.774 330.067C370.537 329.97 371.244 329.614 371.775 329.058C372.307 328.502 372.631 327.78 372.694 327.013C372.709 326.707 372.614 326.406 372.426 326.163C372.341 326.067 372.228 326.002 372.103 325.975C371.978 325.949 371.848 325.964 371.732 326.018C371.241 326.318 370.851 326.758 370.613 327.282C370.018 328.369 369.613 329.549 369.416 330.772Z" fill="#263238"/>
<path d="M379.138 170.654C379.138 170.654 351.428 223.042 351.047 232.182C350.667 241.322 351.047 325.571 351.047 325.571H393.938C395.057 325.571 401.489 287.614 400.18 278.877C398.872 270.14 394.251 223.177 394.251 223.177H418.93C418.93 223.177 425.698 215.939 425.452 206.754C425.306 201.686 421.995 191.327 418.74 185.834C416.625 182.311 403.078 163.863 403.078 163.863L379.138 170.654Z" fill="#263238"/>
<path d="M377.281 174.2C377.251 174.305 377.209 174.406 377.158 174.502C377.057 174.726 376.923 175.006 376.755 175.353L375.144 178.619C374.417 180.04 373.555 181.763 372.549 183.765L370.938 186.976L369.248 190.634L360.937 208.634C359.359 211.99 357.704 215.581 355.981 219.262L353.374 224.855C352.532 226.789 351.894 228.806 351.472 230.874C351.047 232.946 350.826 235.056 350.812 237.172C350.745 239.264 350.7 241.333 350.667 243.358C350.667 247.43 350.589 251.346 350.6 255.082C350.6 262.555 350.689 269.29 350.768 274.939C350.846 280.588 350.913 285.119 350.969 288.363C350.969 289.907 350.969 291.127 350.969 291.999C350.969 292.391 350.969 292.704 350.969 292.95C350.969 293.196 350.969 293.275 350.969 293.275C350.95 293.167 350.95 293.057 350.969 292.95C350.969 292.704 350.969 292.391 350.969 292.01C350.969 291.127 350.879 289.918 350.812 288.363C350.7 285.209 350.555 280.633 350.432 274.939C350.309 269.245 350.175 262.566 350.141 255.082C350.141 251.346 350.141 247.419 350.141 243.358C350.141 241.322 350.208 239.253 350.287 237.149C350.297 235 350.518 232.857 350.947 230.751C351.38 228.645 352.032 226.59 352.893 224.62L355.511 219.027L360.5 208.421L368.98 190.466L370.703 186.819C371.296 185.701 371.821 184.582 372.358 183.631L375.032 178.53C375.759 177.154 376.341 176.08 376.744 175.308C376.934 174.972 377.091 174.704 377.202 174.48C377.314 174.256 377.27 174.189 377.281 174.2Z" fill="#455A64"/>
<path d="M368.309 192.045C367.419 189.915 366.672 187.729 366.071 185.501C365.286 183.331 364.647 181.111 364.158 178.855C365.201 180.923 366.026 183.094 366.619 185.333C367.411 187.506 367.978 189.755 368.309 192.045Z" fill="#455A64"/>
<path d="M400.27 277.233C400.198 277.042 400.153 276.842 400.136 276.64C400.084 276.185 400.005 275.614 399.901 274.928C399.699 273.351 399.442 271.203 399.118 268.596C398.502 263.182 397.675 255.832 396.757 247.71C395.84 239.588 395.09 232.149 394.632 226.79C394.419 224.173 394.24 222.025 394.106 220.447C394.106 219.743 394.016 219.172 393.983 218.713C393.968 218.512 393.968 218.31 393.983 218.109C394.053 218.3 394.095 218.5 394.106 218.702C394.162 219.161 394.24 219.731 394.33 220.425C394.509 222.002 394.755 224.139 395.046 226.757C395.639 232.171 396.444 239.532 397.283 247.654C398.122 255.776 398.916 263.126 399.52 268.551C399.767 271.169 399.979 273.317 400.125 274.894C400.18 275.588 400.225 276.17 400.259 276.628C400.28 276.829 400.283 277.031 400.27 277.233Z" fill="#455A64"/>
<path d="M389.374 30.3482C388.714 25.8735 392.551 21.5665 396.981 21.0407C401.411 20.5149 405.875 23.2781 407.911 27.3166C408.858 29.3475 409.377 31.552 409.435 33.7924C409.493 36.0328 409.088 38.2611 408.246 40.3382C407.128 43.1685 405.058 46.0324 402.049 46.2561C399.039 46.4799 396.735 44.1865 394.744 42.0722" fill="#263238"/>
<path d="M357.883 52.543C348.933 32.9322 370.188 23.0765 381.744 26.3431C392.618 29.4195 397.261 34.834 399.051 42.1055C401.011 49.4008 400.62 57.1288 397.932 64.1886C396.522 67.6118 393.994 71.0798 390.325 71.5049" fill="#263238"/>
<path d="M388.68 37.2298C389.601 37.3252 390.451 37.7639 391.063 38.4584C391.675 39.1529 392.002 40.0523 391.98 40.9775L389.888 90.8937C389.81 96.7893 381.207 100.123 374.887 99.9888C368.521 99.8545 368.309 96.7222 368.175 91.1175C368.029 81.754 368.029 78.2301 368.029 78.286C368.029 78.342 359.974 76.9436 358.308 66.439C357.469 61.2147 357.737 52.6455 358.173 45.6424C358.576 39.3442 362.749 31.6028 369.036 32.2181L388.68 37.2298Z" fill="#FFBE9D"/>
<path d="M362.29 51.6141C362.284 51.9663 362.417 52.3069 362.66 52.5622C362.902 52.8175 363.236 52.9672 363.588 52.9789C363.76 52.9926 363.932 52.9716 364.096 52.9173C364.259 52.863 364.41 52.7764 364.539 52.6627C364.669 52.549 364.774 52.4104 364.849 52.2553C364.924 52.1001 364.967 51.9315 364.975 51.7595C364.978 51.4081 364.845 51.0691 364.602 50.8144C364.36 50.5597 364.029 50.4092 363.677 50.3947C363.506 50.381 363.333 50.4019 363.169 50.4562C363.006 50.5106 362.855 50.5971 362.726 50.7109C362.596 50.8246 362.491 50.9631 362.416 51.1183C362.342 51.2734 362.299 51.442 362.29 51.6141Z" fill="#263238"/>
<path d="M360.064 50.1045C360.232 50.2723 361.261 49.5228 362.704 49.5228C364.147 49.5228 365.221 50.2499 365.378 50.0709C365.534 49.8919 365.288 49.6794 364.818 49.3438C364.191 48.9101 363.445 48.6797 362.682 48.6838C361.929 48.6765 361.194 48.9162 360.59 49.3662C360.142 49.7018 359.986 50.0262 360.064 50.1045Z" fill="#263238"/>
<path d="M376.464 51.6152C376.46 51.9593 376.588 52.292 376.82 52.5455C377.053 52.7991 377.374 52.9544 377.717 52.98C377.889 52.9937 378.061 52.9728 378.225 52.9185C378.388 52.8641 378.539 52.7776 378.669 52.6638C378.798 52.5501 378.903 52.4116 378.978 52.2564C379.053 52.1013 379.096 51.9327 379.104 51.7606C379.107 51.4092 378.974 51.0703 378.732 50.8156C378.489 50.5609 378.158 50.4103 377.806 50.3958C377.467 50.3806 377.135 50.5003 376.884 50.7287C376.632 50.9572 376.481 51.2759 376.464 51.6152Z" fill="#263238"/>
<path d="M374.361 50.374C374.529 50.5418 375.547 49.7923 376.99 49.7923C378.433 49.7923 379.507 50.5194 379.664 50.3516C379.82 50.1838 379.574 49.9489 379.104 49.6133C378.477 49.1776 377.731 48.9471 376.967 48.9532C376.215 48.9531 375.483 49.1921 374.875 49.6357C374.361 49.9713 374.238 50.3069 374.361 50.374Z" fill="#263238"/>
<path d="M369.058 61.1244C368.295 60.8892 367.506 60.7464 366.709 60.6993C366.34 60.6993 365.982 60.5874 365.926 60.3413C365.891 59.952 365.977 59.5613 366.172 59.2226C366.519 58.3276 366.877 57.3879 367.291 56.4035C368.305 54.015 369.128 51.5499 369.752 49.0312C368.54 51.3305 367.519 53.7251 366.698 56.1909L365.646 59.0324C365.415 59.4801 365.348 59.9946 365.456 60.4867C365.512 60.6167 365.596 60.7326 365.702 60.8255C365.809 60.9185 365.935 60.9862 366.071 61.0237C366.276 61.0778 366.486 61.1078 366.698 61.1132C367.481 61.2145 368.274 61.2182 369.058 61.1244Z" fill="#263238"/>
<path d="M368.063 78.275C373.029 78.3654 377.923 77.0675 382.192 74.5273C382.192 74.5273 378.769 81.7541 368.253 80.7697L368.063 78.275Z" fill="#EB996E"/>
<path d="M369.674 64.6157C369.95 64.2709 370.31 64.0019 370.719 63.8337C371.128 63.6654 371.572 63.6035 372.012 63.6536C372.333 63.6805 372.646 63.7728 372.931 63.9247C373.215 64.0767 373.466 64.2852 373.667 64.5374C373.86 64.7787 373.974 65.0732 373.994 65.3812C374.014 65.6892 373.939 65.996 373.779 66.2602C373.547 66.5217 373.241 66.7074 372.902 66.7932C372.563 66.879 372.206 66.8608 371.877 66.7412C371.189 66.4987 370.557 66.118 370.02 65.6225C369.858 65.5069 369.718 65.3629 369.606 65.1974C369.554 65.1175 369.527 65.0242 369.527 64.9289C369.527 64.8336 369.554 64.7403 369.606 64.6604" fill="#EB996E"/>
<path d="M373.332 62.1291C373.097 62.1291 373.086 63.6841 371.743 64.8028C370.401 65.9215 368.723 65.7425 368.711 65.9215C368.7 66.1005 369.081 66.2236 369.83 66.2459C370.754 66.2565 371.652 65.9439 372.37 65.3622C373.051 64.8015 373.492 64.0007 373.6 63.1248C373.611 62.5095 373.432 62.118 373.332 62.1291Z" fill="#263238"/>
<path d="M373.667 47.8317C373.813 48.2232 375.267 48.033 376.967 48.2456C378.668 48.4581 380.044 48.9056 380.268 48.5588C380.368 48.391 380.122 48.0218 379.574 47.6303C378.837 47.1562 377.997 46.8647 377.124 46.7801C376.255 46.6715 375.372 46.7752 374.551 47.0821C373.925 47.3283 373.611 47.6415 373.667 47.8317Z" fill="#263238"/>
<path d="M360.601 45.8979C360.858 46.2335 361.854 45.8979 363.062 45.8979C364.27 45.8979 365.299 46.1217 365.512 45.7749C365.613 45.6071 365.512 45.2715 365.009 44.9694C364.419 44.5819 363.722 44.3901 363.017 44.4212C362.313 44.4358 361.629 44.6662 361.06 45.0813C360.634 45.4057 360.489 45.7413 360.601 45.8979Z" fill="#263238"/>
<path d="M374.283 28.7695C370.717 28.9514 367.254 30.0287 364.214 31.9019C362.51 32.7852 360.997 33.9956 359.761 35.464C358.524 36.9325 357.59 38.6301 357.01 40.4599C356.863 40.8405 356.795 41.2471 356.81 41.6549C356.825 42.0627 356.924 42.4631 357.099 42.8315C357.432 43.2529 357.901 43.5449 358.426 43.6572C358.951 43.7696 359.499 43.6951 359.974 43.4468C360.923 42.9312 361.73 42.1896 362.324 41.2877C362.56 42.274 363.125 43.1506 363.925 43.774C364.725 44.3974 365.713 44.7306 366.727 44.7189C367.741 44.7072 368.721 44.3513 369.506 43.7096C370.292 43.0679 370.836 42.1785 371.05 41.187C371.13 42.1948 371.595 43.1329 372.35 43.806C373.104 44.4791 374.089 44.8353 375.099 44.8004C376.107 44.7132 377.068 44.3331 377.863 43.7071C378.658 43.081 379.253 42.2362 379.574 41.2765C379.821 43.0956 380.45 44.8418 381.42 46.4002C381.917 47.1737 382.639 47.7755 383.49 48.1237C384.341 48.472 385.278 48.5499 386.174 48.3467C385.798 49.8933 385.822 51.51 386.241 53.0452C386.801 54.5219 389.027 79.7933 390.526 79.2787C392.025 78.7641 391.969 52.9893 392.305 51.4902C393.049 48.6147 393.425 45.6563 393.424 42.6861C393.524 39.6262 392.532 36.6305 390.626 34.2346C388.72 31.8388 386.024 30.199 383.02 29.6085C380.021 28.9206 376.943 28.6384 373.869 28.7695" fill="#263238"/>
<path d="M395.336 74.7926C395.336 74.7926 395.236 74.8598 395.012 74.9381C394.698 75.0532 394.371 75.132 394.039 75.173C392.483 75.3705 390.903 75.1221 389.483 74.4567C388.063 73.7912 386.861 72.7361 386.018 71.4142C384.874 69.4227 384.392 67.1193 384.642 64.8362C384.81 62.431 385.369 60.2384 385.626 58.2247C385.879 56.4371 386.036 54.6371 386.096 52.8326C386.096 51.2888 386.096 50.047 386.096 49.1745C386.048 48.7283 386.048 48.2782 386.096 47.832C386.229 48.272 386.308 48.7266 386.331 49.1857C386.453 50.4086 386.513 51.6371 386.51 52.8662C386.508 54.6876 386.392 56.5072 386.163 58.3142C385.917 60.3726 385.391 62.5765 385.223 64.8922C384.984 67.0597 385.422 69.2481 386.476 71.1569C387.396 72.6766 388.81 73.8339 390.481 74.4347C391.604 74.863 392.806 75.0461 394.005 74.9716C394.867 74.9157 395.325 74.7367 395.336 74.7926Z" fill="#263238"/>
<path d="M370.58 27.418C370.987 28.184 371.176 29.0467 371.128 29.9127C371.167 32.0325 370.365 34.0815 368.898 35.6119C367.43 37.1422 365.417 38.0292 363.297 38.0792C362.436 38.1617 361.57 38.0069 360.791 37.6317C360.791 37.531 361.753 37.7995 363.275 37.6317C365.263 37.4966 367.13 36.6272 368.513 35.1924C369.896 33.7576 370.697 31.8599 370.759 29.8679C370.792 28.3801 370.479 27.4403 370.58 27.418Z" fill="#455A64"/>
<path d="M372.124 39.7914C372.179 39.7914 372.045 40.5073 371.24 41.2904C370.705 41.7713 370.078 42.1391 369.398 42.3717C368.717 42.6043 367.997 42.6969 367.28 42.6441C365.873 42.5186 364.518 42.0541 363.331 41.2904C362.424 40.7199 361.932 40.2836 361.977 40.1717C362.519 40.3423 363.037 40.579 363.521 40.8765C364.701 41.49 365.989 41.8698 367.313 41.9952C368.627 42.0727 369.925 41.6757 370.971 40.8765C371.788 40.3619 372.056 39.7466 372.124 39.7914Z" fill="#455A64"/>
<path d="M397.462 36.5781C397.537 37.5412 397.469 38.5099 397.261 39.4532C396.944 41.7898 396.061 44.0135 394.688 45.9304C393.971 46.881 393.067 47.675 392.032 48.2637C390.997 48.8524 389.853 49.2233 388.669 49.3536C387.95 49.4184 387.225 49.3463 386.532 49.1411C386.051 48.9957 385.816 48.8502 385.828 48.8167C386.75 48.9817 387.691 49.0231 388.624 48.9397C390.85 48.5785 392.852 47.3773 394.218 45.5836C395.528 43.7302 396.425 41.6165 396.847 39.386C396.994 38.4383 397.199 37.5005 397.462 36.5781Z" fill="#455A64"/>
<path d="M399.386 41.668C399.489 41.9556 399.546 42.2576 399.554 42.5629C399.629 43.3773 399.648 44.1959 399.61 45.0129C399.551 47.7656 398.566 50.4181 396.813 52.5417C395.824 53.7093 394.536 54.5868 393.088 55.0811C391.9 55.4697 390.633 55.5468 389.407 55.3049C388.584 55.1477 387.803 54.82 387.114 54.3428C386.644 53.996 386.443 53.7387 386.465 53.7163C387.383 54.3003 388.405 54.7028 389.475 54.9022C390.629 55.068 391.806 54.9568 392.909 54.5777C394.252 54.0819 395.446 53.2499 396.377 52.1614C398.038 50.1165 399.027 47.6079 399.207 44.9793C399.386 42.9545 399.285 41.6792 399.386 41.668Z" fill="#455A64"/>
<path d="M251.931 176.885L231.626 223.322H259.583L279.495 176.516L251.931 176.885Z" fill="#455A64"/>
<path d="M237.164 127.496L260.064 172.535H332.287L329.367 166.65L308.447 166.024L291.387 128.055C290.869 126.898 290.027 125.916 288.963 125.228C287.899 124.539 286.658 124.173 285.391 124.173H239.2C238.804 124.159 238.411 124.25 238.062 124.438C237.712 124.625 237.419 124.902 237.212 125.24C237.005 125.578 236.891 125.965 236.883 126.362C236.874 126.758 236.971 127.149 237.164 127.496Z" fill="#E0E0E0"/>
<path d="M273.331 147.689C273.331 148.235 273.169 148.77 272.866 149.224C272.562 149.679 272.131 150.033 271.626 150.242C271.121 150.451 270.565 150.506 270.029 150.399C269.493 150.292 269.001 150.029 268.614 149.643C268.228 149.256 267.965 148.764 267.858 148.228C267.751 147.692 267.806 147.136 268.015 146.632C268.224 146.127 268.579 145.695 269.033 145.391C269.487 145.088 270.022 144.926 270.568 144.926C271.3 144.929 272.001 145.221 272.519 145.738C273.036 146.256 273.328 146.957 273.331 147.689Z" fill="#263238"/>
<path d="M339.983 172.625H251.696V176.932H339.983V172.625Z" fill="#455A64"/>
<path d="M312.788 174.785L339.648 223.37H352.49L355.287 217.81L357.86 211.959L339.983 176.933L312.788 174.785Z" fill="#455A64"/>
<path d="M359.46 91.4844C359.46 91.4844 343.865 96.9772 340.509 114.429L356.976 122.64L359.46 91.4844Z" fill="#ECE2B2"/>
<path d="M359.46 91.4857C359.46 91.4857 348.553 115.94 348.966 129.298C349.112 133.94 352.155 146.078 352.155 146.078L357.827 176.126C357.827 176.126 401.243 170.253 402.205 170.253C403.167 170.253 400.751 145.586 400.751 145.586L407.832 98.1867C407.832 98.1867 404.588 91.7318 389.933 89.4944C381.151 88.1184 359.46 91.4857 359.46 91.4857Z" fill="#ECE2B2"/>
<path d="M355.343 105.68C355.444 105.736 354.303 107.559 352.927 110.714C352.129 112.561 351.456 114.46 350.913 116.397C350.26 118.771 349.785 121.19 349.492 123.635C349.235 126.083 349.156 128.547 349.257 131.007C349.359 133.015 349.594 135.015 349.962 136.992C350.589 140.348 351.305 142.407 351.193 142.44C350.958 141.995 350.771 141.526 350.633 141.042C350.434 140.488 350.262 139.924 350.119 139.352C349.94 138.681 349.705 137.932 349.548 137.115C349.129 135.124 348.852 133.105 348.72 131.074C348.586 128.582 348.65 126.083 348.911 123.601C349.208 121.123 349.706 118.672 350.398 116.274C350.973 114.324 351.695 112.42 352.558 110.58C352.872 109.865 353.223 109.166 353.609 108.488C353.877 107.962 354.172 107.45 354.493 106.955C354.732 106.502 355.017 106.075 355.343 105.68Z" fill="#263238"/>
<path d="M364.74 91.2621L365.367 84.55C365.435 83.8524 365.758 83.2045 366.274 82.7299C366.79 82.2554 367.462 81.9873 368.163 81.9769L389.586 81.6525C390.236 81.6448 390.865 81.8844 391.344 82.3227C391.824 82.7609 392.12 83.3651 392.171 84.013L392.719 91.2509C390.925 95.0522 387.891 98.1297 384.116 99.9768C377.818 103.031 368.029 103.132 368.029 103.132L364.74 91.2621Z" fill="#ECE2B2"/>
<path d="M370.345 82.0299C370.412 82.0299 370.099 82.4662 369.964 83.1486C369.843 84.1368 369.843 85.1362 369.964 86.1244C370.152 87.5651 370.152 89.0242 369.964 90.4649C369.58 89.0616 369.384 87.6131 369.383 86.1579C369.233 85.122 369.279 84.0672 369.517 83.048C369.886 82.276 370.311 81.974 370.345 82.0299Z" fill="#263238"/>
<path d="M375.48 90.333C375.105 88.9628 374.925 87.547 374.943 86.1267C374.859 85.1216 374.859 84.1114 374.943 83.1062C375.055 82.3008 375.379 81.8869 375.446 81.9875C375.513 82.0882 375.345 82.4574 375.357 83.1957C375.368 83.9341 375.48 84.9857 375.48 86.1044C375.668 87.5076 375.668 88.9298 375.48 90.333Z" fill="#263238"/>
<path d="M381.912 90.1526C381.449 88.8472 381.167 87.4848 381.073 86.103C380.797 84.7342 380.71 83.3338 380.816 81.9414C381.283 83.257 381.566 84.6313 381.655 86.0247C381.927 87.3827 382.014 88.7713 381.912 90.1526Z" fill="#263238"/>
<path d="M387.461 90.5776C386.95 89.1399 386.678 87.6284 386.655 86.1028C386.441 84.5819 386.478 83.0359 386.767 81.5273C387.06 83.0015 387.217 84.4993 387.237 86.0021C387.455 87.5169 387.529 89.0488 387.461 90.5776Z" fill="#263238"/>
<g opacity="0.3">
<path d="M391.712 116.207C390.85 123.736 391.421 136.713 394.083 143.816L406.591 123.154L391.712 116.207Z" fill="black"/>
</g>
<path d="M406.669 96.6328L406.736 96.6999C410.283 100.423 412.877 104.948 414.298 109.889L416.603 120.394L391.992 124.198C390.637 119.742 390.315 115.036 391.052 110.438C392.26 102.517 406.669 96.6328 406.669 96.6328Z" fill="#ECE2B2"/>
<path d="M416.603 120.395C416.443 120.451 416.278 120.492 416.111 120.518L414.701 120.775L409.432 121.636L391.6 124.344H391.287V124.019C391.231 122.531 391.186 120.987 391.153 119.399C391.097 115.271 391.153 111.322 391.399 107.731C391.569 104.513 392.555 101.391 394.263 98.6583C395.41 96.8203 396.983 95.2854 398.849 94.1835C399.352 93.8844 399.885 93.637 400.438 93.4451C400.622 93.3604 400.818 93.3038 401.019 93.2773C401.019 93.2773 400.236 93.5794 398.961 94.396C397.186 95.5333 395.697 97.0646 394.609 98.8708C392.989 101.586 392.066 104.661 391.924 107.82C391.667 111.378 391.678 115.316 391.745 119.444C391.745 121.01 391.824 122.565 391.857 124.042L391.533 123.762L409.432 121.245L414.724 120.562L416.155 120.395C416.304 120.375 416.454 120.375 416.603 120.395Z" fill="#263238"/>
<path d="M364.617 104.965C363.364 104.236 362.213 103.345 361.194 102.314C360.045 101.427 359.021 100.389 358.151 99.2266C360.553 100.842 362.727 102.773 364.617 104.965Z" fill="#FAFAFA"/>
<path d="M361.295 117.91C360.417 118.811 359.401 119.567 358.285 120.148C357.261 120.89 356.129 121.471 354.929 121.87C356.828 120.239 358.967 118.91 361.272 117.933L361.295 117.91Z" fill="#FAFAFA"/>
<path d="M375.021 121.098C374.822 119.508 374.822 117.9 375.021 116.31C375.029 114.711 375.224 113.119 375.603 111.566C375.798 113.153 375.798 114.757 375.603 116.343C375.599 117.946 375.403 119.542 375.021 121.098Z" fill="#FAFAFA"/>
<path d="M388.367 134.04C387.254 132.995 386.214 131.874 385.257 130.684C384.157 129.636 383.129 128.515 382.181 127.328C383.523 128.107 384.71 129.127 385.682 130.337C386.789 131.403 387.698 132.657 388.367 134.04Z" fill="#FAFAFA"/>
<path d="M390.246 106.98C389.286 107.979 388.19 108.838 386.991 109.531C385.893 110.377 384.685 111.069 383.4 111.589C384.363 110.589 385.463 109.73 386.667 109.039C387.764 108.198 388.968 107.506 390.246 106.98Z" fill="#FAFAFA"/>
<path d="M378.187 97.1914C377.125 98.2241 375.928 99.1085 374.629 99.8203C373.438 100.702 372.137 101.424 370.759 101.968C371.822 100.934 373.018 100.046 374.316 99.3281C375.512 98.4572 376.813 97.7394 378.187 97.1914Z" fill="#FAFAFA"/>
<path d="M389.061 101.085C388.328 100.002 387.755 98.819 387.36 97.5724C386.81 96.3871 386.433 95.1287 386.241 93.8359C386.983 94.9178 387.557 96.1059 387.942 97.3598C388.499 98.5386 388.876 99.7944 389.061 101.085Z" fill="#FAFAFA"/>
<path d="M404.018 105.993C402.229 104.753 400.676 103.204 399.431 101.418C400.378 101.96 401.223 102.664 401.926 103.499C402.768 104.197 403.477 105.042 404.018 105.993Z" fill="#FAFAFA"/>
<path d="M397.854 116.9C397.498 115.795 397.335 114.637 397.373 113.477C397.206 112.331 397.24 111.165 397.473 110.031C397.987 112.283 398.116 114.605 397.854 116.9Z" fill="#FAFAFA"/>
<path d="M410.282 114.643C408.981 114.851 407.651 114.805 406.367 114.509C405.056 114.402 403.777 114.049 402.597 113.469C403.897 113.482 405.191 113.64 406.456 113.939C407.753 114.037 409.036 114.273 410.282 114.643Z" fill="#FAFAFA"/>
<path d="M360.165 137.182C359.252 135.919 358.501 134.547 357.927 133.099C357.178 131.732 356.599 130.278 356.204 128.77C357.117 130.033 357.868 131.404 358.442 132.853C359.194 134.219 359.773 135.673 360.165 137.182Z" fill="#FAFAFA"/>
<path d="M376.598 154.838C375.547 153.883 374.632 152.787 373.88 151.583C372.981 150.484 372.229 149.273 371.643 147.98C372.696 148.937 373.614 150.032 374.372 151.236C375.275 152.329 376.024 153.541 376.598 154.838Z" fill="#FAFAFA"/>
<path d="M390.179 147.43C389.028 148.18 387.778 148.768 386.465 149.175C385.221 149.762 383.899 150.165 382.539 150.372C384.931 149.03 387.505 148.04 390.179 147.43Z" fill="#FAFAFA"/>
<path d="M356.719 161.727C357.256 159.616 358.161 157.617 359.393 155.82C359.203 156.904 358.825 157.945 358.274 158.897C357.926 159.924 357.4 160.882 356.719 161.727Z" fill="#FAFAFA"/>
<path d="M346.192 111.172C345.545 110.353 345.156 109.36 345.073 108.32C344.81 107.311 344.857 106.247 345.208 105.266C345.438 106.236 345.588 107.224 345.655 108.219C345.914 109.187 346.093 110.175 346.192 111.172Z" fill="#FAFAFA"/>
<path d="M364.886 150.407C363.691 150.092 362.557 149.582 361.529 148.896C360.415 148.39 359.388 147.711 358.487 146.883C359.679 147.203 360.812 147.713 361.843 148.393C362.953 148.907 363.978 149.586 364.886 150.407Z" fill="#FAFAFA"/>
<path d="M375.681 131.77C373.846 133.967 371.715 135.898 369.349 137.508C370.198 136.35 371.199 135.312 372.325 134.421C373.318 133.388 374.447 132.496 375.681 131.77Z" fill="#FAFAFA"/>
<g opacity="0.3">
<path d="M369.069 131.422C369.612 135.322 371.351 138.957 374.048 141.826C376.844 144.555 381.174 145.931 384.81 144.511C385.207 144.401 385.572 144.198 385.874 143.917C386.176 143.637 386.405 143.288 386.544 142.9C386.605 142.423 386.499 141.939 386.244 141.531C385.989 141.123 385.601 140.816 385.145 140.662C384.239 140.371 383.289 140.235 382.337 140.26C379.624 140.082 377.002 139.213 374.719 137.737C372.436 136.261 370.569 134.226 369.293 131.825" fill="black"/>
</g>
<path d="M383.613 140.441C383.613 140.441 383.355 140.53 382.863 140.575C382.171 140.645 381.474 140.645 380.782 140.575C379.755 140.454 378.745 140.214 377.773 139.859C375.375 138.996 373.245 137.519 371.598 135.574C370.929 134.786 370.355 133.923 369.886 133.001C369.557 132.387 369.298 131.738 369.114 131.066C369.024 130.826 368.975 130.573 368.969 130.316C369.081 130.316 369.383 131.323 370.244 132.8C370.748 133.661 371.337 134.471 372 135.216C372.823 136.123 373.742 136.937 374.741 137.644C375.751 138.328 376.831 138.902 377.963 139.355C378.892 139.721 379.855 139.991 380.838 140.161C382.527 140.407 383.613 140.329 383.613 140.441Z" fill="#263238"/>
<path d="M322.028 158.472L338.227 156.581L349.649 164.066L393.278 153.595L394.307 123.703L413.694 121.152V157.342C413.586 161.736 411.74 165.907 408.56 168.941C405.381 171.976 401.129 173.626 396.735 173.53L332.79 171.751L330.072 166.314L316.345 165.9L322.028 158.472Z" fill="#FFBE9D"/>
<path d="M392.764 153.539C392.495 153.646 392.218 153.732 391.936 153.796L389.564 154.412L380.805 156.582L351.853 163.596L349.157 164.245H349.045H348.955L337.545 156.739H337.701L321.491 158.618L321.603 158.551L317.307 163.999L316.189 165.431C316.064 165.602 315.922 165.76 315.764 165.901C315.868 165.718 315.983 165.542 316.11 165.375L317.229 163.898L321.391 158.372H321.458L337.645 156.347H337.735H337.802L349.235 163.82H349.034L351.73 163.171L380.715 156.302L389.519 154.277L391.913 153.752C392.191 153.659 392.475 153.588 392.764 153.539Z" fill="#EB996E"/>
<path d="M330.877 163.114C328.787 163.358 326.682 163.441 324.579 163.36H323.46L323.617 163.304C322.351 164.467 320.985 165.516 319.534 166.436C320.687 165.163 321.944 163.988 323.292 162.924L323.36 162.857H324.601C326.697 162.77 328.796 162.856 330.877 163.114Z" fill="#EB996E"/>
<path d="M400.807 158.427C399.973 157.111 398.89 155.971 397.619 155.071C396.27 154.309 394.783 153.822 393.245 153.639C393.697 153.482 394.182 153.444 394.654 153.527C395.797 153.648 396.896 154.031 397.866 154.646C398.836 155.261 399.651 156.092 400.248 157.074C400.55 157.468 400.742 157.935 400.807 158.427Z" fill="#EB996E"/>
<path d="M121.032 397.406H47.9809V407.441H121.032V397.406Z" fill="#263238"/>
<path d="M121.155 407.577H47.8579V397.285H121.155V407.577ZM48.104 407.32H120.909V397.531H48.104V407.32Z" fill="#263238"/>
<path d="M54.7602 404.109L65.2648 455.983H104.173L114.342 407.454L54.7602 404.109Z" fill="#263238"/>
<path d="M54.7602 451.07L60.3649 458.789H107.652L114.342 451.07H54.7602Z" fill="#455A64"/>
<path d="M81.7656 405.618C81.6201 405.618 81.4411 381.588 81.3516 351.92C81.2622 322.252 81.3516 298.223 81.4635 298.223C81.5754 298.223 81.7879 322.252 81.8774 351.92C81.9669 381.588 81.911 405.618 81.7656 405.618Z" fill="#263238"/>
<path d="M98.0426 345.477C97.9939 345.669 97.9265 345.856 97.8413 346.036C97.6735 346.45 97.4497 346.964 97.1924 347.591C97.047 347.938 96.8904 348.307 96.7114 348.71C96.5324 349.112 96.3981 349.593 96.2303 350.074L95.6598 351.641C95.4696 352.2 95.313 352.759 95.1228 353.43C94.2549 356.368 93.5711 359.357 93.0756 362.38C92.5142 366.088 92.1408 369.822 91.9569 373.567C91.6928 380.382 91.8871 387.206 92.5386 393.994C92.7736 396.612 93.0085 398.715 93.1875 400.17C93.2546 400.852 93.3217 401.411 93.3665 401.848C93.3815 402.045 93.3815 402.243 93.3665 402.441C93.2959 402.254 93.2508 402.058 93.2322 401.859C93.1539 401.423 93.0644 400.874 92.9525 400.203C92.7176 398.749 92.4156 396.646 92.1359 394.039C91.3751 387.236 91.132 380.385 91.4087 373.545C91.5747 369.779 91.9481 366.026 92.5274 362.302C93.0448 359.272 93.7699 356.282 94.6977 353.352C94.8991 352.726 95.0669 352.122 95.2682 351.573L95.8723 350.007L96.4093 348.654C96.5883 348.24 96.7673 347.882 96.9239 347.535L97.6734 346.014C97.7672 345.816 97.8918 345.635 98.0426 345.477Z" fill="#263238"/>
<path d="M96.1744 326.043C96.1125 326.312 96.0341 326.578 95.9395 326.837C95.7493 327.385 95.492 328.135 95.1788 329.075L94.6194 330.686C94.4404 331.29 94.2391 331.938 94.0265 332.632C93.6014 334.019 93.1092 335.597 92.6729 337.375L91.9345 340.161C91.7108 341.134 91.4871 342.152 91.2521 343.193C90.7375 345.285 90.3684 347.556 89.8985 349.905C89.0931 354.67 88.3883 359.973 87.896 365.511C87.4038 371.048 87.236 376.407 87.1689 381.251C87.1018 386.095 87.1689 390.458 87.415 394.116C87.471 395.95 87.594 397.595 87.6835 399.049C87.773 400.503 87.8625 401.756 87.952 402.774C88.0415 403.792 88.0862 404.542 88.131 405.135C88.1459 405.407 88.1459 405.679 88.131 405.952C88.0591 405.688 88.0142 405.418 87.9967 405.146C87.9296 404.553 87.8401 403.781 87.7171 402.797C87.594 401.812 87.4709 400.559 87.3591 399.072C87.2472 397.584 87.1018 395.973 87.0123 394.138C86.7662 390.469 86.6655 386.106 86.6543 381.251C86.6431 376.396 86.878 371.059 87.3479 365.477C87.8178 359.895 88.5673 354.603 89.3951 349.815C89.8762 347.432 90.2677 345.162 90.7935 343.103C91.0396 342.052 91.2857 341.034 91.5095 340.06L92.2814 337.286C92.74 335.507 93.2658 333.93 93.7245 332.543C93.9482 331.849 94.1608 331.211 94.3509 330.607C94.5411 330.003 94.7649 329.489 94.955 329.008L95.8052 326.77C95.9006 326.515 96.0244 326.271 96.1744 326.043Z" fill="#263238"/>
<path d="M77.1454 409.869C77.1337 409.776 77.1337 409.682 77.1454 409.59C77.1454 409.377 77.1453 409.109 77.0782 408.762C77.0223 408.001 76.9552 406.938 76.8657 405.585C76.6867 402.777 76.4406 398.794 76.1273 393.872C75.5009 383.994 74.5835 370.379 72.9167 355.333C72.0665 347.815 71.082 340.689 70.0528 334.223C69.5158 331.001 69.0236 327.936 68.4531 325.072C67.8825 322.208 67.3344 319.557 66.8869 317.129C66.4394 314.702 65.8689 312.531 65.4326 310.618C64.9963 308.705 64.6048 307.05 64.3139 305.707C64.023 304.365 63.7434 303.358 63.5532 302.609C63.4861 302.284 63.4189 302.016 63.3742 301.803C63.3569 301.711 63.3569 301.616 63.3742 301.523C63.4203 301.608 63.4541 301.698 63.4749 301.792L63.6986 302.586C63.9112 303.325 64.1908 304.354 64.56 305.663C64.9292 306.972 65.3655 308.627 65.8241 310.551C66.2828 312.475 66.8421 314.635 67.3456 317.062C67.849 319.49 68.4643 322.13 68.9789 324.994C69.4935 327.858 70.0976 330.923 70.6345 334.156C71.6861 340.622 72.6817 347.759 73.532 355.266C75.1988 370.301 76.0602 383.96 76.5972 393.85C76.8657 398.805 77.0559 402.799 77.1677 405.573C77.1677 406.927 77.2572 407.99 77.2796 408.762C77.2796 409.097 77.2796 409.377 77.2796 409.59C77.2491 409.689 77.2038 409.783 77.1454 409.869Z" fill="#263238"/>
<path d="M81.1726 309.847C80.8482 306.491 77.4138 303.873 73.9906 303.84C72.2784 303.915 70.6059 304.379 69.0998 305.197C67.5938 306.015 66.2937 307.166 65.2983 308.561C63.3292 311.369 61.9061 314.523 61.1032 317.857C58.7987 325.878 57.5458 334.302 58.5302 342.591C59.5147 350.881 62.8708 359.036 68.8222 364.887C69.7843 365.849 71.0596 366.8 72.3685 366.509C73.0768 366.303 73.7201 365.917 74.2367 365.391C80.0618 360.057 84.6786 353.54 87.7773 346.275C90.8761 339.011 92.3851 331.167 92.203 323.272C92.1135 320.128 91.6996 316.839 89.9656 314.221C88.2316 311.604 84.1484 308.807 81.1838 309.858" fill="#ECE2B2"/>
<path d="M55.6328 282.551L50.8224 291.277C50.7105 291.478 50.5651 291.713 50.3302 291.724C50.0952 291.735 49.8827 291.512 49.7484 291.299L37.0177 271.811L39.9487 270.145L55.6328 282.551Z" fill="#ECE2B2"/>
<g opacity="0.2">
<path d="M55.6329 282.551L50.8225 291.277C50.7106 291.478 50.5652 291.713 50.3303 291.724C50.0954 291.735 49.8828 291.512 49.7486 291.299L37.0178 271.811L39.9488 270.145L55.6329 282.551Z" fill="black"/>
</g>
<path d="M81.4635 298.267L38.0357 272.638C37.7885 272.543 37.5625 272.401 37.3705 272.218C37.1785 272.036 37.0244 271.817 36.917 271.575C36.7492 270.938 37.2302 270.311 37.6889 269.83C40.6771 266.734 44.2969 264.317 48.3024 262.743C52.3078 261.17 56.605 260.478 60.9019 260.713C65.197 261.022 69.3523 262.372 73.0088 264.647C76.6653 266.921 79.713 270.052 81.8886 273.768C86.0726 281.252 86.218 291.164 81.4076 298.267" fill="#ECE2B2"/>
<path d="M44.3451 264.461C44.5308 264.41 44.7232 264.387 44.9157 264.394C45.2848 264.394 45.8442 264.304 46.5602 264.315C48.5765 264.288 50.5911 264.446 52.5788 264.785C55.54 265.293 58.4262 266.169 61.1703 267.392C65.9065 269.523 70.1127 272.675 73.4876 276.622C76.8626 280.57 79.3226 285.215 80.6916 290.225C81.252 292.168 81.6266 294.161 81.8103 296.176C81.8998 296.881 81.8774 297.44 81.8998 297.82C81.9191 298.01 81.9191 298.201 81.8998 298.391C81.8998 298.391 81.7991 297.608 81.6201 296.154C81.3724 294.166 80.9646 292.202 80.4008 290.28C78.5796 283.904 75.0075 278.165 70.0897 273.716C65.1719 269.267 59.1054 266.285 52.5788 265.11C50.6118 264.736 48.6176 264.523 46.6161 264.472C45.0835 264.483 44.3451 264.506 44.3451 264.461Z" fill="#263238"/>
<path d="M75.5792 280.582C74.8792 281.009 74.1272 281.343 73.3418 281.578C71.9546 282.126 69.9857 282.819 67.8602 283.513C65.7346 284.207 63.721 284.744 62.2667 285.102C61.495 285.337 60.6996 285.487 59.895 285.549C60.6106 285.203 61.3605 284.933 62.1324 284.744L67.6588 283.01L73.174 281.231C73.9522 280.936 74.7579 280.718 75.5792 280.582Z" fill="#263238"/>
<path d="M68.7439 262.211C69.1327 263.795 69.3058 265.424 69.2585 267.055C69.3862 268.682 69.2959 270.318 68.99 271.921C68.7803 270.312 68.698 268.688 68.7439 267.066C68.6161 265.45 68.6161 263.827 68.7439 262.211Z" fill="#263238"/>
<path d="M37.633 272.156C38.649 271.69 39.7048 271.315 40.7877 271.037C42.7566 270.422 45.5086 269.65 48.6186 268.912C51.7286 268.173 54.4806 267.614 56.4495 267.256C57.553 267.01 58.676 266.86 59.8056 266.809C58.7436 267.15 57.6597 267.419 56.5613 267.614C54.5477 268.062 51.7733 268.733 48.7305 269.426C45.6876 270.12 42.9244 270.869 40.8996 271.384C39.829 271.713 38.7377 271.971 37.633 272.156Z" fill="#263238"/>
<path d="M61.4388 301.768C57.7024 298.937 53.7534 298.412 49.0661 298.557C44.378 298.856 39.787 300.028 35.5298 302.014C28.2023 305.213 21.3224 309.945 16.9483 316.635C12.5741 323.325 11.0415 332.185 14.3193 339.479C14.5772 340.242 15.1068 340.883 15.8072 341.28C16.6208 341.507 17.4883 341.439 18.2571 341.09C26.5914 338.371 34.9705 335.631 42.6335 331.38C50.2966 327.129 57.2661 321.211 61.3717 313.48C62.4231 311.676 63.1003 309.679 63.363 307.607C63.475 306.559 63.3624 305.499 63.0325 304.498C62.7026 303.497 62.1632 302.578 61.45 301.801" fill="#ECE2B2"/>
<path d="M61.5059 300.895C61.3194 301.001 61.1202 301.084 60.913 301.141L59.1679 301.745L57.9037 302.159C57.4451 302.326 56.9529 302.528 56.4271 302.74C55.3755 303.165 54.1897 303.591 52.8584 304.217L50.8224 305.146C50.1064 305.47 49.4016 305.873 48.6521 306.264C47.1419 307.003 45.6204 307.954 43.9871 308.916C37.011 313.24 30.8032 318.696 25.6181 325.058C24.4994 326.546 23.3248 327.945 22.3963 329.354C21.9152 330.048 21.4342 330.697 21.0091 331.357L19.8904 333.258C19.1073 334.455 18.5256 335.619 17.9662 336.615C17.6978 337.107 17.4293 337.565 17.2055 338.002C16.9818 338.438 16.8028 338.83 16.635 339.199L15.8072 340.854C15.7292 341.054 15.6238 341.243 15.4939 341.414C15.5484 341.206 15.6234 341.003 15.7177 340.81L16.4448 339.109C16.6126 338.74 16.7916 338.337 16.9818 337.89C17.172 337.442 17.4516 336.984 17.7089 336.48C18.2459 335.462 18.8276 334.243 19.566 333.068C19.9463 332.453 20.3267 331.804 20.6847 331.133C21.0427 330.462 21.5796 329.813 22.0495 329.108C22.9668 327.676 24.0967 326.267 25.249 324.756C27.8562 321.551 30.7142 318.559 33.7958 315.807C36.9117 313.1 40.2414 310.65 43.7522 308.479C45.3967 307.517 46.9405 306.578 48.4619 305.85C49.2227 305.47 49.9386 305.078 50.6993 304.732L52.7689 303.837C54.0778 303.221 55.3084 302.819 56.3823 302.416C56.9193 302.226 57.4115 302.036 57.8814 301.879L59.1567 301.499L60.9354 300.995C61.1229 300.948 61.3135 300.914 61.5059 300.895Z" fill="#263238"/>
<path d="M32.3304 316.691C29.3561 317.824 26.3239 318.799 23.2465 319.611C20.2154 320.597 17.1302 321.407 14.0061 322.039C16.9803 320.906 20.0125 319.931 23.0899 319.119C26.1229 318.14 29.2077 317.329 32.3304 316.691Z" fill="#263238"/>
<path d="M31.95 336.695C31.7974 335.759 31.73 334.812 31.7486 333.865C31.7486 332.119 31.7486 329.692 31.7486 327.029C31.7486 324.367 31.9724 321.939 32.1178 320.194C32.1405 319.245 32.2605 318.3 32.4758 317.375C32.5511 318.321 32.5511 319.271 32.4758 320.216C32.4086 322.129 32.3415 324.456 32.2632 327.041C32.1849 329.625 32.1402 331.952 32.0842 333.865C32.1261 334.81 32.0811 335.758 31.95 336.695Z" fill="#263238"/>
<path d="M49.1332 327.99C48.9877 327.99 48.5291 323.079 48.1151 317.004C47.7012 310.93 47.4663 305.996 47.6117 305.996C47.7572 305.996 48.2046 310.896 48.6297 316.971C49.0548 323.045 49.2786 327.979 49.1332 327.99Z" fill="#263238"/>
<path d="M27.7549 305.516C28.7194 305.394 29.6933 305.364 30.6635 305.426C32.4534 305.426 34.9369 305.493 37.6777 305.583C40.4185 305.672 42.8909 305.784 44.6808 305.885C45.6527 305.897 46.6218 305.991 47.5782 306.164C46.6137 306.286 45.6398 306.316 44.6696 306.254C42.8797 306.254 40.3962 306.198 37.6553 306.097C34.9145 305.997 32.4422 305.896 30.6411 305.795C29.6728 305.784 28.7073 305.691 27.7549 305.516Z" fill="#263238"/>
<path d="M70.6905 367.212C70.6407 367.014 70.6181 366.811 70.6234 366.608C70.6234 366.171 70.6234 365.601 70.545 364.907C70.4779 363.419 70.4667 361.283 70.545 358.62C70.6234 355.958 70.7688 352.814 71.082 349.324C71.3953 345.833 71.9099 341.996 72.6146 338.002C73.3194 334.009 74.192 330.261 75.0758 326.815C75.9595 323.37 76.9216 320.405 77.7942 317.866C78.6668 315.326 79.4051 313.391 80.0316 311.982C80.3001 311.333 80.5127 310.863 80.6916 310.404C80.7602 310.217 80.8464 310.038 80.9489 309.867C80.9244 310.065 80.8677 310.258 80.7811 310.438L80.1435 312.082C79.6289 313.469 78.9241 315.438 78.1074 318.011C77.2908 320.584 76.3958 323.605 75.5121 326.961C74.6283 330.317 73.8005 334.098 73.0845 338.081C72.3685 342.063 71.8875 345.912 71.5295 349.346C71.1715 352.78 70.9702 355.969 70.8807 358.609C70.7912 361.249 70.7352 363.397 70.7352 364.885C70.7352 365.578 70.7352 366.138 70.7352 366.585C70.735 366.795 70.7201 367.004 70.6905 367.212Z" fill="#263238"/>
<path d="M72.9726 337.578C72.4648 338.273 71.8834 338.91 71.2386 339.48C70.1199 340.599 68.5202 342.098 66.7079 343.697C64.8956 345.297 63.184 346.673 61.9199 347.646C61.2733 348.209 60.5682 348.7 59.8167 349.112C60.3861 348.468 61.0154 347.88 61.6961 347.356L66.3611 343.306L70.9925 339.211C71.5991 338.605 72.2621 338.058 72.9726 337.578Z" fill="#263238"/>
<path d="M86.7214 348.642C86.041 347.841 85.4239 346.988 84.8755 346.092L80.5909 339.827L76.2056 333.629C75.5553 332.802 74.9682 331.927 74.4493 331.012C75.2064 331.743 75.8919 332.544 76.4965 333.406C77.7047 334.938 79.3156 337.086 80.9713 339.536C82.627 341.986 84.126 344.235 85.144 345.89C85.7548 346.756 86.2829 347.678 86.7214 348.642Z" fill="#263238"/>
<path d="M79.517 313.816C79.5953 313.939 75.0422 317.015 69.3257 320.684C63.6091 324.354 58.9218 327.24 58.8435 327.117C58.7651 326.994 63.3182 323.917 69.046 320.248C74.7737 316.579 79.4499 313.704 79.517 313.816Z" fill="#263238"/>
<path d="M92.4491 327.744C90.0384 325.737 87.7344 323.605 85.5468 321.357C83.2432 319.242 81.0584 317.001 79.0024 314.645C81.4217 316.646 83.7297 318.778 85.9159 321.032C88.2209 323.142 90.4023 325.383 92.4491 327.744Z" fill="#263238"/>
<path d="M95.6374 327.444L99.5529 327.119C102.337 326.891 105.039 326.063 107.473 324.692C108.664 323.998 109.897 323.377 111.165 322.835C116.009 320.899 121.423 321.246 126.637 320.978C135.178 320.547 143.547 318.41 151.248 314.691C151.71 314.486 152.1 314.147 152.367 313.717C153.172 312.252 151.673 310.943 150.386 310.149C143.775 306.077 137.052 301.96 129.568 299.935C122.083 297.91 113.57 298.257 107.194 302.653C99.6983 307.822 96.9575 318.427 95.6933 327.444" fill="#ECE2B2"/>
<path d="M152.4 313.2C152.175 313.108 151.954 313.003 151.74 312.887L149.883 311.914C148.272 311.064 145.956 309.811 143.014 308.412C139.607 306.729 136.053 305.359 132.398 304.318C127.928 303.033 123.246 302.652 118.627 303.199C114.001 303.714 109.632 305.59 106.075 308.591C103.296 311.173 101.073 314.295 99.5417 317.765C98.1657 320.707 97.3043 323.213 96.7002 324.913L95.9954 326.893C95.9261 327.128 95.8362 327.357 95.7269 327.576C95.7591 327.332 95.8153 327.092 95.8947 326.86C96.0514 326.356 96.2527 325.685 96.4988 324.857C97.2454 322.413 98.1344 320.015 99.1613 317.675C100.669 314.124 102.902 310.927 105.717 308.289C109.324 305.182 113.784 303.233 118.515 302.696C123.197 302.13 127.944 302.51 132.476 303.815C136.152 304.894 139.721 306.309 143.137 308.043C146.057 309.498 148.35 310.795 149.939 311.701L151.751 312.764C151.985 312.882 152.203 313.028 152.4 313.2Z" fill="#263238"/>
<path d="M142.992 318.29C142.914 318.402 137.779 315.091 131.536 310.884C125.294 306.678 120.294 303.165 120.349 303.054C120.405 302.942 125.551 306.253 131.794 310.459C138.036 314.666 143.07 318.167 142.992 318.29Z" fill="#263238"/>
<path d="M138.07 302.554C135.457 303.376 132.7 303.631 129.981 303.304C131.311 303.027 132.662 302.87 134.02 302.834C135.359 302.624 136.714 302.531 138.07 302.554Z" fill="#263238"/>
<path d="M115.08 298.434C114.102 300.749 112.819 302.924 111.266 304.9C111.666 303.708 112.231 302.579 112.944 301.544C113.505 300.411 114.224 299.364 115.08 298.434Z" fill="#263238"/>
<path d="M119.667 321.312C118.802 320.951 117.977 320.501 117.206 319.969C115.718 319.074 113.716 317.732 111.612 316.199C109.509 314.667 107.596 313.179 106.231 312.105C105.467 311.565 104.756 310.954 104.106 310.281C104.937 310.714 105.724 311.228 106.455 311.814L111.926 315.785C114.051 317.329 116.009 318.683 117.441 319.667C118.229 320.149 118.974 320.7 119.667 321.312Z" fill="#263238"/>
<path d="M101.399 344.102C97.6623 343.106 93.1987 346.742 92.4491 350.534C91.6996 354.327 93.1092 358.197 94.7648 361.721C98.3277 369.546 103.613 376.464 110.225 381.958C116.895 387.428 125.217 390.483 133.841 390.628C132.264 383.29 134.255 375.615 133.382 368.154C132.603 361.581 129.617 355.468 124.913 350.813C120.209 346.157 114.064 343.235 107.484 342.524C105.102 342.267 102.338 341.898 101.388 344.102" fill="#ECE2B2"/>
<path d="M133.841 390.627C133.653 390.564 133.473 390.482 133.304 390.38C132.814 390.104 132.347 389.79 131.906 389.441C130.339 388.077 129.08 386.395 128.214 384.507C127.621 383.389 126.95 382.091 126.301 380.693C125.652 379.294 125.003 377.817 124.287 376.218C123.57 374.58 122.744 372.991 121.815 371.463C120.819 369.834 119.697 368.286 118.459 366.832C115.908 363.834 113.156 361.238 110.773 358.744C108.619 356.573 106.658 354.218 104.911 351.707C103.742 350.005 102.78 348.168 102.048 346.237C101.813 345.554 101.634 345.006 101.544 344.637C101.482 344.452 101.445 344.261 101.432 344.066C101.432 344.066 101.69 344.827 102.238 346.17C103.036 348.05 104.033 349.839 105.213 351.506C106.993 353.962 108.968 356.27 111.12 358.408C113.514 360.869 116.277 363.465 118.862 366.496C120.128 367.97 121.276 369.541 122.296 371.195C123.221 372.748 124.047 374.359 124.768 376.016L126.737 380.491C127.364 381.878 128.013 383.154 128.594 384.306C129.411 386.177 130.598 387.863 132.085 389.262C133.159 390.224 133.897 390.582 133.841 390.627Z" fill="#263238"/>
<path d="M114.521 384.53C114.543 383.681 114.66 382.837 114.868 382.013C115.159 380.469 115.64 378.355 116.289 376.05C116.937 373.746 117.631 371.699 118.19 370.233C118.435 369.42 118.777 368.638 119.208 367.906C119.057 368.737 118.833 369.554 118.537 370.345C118.067 371.844 117.418 373.902 116.792 376.196C116.165 378.489 115.673 380.57 115.226 382.091C115.072 382.925 114.836 383.742 114.521 384.53Z" fill="#263238"/>
<path d="M133.159 366.507C132.263 366.375 131.38 366.17 130.518 365.892C128.907 365.478 126.681 364.896 124.209 364.337C121.737 363.777 119.477 363.352 117.844 363.039C116.948 362.924 116.064 362.729 115.203 362.457C116.108 362.434 117.012 362.509 117.9 362.681C119.555 362.893 121.837 363.274 124.321 363.8C126.804 364.325 129.031 364.997 130.619 365.511C131.498 365.754 132.349 366.088 133.159 366.507Z" fill="#263238"/>
<path d="M100.649 371.743C100.691 370.759 100.826 369.782 101.052 368.823C101.388 367.044 101.902 364.583 102.607 361.91C103.312 359.236 104.05 356.831 104.632 355.108C104.919 354.162 105.293 353.244 105.75 352.367C105.588 353.336 105.349 354.289 105.034 355.22C104.542 356.965 103.849 359.37 103.155 362.033C102.461 364.695 101.88 367.145 101.466 368.902C101.275 369.87 101.002 370.821 100.649 371.743Z" fill="#263238"/>
<path d="M124.578 350.801C124.578 350.936 119.891 350.567 114.152 349.951C108.413 349.336 103.759 348.732 103.782 348.598C107.269 348.698 110.749 348.978 114.208 349.437C117.686 349.715 121.147 350.17 124.578 350.801Z" fill="#263238"/>
<path d="M121.155 407.406C121.155 407.551 104.744 407.663 84.5064 407.663C64.2691 407.663 47.8579 407.551 47.8579 407.406C47.8579 407.26 64.2691 407.148 84.5064 407.148C104.744 407.148 121.155 407.26 121.155 407.406Z" fill="#455A64"/>
<path d="M109.744 428.519C109.744 428.664 98.6803 428.788 85.0434 428.788C71.4065 428.788 60.3537 428.664 60.3537 428.519C60.3537 428.374 71.4065 428.262 85.0434 428.262C98.6803 428.262 109.744 428.43 109.744 428.519Z" fill="#455A64"/>
<path d="M110.169 431.539C110.169 431.684 99.1166 431.796 85.4796 431.796C71.8427 431.796 60.79 431.684 60.79 431.539C60.79 431.393 71.8427 431.281 85.4796 431.281C99.1166 431.281 110.169 431.393 110.169 431.539Z" fill="#455A64"/>
<path d="M110.169 426.035C110.169 426.18 98.7362 426.292 84.6294 426.292C70.5227 426.292 59.0896 426.18 59.0896 426.035C59.0896 425.889 70.5227 425.777 84.6294 425.777C98.7362 425.777 110.169 425.889 110.169 426.035Z" fill="#455A64"/>
</svg>
